<?xml version="1.0" standalone="no"?><!DOCTYPE svg PUBLIC "-//W3C//DTD SVG 1.1//EN" "http://www.w3.org/Graphics/SVG/1.1/DTD/svg11.dtd"><svg xmlns="http://www.w3.org/2000/svg" version="1.1" width="332px" height="127.7px" viewBox="0 -15 332 127.7" style="top:-15px"><desc>Nationale Moslim Enquete 2023 Rapportage Interactieve Infographic</desc><defs/><g id="Polygon18405"><path d="m43.1 88.6c-.6 0-1.3 0-2 .1c-.8.1-1.6.2-2.5.4c0-.05-.2.7-.2.7l1.6.3l-1.5 9.6l-1.7.4l-.2.7h5.3l.3-.8l-1.8-.4l.6-4h1.7s1.12 2.77 1.1 2.8c.4.8.8 1.5 1.3 1.9c.4.5 1 .7 1.8.7c.4 0 .8 0 1.2-.1c-.02-.04.2-.7.2-.7c0 0-.27-.12-.3-.1c-.3-.2-.7-.3-.9-.5c-.3-.2-.5-.5-.7-.8c-.2-.3-.5-.7-.8-1.4c-.02.04-1.4-2.4-1.4-2.4c0 0 .01-.01 0 0c.7-.3 1.3-.6 1.8-.9c.5-.4.9-.9 1.1-1.3c.2-.5.4-1 .4-1.5c0-.9-.4-1.6-1.2-2c-.7-.5-1.8-.7-3.2-.7zm-1.1.9s.2 0 .4-.1h.8c.7 0 1.3.2 1.7.6c.4.4.6.9.6 1.6c0 .6-.2 1.1-.4 1.6c-.3.4-.6.8-1.1 1.1c-.4.3-.8.4-1.3.4h-1.6s.87-5.23.9-5.2zm14 3.2c-.3-.3-1-.5-2-.5c-.7 0-1.5.2-2.3.7c-.8.5-1.4 1.2-1.9 2.1c-.5.9-.8 2-.8 3.2c0 .5.1 1.1.3 1.5c.1.4.4.8.6 1c.3.2.7.3 1.1.3c.5 0 .9-.1 1.3-.4c.4-.3.8-.6 1-1h.1v.3c0 .4.1.6.3.8c.2.2.5.3.9.3c.5 0 .9-.1 1.5-.3l.2-.7l-.8-.1c-.1 0-.3-.1-.3-.2c-.1-.1-.1-.3-.1-.6c0-.4 0-1 .2-2l.7-4.4zm-2.5 6.2c-.3.3-.6.5-.8.7c-.3.1-.6.2-.9.2c-.4 0-.7-.2-.9-.5c-.2-.3-.3-.9-.3-1.6c0-.7.1-1.4.3-2.1c.2-.7.5-1.3.9-1.7c.4-.5.8-.7 1.3-.7c.6 0 1 .1 1.2.4l-.8 5.3s-.04-.02 0 0zm6.5-4.4c.4-.4.7-.6.9-.7c.3-.2.6-.2.9-.2c.3 0 .5.1.8.3c.2.2.4.5.5.8c.1.4.2.9.2 1.4c0 .9-.1 1.6-.4 2.2c-.3.6-.6 1-1 1.3c-.4.2-.7.4-1.1.4c-.3 0-.6 0-.7-.1c-.2 0-.3-.1-.5-.2l-.2 1.2c.1.1.4.1.8.1c.8 0 1.5-.2 2.3-.8c.7-.5 1.3-1.1 1.8-2c.4-.8.7-1.7.7-2.7c0-.7-.1-1.3-.4-1.8c-.2-.5-.4-.9-.8-1.1c-.3-.3-.7-.5-1.2-.5c-.3 0-.7.1-1 .3l-.9.6c-.2.3-.4.5-.6.8h-.1v-.6c0-.3-.1-.5-.2-.7c-.2-.1-.6-.2-1-.2c-.6 0-1.1.1-1.5.3c-.03.05-.1.8-.1.8c0 0 .39.02.4 0c.3 0 .5.1.6.1c.2.1.3.3.3.5v.2c-.04.05-1.5 10.2-1.5 10.2h1.5l1.5-9.9zm8.9 0c.3-.4.6-.6.8-.7c.3-.2.6-.2 1-.2c.2 0 .5.1.7.3c.2.2.4.5.5.8c.2.4.2.9.2 1.4c0 .9-.1 1.6-.4 2.2c-.2.6-.6 1-.9 1.3c-.4.2-.8.4-1.1.4c-.4 0-.6 0-.8-.1c-.1 0-.3-.1-.5-.2l-.2 1.2c.2.1.5.1.8.1c.8 0 1.6-.2 2.3-.8c.7-.5 1.3-1.1 1.8-2c.5-.8.7-1.7.7-2.7c0-.7-.1-1.3-.3-1.8c-.2-.5-.5-.9-.9-1.1c-.3-.3-.7-.5-1.2-.5c-.3 0-.6.1-1 .3c-.3.2-.6.4-.8.6c-.3.3-.5.5-.7.8h-.1c.1-.3.1-.5.1-.6c0-.3-.1-.5-.3-.7c-.2-.1-.5-.2-1-.2c-.6 0-1.1.1-1.5.3c.01.05-.1.8-.1.8c0 0 .43.02.4 0c.3 0 .5.1.7.1c.1.1.2.3.2.5v.2l-1.5 10.2h1.6s1.45-9.92 1.5-9.9zm12.9 1.3c0-.6-.1-1.2-.3-1.8c-.2-.6-.5-1-.9-1.4c-.5-.3-1-.5-1.6-.5c-.8 0-1.6.3-2.2.8c-.7.5-1.2 1.1-1.6 1.9c-.4.9-.6 1.7-.6 2.7c0 .6.1 1.3.3 1.8c.2.6.6 1 1 1.3c.4.3.9.5 1.5.5c.8 0 1.6-.3 2.3-.8c.6-.5 1.2-1.1 1.5-2c.4-.8.6-1.6.6-2.5zM78 99.9c-.3 0-.6-.1-.9-.3c-.3-.2-.5-.5-.7-1c-.1-.4-.2-.9-.2-1.5c0-.9.1-1.5.3-2.1c.1-.6.4-1 .7-1.3c.3-.3.6-.4 1-.4c.7 0 1.2.3 1.5.8c.3.6.5 1.3.5 2.1c0 1.2-.2 2.1-.6 2.7c-.4.7-.9 1-1.6 1zm7.6-4c.3-.5.6-.9.9-1.3c.3-.4.7-.6 1.1-.6c.1 0 .3 0 .4.1c.2 0 .3.1.4.2c.2-.1.3-.3.4-.6c.1-.2.2-.4.2-.6c0-.3-.1-.5-.3-.7c-.2-.2-.4-.3-.7-.3c-.3 0-.6.2-.9.4c-.3.3-.5.7-.8 1.1c-.2.4-.4.9-.6 1.3h-.1s.26-1.11.3-1.1v-.6c0-.4-.1-.6-.3-.8c-.2-.2-.6-.3-1-.3c-.6 0-1.1.1-1.5.3c-.03.03-.1.8-.1.8h.4c.3 0 .5 0 .6.1c.2.1.3.3.3.5v.2c-.04.03-.9 6.8-.9 6.8h1.6s.65-4.92.6-4.9zm5.5 1.6c-.1.4-.1.8-.1 1c0 .4.1.7.3.9c.1.2.5.2.9.2c.3 0 .7-.1 1-.3l.1.5c-.2.4-.6.7-.9.9c-.4.2-.8.3-1.3.3c-.6 0-1-.1-1.3-.4c-.2-.4-.4-.8-.4-1.5c0-.3.1-.6.1-1.1c.04.02.8-4.6.8-4.6h-1l.1-1h1l.3-2.1h1.5l-.3 2.1h2.2l-.2 1h-2.1l-.7 4.1zm10.3-4.8c-.2-.3-.9-.5-1.9-.5c-.8 0-1.6.2-2.3.7c-.8.5-1.4 1.2-1.9 2.1c-.6.9-.8 2-.8 3.2c0 .5.1 1.1.2 1.5c.2.4.4.8.7 1c.3.2.7.3 1 .3c.5 0 1-.1 1.4-.4c.4-.3.7-.6 1-1h.1c-.1.1-.1.2-.1.3c0 .4.1.6.4.8c.2.2.5.3.9.3c.4 0 .9-.1 1.5-.3c-.03-.01.1-.7.1-.7l-.7-.1c-.2 0-.3-.1-.4-.2c-.1-.1-.1-.3-.1-.6c0-.4.1-1 .2-2l.7-4.4zm-2.5 6.2c-.2.3-.5.5-.8.7c-.2.1-.5.2-.9.2c-.4 0-.6-.2-.8-.5c-.2-.3-.3-.9-.3-1.6c0-.7.1-1.4.3-2.1c.2-.7.5-1.3.9-1.7c.4-.5.8-.7 1.3-.7c.5 0 .9.1 1.2.4c-.04-.05-.9 5.3-.9 5.3c0 0 .02-.02 0 0zm4.8-.2c0-.2.1-.4.3-.5c.1-.2.3-.3.5-.4h.5c.5 0 1-.1 1.5-.4c.5-.3.9-.7 1.3-1.2c.3-.4.4-1 .4-1.5c0-.6 0-.9-.1-1.1v-.1l1.2.4h.1l.5-1.2l-.2-.2l-2 .2c-.3-.4-.8-.6-1.5-.6c-.6 0-1.1.1-1.7.5c-.5.3-1 .8-1.3 1.3c-.4.6-.5 1.1-.5 1.8c0 .2 0 .5.1.8c.2.2.3.5.5.7c.1.2.3.3.4.3l.1.1c-.3.1-.6.2-.8.4c-.3.2-.6.4-.7.6c-.2.2-.3.4-.3.6c0 .4.1.6.2.8c.2.2.4.3.6.4v.1c-.3.1-.6.2-.9.4c-.4.2-.6.5-.8.8c-.2.2-.3.5-.3.9c0 .6.3 1.1.9 1.4c.6.3 1.3.5 2.1.5c.8 0 1.5-.1 2.2-.4c.7-.3 1.3-.6 1.8-1.1c.4-.4.6-.9.6-1.5c0-.6-.1-1.1-.4-1.4c-.3-.3-.7-.6-1.1-.7c-.5-.1-1.1-.2-1.8-.2c-.3 0-.6 0-.8-.1c-.2 0-.3 0-.4-.1c-.1-.1-.2-.2-.2-.3zm2.2-5.9c.3 0 .5.2.7.5c.1.3.2.6.2 1.1c0 .4-.1.9-.2 1.3c-.1.4-.3.7-.5 1c-.2.3-.5.4-.9.4c-.3 0-.6-.1-.8-.4c-.2-.4-.2-.7-.2-1.2c0-.4 0-.8.2-1.2c.1-.4.3-.8.6-1.1c.2-.2.5-.4.9-.4zm.9 9.3c0 .3-.1.5-.3.8c-.3.2-.5.4-.9.5c-.3.1-.7.2-1.2.2c-.4 0-.7-.1-1.1-.2c-.3-.1-.6-.3-.8-.5c-.2-.3-.3-.5-.3-.8c0-.2.1-.5.2-.7c.2-.2.4-.3.6-.5c.2-.1.4-.2.5-.3c.8 0 1.4 0 1.8.1c.5 0 .8.2 1.1.4c.2.2.4.6.4 1zm5.1-1c.4 0 .8 0 1.2-.2c.4-.2.8-.4 1.1-.6l.7-.7l-.3-.5c-.2.2-.4.4-.8.5c-.4.2-.8.2-1.3.2c-.5 0-.9-.1-1.1-.5c-.2-.4-.4-.9-.4-1.6c0-.1 0-.3.1-.5c1.2 0 2.2-.2 3-.7c.8-.4 1.2-1.2 1.2-2.4c0-.6-.1-1.1-.4-1.4c-.4-.4-.8-.6-1.3-.6c-.7 0-1.4.3-2.1.9c-.6.5-1.1 1.2-1.5 2.1c-.4.9-.6 1.9-.6 2.9c0 2.1.9 3.1 2.5 3.1zM113 93c.3 0 .5.2.6.4c.2.3.3.6.3 1c0 .5-.1 1-.4 1.3c-.2.3-.5.5-.9.6c-.4.1-.9.1-1.5.2c.1-.9.2-1.6.4-2.1c.2-.5.4-.8.7-1c.2-.3.5-.4.8-.4zm7.1 4l4-.2l.3-1l-4 .2l-.3 1zm14.5 3l-1.7-.3l1.5-9.9l1.8-.4l.2-.7H131l-.2.7l1.8.4l-1.6 9.9l-1.7.4l-.2.7h5.3l.2-.8zm4.4-7.9c-.6 0-1.1.1-1.5.3l-.1.8h.4c.3 0 .5 0 .7.1c.1.1.2.3.2.5v.2c-.02.03-.9 6.8-.9 6.8h1.6l.9-6.4c.3-.3.5-.5.8-.6c.3-.2.6-.2 1-.2c.4 0 .7.1.8.3c.2.2.3.5.3.9c0 .3 0 .6-.1.9l-.5 3.2c-.1.3-.1.6-.1.8c0 .4.1.8.4 1c.2.2.5.3 1 .3c.3 0 .6-.1.8-.1c.3-.1.5-.2.6-.2l.1-.8c-.3 0-.5 0-.7-.1c-.1 0-.3 0-.4-.2c-.1-.1-.1-.2-.1-.5c0-.4 0-1 .2-2l.3-2.2c.1-.4.1-.7.1-1c0-1.2-.5-1.8-1.6-1.8c-.6 0-1.1.2-1.6.5c-.5.4-.9.7-1.2 1.2h-.1c0-.3.1-.5.1-.6c0-.4-.1-.7-.4-.8c-.2-.2-.6-.3-1-.3zm9.2 5.4c0 .4-.1.8-.1 1c0 .4.1.7.3.9c.2.2.5.2.9.2c.4 0 .7-.1 1-.3l.2.5c-.3.4-.6.7-1 .9c-.4.2-.8.3-1.2.3c-.6 0-1-.1-1.3-.4c-.3-.4-.4-.8-.4-1.5c0-.3 0-.6.1-1.1c-.02.02.7-4.6.7-4.6h-1l.1-1h1.1l.3-2.1h1.5l-.4 2.1h2.2l-.2 1h-2.1s-.66 4.05-.7 4.1zm5.8 3.6c.5 0 .9 0 1.3-.2c.4-.2.7-.4 1.1-.6l.7-.7l-.3-.5c-.2.2-.5.4-.8.5c-.4.2-.8.2-1.3.2c-.5 0-.9-.1-1.1-.5c-.3-.4-.4-.9-.4-1.6v-.5c1.2 0 2.3-.2 3.1-.7c.8-.4 1.2-1.2 1.2-2.4c0-.6-.1-1.1-.5-1.4c-.3-.4-.7-.6-1.3-.6c-.7 0-1.3.3-2 .9c-.6.5-1.1 1.2-1.5 2.1c-.4.9-.6 1.9-.6 2.9c0 2.1.8 3.1 2.4 3.1zm1.2-8.1c.2 0 .5.2.6.4c.2.3.3.6.3 1c0 .5-.2 1-.4 1.3c-.3.3-.6.5-1 .6c-.4.1-.8.1-1.4.2c.1-.9.2-1.6.4-2.1c.2-.5.4-.8.6-1c.3-.3.6-.4.9-.4zm6.1 2.9c.2-.5.5-.9.8-1.3c.4-.4.7-.6 1.1-.6c.2 0 .3 0 .5.1c.1 0 .2.1.4.2c.1-.1.3-.3.4-.6c.1-.2.1-.4.1-.6c0-.3-.1-.5-.2-.7c-.2-.2-.4-.3-.7-.3c-.3 0-.7.2-.9.4c-.3.3-.6.7-.8 1.1c-.3.4-.5.9-.6 1.3h-.1l.2-1.1c.1-.3.1-.5.1-.6c0-.4-.1-.6-.4-.8c-.2-.2-.5-.3-1-.3c-.5 0-1 .1-1.5.3c.01.03-.1.8-.1.8h.4c.3 0 .5 0 .7.1c.1.1.2.3.2.5v.2c.01.03-.9 6.8-.9 6.8h1.6s.69-4.92.7-4.9zm10.2-3.2c-.3-.3-1-.5-2-.5c-.7 0-1.5.2-2.3.7c-.7.5-1.4 1.2-1.9 2.1c-.5.9-.8 2-.8 3.2c0 .5.1 1.1.3 1.5c.1.4.4.8.7 1c.3.2.6.3 1 .3c.5 0 .9-.1 1.3-.4c.4-.3.8-.6 1-1h.1v.3c0 .4.1.6.3.8c.2.2.6.3.9.3c.5 0 1-.1 1.5-.3l.2-.7l-.8-.1c-.1 0-.3-.1-.3-.2c-.1-.1-.1-.3-.1-.6c0-.4 0-1 .2-2l.7-4.4zm-2.5 6.2c-.3.3-.6.5-.8.7c-.3.1-.6.2-.9.2c-.4 0-.7-.2-.9-.5c-.2-.3-.3-.9-.3-1.6c0-.7.1-1.4.3-2.1c.2-.7.5-1.3.9-1.7c.4-.5.9-.7 1.3-.7c.6 0 1 .1 1.2.4l-.8 5.3s-.03-.02 0 0zm7.1.9c-.7 0-1.2-.2-1.5-.7c-.3-.4-.5-1.1-.5-2c0-.6.1-1.2.2-1.8c.2-.6.5-1.1.8-1.6c.3-.4.8-.6 1.3-.6c.3 0 .5.1.6.2c.2.2.3.3.4.6l.4.8c.3 0 .6-.1.9-.3c.2-.2.3-.4.3-.7c0-.5-.1-.8-.5-1.1c-.3-.3-.7-.4-1.3-.4c-.8 0-1.5.2-2.3.7c-.7.5-1.3 1.2-1.8 2.1c-.5.8-.7 1.8-.7 2.8c0 .7.1 1.3.4 1.8c.2.5.6.9 1 1.1c.5.3 1 .4 1.6.4c.5 0 1.1-.2 1.6-.4c.6-.3 1-.6 1.4-1l-.3-.6c-.7.5-1.4.7-2 .7zm5.4-2.3c0 .4-.1.8-.1 1c0 .4.1.7.3.9c.2.2.5.2.9.2c.4 0 .7-.1 1-.3l.2.5c-.3.4-.6.7-1 .9c-.4.2-.8.3-1.2.3c-.6 0-1-.1-1.3-.4c-.3-.4-.4-.8-.4-1.5c0-.3 0-.6.1-1.1c-.02.02.7-4.6.7-4.6h-1l.1-1h1.1l.3-2.1h1.5l-.4 2.1h2.2l-.2 1h-2.1s-.65 4.05-.7 4.1zm5.4-8.2c0 .3.1.6.3.8c.2.2.5.3.8.3c.3 0 .6-.1.8-.3c.2-.2.3-.5.3-.8c0-.3-.1-.5-.3-.8c-.2-.2-.4-.3-.7-.3c-.3 0-.5.1-.6.2c-.2.1-.4.2-.5.4c-.1.2-.1.4-.1.5zm-1.2 4c.3 0 .5 0 .7.1c.1.1.2.2.2.5v.2l-.7 4.8v.8c0 .5.1.8.3 1c.2.2.6.3 1.1.3c.2 0 .5 0 .7-.1c.3 0 .5-.1.6-.2l.1-.8h-.7c-.1 0-.3-.1-.4-.2c-.1-.1-.1-.3-.1-.5v-.8c.1-.3.1-.7.2-1.3l.4-3c.1-.3.1-.5.1-.8c0-.3-.1-.6-.3-.8c-.2-.2-.5-.3-1-.3c-.5 0-1 .1-1.5.3c.01.01-.1.8-.1.8c0 0 .44-.02.4 0zm6.5 7.8c.4 0 .8 0 1.2-.2c.4-.2.8-.4 1.1-.6l.7-.7l-.3-.5c-.2.2-.5.4-.8.5c-.4.2-.8.2-1.3.2c-.5 0-.9-.1-1.1-.5c-.3-.4-.4-.9-.4-1.6c0-.1 0-.3.1-.5c1.2 0 2.2-.2 3-.7c.8-.4 1.2-1.2 1.2-2.4c0-.6-.1-1.1-.4-1.4c-.4-.4-.8-.6-1.3-.6c-.8 0-1.4.3-2.1.9c-.6.5-1.1 1.2-1.5 2.1c-.4.9-.6 1.9-.6 2.9c0 2.1.8 3.1 2.5 3.1zm1.1-8.1c.2 0 .5.2.6.4c.2.3.3.6.3 1c0 .5-.1 1-.4 1.3c-.2.3-.6.5-1 .6c-.3.1-.8.1-1.4.2c.1-.9.2-1.6.4-2.1c.2-.5.4-.8.7-1c.2-.3.5-.4.8-.4zm9.2-.9c-.4 0-.8.2-1.2.4l-.1.8c.1-.1.3-.1.4-.1c.2 0 .3 0 .4.1c.1.1.2.2.2.3c0 .7-.1 1.3-.3 1.9c-.1.6-.4 1.2-.6 1.7c-.3.6-.7 1.3-1.2 2.1l-.6-5c-.1-.5-.2-1-.3-1.2c0-.3-.2-.5-.4-.7c-.1-.1-.4-.2-.8-.2c-.5 0-1 .1-1.4.3c.01.01-.1.8-.1.8c0 0 .42-.02.4 0h.5c.1.1.2.2.2.3c.1.1.2.3.2.5c.03.01 1.3 7 1.3 7c0 0 .98-.16 1-.2c.9-1.5 1.7-3 2.4-4.5c.8-1.5 1.1-2.5 1.1-3.1c0-.4 0-.7-.2-.9c-.2-.2-.5-.3-.9-.3zm4 9c.4 0 .8 0 1.2-.2c.4-.2.8-.4 1.1-.6l.7-.7l-.2-.5c-.3.2-.5.4-.9.5c-.4.2-.8.2-1.3.2c-.5 0-.9-.1-1.1-.5c-.2-.4-.4-.9-.4-1.6c0-.1.1-.3.1-.5c1.2 0 2.2-.2 3-.7c.8-.4 1.3-1.2 1.3-2.4c0-.6-.2-1.1-.5-1.4c-.4-.4-.8-.6-1.3-.6c-.7 0-1.4.3-2 .9c-.7.5-1.2 1.2-1.6 2.1c-.4.9-.5 1.9-.5 2.9c0 2.1.8 3.1 2.4 3.1zm1.1-8.1c.3 0 .5.2.6.4c.2.3.3.6.3 1c0 .5-.1 1-.4 1.3c-.2.3-.5.5-.9.6c-.4.1-.9.1-1.4.2c0-.9.1-1.6.3-2.1c.2-.5.4-.8.7-1c.2-.3.5-.4.8-.4zm12.5 7l-1.8-.3l1.6-9.9l1.7-.4l.2-.7h-5.3l-.2.7l1.7.4l-1.5 9.9l-1.8.4l-.1.7h5.2l.3-.8zm4.3-7.9c-.5 0-1 .1-1.5.3c.04.03 0 .8 0 .8h.4c.3 0 .5 0 .6.1c.2.1.3.3.3.5c0 .1-.1.1-.1.2c.03.03-.9 6.8-.9 6.8h1.6s.95-6.43 1-6.4c.2-.3.5-.5.8-.6c.2-.2.6-.2 1-.2c.4 0 .6.1.8.3c.1.2.2.5.2.9c0 .3 0 .6-.1.9l-.5 3.2v.8c0 .4.1.8.3 1c.2.2.6.3 1.1.3c.3 0 .5-.1.8-.1c.2-.1.4-.2.6-.2l.1-.8c-.3 0-.6 0-.7-.1c-.2 0-.3 0-.4-.2c-.1-.1-.2-.2-.2-.5c0-.4.1-1 .2-2l.4-2.2c0-.4.1-.7.1-1c0-1.2-.6-1.8-1.7-1.8c-.5 0-1 .2-1.5.5c-.5.4-.9.7-1.2 1.2h-.2c.1-.3.1-.5.1-.6c0-.4-.1-.7-.3-.8c-.3-.2-.6-.3-1.1-.3zm8.4 10.7c.1-.1.2-.5.4-.9c.1-.5.3-1.3.6-2.4c-.04.02 1-6.2 1-6.2h1.7l.2-.8s-1.74-.04-1.7 0c.1-.9.2-1.6.3-2.1c.1-.5.2-.8.4-1c.2-.3.4-.4.7-.4c.2 0 .4.1.5.1c.2.1.3.2.5.3c.1.1.2.3.4.5c.1.1.1.2.1.2c.3-.1.6-.3.7-.4c.2-.2.3-.4.3-.6c0-.8-.6-1.1-1.6-1.1c-.5 0-1.1.1-1.6.5c-.5.3-1 .8-1.4 1.5c-.4.6-.7 1.4-.8 2.3c-.02.02-1.6.4-1.6.4l-.1.6h1.5s-1.13 6.57-1.1 6.6c-.3.9-.4 1.6-.5 2c-.1.3-.3.7-.5.9h1.6zm11.5-7c0-.6-.1-1.2-.3-1.8c-.2-.6-.5-1-.9-1.4c-.4-.3-.9-.5-1.5-.5c-.9 0-1.6.3-2.3.8c-.7.5-1.2 1.1-1.6 1.9c-.4.9-.6 1.7-.6 2.7c0 .6.1 1.3.4 1.8c.2.6.5 1 .9 1.3c.5.3 1 .5 1.6.5c.8 0 1.5-.3 2.2-.8c.7-.5 1.2-1.1 1.6-2c.4-.8.5-1.6.5-2.5zm-3.7 4.1c-.4 0-.7-.1-1-.3c-.2-.2-.4-.5-.6-1c-.2-.4-.2-.9-.2-1.5c0-.9 0-1.5.2-2.1c.2-.6.4-1 .7-1.3c.3-.3.7-.4 1.1-.4c.7 0 1.1.3 1.4.8c.4.6.5 1.3.5 2.1c0 1.2-.2 2.1-.5 2.7c-.4.7-.9 1-1.6 1zm5.9-1.2c0-.2.1-.4.2-.5c.2-.2.4-.3.6-.4h.4c.6 0 1.1-.1 1.6-.4c.5-.3.9-.7 1.2-1.2c.3-.4.5-1 .5-1.5c0-.6 0-.9-.1-1.1c-.04.03 0-.1 0-.1l1.1.4h.2l.4-1.2l-.1-.2l-2 .2c-.4-.4-.9-.6-1.5-.6c-.6 0-1.2.1-1.7.5c-.6.3-1 .8-1.4 1.3c-.3.6-.5 1.1-.5 1.8c0 .2.1.5.2.8c.1.2.3.5.4.7c.2.2.3.3.5.3v.1c-.2.1-.5.2-.8.4c-.3.2-.5.4-.7.6c-.2.2-.3.4-.3.6c0 .4.1.6.3.8c.1.2.3.3.6.4v.1c-.3.1-.7.2-1 .4c-.3.2-.6.5-.8.8c-.2.2-.3.5-.3.9c0 .6.3 1.1.9 1.4c.6.3 1.4.5 2.2.5c.8 0 1.5-.1 2.2-.4c.7-.3 1.3-.6 1.7-1.1c.5-.4.7-.9.7-1.5c0-.6-.1-1.1-.4-1.4c-.3-.3-.7-.6-1.2-.7c-.4-.1-1-.2-1.7-.2c-.4 0-.7 0-.8-.1c-.2 0-.4 0-.5-.1c-.1-.1-.1-.2-.1-.3zm2.2-5.9c.3 0 .5.2.6.5c.2.3.3.6.3 1.1c0 .4-.1.9-.2 1.3c-.1.4-.3.7-.5 1c-.3.3-.6.4-.9.4c-.3 0-.6-.1-.8-.4c-.2-.4-.3-.7-.3-1.2c0-.4.1-.8.2-1.2c.2-.4.4-.8.6-1.1c.3-.2.6-.4 1-.4zm.8 9.3c0 .3-.1.5-.3.8c-.2.2-.5.4-.8.5c-.4.1-.8.2-1.2.2c-.4 0-.8-.1-1.1-.2c-.3-.1-.6-.3-.8-.5c-.2-.3-.3-.5-.3-.8c0-.2.1-.5.2-.7c.1-.2.3-.3.5-.5l.6-.3c.8 0 1.4 0 1.8.1c.4 0 .8.2 1 .4c.3.2.4.6.4 1zm5.8-6.2c.2-.5.5-.9.8-1.3c.4-.4.7-.6 1.1-.6c.2 0 .3 0 .5.1c.1 0 .2.1.3.2c.2-.1.4-.3.4-.6c.1-.2.2-.4.2-.6c0-.3-.1-.5-.3-.7c-.1-.2-.4-.3-.7-.3c-.3 0-.6.2-.9.4c-.3.3-.5.7-.8 1.1c-.2.4-.4.9-.5 1.3h-.1s.19-1.11.2-1.1c0-.3.1-.5.1-.6c0-.4-.2-.6-.4-.8c-.2-.2-.5-.3-1-.3c-.6 0-1.1.1-1.5.3l-.1.8h.4c.3 0 .5 0 .7.1c.1.1.2.3.2.5v.2l-.9 6.8h1.6s.68-4.92.7-4.9zm10.2-3.2c-.3-.3-1-.5-2-.5c-.8 0-1.5.2-2.3.7c-.8.5-1.4 1.2-1.9 2.1c-.5.9-.8 2-.8 3.2c0 .5.1 1.1.3 1.5c.1.4.3.8.6 1c.3.2.7.3 1.1.3c.4 0 .9-.1 1.3-.4c.4-.3.8-.6 1-1h.1c0 .1-.1.2-.1.3c0 .4.2.6.4.8c.2.2.5.3.9.3c.4 0 .9-.1 1.5-.3l.2-.7l-.8-.1c-.1 0-.3-.1-.3-.2c-.1-.1-.2-.3-.2-.6c0-.4.1-1 .3-2l.7-4.4zm-2.5 6.2c-.3.3-.6.5-.8.7c-.3.1-.6.2-.9.2c-.4 0-.7-.2-.9-.5c-.2-.3-.3-.9-.3-1.6c0-.7.1-1.4.3-2.1c.2-.7.5-1.3.9-1.7c.4-.5.8-.7 1.3-.7c.6 0 .9.1 1.2.4c-.01-.05-.8 5.3-.8 5.3c0 0-.05-.02 0 0zm6.5-4.4c.4-.4.7-.6.9-.7c.2-.2.5-.2.9-.2c.3 0 .5.1.7.3c.3.2.5.5.6.8c.1.4.2.9.2 1.4c0 .9-.1 1.6-.4 2.2c-.3.6-.6 1-1 1.3c-.4.2-.7.4-1.1.4c-.3 0-.6 0-.7-.1c-.2 0-.3-.1-.5-.2l-.2 1.2c.1.1.4.1.8.1c.8 0 1.5-.2 2.3-.8c.7-.5 1.3-1.1 1.8-2c.4-.8.6-1.7.6-2.7c0-.7-.1-1.3-.3-1.8c-.2-.5-.4-.9-.8-1.1c-.4-.3-.8-.5-1.2-.5c-.3 0-.7.1-1 .3l-.9.6c-.3.3-.5.5-.6.8h-.1v-.6c0-.3-.1-.5-.3-.7c-.1-.1-.5-.2-.9-.2c-.6 0-1.1.1-1.5.3c-.04.05-.1.8-.1.8c0 0 .38.02.4 0c.3 0 .5.1.6.1c.2.1.3.3.3.5v.2c-.05.05-1.5 10.2-1.5 10.2h1.5l1.5-9.9zm8.6-.1c.3-.3.5-.5.8-.6c.3-.2.7-.2 1.1-.2c.7 0 1.1.4 1.1 1.2c0 .3 0 .6-.1.9l-.5 3.2c-.1.4-.1.6-.1.8c0 .5.1.8.3 1c.3.2.6.3 1.1.3c.3 0 .5 0 .8-.1c.2 0 .5-.1.6-.2l.1-.8h-.7c-.1 0-.3-.1-.4-.2c-.1-.1-.1-.3-.1-.5c0-.4 0-1.1.2-2.1l.3-2.2c.1-.4.1-.7.1-1c0-.6-.1-1-.4-1.3c-.3-.3-.7-.5-1.3-.5c-.5 0-1 .2-1.5.5c-.5.4-1 .7-1.3 1.2h-.1l.3-1.2s.37-2.74.4-2.7v-.8c0-.4-.1-.6-.3-.8c-.1-.2-.5-.3-1-.3c-.5 0-1 .1-1.5.3c.04 0-.1.8-.1.8c0 0 .46-.03.5 0c.2 0 .5 0 .6.1c.2.1.2.2.2.5v.2c.03 0-1.6 10.9-1.6 10.9h1.6l.9-6.4zm7.8-5.1c0 .3.1.6.3.8c.2.2.5.3.7.3c.4 0 .6-.1.9-.3c.2-.2.3-.5.3-.8c0-.3-.1-.5-.3-.8c-.2-.2-.5-.3-.7-.3c-.3 0-.5.1-.6.2c-.2.1-.4.2-.5.4c-.1.2-.1.4-.1.5zm-1.2 4c.3 0 .5 0 .7.1c.1.1.2.2.2.5v.2l-.7 4.8c0 .3-.1.6-.1.8c0 .5.2.8.4 1c.2.2.5.3 1.1.3c.2 0 .5 0 .7-.1c.3 0 .5-.1.6-.2l.1-.8h-.7c-.1 0-.3-.1-.4-.2c-.1-.1-.1-.3-.1-.5v-.8c.1-.3.1-.7.2-1.3l.4-3c.1-.3.1-.5.1-.8c0-.3-.1-.6-.3-.8c-.2-.2-.5-.3-1-.3c-.6 0-1.1.1-1.5.3c.01.01-.1.8-.1.8c0 0 .43-.02.4 0zm7.7 6.5c-.7 0-1.2-.2-1.5-.7c-.3-.4-.5-1.1-.5-2c0-.6.1-1.2.3-1.8c.1-.6.4-1.1.7-1.6c.4-.4.8-.6 1.3-.6c.3 0 .5.1.7.2c.1.2.3.3.3.6c.1.2.3.4.4.8c.3 0 .6-.1.9-.3c.2-.2.3-.4.3-.7c0-.5-.1-.8-.4-1.1c-.4-.3-.8-.4-1.4-.4c-.8 0-1.5.2-2.3.7c-.7.5-1.3 1.2-1.8 2.1c-.4.8-.7 1.8-.7 2.8c0 .7.2 1.3.4 1.8c.3.5.6.9 1 1.1c.5.3 1 .4 1.6.4c.5 0 1.1-.2 1.6-.4c.6-.3 1-.6 1.4-1l-.2-.6c-.8.5-1.5.7-2.1.7z" stroke="none" fill="#000"/></g><g id="Polygon18404"><path d="m50.5 73.5h13.1v3.3H46.9V49.3h16.3v3.3H50.5v9h11.1v3.4H50.5v8.5zM85.6 66c-.04.04 0 10.8 0 10.8h-3.5s-.02-10.56 0-10.6c0-3.1-1.9-5.1-4.5-5.1c-2.6 0-5.8 1.6-5.8 5.6c.04.02 0 10.1 0 10.1h-3.4V58.2h3.4s.04 2.8 0 2.8c1.2-2.3 4.2-3.3 6.2-3.3c4.7 0 7.6 3.1 7.6 8.3zm20.5-7.8h3.5v27.7h-3.5s.02-11.98 0-12c-1.2 2.2-3.9 3.4-6.7 3.4c-5.1 0-9.3-3.9-9.3-9.8c0-5.9 4.3-9.8 9.4-9.8c2.7 0 5.4 1.3 6.6 3.4c.02-.02 0-2.9 0-2.9zm0 9.4c0-4-3-6.6-6.3-6.6c-3.4 0-6.2 2.8-6.2 6.6c0 3.7 2.8 6.4 6.2 6.4c3 0 6.3-2.4 6.3-6.4zm23.1-9.4h3.4v18.6h-3.4s-.05-2.88 0-2.9c-1.2 2.4-4.2 3.4-6.2 3.4c-4.7 0-7.6-3.1-7.6-8.3c.03-.04 0-10.8 0-10.8h3.5s.01 10.68 0 10.7c0 3.1 1.9 5.1 4.5 5.1c2.6 0 5.7-1.5 5.8-5.6c-.05.04 0-10.2 0-10.2zm27 10.8H141c.6 3.3 3 5 6.2 5c2.2 0 4.3-1 5.4-2.9l3 1.2c-1.6 3.3-5 5-8.6 5c-5.3 0-9.6-3.9-9.6-9.9c0-5.9 4.3-9.7 9.6-9.7c5.4 0 9.3 3.8 9.3 9.7c0 .6 0 1.1-.1 1.6zm-3.4-3c-.4-3.2-2.7-5-5.8-5c-3.1 0-5.4 1.6-5.9 5h11.7zm17-7.8v3h-4.1v15.6h-3.5V61.2h-3.3v-3h3.3v-7.1h3.5v7.1h4.1zm21 10.8h-15.2c.5 3.3 2.9 5 6.1 5c2.3 0 4.4-1 5.5-2.9l3 1.2c-1.6 3.3-5 5-8.6 5c-5.3 0-9.6-3.9-9.6-9.9c0-5.9 4.3-9.7 9.6-9.7c5.3 0 9.3 3.8 9.3 9.7c0 .6-.1 1.1-.1 1.6zm-3.4-3c-.4-3.2-2.7-5-5.8-5c-3.2 0-5.4 1.6-6 5h11.8zm23.2 7.5h10.6v3.3h-16.4v-1.5l9.8-11.9c1.6-2 2.8-4.1 2.8-5.3c0-2.7-1.9-4.4-4.8-4.4c-2.8 0-4.8 1.6-5 3.9l-3.1-.6c.5-4 3.7-6.6 8.1-6.6c5 0 8.2 3 8.2 7.7c0 2-1.3 4.7-3 6.7c-.01.04-7.2 8.7-7.2 8.7zm15.1-9.7c0-7.4 1.9-13.4 9.5-13.4c7.5 0 9.4 6 9.4 13.4c0 7.4-1.9 13.5-9.4 13.5c-7.6 0-9.5-6.1-9.5-13.5zm15.5 0c0-5.5-1.2-10.1-6-10.1c-4.8 0-6 4.6-6 10.1c0 5.5 1.2 10.2 6 10.2c4.8 0 6-4.7 6-10.2zm13.6 9.7h10.6v3.3H249v-1.5s9.83-11.9 9.8-11.9c1.7-2 2.8-4.1 2.8-5.3c0-2.7-1.9-4.4-4.7-4.4c-2.9 0-4.8 1.6-5 3.9l-3.1-.6c.5-4 3.6-6.6 8.1-6.6c4.9 0 8.2 3 8.2 7.7c0 2-1.3 4.7-3.1 6.7c.03.04-7.2 8.7-7.2 8.7zm31.6-4.3c0 4.8-3.8 8.1-9.1 8.1c-3.7 0-6.9-2-8.4-5.4l2.8-1.7c1.2 2.4 3.3 3.8 5.5 3.8c3.3 0 5.7-1.9 5.7-4.7c0-2.9-2.3-4.9-5.6-4.9h-2.7v-3h2.5c2.7 0 4.5-1.6 4.5-4c0-2.2-1.6-3.7-4.2-3.7c-1.8 0-3.6.9-4.6 2.5l-2.4-2c1.3-2.3 4.2-3.8 7.1-3.8c4.6 0 7.6 2.7 7.6 6.9c0 2.5-1.2 4.5-3.3 5.5c2.8.9 4.6 3.3 4.6 6.4z" stroke="none" fill="#000"/></g><g id="Polygon18403"><path d="m26.8 1.3h3.6v27.5h-3.5l-12.7-21v21h-3.7V1.3h3.6l12.7 20.9V1.3zm24.7 8.9h3.5v18.6h-3.5s.04-3.28 0-3.3c-1.2 2.3-3.8 3.8-6.8 3.8c-4.9 0-9.2-4.1-9.2-9.8c0-5.5 4.1-9.8 9.4-9.8c2.8 0 5.4 1.2 6.6 3.4c.04-.02 0-2.9 0-2.9zm0 9.3c0-3.9-3.2-6.5-6.3-6.5c-3.4 0-6.1 3-6.1 6.5c0 3.5 2.7 6.5 6.1 6.5c3.3 0 6.3-2.7 6.3-6.5zm18.6-9.3v3H66v15.6h-3.5V13.2h-3.3v-3h3.3V3.1h3.5v7.1h4.1zm3.1-6.9C73.2 2 74.3 1 75.7 1c1.3 0 2.4 1 2.4 2.3c0 1.3-1.1 2.3-2.4 2.3c-1.4 0-2.5-1-2.5-2.3zm.7 25.5V10.2h3.5v18.6h-3.5zm8.3-9.3c0-5.9 4.4-9.8 9.7-9.8c5.4 0 9.8 3.9 9.8 9.8c0 5.9-4.4 9.8-9.8 9.8c-5.3 0-9.7-3.9-9.7-9.8zm16.1 0c0-3.9-2.9-6.5-6.4-6.5c-3.4 0-6.2 2.6-6.2 6.5c0 3.9 2.8 6.5 6.2 6.5c3.5 0 6.4-2.6 6.4-6.5zm25.5-1.5c-.02.04 0 10.8 0 10.8h-3.5V18.2c0-3.1-1.9-5.1-4.5-5.1c-2.6 0-5.7 1.6-5.7 5.6c-.04.02 0 10.1 0 10.1h-3.5V10.2h3.5s-.04 2.8 0 2.8c1.1-2.3 4.1-3.3 6.2-3.3c4.6 0 7.5 3.1 7.5 8.3zm20.5-7.8h3.5v18.6h-3.5s-.01-3.28 0-3.3c-1.2 2.3-3.8 3.8-6.8 3.8c-4.9 0-9.2-4.1-9.2-9.8c0-5.5 4-9.8 9.3-9.8c2.8 0 5.5 1.2 6.7 3.4v-2.9zm0 9.3c0-3.9-3.2-6.5-6.4-6.5c-3.4 0-6.1 3-6.1 6.5c0 3.5 2.7 6.5 6.2 6.5c3.3 0 6.3-2.7 6.3-6.5zm9.6 9.3V0h3.4v28.8h-3.4zm27-7.8h-15.2c.6 3.3 3 5 6.2 5c2.2 0 4.3-1 5.4-2.9l3 1.2c-1.6 3.3-5 5-8.6 5c-5.3 0-9.6-3.9-9.6-9.9c0-5.9 4.3-9.7 9.6-9.7c5.4 0 9.3 3.8 9.3 9.7c0 .6 0 1.1-.1 1.6zm-3.4-3c-.4-3.2-2.7-5-5.8-5c-3.1 0-5.4 1.6-5.9 5h11.7zm50.6 10.8h-3.6l-2.5-21l-8.8 18h-3.1l-8.9-18l-2.5 21h-3.6l3.4-27.5h3.3l9.8 20.4l9.8-20.4h3.3l3.4 27.5zm3.8-9.3c0-5.9 4.4-9.8 9.7-9.8c5.3 0 9.8 3.9 9.8 9.8c0 5.9-4.5 9.8-9.8 9.8c-5.3 0-9.7-3.9-9.7-9.8zm16 0c0-3.9-2.8-6.5-6.3-6.5c-3.4 0-6.2 2.6-6.2 6.5c0 3.9 2.8 6.5 6.2 6.5c3.5 0 6.3-2.6 6.3-6.5zm6.9 3.9h3.2c.1 1.6 1.5 2.9 3.7 2.9c2.4 0 3.8-1.2 3.8-2.7c0-1.4-1.1-2.1-2.6-2.4l-2.5-.6c-3.1-.9-4.9-2.4-4.9-5.4c0-3.1 2.6-5.5 6.4-5.5c3.1 0 6.4 1.7 6.4 5.4h-3.4c0-1.4-1.5-2.4-3-2.4c-1.8 0-3 1.2-3 2.6c0 1.3 1.2 2 2.4 2.3l2.8.6c3.9 1 4.9 3.3 4.9 5.4c0 3.5-3.4 5.7-7.3 5.7c-3.3 0-6.8-2.1-6.9-5.9zm18.9 5.4V0h3.4v28.8h-3.4zm8.8-25.5c0-1.3 1.1-2.3 2.4-2.3c1.4 0 2.5 1 2.5 2.3c0 1.3-1.1 2.3-2.5 2.3c-1.3 0-2.4-1-2.4-2.3zm.7 25.5V10.2h3.5v18.6h-3.5zM322.1 18v10.8h-3.5V18.2c0-3.1-1.7-5.2-4.4-5.2c-3.3 0-5.1 2.3-5.1 6.5c.03-.02 0 9.3 0 9.3h-3.4s-.05-10.56 0-10.6c0-3.1-1.8-5.2-4.2-5.2c-2.7 0-5.3 1.8-5.3 5.7c-.03.02 0 10.1 0 10.1h-3.5V10.2h3.5s-.03 2.84 0 2.8c.9-2 3.3-3.3 6-3.3c2.7 0 5.1 1.4 6.1 4c1.8-3.4 4.7-4 6.6-4c4.6 0 7.2 3.1 7.2 8.3z" stroke="none" fill="#000"/></g></svg>