<?xml version="1.0" standalone="no"?><!DOCTYPE svg PUBLIC "-//W3C//DTD SVG 1.1//EN" "http://www.w3.org/Graphics/SVG/1.1/DTD/svg11.dtd"><svg xmlns="http://www.w3.org/2000/svg" version="1.1" width="76.4px" height="68.2px" viewBox="0 -16 76.4 68.2" style="top:-16px"><desc>FAQ</desc><defs/><g id="Polygon18962"><path d="m20.2 5.8H8.4v7.5h9.4v4.3H8.4V29H3.5V1.4h16.7v4.4zM40.3 29l-2.4-6.8H27L24.7 29h-5.2L29.8 1.4h5.3L45.4 29h-5.1zM28.5 18h7.9L32.5 6.8l-4 11.2zm39.9 9.1c.04-.02 2.8 4.4 2.8 4.4l-3.6 2.1l-2.9-4.7c-1.3.4-2.7.6-4.1.6c-7.9 0-14-6.5-14-14.3c0-7.8 6.1-14.2 14-14.2c7.8 0 14 6.4 14 14.2c0 4.9-2.4 9.3-6.2 11.9zm-6.2-2.3c-.04 0-2.7-4.4-2.7-4.4l3.5-2.1s3 4.78 3 4.8c2.3-1.8 3.7-4.7 3.7-7.9c0-5.2-3.9-9.7-9.1-9.7c-5.3 0-9.1 4.5-9.1 9.7c0 5.3 3.8 9.7 9.1 9.7c.5 0 1 0 1.6-.1z" stroke="none" fill="#000"/></g></svg>