<?xml version="1.0" standalone="no"?><!DOCTYPE svg PUBLIC "-//W3C//DTD SVG 1.1//EN" "http://www.w3.org/Graphics/SVG/1.1/DTD/svg11.dtd"><svg xmlns="http://www.w3.org/2000/svg" version="1.1" width="92.4px" height="68.2px" viewBox="0 -8 92.4 68.2" style="top:-8px"><desc>Werk</desc><defs/><g id="Polygon17739"><path d="m30.4 9.9h5.3l-9.3 27.6h-4L18 21.8l-4.2 15.7h-4L.5 9.9h5.2l6.1 19.3l4.3-15.5h3.9l4.3 15.6l6.1-19.4zm24.5 19.9H40.4c.6 2.6 2.6 4 5.4 4c2 0 3.9-.9 5-2.4l3.1 2.3c-1.7 2.8-5 4.3-8.4 4.3c-5.6 0-9.8-4-9.8-9.9c0-5.9 4.4-9.8 9.8-9.8c5.3 0 9.5 3.8 9.5 9.7c0 .5 0 1.1-.1 1.8zm-4.5-3.3c-.3-2.5-2.3-4-4.9-4c-2.5 0-4.5 1.2-5.1 4h10zM72.3 19l-.9 4.4c-1.1-.6-2-.7-2.7-.7c-3.1 0-4.7 3-4.7 8.3c-.04-.02 0 6.5 0 6.5h-4.7V18.8h4.6s.02 4.02 0 4c1-3.1 3.1-4.5 5.4-4.5c1.1 0 2.3.3 3 .7zm20.9 18.5h-5.9L80 29v8.5h-4.6V8.7h4.6v16.1l5.4-6h6L83.8 27l9.4 10.5z" stroke="none" fill="#000"/></g></svg>