<?xml version="1.0" standalone="no"?><!DOCTYPE svg PUBLIC "-//W3C//DTD SVG 1.1//EN" "http://www.w3.org/Graphics/SVG/1.1/DTD/svg11.dtd"><svg xmlns="http://www.w3.org/2000/svg" version="1.1" width="327px" height="78.7px" viewBox="0 -15 327 78.7" style="top:-15px"><desc>CRESTING project Visuals</desc><defs/><g id="Polygon18241"><path d="m143.9 52.8l5.1-11l1.3-.4l.2-.7H146l-.2.7l1.8.4l-4 8.7l-2.3-8.7l1.7-.4l.2-.7h-5.1l-.2.7l1.3.4l3.1 11.3l1.6-.3zm9.2-11.5c0 .3.1.6.3.8c.2.2.5.3.8.3c.3 0 .6-.1.8-.3c.2-.2.3-.5.3-.8c0-.3-.1-.5-.3-.8c-.2-.2-.4-.3-.7-.3c-.2 0-.5.1-.6.2c-.2.1-.3.2-.4.4c-.1.2-.2.4-.2.5zm-1.2 4c.3 0 .6 0 .7.1c.2.1.2.2.2.5v.2l-.7 4.8v.8c0 .5.1.8.3 1c.2.2.6.3 1.1.3c.2 0 .5 0 .7-.1c.3 0 .5-.1.6-.2l.1-.8h-.6c-.2 0-.3-.1-.5-.2c-.1-.1-.1-.3-.1-.5v-.8c.1-.3.1-.7.2-1.3l.5-3v-.8c0-.3-.1-.6-.3-.8c-.2-.2-.5-.3-1-.3c-.5 0-1 .1-1.5.3c.03.01-.1.8-.1.8c0 0 .45-.02.4 0zm8-1.3c-.5 0-1 .2-1.5.4c-.5.3-.9.6-1.2 1c-.2.4-.4.8-.4 1.2c0 .5.1.8.3 1.2c.2.3.4.6.7.8c.2.2.6.5 1 .8c.3.2.6.4.8.6l.5.5c.1.2.2.5.2.7c0 .3-.1.6-.4.8c-.2.2-.5.3-.8.3c-.4 0-.7 0-.9-.2c-.2-.1-.4-.3-.5-.6c-.2-.3-.3-.7-.4-1.2c-.4.1-.7.2-.9.4c-.3.2-.4.5-.4.8c0 .3.1.5.3.8c.2.3.5.5.9.6c.4.2.9.3 1.4.3c.5 0 1-.1 1.5-.4c.5-.2.9-.5 1.2-.9c.3-.3.5-.8.5-1.2c0-.4-.1-.7-.3-1c-.2-.4-.4-.6-.7-.9c-.2-.2-.6-.5-1-.8c-.3-.2-.6-.5-.8-.7c-.2-.1-.4-.3-.6-.6c-.1-.2-.2-.4-.2-.7c0-.4.2-.7.4-.9c.2-.2.5-.3.8-.3c.3 0 .5 0 .7.2c.2.1.3.3.4.6c.1.2.2.6.3 1c.4 0 .7-.1 1-.3c.2-.2.3-.5.3-.8c0-.5-.2-.9-.6-1.1c-.4-.2-.9-.4-1.6-.4zm8.2 6.8c-.2.2-.5.4-.8.6c-.2.1-.6.2-1 .2c-.4 0-.6-.1-.8-.3c-.2-.2-.2-.5-.2-1v-.8l.6-3.4v-.8c0-.4-.1-.6-.3-.8c-.2-.2-.5-.3-1-.3c-.5 0-1 .1-1.5.3c.03.01-.1.8-.1.8c0 0 .45-.02.5 0c.2 0 .5 0 .6.1c.2.1.2.3.2.5v.2l-.6 4.2c0 .4-.1.7-.1.9c0 .7.2 1.1.4 1.4c.3.3.7.5 1.3.5c.5 0 1-.2 1.5-.5c.5-.4.9-.8 1.2-1.2h.2c-.1.2-.1.4-.1.6c0 .7.4 1 1.1 1c.3 0 .5 0 .7-.1c.3 0 .5-.1.8-.2c-.03 0 .1-.7.1-.7l-.6-.1c-.2 0-.3-.1-.4-.2c-.1 0-.2-.2-.2-.4c0 0 0-.1.1-.1l.7-5.1v-.7c0-.4-.1-.7-.3-.9c-.2-.2-.5-.3-1-.3c-.5 0-1 .1-1.5.3c.02.01-.1.8-.1.8c0 0 .44-.02.4 0c.3 0 .5 0 .7.1c.2.1.2.3.2.5v.2c.01.01-.7 4.7-.7 4.7c0 0 .04.01 0 0zm10.1-6.1c-.3-.3-.9-.5-1.9-.5c-.8 0-1.6.2-2.3.7c-.8.5-1.4 1.2-2 2.1c-.5.9-.7 2-.7 3.2c0 .5.1 1.1.2 1.5c.2.4.4.8.7 1c.3.2.6.3 1 .3c.5 0 .9-.1 1.4-.4c.4-.3.7-.6.9-1h.2c-.1.1-.1.2-.1.3c0 .4.1.6.4.8c.2.2.5.3.9.3c.4 0 .9-.1 1.5-.3c-.05-.01.1-.7.1-.7l-.7-.1c-.2 0-.3-.1-.4-.2c-.1-.1-.1-.3-.1-.6c0-.4.1-1 .2-2l.7-4.4zm-2.5 6.2c-.3.3-.5.5-.8.7c-.2.1-.5.2-.9.2c-.4 0-.7-.2-.9-.5c-.2-.3-.3-.9-.3-1.6c0-.7.2-1.4.4-2.1c.2-.7.5-1.3.9-1.7c.3-.5.8-.7 1.3-.7c.5 0 .9.1 1.1.4c.05-.05-.8 5.3-.8 5.3c0 0 .01-.02 0 0zm4.4-9.8c.3 0 .5 0 .6.1c.2.1.3.2.3.5v.2l-1.4 9c-.1.4-.1.6-.1.8c0 .5.1.8.3 1c.2.2.6.3 1.1.3c.3 0 .5 0 .8-.1c.2 0 .4-.1.6-.2l.1-.8h-.7c-.2 0-.3-.1-.4-.2c-.1-.1-.2-.3-.2-.5c0-.4.1-1.1.2-2.1l1.2-7.2c0-.3.1-.5.1-.8c0-.4-.1-.6-.3-.8c-.2-.2-.6-.3-1-.3c-.6 0-1.1.1-1.5.3c-.04 0-.1.8-.1.8c0 0 .38-.03.4 0zm7 2.9c-.5 0-1 .2-1.5.4c-.5.3-.9.6-1.2 1c-.2.4-.4.8-.4 1.2c0 .5.1.8.3 1.2c.2.3.4.6.7.8c.2.2.6.5 1 .8c.3.2.6.4.8.6l.5.5c.1.2.2.5.2.7c0 .3-.1.6-.3.8c-.3.2-.5.3-.9.3c-.4 0-.6 0-.9-.2c-.2-.1-.4-.3-.5-.6c-.2-.3-.3-.7-.4-1.2c-.4.1-.7.2-.9.4c-.3.2-.4.5-.4.8c0 .3.1.5.3.8c.2.3.5.5.9.6c.4.2.9.3 1.4.3c.5 0 1-.1 1.5-.4c.5-.2.9-.5 1.2-.9c.3-.3.5-.8.5-1.2c0-.4-.1-.7-.3-1c-.2-.4-.4-.6-.7-.9c-.2-.2-.6-.5-1-.8c-.3-.2-.6-.5-.8-.7c-.2-.1-.4-.3-.5-.6c-.2-.2-.3-.4-.3-.7c0-.4.2-.7.4-.9c.2-.2.5-.3.8-.3c.3 0 .5 0 .7.2c.2.1.3.3.4.6c.1.2.2.6.3 1c.4 0 .7-.1 1-.3c.2-.2.3-.5.3-.8c0-.5-.2-.9-.6-1.1c-.4-.2-.9-.4-1.6-.4z" stroke="none" fill="#000"/></g><g id="Polygon18240"><path d="m2.5 15.1C2.5 7.3 8.7.8 16.5.8c4.3 0 8 1.8 10.4 4.7l-2.6 2.2c-1.9-2.1-4.7-3.5-7.8-3.5c-5.8 0-10.3 5-10.3 10.9C6.2 21 10.7 26 16.5 26c3.1 0 5.9-1.4 7.8-3.6l2.6 2.2c-2.4 2.9-6.1 4.7-10.4 4.7c-7.8 0-14-6.4-14-14.2zm44 13.7l-7.3-10.4h-3.5v10.4H32V1.3s10.38-.02 10.4 0c6 0 8.3 4.3 8.3 8.6c0 4-2.3 8.2-7.2 8.6c0-.02 7.3 10.3 7.3 10.3h-4.3zM35.7 4.6v10.5s5.72.02 5.7 0c4.1 0 5.7-2.1 5.7-5.2c0-3.1-1.8-5.3-4.6-5.3c-.04.04-6.8 0-6.8 0zm24.6 20.9h13.1v3.3H56.7V1.3H73v3.3H60.3v9h11.1v3.4H60.3v8.5zM77.5 21h3.6c.1 2.5 2.4 5 6.1 5c3.5 0 5.5-2.4 5.5-4.8c0-2.7-2.4-3.9-4.7-4.5l-3.6-.9c-5.8-1.4-6.7-4.8-6.7-7c0-4.8 4.2-8 9-8c4.9 0 8.8 3.1 8.8 8h-3.6c0-2.8-2.3-4.6-5.3-4.6c-2.7 0-5.3 1.8-5.3 4.5c0 1 .3 2.9 4 3.9l3.6.9c4.7 1.3 7.5 3.7 7.5 7.6c0 4.3-3.5 8.2-9.2 8.2c-5.8 0-9.7-4-9.7-8.3zm41.4-19.7v3.3h-8.4v24.2h-3.7V4.6h-8.4V1.3h20.5zm4.6 27.5V1.3h3.6v27.5h-3.6zM151 1.3h3.7v27.5h-3.6l-12.7-21v21h-3.6V1.3h3.6L151 22.2V1.3zm9.4 13.8c0-7.8 6.1-14.3 13.9-14.3c3.7 0 6.9 1.4 9.3 3.6l-2.5 2.4c-1.8-1.6-4.2-2.6-6.8-2.6c-5.8 0-10.3 5-10.3 10.9c0 5.9 4.5 10.9 10.3 10.9c5 0 9.1-3.4 9.1-7.8h-8V15s11.98.04 12 0c0 9.7-5.2 14.3-13.1 14.3c-7.8 0-13.9-6.4-13.9-14.2zm60.9 4.4c0 5.9-4.2 9.8-9.3 9.8c-2.8 0-5.4-1.2-6.7-3.4c.04.02 0 12 0 12h-3.4V10.2h3.4s.04 2.88 0 2.9c1.3-2.1 4-3.4 6.7-3.4c5.1 0 9.3 3.9 9.3 9.8zm-3.5.1c0-3.8-2.7-6.6-6.1-6.6c-3.4 0-6.4 2.6-6.4 6.6c0 4 3.3 6.4 6.4 6.4c3.4 0 6.1-2.7 6.1-6.4zm20.4-9.2l-.6 3.3c-1-.5-2-.7-2.7-.7c-3.7 0-5.2 4.1-5.2 9v6.8h-3.5V10.2h3.5v4.2c1-3.3 2.8-4.7 5.2-4.7c1.4 0 2.7.3 3.3.7zm1.5 9.1c0-5.9 4.5-9.8 9.8-9.8c5.3 0 9.8 3.9 9.8 9.8c0 5.9-4.5 9.8-9.8 9.8c-5.3 0-9.8-3.9-9.8-9.8zm16.1 0c0-3.9-2.9-6.5-6.3-6.5c-3.4 0-6.2 2.6-6.2 6.5c0 3.9 2.8 6.5 6.2 6.5c3.4 0 6.3-2.6 6.3-6.5zm7.9-16.2c0-1.3 1.2-2.3 2.5-2.3c1.3 0 2.5 1 2.5 2.3c0 1.3-1.2 2.3-2.5 2.3c-1.3 0-2.5-1-2.5-2.3zm-4.8 34.6v-3.3s2.08.04 2.1 0c3.1 0 3.5-2.5 3.5-4.7c-.04-.02 0-19.7 0-19.7h3.4s.04 19.72 0 19.7c0 4.7-1.6 8-6.6 8c-.04.02-2.4 0-2.4 0zM291.5 21h-15.2c.6 3.3 3 5 6.2 5c2.2 0 4.3-1 5.4-2.9l3 1.2c-1.6 3.3-5 5-8.6 5c-5.3 0-9.6-3.9-9.6-9.9c0-5.9 4.3-9.7 9.6-9.7c5.4 0 9.3 3.8 9.3 9.7c0 .6 0 1.1-.1 1.6zm-3.4-3c-.4-3.2-2.7-5-5.8-5c-3.1 0-5.4 1.6-5.9 5h11.7zm7 1.5c0-5.9 4.6-9.8 10-9.8c2.9 0 5.5 1.1 7.1 2.9l-2.2 2.3c-1.1-1.2-2.8-1.9-4.8-1.9c-3.7 0-6.6 2.6-6.6 6.5c0 3.8 2.9 6.5 6.6 6.5c2 0 3.7-.7 4.8-1.9l2.2 2.3c-1.6 1.8-4.2 2.9-7.1 2.9c-5.4 0-10-3.9-10-9.8zm30.5-9.3v3h-4.1v15.6h-3.4V13.2h-3.4v-3h3.4V3.1h3.4v7.1h4.1z" stroke="none" fill="#000"/></g></svg>