<?xml version="1.0" standalone="no"?><!DOCTYPE svg PUBLIC "-//W3C//DTD SVG 1.1//EN" "http://www.w3.org/Graphics/SVG/1.1/DTD/svg11.dtd"><svg xmlns="http://www.w3.org/2000/svg" version="1.1" width="270.4px" height="78.7px" viewBox="0 -15 270.4 78.7" style="top:-15px"><desc>Eerst een Thuis Rapportage</desc><defs/><g id="Polygon18567"><path d="m102.3 40.6c-.6 0-1.3 0-2 .1c-.8.1-1.6.2-2.5.4l-.2.7l1.6.3l-1.5 9.6l-1.7.4l-.2.7h5.3l.3-.8l-1.8-.4l.6-4h1.7s1.13 2.77 1.1 2.8c.4.8.8 1.5 1.3 1.9c.5.5 1.1.7 1.8.7c.4 0 .8 0 1.2-.1c-.01-.04.2-.7.2-.7c0 0-.26-.12-.3-.1c-.3-.2-.6-.3-.9-.5c-.2-.2-.5-.5-.7-.8c-.2-.3-.5-.7-.8-1.4c-.01.04-1.4-2.4-1.4-2.4c0 0 .02-.01 0 0c.7-.3 1.3-.6 1.8-.9c.5-.4.9-.9 1.1-1.3c.3-.5.4-1 .4-1.5c0-.9-.4-1.6-1.2-2c-.7-.5-1.8-.7-3.2-.7zm-1.1.9s.2 0 .4-.1h.8c.7 0 1.3.2 1.7.6c.4.4.6.9.6 1.6c0 .6-.2 1.1-.4 1.6c-.3.4-.6.8-1.1 1.1c-.4.3-.8.4-1.2.4c-.04.01-1.7 0-1.7 0c0 0 .88-5.23.9-5.2zm14 3.2c-.3-.3-.9-.5-2-.5c-.7 0-1.5.2-2.3.7c-.7.5-1.4 1.2-1.9 2.1c-.5.9-.8 2-.8 3.2c0 .5.1 1.1.3 1.5c.1.4.4.8.7 1c.3.2.6.3 1 .3c.5 0 .9-.1 1.3-.4c.4-.3.8-.6 1-1h.1v.3c0 .4.1.6.3.8c.2.2.6.3.9.3c.5 0 1-.1 1.5-.3c.02-.01.2-.7.2-.7l-.7-.1c-.2 0-.4-.1-.4-.2c-.1-.1-.1-.3-.1-.6c0-.4 0-1 .2-2l.7-4.4zm-2.5 6.2c-.3.3-.6.5-.8.7c-.3.1-.6.2-.9.2c-.4 0-.7-.2-.9-.5c-.2-.3-.3-.9-.3-1.6c0-.7.1-1.4.3-2.1c.2-.7.5-1.3.9-1.7c.4-.5.9-.7 1.3-.7c.6 0 1 .1 1.2.4l-.8 5.3s-.03-.02 0 0zm6.5-4.4c.4-.4.7-.6.9-.7c.3-.2.6-.2.9-.2c.3 0 .5.1.8.3c.2.2.4.5.5.8c.1.4.2.9.2 1.4c0 .9-.1 1.6-.4 2.2c-.3.6-.6 1-1 1.3c-.4.2-.7.4-1.1.4c-.3 0-.5 0-.7-.1c-.2 0-.3-.1-.5-.2l-.2 1.2c.1.1.4.1.8.1c.8 0 1.5-.2 2.3-.8c.7-.5 1.3-1.1 1.8-2c.4-.8.7-1.7.7-2.7c0-.7-.1-1.3-.3-1.8c-.2-.5-.5-.9-.9-1.1c-.3-.3-.7-.5-1.2-.5c-.3 0-.7.1-1 .3l-.9.6c-.2.3-.4.5-.6.8h-.1c0-.3.1-.5.1-.6c0-.3-.1-.5-.3-.7c-.2-.1-.6-.2-1-.2c-.6 0-1.1.1-1.5.3c-.02.05-.1.8-.1.8c0 0 .4.02.4 0c.3 0 .5.1.7.1c.1.1.2.3.2.5v.2c-.03.05-1.5 10.2-1.5 10.2h1.5s1.52-9.92 1.5-9.9zm8.9 0c.3-.4.6-.6.9-.7c.2-.2.5-.2.9-.2c.2 0 .5.1.7.3c.2.2.4.5.5.8c.2.4.3.9.3 1.4c0 .9-.2 1.6-.5 2.2c-.2.6-.6 1-.9 1.3c-.4.2-.8.4-1.1.4c-.4 0-.6 0-.8-.1c-.1 0-.3-.1-.5-.2l-.2 1.2c.2.1.5.1.9.1c.7 0 1.5-.2 2.2-.8c.7-.5 1.3-1.1 1.8-2c.5-.8.7-1.7.7-2.7c0-.7-.1-1.3-.3-1.8c-.2-.5-.5-.9-.8-1.1c-.4-.3-.8-.5-1.2-.5c-.4 0-.7.1-1 .3c-.4.2-.7.4-.9.6c-.3.3-.5.5-.7.8h-.1c.1-.3.1-.5.1-.6c0-.3-.1-.5-.3-.7c-.2-.1-.5-.2-1-.2c-.5 0-1 .1-1.5.3c.02.05-.1.8-.1.8c0 0 .44.02.4 0c.3 0 .5.1.7.1c.2.1.2.3.2.5v.2c.01.05-1.5 10.2-1.5 10.2h1.6s1.46-9.92 1.5-9.9zm12.9 1.3c0-.6-.1-1.2-.3-1.8c-.2-.6-.5-1-.9-1.4c-.4-.3-1-.5-1.6-.5c-.8 0-1.6.3-2.2.8c-.7.5-1.2 1.1-1.6 1.9c-.4.9-.6 1.7-.6 2.7c0 .6.1 1.3.3 1.8c.2.6.6 1 1 1.3c.4.3.9.5 1.5.5c.9 0 1.6-.3 2.3-.8c.6-.5 1.2-1.1 1.5-2c.4-.8.6-1.6.6-2.5zm-3.8 4.1c-.3 0-.6-.1-.9-.3c-.3-.2-.5-.5-.6-1c-.2-.4-.3-.9-.3-1.5c0-.9.1-1.5.3-2.1c.1-.6.4-1 .7-1.3c.3-.3.7-.4 1.1-.4c.6 0 1.1.3 1.4.8c.3.6.5 1.3.5 2.1c0 1.2-.2 2.1-.6 2.7c-.3.7-.9 1-1.6 1zm7.7-4c.2-.5.5-.9.8-1.3c.3-.4.7-.6 1.1-.6c.2 0 .3 0 .4.1c.2 0 .3.1.4.2c.2-.1.3-.3.4-.6c.1-.2.2-.4.2-.6c0-.3-.1-.5-.3-.7c-.1-.2-.4-.3-.7-.3c-.3 0-.6.2-.9.4c-.3.3-.5.7-.8 1.1c-.2.4-.4.9-.5 1.3h-.2s.27-1.11.3-1.1v-.6c0-.4-.1-.6-.3-.8c-.2-.2-.6-.3-1-.3c-.6 0-1.1.1-1.5.3c-.02.03-.1.8-.1.8h.4c.3 0 .5 0 .7.1c.1.1.2.3.2.5v.2c-.03.03-.9 6.8-.9 6.8h1.6s.66-4.92.7-4.9zm5.4 1.6c-.1.4-.1.8-.1 1c0 .4.1.7.3.9c.2.2.5.2.9.2c.3 0 .7-.1 1-.3l.1.5c-.2.4-.6.7-.9.9c-.4.2-.8.3-1.3.3c-.5 0-1-.1-1.2-.4c-.3-.4-.4-.8-.4-1.5c0-.3 0-.6.1-1.1c-.05.02.7-4.6.7-4.6h-1l.1-1h1l.4-2.1h1.5l-.4 2.1h2.2l-.2 1H151s-.68 4.05-.7 4.1zm10.3-4.8c-.2-.3-.9-.5-1.9-.5c-.8 0-1.5.2-2.3.7c-.8.5-1.4 1.2-1.9 2.1c-.5.9-.8 2-.8 3.2c0 .5.1 1.1.2 1.5c.2.4.4.8.7 1c.3.2.7.3 1.1.3c.4 0 .9-.1 1.3-.4c.4-.3.7-.6 1-1h.1c-.1.1-.1.2-.1.3c0 .4.1.6.4.8c.2.2.5.3.9.3c.4 0 .9-.1 1.5-.3c-.02-.01.2-.7.2-.7l-.8-.1c-.2 0-.3-.1-.4-.2c0-.1-.1-.3-.1-.6c0-.4.1-1 .2-2l.7-4.4zm-2.5 6.2c-.2.3-.5.5-.8.7c-.2.1-.5.2-.9.2c-.3 0-.6-.2-.8-.5c-.2-.3-.3-.9-.3-1.6c0-.7.1-1.4.3-2.1c.2-.7.5-1.3.9-1.7c.4-.5.8-.7 1.3-.7c.5 0 .9.1 1.2.4c-.03-.05-.9 5.3-.9 5.3c0 0 .03-.02 0 0zm4.8-.2c0-.2.1-.4.3-.5c.1-.2.3-.3.5-.4h.5c.5 0 1-.1 1.5-.4c.5-.3.9-.7 1.3-1.2c.3-.4.5-1 .5-1.5c0-.6-.1-.9-.2-1.1v-.1l1.2.4h.1l.5-1.2l-.2-.2l-1.9.2c-.4-.4-.9-.6-1.6-.6c-.6 0-1.1.1-1.7.5c-.5.3-1 .8-1.3 1.3c-.4.6-.5 1.1-.5 1.8c0 .2 0 .5.2.8c.1.2.2.5.4.7c.1.2.3.3.4.3l.1.1c-.3.1-.6.2-.8.4c-.3.2-.5.4-.7.6c-.2.2-.3.4-.3.6c0 .4.1.6.2.8c.2.2.4.3.6.4v.1c-.3.1-.6.2-.9.4c-.4.2-.6.5-.8.8c-.2.2-.3.5-.3.9c0 .6.3 1.1.9 1.4c.6.3 1.3.5 2.2.5c.7 0 1.4-.1 2.1-.4c.8-.3 1.3-.6 1.8-1.1c.4-.4.7-.9.7-1.5c0-.6-.2-1.1-.5-1.4c-.3-.3-.6-.6-1.1-.7c-.5-.1-1.1-.2-1.7-.2c-.4 0-.7 0-.9-.1c-.2 0-.3 0-.4-.1c-.1-.1-.2-.2-.2-.3zm2.2-5.9c.3 0 .6.2.7.5c.1.3.2.6.2 1.1c0 .4 0 .9-.2 1.3c-.1.4-.3.7-.5 1c-.2.3-.5.4-.9.4c-.3 0-.6-.1-.7-.4c-.2-.4-.3-.7-.3-1.2c0-.4 0-.8.2-1.2c.1-.4.3-.8.6-1.1c.2-.2.6-.4.9-.4zm.9 9.3c0 .3-.1.5-.3.8c-.2.2-.5.4-.9.5c-.3.1-.7.2-1.2.2c-.3 0-.7-.1-1-.2c-.4-.1-.7-.3-.9-.5c-.2-.3-.3-.5-.3-.8c0-.2.1-.5.2-.7c.2-.2.4-.3.6-.5l.6-.3c.7 0 1.3 0 1.7.1c.5 0 .8.2 1.1.4c.2.2.4.6.4 1zm5.1-1c.4 0 .8 0 1.2-.2c.4-.2.8-.4 1.1-.6l.7-.7l-.2-.5c-.2.2-.5.4-.9.5c-.4.2-.8.2-1.3.2c-.5 0-.9-.1-1.1-.5c-.2-.4-.4-.9-.4-1.6c0-.1.1-.3.1-.5c1.2 0 2.2-.2 3-.7c.8-.4 1.3-1.2 1.3-2.4c0-.6-.2-1.1-.5-1.4c-.4-.4-.8-.6-1.3-.6c-.7 0-1.4.3-2 .9c-.7.5-1.2 1.2-1.6 2.1c-.4.9-.5 1.9-.5 2.9c0 2.1.8 3.1 2.4 3.1zm1.1-8.1c.3 0 .5.2.6.4c.2.3.3.6.3 1c0 .5-.1 1-.4 1.3c-.2.3-.5.5-.9.6c-.4.1-.9.1-1.4.2c0-.9.1-1.6.3-2.1c.2-.5.4-.8.7-1c.2-.3.5-.4.8-.4z" stroke="none" fill="#000"/></g><g id="Polygon18566"><path d="m7.4 25.5h13.1v3.3H3.8V1.3h16.3v3.3H7.4v9h11.1v3.4H7.4v8.5zM42.7 21H27.5c.5 3.3 2.9 5 6.1 5c2.3 0 4.4-1 5.4-2.9l3 1.2c-1.6 3.3-4.9 5-8.5 5c-5.3 0-9.6-3.9-9.6-9.9c0-5.9 4.3-9.7 9.6-9.7c5.3 0 9.3 3.8 9.3 9.7c0 .6-.1 1.1-.1 1.6zm-3.4-3c-.5-3.2-2.7-5-5.8-5c-3.2 0-5.4 1.6-6 5h11.8zm20.2-7.6l-.5 3.3c-1-.5-2-.7-2.8-.7c-3.7 0-5.2 4.1-5.2 9c.04 0 0 6.8 0 6.8h-3.5V10.2h3.5s.04 4.2 0 4.2c1-3.3 2.8-4.7 5.3-4.7c1.3 0 2.7.3 3.2.7zm1.8 13h3.2c.1 1.6 1.5 2.9 3.7 2.9c2.4 0 3.8-1.2 3.8-2.7c0-1.4-1.1-2.1-2.6-2.4l-2.5-.6c-3.1-.9-4.9-2.4-4.9-5.4c0-3.1 2.6-5.5 6.4-5.5c3.1 0 6.4 1.7 6.4 5.4h-3.4c0-1.4-1.5-2.4-3-2.4c-1.8 0-3 1.2-3 2.6c0 1.3 1.2 2 2.4 2.3l2.8.6c3.9 1 4.9 3.3 4.9 5.4c0 3.5-3.4 5.7-7.3 5.7c-3.3 0-6.8-2.1-6.9-5.9zm27.8-13.2v3h-4v15.6h-3.5V13.2h-3.4v-3h3.4V3.1h3.5v7.1h4zM120.2 21H105c.5 3.3 2.9 5 6.1 5c2.3 0 4.3-1 5.4-2.9l3 1.2c-1.6 3.3-4.9 5-8.5 5c-5.4 0-9.6-3.9-9.6-9.9c0-5.9 4.2-9.7 9.6-9.7c5.3 0 9.2 3.8 9.2 9.7v1.6zm-3.4-3c-.5-3.2-2.8-5-5.8-5c-3.2 0-5.4 1.6-6 5h11.8zm25.8 3h-15.2c.5 3.3 2.9 5 6.1 5c2.3 0 4.3-1 5.4-2.9l3 1.2c-1.6 3.3-4.9 5-8.5 5c-5.4 0-9.6-3.9-9.6-9.9c0-5.9 4.2-9.7 9.6-9.7c5.3 0 9.2 3.8 9.2 9.7v1.6zm-3.4-3c-.5-3.2-2.8-5-5.8-5c-3.2 0-5.4 1.6-6 5h11.8zm25.4 0v10.8h-3.5s.03-10.56 0-10.6c0-3.1-1.9-5.1-4.5-5.1c-2.6 0-5.7 1.6-5.7 5.6v10.1h-3.5V10.2h3.5v2.8c1.1-2.3 4.1-3.3 6.2-3.3c4.6 0 7.5 3.1 7.5 8.3zm32.3-16.7v3.3h-8.4v24.2h-3.6V4.6h-8.4V1.3h20.4zM217.7 18v10.8h-3.5V18.2c0-3.1-1.9-5.1-4.5-5.1c-2.6 0-5.7 1.6-5.7 5.6c-.03.02 0 10.1 0 10.1h-3.5V0h3.5s-.03 13 0 13c1.1-2.3 4.1-3.3 6.2-3.3c4.6 0 7.5 3.1 7.5 8.3zm19.3-7.8h3.5v18.6H237s-.03-2.88 0-2.9c-1.1 2.4-4.1 3.4-6.2 3.4c-4.7 0-7.6-3.1-7.5-8.3c-.05-.04 0-10.8 0-10.8h3.4s.03 10.68 0 10.7c0 3.1 1.9 5.1 4.5 5.1c2.6 0 5.7-1.5 5.8-5.6c-.03.04 0-10.2 0-10.2zm8.8-6.9c0-1.3 1.1-2.3 2.4-2.3c1.4 0 2.5 1 2.5 2.3c0 1.3-1.1 2.3-2.5 2.3c-1.3 0-2.4-1-2.4-2.3zm.7 25.5V10.2h3.5v18.6h-3.5zm8-5.4h3.3c0 1.6 1.4 2.9 3.7 2.9c2.4 0 3.8-1.2 3.8-2.7c0-1.4-1.1-2.1-2.6-2.4l-2.6-.6c-3.1-.9-4.9-2.4-4.9-5.4c0-3.1 2.7-5.5 6.4-5.5c3.2 0 6.5 1.7 6.5 5.4h-3.4c0-1.4-1.5-2.4-3-2.4c-1.8 0-3 1.2-3 2.6c0 1.3 1.2 2 2.4 2.3l2.8.6c3.8 1 4.8 3.3 4.8 5.4c0 3.5-3.3 5.7-7.2 5.7c-3.4 0-6.8-2.1-7-5.9z" stroke="none" fill="#000"/></g></svg>