<?xml version="1.0" standalone="no"?><!DOCTYPE svg PUBLIC "-//W3C//DTD SVG 1.1//EN" "http://www.w3.org/Graphics/SVG/1.1/DTD/svg11.dtd"><svg xmlns="http://www.w3.org/2000/svg" version="1.1" width="510.3px" height="181.6px" viewBox="0 -7 510.3 181.6" style="top:-7px"><desc>In 2023 is er een eerste Nationale Moslimstudenten Enquete gehouden om de positie van de de moslimstudenten in kaart ...</desc><defs/><g id="Polygon18325"><path d="m315.4 156.8c1 0 1.8-.2 2.5-.7c.7-.4 1.2-1 1.5-1.7c.4-.8.5-1.5.5-2.4c0-.8-.1-1.6-.4-2.4c-.4-.7-.8-1.3-1.4-1.7c-.6-.4-1.4-.6-2.2-.6c-.9 0-1.7.2-2.4.6c-.7.4-1.2 1-1.6 1.7c-.3.7-.5 1.5-.5 2.5c0 .8.1 1.6.5 2.4c.3.7.8 1.3 1.4 1.7c.6.4 1.3.6 2.1.6zm.2-8.9c.6 0 1.2.2 1.7.6c.5.4.8.9 1.1 1.6c.2.7.3 1.5.3 2.3c0 .7-.1 1.3-.3 1.8c-.2.6-.5 1.1-1 1.4c-.4.4-1 .6-1.6.6c-.7 0-1.3-.2-1.8-.6c-.5-.4-.8-1-1-1.7c-.3-.7-.4-1.4-.4-2.2c0-.7.1-1.4.3-1.9c.2-.6.5-1.1 1-1.4c.4-.4 1-.5 1.7-.5zm8.2 8.3l-1-.2s-.03-4.29 0-4.3c.3-.3.5-.5.8-.6c.3-.1.6-.2.9-.2c.4 0 .7.1.9.4c.2.2.4.6.4 1.2c-.04-.04 0 3.5 0 3.5l-1.1.2v.4h3v-.4l-1-.2s.02-3.78 0-3.8c0-.7-.1-1.2-.4-1.6c-.3-.3-.8-.5-1.3-.5c-.4 0-.8.1-1.3.4c-.4.2-.7.5-1 .8c.05-.03 0 0 0 0l.1-1l-.1-.1l-2 .2v.4l1.1.3v4.9l-1.1.2l-.1.4h3.2v-.4zm5.5-1.4c0 .7.1 1.2.4 1.5c.2.3.6.5 1 .5c.4 0 .7-.1 1.1-.3c.3-.2.6-.4.8-.8l-.2-.3s0 .1-.1.2c-.2 0-.3.1-.5.2c-.2.1-.3.1-.5.1c-.2 0-.4 0-.6-.1c-.1-.1-.2-.3-.3-.5c-.1-.2-.1-.5-.1-1V151h2l.1-.5h-2.1v-1.7h-.3c-.2.5-.4.9-.7 1.2c-.2.3-.5.5-.9.7c.02-.02 0 .3 0 .3h.9s.02 3.78 0 3.8zm4.7-3.9l1.8 5.9l.6-.1l1.3-4.7l1.4 4.8l.6-.1l1.6-5.8l.8-.2l.1-.4h-2.6l-.1.4l1.1.2l-1.2 4.3l-.2-1.1l-1-3.5l-.8.2l-1.2 4.3l-.3-1.1l-.9-3.1l1-.2v-.4h-2.8v.4l.8.2zm11.7 5.9c.6 0 1.1-.1 1.5-.4c.5-.3.8-.7 1.1-1.2c.2-.5.4-1.1.4-1.8c0-.6-.1-1.2-.4-1.7c-.2-.5-.5-.9-.9-1.2c-.4-.3-.9-.4-1.5-.4c-.5 0-1 .1-1.5.4c-.5.3-.9.7-1.1 1.2c-.3.6-.4 1.2-.4 1.9c0 .6.1 1.2.3 1.7c.3.5.6.8 1 1.1c.5.3 1 .4 1.5.4zm-.1-6.1c.4 0 .8.2 1.1.5c.3.3.6.7.7 1.1c.2.5.2 1 .2 1.5c0 .5 0 .9-.2 1.2c-.1.4-.3.7-.5.9c-.3.2-.6.3-.9.3c-.5 0-.8-.1-1.2-.4c-.3-.3-.5-.7-.7-1.2c-.1-.4-.2-1-.2-1.5c0-.5.1-.9.2-1.2c.1-.4.3-.7.6-.9c.2-.2.5-.3.9-.3zm7.6 5.5l-1.7-.2s.02-2.78 0-2.8l.3-1.1c.1-.3.3-.5.5-.7c.1-.2.3-.3.5-.3c.3 0 .5.1.8.4c.1-.1.2-.2.3-.4c.1-.1.2-.2.2-.3c0-.2-.1-.4-.3-.5c-.1-.2-.3-.2-.6-.2c-.2 0-.4 0-.7.2c-.2.2-.4.4-.6.7c-.2.3-.3.7-.4 1.1h-.1l.1-1.8l-.1-.1l-1.9.2l-.1.4l1.2.3v4.9l-1.2.2v.4h3.7l.1-.4zm4.7 2.7l-1.1-.2v-6.9c.2-.3.5-.5.7-.7c.3-.1.6-.2.9-.2c.5 0 .9.2 1.2.7c.3.5.4 1.2.4 2.1c0 .5-.1.9-.2 1.3c-.2.4-.4.7-.7.9c-.2.1-.5.2-.9.2h-.6c-.2 0-.4-.1-.5-.1v.7c.3 0 .5.1.7.1c.6 0 1.2-.2 1.7-.5c.5-.3.9-.7 1.1-1.2c.3-.6.4-1.2.4-1.9c0-.7 0-1.3-.2-1.7c-.2-.5-.5-.8-.8-1c-.3-.3-.7-.4-1.2-.4c-.4 0-.8.1-1.1.4c-.4.2-.7.5-.9.8c0 .03-.1 0-.1 0l.1-1l-.1-.1l-1.9.2l-.1.4l1.1.3v7.6l-1.1.2v.4h3.2v-.4zm6.5-2.1c.5 0 .9-.1 1.3-.2c.4-.2.7-.4 1-.7l-.2-.4c-.2.2-.5.4-.7.4c-.3.1-.6.1-.9.1c-.4 0-.8-.1-1.1-.3c-.3-.3-.6-.6-.7-1c-.2-.4-.3-.9-.3-1.3l3.6-.1c0-.1 0-.3.1-.5v-.4c0-.8-.2-1.3-.5-1.7c-.3-.4-.8-.6-1.3-.6c-.5 0-1 .2-1.4.4c-.5.3-.8.7-1.1 1.2c-.3.5-.4 1.1-.4 1.8c0 .8.1 1.4.3 1.9c.3.4.6.8 1 1.1c.4.2.8.3 1.3.3zm-.1-6.1c.4 0 .6.1.8.4c.3.3.4.6.4 1c0 .3-.1.5-.1.6l-2.6.2c0-.5.1-.9.2-1.2c.2-.3.4-.6.6-.8c.2-.1.4-.2.7-.2zm6.3 5.5l-1.1-.2v-4.3c.3-.3.6-.5.8-.6c.3-.1.6-.2.9-.2c.4 0 .7.1.9.4c.3.2.4.6.4 1.2c-.02-.04 0 3.5 0 3.5l-1 .2l-.1.4h3l.1-.4l-1.1-.2s.04-3.78 0-3.8c0-.7-.1-1.2-.4-1.6c-.3-.3-.7-.5-1.3-.5c-.4 0-.8.1-1.2.4c-.5.2-.8.5-1 .8c-.03-.03-.1 0-.1 0l.1-1l-.1-.1l-1.9.2l-.1.4l1.1.3v4.9l-1.1.2v.4h3.1l.1-.4zm7.8-5.2l2 5.8l.7-.1l2-5.7l.8-.3l.1-.4h-2.6l-.1.4l1.2.3l-1.6 4.4l-1.5-4.4l1.1-.3v-.4h-3v.4l.9.3zm9.2 5.8c.5 0 1-.1 1.4-.4c.5-.3.9-.7 1.1-1.2c.3-.5.4-1.1.4-1.8c0-.6-.1-1.2-.3-1.7c-.3-.5-.6-.9-1-1.2c-.4-.3-.9-.4-1.4-.4c-.6 0-1.1.1-1.6.4c-.4.3-.8.7-1.1 1.2c-.3.6-.4 1.2-.4 1.9c0 .6.1 1.2.4 1.7c.2.5.5.8 1 1.1c.4.3.9.4 1.5.4zm-.2-6.1c.5 0 .8.2 1.2.5c.3.3.5.7.6 1.1c.2.5.3 1 .3 1.5c0 .5-.1.9-.2 1.2c-.2.4-.3.7-.6.9c-.2.2-.5.3-.9.3c-.4 0-.8-.1-1.1-.4c-.3-.3-.6-.7-.7-1.2c-.2-.4-.3-1-.3-1.5c0-.5.1-.9.2-1.2c.2-.4.4-.7.6-.9c.3-.2.6-.3.9-.3zm6.7 6.1c.5 0 1-.1 1.5-.4c.4-.3.8-.7 1.1-1.2c.2-.5.4-1.1.4-1.8c0-.6-.2-1.2-.4-1.7c-.2-.5-.5-.9-.9-1.2c-.5-.3-1-.4-1.5-.4c-.6 0-1.1.1-1.5.4c-.5.3-.9.7-1.2 1.2c-.2.6-.4 1.2-.4 1.9c0 .6.2 1.2.4 1.7c.2.5.6.8 1 1.1c.4.3.9.4 1.5.4zm-.1-6.1c.4 0 .8.2 1.1.5c.3.3.5.7.7 1.1c.1.5.2 1 .2 1.5c0 .5 0 .9-.2 1.2c-.1.4-.3.7-.6.9c-.2.2-.5.3-.8.3c-.5 0-.9-.1-1.2-.4c-.3-.3-.5-.7-.7-1.2c-.2-.4-.2-1-.2-1.5c0-.5 0-.9.2-1.2c.1-.4.3-.7.6-.9c.2-.2.5-.3.9-.3zm7.6 5.5l-1.7-.2v-2.8c.1-.4.1-.7.3-1.1c.1-.3.3-.5.4-.7c.2-.2.4-.3.6-.3c.3 0 .5.1.8.4c.1-.1.2-.2.3-.4c.1-.1.1-.2.1-.3c0-.2 0-.4-.2-.5c-.1-.2-.3-.2-.6-.2c-.2 0-.5 0-.7.2c-.2.2-.4.4-.6.7c-.2.3-.3.7-.4 1.1h-.1l.1-1.8l-.2-.1l-1.9.2v.4l1.1.3v4.9l-1.1.2v.4h3.7l.1-.4zm6.5.6c.4 0 .7 0 .9-.1c.3-.1.6-.2.8-.4c.3-.1.5-.3.6-.4l-.2-.4c-.4.4-1 .6-1.6.6c-.4 0-.8-.1-1.1-.4c-.3-.2-.6-.6-.8-1.1c-.1-.4-.2-.9-.2-1.5c0-.5.1-.9.2-1.3c.1-.4.3-.6.6-.8c.2-.2.5-.3.7-.3c.4 0 .6.1.9.3c.2.3.3.6.5 1c.5-.1.7-.3.7-.7c0-.2-.1-.4-.2-.6c-.1-.2-.3-.3-.5-.4c-.3-.1-.6-.2-1-.2c-.5 0-1 .2-1.5.4c-.4.3-.8.8-1 1.3c-.3.5-.4 1.1-.4 1.9c0 .5.1 1.1.3 1.6c.2.4.5.8.9 1.1c.4.3.9.4 1.4.4zm5.8 0c.6 0 1.1-.1 1.5-.4c.5-.3.8-.7 1.1-1.2c.2-.5.4-1.1.4-1.8c0-.6-.1-1.2-.4-1.7c-.2-.5-.5-.9-.9-1.2c-.4-.3-.9-.4-1.5-.4c-.5 0-1 .1-1.5.4c-.5.3-.8.7-1.1 1.2c-.3.6-.4 1.2-.4 1.9c0 .6.1 1.2.3 1.7c.3.5.6.8 1 1.1c.5.3 1 .4 1.5.4zm-.1-6.1c.4 0 .8.2 1.1.5c.3.3.6.7.7 1.1c.2.5.2 1 .2 1.5c0 .5 0 .9-.2 1.2c-.1.4-.3.7-.5.9c-.3.2-.6.3-.9.3c-.5 0-.8-.1-1.2-.4c-.3-.3-.5-.7-.7-1.2c-.1-.4-.2-1-.2-1.5c0-.5.1-.9.2-1.2c.1-.4.3-.7.6-.9c.2-.2.6-.3.9-.3zm7 5.5l-1.1-.2s.02-4.26 0-4.3c.2-.2.5-.4.8-.6c.3-.1.6-.2.9-.2c.4 0 .7.1 1 .4c.2.3.3.7.3 1.1c-.01.02 0 3.6 0 3.6l-1 .2v.4h2.9v-.4l-1-.2s.02-4.22 0-4.2c.2-.3.5-.5.8-.6c.2-.2.5-.3.9-.3c.4 0 .7.1.9.4c.2.3.3.6.3 1.1c.05.02 0 3.6 0 3.6l-.9.2l-.1.4h3l.1-.4l-1.1-.2v-3.8c0-.6-.1-1.1-.4-1.5c-.3-.4-.7-.6-1.3-.6c-.4 0-.9.2-1.2.4c-.4.2-.8.5-1 .8h-.1c-.1-.4-.3-.7-.6-.9c-.2-.2-.6-.3-1-.3c-.4 0-.8.1-1.2.4c-.4.2-.7.5-1 .8h-.1l.1-1l-.1-.1l-1.9.2l-.1.4l1.2.3v4.9l-1.2.2v.4h3.1l.1-.4zm11.7 2.7l-1.2-.2s.02-6.93 0-6.9c.3-.3.5-.5.8-.7c.2-.1.5-.2.8-.2c.5 0 1 .2 1.2.7c.3.5.4 1.2.4 2.1c0 .5 0 .9-.2 1.3c-.1.4-.4.7-.6.9c-.3.1-.6.2-.9.2h-.7c-.2 0-.4-.1-.5-.1v.7c.3 0 .6.1.8.1c.6 0 1.1-.2 1.6-.5c.5-.3.9-.7 1.2-1.2c.2-.6.4-1.2.4-1.9c0-.7-.1-1.3-.3-1.7c-.2-.5-.5-.8-.8-1c-.3-.3-.7-.4-1.1-.4c-.5 0-.9.1-1.2.4c-.4.2-.6.5-.9.8c.02.03 0 0 0 0v-1l-.1-.1l-1.9.2l-.1.4l1.2.3v7.6l-1.1.2l-.1.4h3.2l.1-.4zm4.8-4.3c0 1.5.5 2.2 1.7 2.2c.4 0 .7-.1 1.1-.3c.3-.2.6-.5.9-.8c0-.05.1 0 .1 0c0 0-.02.04 0 0c0 .3.1.6.2.8c.2.2.5.3.8.3c.2 0 .3 0 .4-.1c.2 0 .3 0 .5-.1c.01.02.1-.4.1-.4l-.4-.1c-.3 0-.5-.2-.6-.3c-.1-.2-.2-.4-.2-.8c.04-.02 0-4.7 0-4.7l-.1-.1l-1.9.2l-.1.4l1.2.3v4.1c-.2.3-.4.4-.7.6c-.2.1-.5.2-.8.2c-.9 0-1.3-.6-1.3-1.7c.03 0 0-4 0-4l-.1-.1l-1.8.2l-.1.4l1.1.3v3.5zm7.3.2c0 .7.1 1.2.4 1.5c.2.3.6.5 1 .5c.4 0 .7-.1 1.1-.3c.3-.2.6-.4.8-.8l-.1-.3l-.2.2c-.2 0-.3.1-.5.2c-.1.1-.3.1-.5.1c-.2 0-.4 0-.5-.1c-.2-.1-.3-.3-.4-.5c0-.2-.1-.5-.1-1c.02.05 0-3.3 0-3.3h2.1v-.5h-2.1v-1.7h-.3c-.2.5-.4.9-.7 1.2c-.2.3-.5.5-.9.7c.04-.02 0 .3 0 .3h1s-.06 3.78-.1 3.8zm6.6 2c.5 0 .9-.1 1.3-.2c.4-.2.7-.4 1-.7l-.2-.4c-.2.2-.5.4-.7.4c-.3.1-.6.1-.9.1c-.4 0-.8-.1-1.1-.3c-.4-.3-.6-.6-.7-1c-.2-.4-.3-.9-.3-1.3l3.6-.1c0-.1 0-.3.1-.5v-.4c0-.8-.2-1.3-.5-1.7c-.3-.4-.8-.6-1.3-.6c-.5 0-1 .2-1.4.4c-.5.3-.8.7-1.1 1.2c-.3.5-.4 1.1-.4 1.8c0 .8.1 1.4.3 1.9c.3.4.6.8 1 1.1c.4.2.8.3 1.3.3zm-.1-6.1c.4 0 .6.1.8.4c.3.3.4.6.4 1c0 .3-.1.5-.1.6l-2.6.2c0-.5.1-.9.2-1.2c.2-.3.4-.6.6-.8c.2-.1.4-.2.7-.2zm6.9 5.5l-1.7-.2v-2.8c.1-.4.1-.7.3-1.1c.1-.3.3-.5.4-.7c.2-.2.4-.3.6-.3c.3 0 .5.1.8.4c.1-.1.2-.2.3-.4c.1-.1.1-.2.1-.3c0-.2 0-.4-.2-.5c-.1-.2-.3-.2-.6-.2c-.2 0-.4 0-.7.2c-.2.2-.4.4-.6.7c-.2.3-.3.7-.4 1.1h-.1l.1-1.8l-.2-.1l-1.9.2v.4l1.2.3v4.9l-1.2.2v.4h3.7l.1-.4zm6.7.6c.6 0 1.1-.1 1.5-.4c.5-.3.8-.7 1.1-1.2c.2-.5.4-1.1.4-1.8c0-.6-.1-1.2-.4-1.7c-.2-.5-.5-.9-.9-1.2c-.4-.3-.9-.4-1.5-.4c-.5 0-1 .1-1.5.4c-.5.3-.8.7-1.1 1.2c-.3.6-.4 1.2-.4 1.9c0 .6.1 1.2.3 1.7c.3.5.6.8 1 1.1c.5.3 1 .4 1.5.4zm-.1-6.1c.4 0 .8.2 1.1.5c.3.3.6.7.7 1.1c.2.5.2 1 .2 1.5c0 .5 0 .9-.2 1.2c-.1.4-.3.7-.5.9c-.3.2-.6.3-.9.3c-.5 0-.8-.1-1.2-.4c-.3-.3-.5-.7-.7-1.2c-.1-.4-.2-1-.2-1.5c0-.5.1-.9.2-1.2c.1-.4.3-.7.6-.9c.2-.2.6-.3.9-.3zm7.7 5.5l-1.8-.2v-5.2h1.8l.1-.5h-1.9s.04-.87 0-.9c0-.5.1-1 .3-1.3c.2-.3.5-.4.8-.4c.2 0 .5.1.7.2c.2.2.4.4.6.7l.3-.3c.1-.1.2-.3.2-.4c0-.3-.1-.5-.4-.6c-.2-.2-.5-.2-.9-.2c-.4 0-.7.1-1.1.3c-.4.3-.7.6-.9 1.1c-.3.5-.5 1.1-.5 1.8c-.05-.03-1.1.1-1.1.1v.4h1v5.2l-1.1.2l-.1.4h4v-.4zm6.3.4l.1-.4l-1.2-.2v-8.8l-.1-.1l-2 .1v.4l1.1.3v8.1l-1.1.2l-.1.4h3.3zm2.2.2c.4 0 .7-.1 1-.2c.3-.1.5-.3.7-.4c.2-.2.3-.4.4-.5c-.03-.03 0 0 0 0c0 0 .03.07 0 .1c0 .2.1.5.3.7c.2.2.4.2.8.2h.3c.1 0 .2 0 .4-.1c-.02.04.1 0 .1 0l.1-.4s-.43-.12-.4-.1c-.2-.1-.4-.1-.5-.2c-.1-.1-.2-.2-.2-.4c-.1-.1-.1-.3-.1-.6v-2.5c0-.8-.1-1.4-.4-1.7c-.3-.4-.7-.6-1.4-.6c-.3 0-.7.1-1 .2c-.4.2-.7.4-.9.6c-.3.2-.4.5-.4.7c0 .3.1.5.3.5c.1.1.3.2.5.2c.1-.4.1-.7.2-.9c0-.3.1-.4.2-.6c.2-.1.3-.1.6-.1c.5 0 .9.1 1.1.5c.2.4.3.9.3 1.6v.4c-.8.1-1.4.2-1.9.4c-.5.2-.9.4-1.2.8c-.2.3-.4.6-.4 1.1c0 .2.1.5.2.7c.2.2.4.3.6.4c.2.1.5.2.7.2zm2-1.6c-.1.3-.3.5-.6.6c-.3.2-.6.3-.9.3c-.2 0-.3 0-.5-.1c-.1-.1-.3-.2-.3-.4c-.1-.1-.1-.3-.1-.4c0-.9.8-1.4 2.4-1.6v1.6zm5.7 3.7l-1.1-.2v-6.9l.7-.7c.3-.1.6-.2.9-.2c.5 0 .9.2 1.2.7c.3.5.4 1.2.4 2.1c0 .5-.1.9-.2 1.3c-.2.4-.4.7-.6.9c-.3.1-.6.2-1 .2h-.6c-.2 0-.4-.1-.5-.1v.7c.3 0 .5.1.7.1c.7 0 1.2-.2 1.7-.5c.5-.3.9-.7 1.1-1.2c.3-.6.5-1.2.5-1.9c0-.7-.1-1.3-.3-1.7c-.2-.5-.5-.8-.8-1c-.3-.3-.7-.4-1.1-.4c-.5 0-.9.1-1.2.4c-.4.2-.7.5-.9.8c0 .03 0 0 0 0v-1l-.1-.1l-1.9.2l-.1.4l1.2.3v7.6l-1.2.2v.4h3.2v-.4zm4.7-4.1c0 .7.1 1.2.4 1.5c.2.3.5.5 1 .5c.4 0 .7-.1 1-.3c.4-.2.6-.4.9-.8l-.2-.3s0 .1-.2.2c-.1 0-.2.1-.4.2c-.2.1-.3.1-.5.1c-.2 0-.4 0-.6-.1c-.1-.1-.2-.3-.3-.5c-.1-.2-.1-.5-.1-1c-.01.05 0-3.3 0-3.3h2l.1-.5h-2.1v-1.7h-.3c-.2.5-.4.9-.7 1.2c-.2.3-.5.5-.9.7v.3h.9v3.8zm6.8 2c.6 0 1-.1 1.5-.4c.4-.3.8-.7 1.1-1.2c.2-.5.4-1.1.4-1.8c0-.6-.2-1.2-.4-1.7c-.2-.5-.5-.9-.9-1.2c-.5-.3-.9-.4-1.5-.4c-.5 0-1.1.1-1.5.4c-.5.3-.9.7-1.1 1.2c-.3.6-.5 1.2-.5 1.9c0 .6.2 1.2.4 1.7c.2.5.6.8 1 1.1c.4.3 1 .4 1.5.4zm-.1-6.1c.4 0 .8.2 1.1.5c.3.3.5.7.7 1.1c.1.5.2 1 .2 1.5c0 .5 0 .9-.2 1.2c-.1.4-.3.7-.5.9c-.3.2-.6.3-.9.3c-.5 0-.9-.1-1.2-.4c-.3-.3-.5-.7-.7-1.2c-.1-.4-.2-1-.2-1.5c0-.5 0-.9.2-1.2c.1-.4.3-.7.6-.9c.2-.2.5-.3.9-.3zm7 8.2l-1.2-.2v-6.9c.3-.3.5-.5.8-.7c.2-.1.5-.2.8-.2c.5 0 .9.2 1.2.7c.3.5.4 1.2.4 2.1c0 .5-.1.9-.2 1.3c-.2.4-.4.7-.6.9c-.3.1-.6.2-1 .2h-.6c-.2 0-.4-.1-.5-.1v.7c.3 0 .6.1.8.1c.6 0 1.1-.2 1.6-.5c.5-.3.9-.7 1.1-1.2c.3-.6.5-1.2.5-1.9c0-.7-.1-1.3-.3-1.7c-.2-.5-.5-.8-.8-1c-.3-.3-.7-.4-1.1-.4c-.5 0-.9.1-1.2.4c-.4.2-.7.5-.9.8c.01.03 0 0 0 0v-1l-.1-.1l-1.9.2l-.1.4l1.2.3v7.6l-1.2.2v.4h3.2l.1-.4z" stroke="none" fill="#000"/></g><g id="Polygon18324"><path d="m6.6 109.5l-.3 1.5c-.4-.2-.8-.3-1.2-.3c-1.6 0-2.2 1.8-2.2 3.9c-.03.02 0 3 0 3H1.3v-8.2h1.6s-.03 1.9 0 1.9c.4-1.4 1.2-2.1 2.3-2.1c.5 0 1.1.2 1.4.3zm7.7-.1h1.5v8.2h-1.5s-.04-1.44 0-1.4c-.6.9-1.7 1.6-3 1.6c-2.2 0-4-1.8-4-4.3c0-2.4 1.7-4.3 4-4.3c1.3 0 2.4.6 3 1.5c-.04.02 0-1.3 0-1.3zm0 4.1c0-1.7-1.5-2.8-2.8-2.8c-1.5 0-2.7 1.3-2.7 2.8c0 1.6 1.2 2.9 2.7 2.9c1.5 0 2.8-1.2 2.8-2.9zm12.7 0c0 2.6-1.9 4.3-4.1 4.3c-1.2 0-2.4-.5-2.9-1.5c-.03.04 0 5.3 0 5.3h-1.6v-12.2h1.6s-.03 1.32 0 1.3c.5-.9 1.7-1.5 2.9-1.5c2.2 0 4.1 1.8 4.1 4.3zm-1.6.1c0-1.7-1.2-2.9-2.7-2.9c-1.4 0-2.7 1.1-2.7 2.9c0 1.7 1.4 2.8 2.7 2.8c1.5 0 2.7-1.2 2.7-2.8zm12.2-.1c0 2.6-1.8 4.3-4.1 4.3c-1.2 0-2.4-.5-2.9-1.5v5.3h-1.5v-12.2h1.5v1.3c.5-.9 1.7-1.5 2.9-1.5c2.3 0 4.1 1.8 4.1 4.3zm-1.5.1c0-1.7-1.2-2.9-2.7-2.9c-1.5 0-2.8 1.1-2.8 2.9c0 1.7 1.4 2.8 2.8 2.8c1.5 0 2.7-1.2 2.7-2.8zm3.1-.1c0-2.6 1.9-4.3 4.2-4.3c2.4 0 4.3 1.7 4.3 4.3c0 2.6-1.9 4.3-4.3 4.3c-2.3 0-4.2-1.7-4.2-4.3zm7 0c0-1.7-1.3-2.8-2.8-2.8c-1.5 0-2.7 1.1-2.7 2.8c0 1.7 1.2 2.9 2.7 2.9c1.5 0 2.8-1.2 2.8-2.9zm8.9-4l-.3 1.5c-.4-.2-.8-.3-1.1-.3c-1.7 0-2.3 1.8-2.3 3.9c-.02.02 0 3 0 3h-1.6v-8.2h1.6s-.02 1.9 0 1.9c.4-1.4 1.2-2.1 2.3-2.1c.5 0 1.1.2 1.4.3zm5.4-.1v1.4h-1.7v6.8h-1.6v-6.8h-1.4v-1.4h1.4v-3h1.6v3h1.7zm8 0h1.5v8.2h-1.5v-1.4c-.5.9-1.7 1.6-3 1.6c-2.1 0-4-1.8-4-4.3c0-2.4 1.8-4.3 4.1-4.3c1.2 0 2.4.6 2.9 1.5v-1.3zm0 4.1c0-1.7-1.4-2.8-2.8-2.8c-1.5 0-2.7 1.3-2.7 2.8c0 1.6 1.2 2.9 2.7 2.9c1.5 0 2.8-1.2 2.8-2.9zm10.6-4.1h1.6s-.04 7.08 0 7.1c0 3.8-1.8 5.3-4.5 5.3c-1.5 0-2.9-.8-3.7-2.2l1.3-.7c.5 1 1.5 1.5 2.4 1.5c1.8 0 2.9-1.1 2.9-3.8v-.3c-.5 1-1.7 1.5-2.9 1.5c-2.2 0-4.1-1.7-4.1-4.3c0-2.6 1.9-4.3 4.1-4.3c1.2 0 2.4.6 2.9 1.5c.03.02 0-1.3 0-1.3zm0 4.1c0-1.8-1.4-2.8-2.7-2.8c-1.5 0-2.7 1.2-2.7 2.8c0 1.6 1.2 2.9 2.7 2.9c1.4 0 2.7-1.1 2.7-2.9zm11.9.7h-6.7c.3 1.4 1.3 2.2 2.7 2.2c1 0 1.9-.5 2.4-1.3l1.3.5c-.7 1.5-2.2 2.2-3.7 2.2c-2.4 0-4.2-1.7-4.2-4.3c0-2.6 1.8-4.3 4.2-4.3c2.3 0 4 1.7 4 4.3v.7zm-1.5-1.3c-.2-1.4-1.2-2.2-2.5-2.2c-1.4 0-2.4.7-2.6 2.2h5.1zm7.5.6c0-2.6 1.9-4.3 4.3-4.3c2.3 0 4.2 1.7 4.2 4.3c0 2.6-1.9 4.3-4.2 4.3c-2.4 0-4.3-1.7-4.3-4.3zm7 0c0-1.7-1.2-2.8-2.7-2.8c-1.5 0-2.8 1.1-2.8 2.8c0 1.7 1.3 2.9 2.8 2.9c1.5 0 2.7-1.2 2.7-2.9zm12.2 0c0 2.6-1.9 4.3-4.1 4.3c-1.2 0-2.4-.5-2.9-1.5c-.02.04 0 5.3 0 5.3h-1.5v-12.2h1.5s-.02 1.32 0 1.3c.5-.9 1.7-1.5 2.9-1.5c2.2 0 4.1 1.8 4.1 4.3zm-1.6.1c0-1.7-1.1-2.9-2.7-2.9c-1.4 0-2.7 1.1-2.7 2.9c0 1.7 1.4 2.8 2.7 2.8c1.6 0 2.7-1.2 2.7-2.8zm10.2-4.2h1.5s-.02 7.08 0 7.1c0 3.8-1.8 5.3-4.5 5.3c-1.5 0-2.8-.8-3.6-2.2l1.3-.7c.5 1 1.4 1.5 2.3 1.5c1.8 0 3-1.1 3-3.8v-.3c-.6 1-1.8 1.5-2.9 1.5c-2.3 0-4.1-1.7-4.1-4.3c0-2.6 1.8-4.3 4-4.3c1.3 0 2.4.6 3 1.5c-.04.02 0-1.3 0-1.3zm0 4.1c0-1.8-1.5-2.8-2.8-2.8c-1.5 0-2.7 1.2-2.7 2.8c0 1.6 1.2 2.9 2.7 2.9c1.4 0 2.8-1.1 2.8-2.9zm11.8.7H130c.2 1.4 1.2 2.2 2.6 2.2c1 0 2-.5 2.4-1.3l1.3.5c-.7 1.5-2.1 2.2-3.7 2.2c-2.3 0-4.2-1.7-4.2-4.3c0-2.6 1.9-4.3 4.2-4.3c2.3 0 4.1 1.7 4.1 4.3c0 .2-.1.5-.1.7zm-1.5-1.3c-.2-1.4-1.2-2.2-2.5-2.2c-1.4 0-2.4.7-2.6 2.2h5.1zm16.5 0v4.7h-1.5s-.02-4.62 0-4.6c0-1.4-.8-2.3-2-2.3c-1.4 0-2.2 1-2.2 2.8c.03.02 0 4.1 0 4.1h-1.5V113c0-1.4-.7-2.3-1.8-2.3c-1.2 0-2.3.8-2.3 2.5c-.04-.01 0 4.4 0 4.4h-1.6v-8.2h1.6s-.04 1.3 0 1.3c.4-.9 1.4-1.5 2.6-1.5c1.2 0 2.2.7 2.7 1.8c.7-1.5 2-1.8 2.8-1.8c2.1 0 3.2 1.4 3.2 3.7zm9-3.5h1.5v8.2h-1.5s-.02-1.44 0-1.4c-.6.9-1.7 1.6-3 1.6c-2.1 0-4-1.8-4-4.3c0-2.4 1.7-4.3 4.1-4.3c1.2 0 2.3.6 2.9 1.5c-.02.02 0-1.3 0-1.3zm0 4.1c0-1.7-1.4-2.8-2.8-2.8c-1.5 0-2.7 1.3-2.7 2.8c0 1.6 1.2 2.9 2.7 2.9c1.5 0 2.8-1.2 2.8-2.9zm10.6-4.1h1.5v8.2h-1.5v-1.4c-.5.9-1.7 1.6-3 1.6c-2.1 0-4-1.8-4-4.3c0-2.4 1.8-4.3 4.1-4.3c1.2 0 2.4.6 2.9 1.5v-1.3zm0 4.1c0-1.7-1.4-2.8-2.8-2.8c-1.5 0-2.7 1.3-2.7 2.8c0 1.6 1.2 2.9 2.7 2.9c1.5 0 2.8-1.2 2.8-2.9zm11.5 4.1h-2l-3.8-4v4h-1.5V105h1.5v7.3l2.8-2.9h2.2l-3.5 3.6l4.3 4.6zm5.1-8.2v1.4H186v6.8h-1.5v-6.8H183v-1.4h1.5v-3h1.5v3h1.8zm.9 7.3c0-.6.5-1 1.1-1c.6 0 1.2.4 1.2 1c0 .7-.6 1.1-1.2 1.1c-.6 0-1.1-.4-1.1-1.1z" stroke="none" fill="#000"/></g><g id="Polygon18323"><path d="m1 85.4c0-.5.5-1 1.1-1c.6 0 1.1.5 1.1 1c0 .6-.5 1-1.1 1c-.6 0-1.1-.4-1.1-1zm.3 11.2v-8.2h1.6v8.2H1.3zM13 91.9c.02-.01 0 4.7 0 4.7h-1.5V92c0-1.4-.8-2.3-2-2.3c-1.1 0-2.5.7-2.5 2.5c.02-.01 0 4.4 0 4.4H5.5v-8.2h1.5s.02 1.29 0 1.3c.5-1 1.8-1.5 2.7-1.5c2.1 0 3.3 1.4 3.3 3.7zm6.4-3.5v1.4h-1.8v6.8h-1.5v-6.8h-1.5v-1.4h1.5v-3h1.5v3h1.8zm9.2 4.8h-6.7c.3 1.4 1.3 2.2 2.7 2.2c1 0 1.9-.5 2.4-1.3l1.3.5c-.7 1.5-2.2 2.2-3.7 2.2c-2.4 0-4.2-1.7-4.2-4.3c0-2.6 1.8-4.3 4.2-4.3c2.3 0 4 1.7 4 4.3v.7zm-1.5-1.3c-.2-1.4-1.2-2.2-2.5-2.2c-1.4 0-2.4.7-2.7 2.2h5.2zm8.8-3.4l-.2 1.5c-.4-.2-.9-.3-1.2-.3c-1.6 0-2.3 1.8-2.3 3.9c.03.02 0 3 0 3h-1.5v-8.2h1.5s.03 1.9 0 1.9c.5-1.4 1.2-2.1 2.3-2.1c.6 0 1.2.2 1.4.3zm7.7-.1h1.5v8.2h-1.5s.03-1.44 0-1.4c-.5.9-1.7 1.6-3 1.6c-2.1 0-4-1.8-4-4.3c0-2.4 1.8-4.3 4.1-4.3c1.2 0 2.4.6 2.9 1.5c.03.02 0-1.3 0-1.3zm0 4.1c0-1.7-1.4-2.8-2.8-2.8c-1.4 0-2.6 1.3-2.6 2.8c0 1.6 1.2 2.9 2.7 2.9c1.4 0 2.7-1.2 2.7-2.9zm3.6 0c0-2.6 2.1-4.3 4.4-4.3c1.3 0 2.4.5 3.1 1.3l-.9 1c-.5-.5-1.3-.8-2.1-.8c-1.6 0-2.9 1.1-2.9 2.8c0 1.7 1.3 2.9 2.9 2.9c.8 0 1.6-.3 2.1-.9l.9 1c-.7.8-1.8 1.3-3.1 1.3c-2.3 0-4.4-1.7-4.4-4.3zm13.4-4.1v1.4h-1.8v6.8h-1.5v-6.8h-1.5v-1.4h1.5v-3h1.5v3h1.8zm1.4-3c0-.5.5-1 1-1c.6 0 1.1.5 1.1 1c0 .6-.5 1-1.1 1c-.5 0-1-.4-1-1zm.3 11.2v-8.2h1.5v8.2h-1.5zm11.8-3.4h-6.6c.2 1.4 1.3 2.2 2.7 2.2c1 0 1.9-.5 2.3-1.3l1.3.5c-.7 1.5-2.1 2.2-3.7 2.2c-2.3 0-4.2-1.7-4.2-4.3c0-2.6 1.9-4.3 4.2-4.3c2.3 0 4.1 1.7 4.1 4.3c0 .2-.1.5-.1.7zm-1.5-1.3c-.2-1.4-1.1-2.2-2.5-2.2c-1.4 0-2.4.7-2.6 2.2h5.1zm9-3.5h1.7l-3.4 8.2h-1.5L75 88.4h1.6l2.5 6.3l2.5-6.3zm10.7 4.8h-6.6c.2 1.4 1.3 2.2 2.7 2.2c1 0 1.9-.5 2.4-1.3l1.3.5c-.7 1.5-2.2 2.2-3.8 2.2c-2.3 0-4.2-1.7-4.2-4.3c0-2.6 1.9-4.3 4.2-4.3c2.3 0 4.1 1.7 4.1 4.3c0 .2 0 .5-.1.7zm-1.4-1.3c-.2-1.4-1.2-2.2-2.6-2.2c-1.4 0-2.3.7-2.6 2.2h5.2zm8.2-6.5c0-.5.5-1 1.1-1c.6 0 1.1.5 1.1 1c0 .6-.5 1-1.1 1c-.6 0-1.1-.4-1.1-1zm.3 11.2v-8.2h1.5v8.2h-1.5zm11.7-4.7v4.7h-1.5s-.02-4.62 0-4.6c0-1.4-.9-2.3-2-2.3c-1.1 0-2.5.7-2.5 2.5v4.4h-1.5v-8.2h1.5v1.3c.5-1 1.8-1.5 2.7-1.5c2 0 3.3 1.4 3.3 3.7zm6.4-6.5c-1.4 0-1.8.9-1.8 2c.02-.01 0 1 0 1h1.9v1.4h-1.9v6.8h-1.5v-6.8h-1.6v-1.4h1.6v-.8c0-2.1.9-3.6 3.1-3.6h.9v1.4s-.66.03-.7 0zm1.1 7.1c0-2.6 1.9-4.3 4.2-4.3c2.4 0 4.3 1.7 4.3 4.3c0 2.6-1.9 4.3-4.3 4.3c-2.3 0-4.2-1.7-4.2-4.3zm7 0c0-1.7-1.3-2.8-2.8-2.8c-1.5 0-2.7 1.1-2.7 2.8c0 1.7 1.2 2.9 2.7 2.9c1.5 0 2.8-1.2 2.8-2.9zm10.1-4.1h1.5v7.1c0 3.8-1.7 5.3-4.4 5.3c-1.5 0-2.9-.8-3.7-2.2l1.3-.7c.5 1 1.5 1.5 2.4 1.5c1.8 0 2.9-1.1 2.9-3.8v-.3c-.6 1-1.7 1.5-2.9 1.5c-2.3 0-4.1-1.7-4.1-4.3c0-2.6 1.8-4.3 4.1-4.3c1.2 0 2.3.6 2.9 1.5v-1.3zm0 4.1c0-1.8-1.4-2.8-2.8-2.8c-1.5 0-2.7 1.2-2.7 2.8c0 1.6 1.2 2.9 2.7 2.9c1.5 0 2.8-1.1 2.8-2.9zm9.4-4l-.2 1.5c-.5-.2-.9-.3-1.2-.3c-1.6 0-2.3 1.8-2.3 3.9v3h-1.5v-8.2h1.5v1.9c.4-1.4 1.2-2.1 2.3-2.1c.6 0 1.2.2 1.4.3zm7.7-.1h1.5v8.2h-1.5v-1.4c-.5.9-1.7 1.6-3 1.6c-2.1 0-4-1.8-4-4.3c0-2.4 1.8-4.3 4.1-4.3c1.2 0 2.4.6 2.9 1.5v-1.3zm0 4.1c0-1.7-1.4-2.8-2.8-2.8c-1.5 0-2.7 1.3-2.7 2.8c0 1.6 1.2 2.9 2.7 2.9c1.5 0 2.8-1.2 2.8-2.9zm12.7 0c0 2.6-1.8 4.3-4.1 4.3c-1.2 0-2.3-.5-2.9-1.5v5.3H157V88.4h1.5v1.3c.6-.9 1.7-1.5 2.9-1.5c2.3 0 4.1 1.8 4.1 4.3zm-1.5.1c0-1.7-1.2-2.9-2.7-2.9c-1.5 0-2.8 1.1-2.8 2.9c0 1.7 1.4 2.8 2.8 2.8c1.5 0 2.7-1.2 2.7-2.8zm11.2-.7c-.05-.01 0 4.7 0 4.7h-1.6s.03-4.62 0-4.6c0-1.4-.8-2.3-1.9-2.3c-1.2 0-2.6.7-2.6 2.5c.05-.01 0 4.4 0 4.4h-1.5V84h1.5s.05 5.69 0 5.7c.5-1 1.9-1.5 2.8-1.5c2 0 3.3 1.4 3.3 3.7zm2.2-6.5c0-.5.5-1 1-1c.6 0 1.1.5 1.1 1c0 .6-.5 1-1.1 1c-.5 0-1-.4-1-1zm.3 11.2v-8.2h1.5v8.2h-1.5zm3.6-4.1c0-2.6 2-4.3 4.4-4.3c1.2 0 2.4.5 3.1 1.3l-1 1c-.5-.5-1.2-.8-2.1-.8c-1.6 0-2.9 1.1-2.9 2.8c0 1.7 1.3 2.9 2.9 2.9c.9 0 1.6-.3 2.1-.9l1 1c-.7.8-1.9 1.3-3.1 1.3c-2.4 0-4.4-1.7-4.4-4.3zm19.9-4.1h1.7l-3.4 8.2H198l-3.4-8.2h1.6l2.5 6.3l2.5-6.3zm2.5 4.1c0-2.6 2-4.3 4.3-4.3c2.3 0 4.3 1.7 4.3 4.3c0 2.6-2 4.3-4.3 4.3c-2.3 0-4.3-1.7-4.3-4.3zm7 0c0-1.7-1.2-2.8-2.7-2.8c-1.5 0-2.8 1.1-2.8 2.8c0 1.7 1.3 2.9 2.8 2.9c1.5 0 2.7-1.2 2.7-2.9zm8.9-4l-.2 1.5c-.4-.2-.9-.3-1.2-.3c-1.6 0-2.3 1.8-2.3 3.9c.02.02 0 3 0 3h-1.5v-8.2h1.5s.02 1.9 0 1.9c.4-1.4 1.2-2.1 2.3-2.1c.6 0 1.2.2 1.4.3zm14.4 3.4c.02-.01 0 4.7 0 4.7h-1.5V92c0-1.4-.8-2.3-1.9-2.3c-1.5 0-2.3 1-2.3 2.8c.05.02 0 4.1 0 4.1h-1.5s.03-4.62 0-4.6c0-1.4-.7-2.3-1.8-2.3c-1.2 0-2.3.8-2.3 2.5c-.02-.01 0 4.4 0 4.4h-1.5v-8.2h1.5s-.02 1.3 0 1.3c.4-.9 1.4-1.5 2.6-1.5c1.2 0 2.2.7 2.7 1.8c.8-1.5 2-1.8 2.9-1.8c2 0 3.1 1.4 3.1 3.7zm9-3.5h1.5s.04 7.08 0 7.1c0 3.8-1.7 5.3-4.4 5.3c-1.5 0-2.9-.8-3.7-2.2l1.3-.7c.5 1 1.5 1.5 2.4 1.5c1.8 0 2.9-1.1 2.9-3.8v-.3c-.5 1-1.7 1.5-2.9 1.5c-2.2 0-4.1-1.7-4.1-4.3c0-2.6 1.9-4.3 4.1-4.3c1.2 0 2.4.6 2.9 1.5v-1.3zm0 4.1c0-1.8-1.4-2.8-2.8-2.8c-1.5 0-2.6 1.2-2.6 2.8c0 1.6 1.1 2.9 2.6 2.9c1.5 0 2.8-1.1 2.8-2.9zm11.9.7h-6.7c.3 1.4 1.3 2.2 2.7 2.2c1 0 1.9-.5 2.4-1.3l1.3.5c-.7 1.5-2.2 2.2-3.7 2.2c-2.4 0-4.2-1.7-4.2-4.3c0-2.6 1.8-4.3 4.2-4.3c2.3 0 4 1.7 4 4.3v.7zm-1.5-1.3c-.2-1.4-1.2-2.2-2.5-2.2c-1.4 0-2.4.7-2.7 2.2h5.2zm10.1-3.5h1.5s-.03 7.08 0 7.1c0 3.8-1.8 5.3-4.5 5.3c-1.5 0-2.8-.8-3.6-2.2l1.2-.7c.6 1 1.5 1.5 2.4 1.5c1.8 0 3-1.1 3-3.8v-.3c-.6 1-1.8 1.5-3 1.5c-2.2 0-4-1.7-4-4.3c0-2.6 1.8-4.3 4-4.3c1.3 0 2.4.6 3 1.5c-.05.02 0-1.3 0-1.3zm0 4.1c0-1.8-1.5-2.8-2.8-2.8c-1.5 0-2.7 1.2-2.7 2.8c0 1.6 1.2 2.9 2.7 2.9c1.4 0 2.8-1.1 2.8-2.9zm11.8.7h-6.6c.2 1.4 1.2 2.2 2.6 2.2c1 0 2-.5 2.4-1.3l1.3.5c-.7 1.5-2.1 2.2-3.7 2.2c-2.3 0-4.2-1.7-4.2-4.3c0-2.6 1.9-4.3 4.2-4.3c2.3 0 4.1 1.7 4.1 4.3c0 .2-.1.5-.1.7zm-1.5-1.3c-.2-1.4-1.2-2.2-2.5-2.2c-1.4 0-2.4.7-2.6 2.2h5.1zm9-3.5h1.7l-3.4 8.2h-1.5l-3.4-8.2h1.6l2.5 6.3l2.5-6.3zm10.7 4.8h-6.6c.2 1.4 1.3 2.2 2.7 2.2c1 0 1.9-.5 2.3-1.3l1.4.5c-.7 1.5-2.2 2.2-3.8 2.2c-2.3 0-4.2-1.7-4.2-4.3c0-2.6 1.9-4.3 4.2-4.3c2.3 0 4.1 1.7 4.1 4.3c0 .2 0 .5-.1.7zm-1.5-1.3c-.1-1.4-1.1-2.2-2.5-2.2c-1.4 0-2.4.7-2.6 2.2h5.1zm11.2 0c-.02-.01 0 4.7 0 4.7h-1.5s-.05-4.62 0-4.6c0-1.4-.9-2.3-2-2.3c-1.2 0-2.5.7-2.5 2.5c-.03-.01 0 4.4 0 4.4h-1.5v-8.2h1.5s-.03 1.29 0 1.3c.5-1 1.8-1.5 2.7-1.5c2 0 3.3 1.4 3.3 3.7zm2.2 3.8c0-.6.5-1 1.1-1c.6 0 1.1.4 1.1 1c0 .7-.5 1.1-1.1 1.1c-.6 0-1.1-.4-1.1-1.1zM320 84.6c3.4 0 5.4 2.6 5.4 6c0 3.4-2 6-5.4 6c-.04.02-4.7 0-4.7 0v-12s4.66-.04 4.7 0zm0 10.5c2.5 0 3.8-1.9 3.8-4.5c0-2.6-1.3-4.6-3.8-4.6c-.04.03-3.1 0-3.1 0v9.1s3.06.05 3.1 0zm14.1-6.7h1.5v8.2h-1.5s-.02-1.44 0-1.4c-.6.9-1.7 1.6-3 1.6c-2.1 0-4-1.8-4-4.3c0-2.4 1.7-4.3 4.1-4.3c1.2 0 2.3.6 2.9 1.5c-.02.02 0-1.3 0-1.3zm0 4.1c0-1.7-1.4-2.8-2.8-2.8c-1.5 0-2.7 1.3-2.7 2.8c0 1.6 1.2 2.9 2.7 2.9c1.5 0 2.8-1.2 2.8-2.9zm10.6-4.1h1.5v8.2h-1.5v-1.4c-.5.9-1.7 1.6-3 1.6c-2.1 0-4-1.8-4-4.3c0-2.4 1.8-4.3 4.1-4.3c1.2 0 2.4.6 2.9 1.5v-1.3zm0 4.1c0-1.7-1.4-2.8-2.8-2.8c-1.5 0-2.7 1.3-2.7 2.8c0 1.6 1.2 2.9 2.7 2.9c1.5 0 2.8-1.2 2.8-2.9zm9.4-4l-.2 1.5c-.4-.2-.9-.3-1.2-.3c-1.6 0-2.3 1.8-2.3 3.9c.02.02 0 3 0 3h-1.5v-8.2h1.5s.02 1.9 0 1.9c.4-1.4 1.2-2.1 2.3-2.1c.6 0 1.2.2 1.4.3zm9.1 3.4c-.02-.01 0 4.7 0 4.7h-1.5s-.04-4.62 0-4.6c0-1.4-.9-2.3-2-2.3c-1.2 0-2.5.7-2.5 2.5c-.02-.01 0 4.4 0 4.4h-1.5v-8.2h1.5s-.02 1.29 0 1.3c.5-1 1.8-1.5 2.7-1.5c2 0 3.3 1.4 3.3 3.7zm9-3.5h1.5v8.2h-1.5s-.04-1.44 0-1.4c-.6.9-1.7 1.6-3 1.6c-2.2 0-4-1.8-4-4.3c0-2.4 1.7-4.3 4-4.3c1.3 0 2.4.6 3 1.5c-.04.02 0-1.3 0-1.3zm0 4.1c0-1.7-1.5-2.8-2.8-2.8c-1.5 0-2.7 1.3-2.7 2.8c0 1.6 1.2 2.9 2.7 2.9c1.4 0 2.8-1.2 2.8-2.9zm10.6-4.1h1.5v8.2h-1.5s-.02-1.44 0-1.4c-.6.9-1.7 1.6-3 1.6c-2.1 0-4-1.8-4-4.3c0-2.4 1.7-4.3 4.1-4.3c1.2 0 2.3.6 2.9 1.5c-.02.02 0-1.3 0-1.3zm0 4.1c0-1.7-1.4-2.8-2.8-2.8c-1.5 0-2.7 1.3-2.7 2.8c0 1.6 1.2 2.9 2.7 2.9c1.5 0 2.8-1.2 2.8-2.9zm3.5 1.7h1.4c.1.7.7 1.3 1.7 1.3c1 0 1.6-.5 1.6-1.2c0-.6-.5-.9-1.1-1l-1.1-.3c-1.4-.4-2.2-1-2.2-2.4c0-1.3 1.2-2.4 2.8-2.4c1.4 0 2.8.8 2.8 2.4h-1.4c-.1-.6-.7-1-1.4-1c-.7 0-1.3.5-1.3 1.1c0 .6.6.9 1.1 1l1.2.3c1.7.4 2.1 1.4 2.1 2.3c0 1.6-1.4 2.5-3.1 2.5c-1.5 0-3-.9-3.1-2.6zm12.2-5.8v1.4h-1.8v6.8h-1.5v-6.8h-1.5v-1.4h1.5v-3h1.5v3h1.8zm14.1 3.5c.05-.01 0 4.7 0 4.7h-1.5s.03-4.62 0-4.6c0-1.4-.8-2.3-2-2.3c-1.1 0-2.5.7-2.5 2.5c.05-.01 0 4.4 0 4.4h-1.5V84h1.5s.05 5.69 0 5.7c.5-1 1.9-1.5 2.8-1.5c2 0 3.3 1.4 3.2 3.7zm10.3 1.3h-6.7c.2 1.4 1.3 2.2 2.7 2.2c1 0 1.9-.5 2.4-1.3l1.3.5c-.7 1.5-2.2 2.2-3.8 2.2c-2.3 0-4.2-1.7-4.2-4.3c0-2.6 1.9-4.3 4.2-4.3c2.4 0 4.1 1.7 4.1 4.3v.7zm-1.5-1.3c-.2-1.4-1.2-2.2-2.6-2.2c-1.3 0-2.3.7-2.6 2.2h5.2zm12.1.6c0 2.6-1.8 4.3-4.1 4.3c-1.2 0-2.3-.5-2.9-1.5v1.3H425V84h1.5v5.7c.6-.9 1.7-1.5 2.9-1.5c2.3 0 4.1 1.7 4.1 4.3zm-1.5 0c0-1.6-1.2-2.8-2.7-2.8c-1.4 0-2.8 1-2.8 2.8c0 1.8 1.3 2.9 2.8 2.9c1.5 0 2.7-1.3 2.7-2.9zm8.3-7.1c0-.5.4-1 1-1c.6 0 1.1.5 1.1 1c0 .6-.5 1-1.1 1c-.6 0-1-.4-1-1zm.3 11.2v-8.2h1.5v8.2h-1.5zm11.5 0H450l-3.7-4v4h-1.6V84h1.6v7.3l2.8-2.9h2.1l-3.5 3.6l4.4 4.6zm5.2-4.1c0-2.6 1.9-4.3 4.3-4.3c2.3 0 4.3 1.7 4.3 4.3c0 2.6-2 4.3-4.3 4.3c-2.4 0-4.3-1.7-4.3-4.3zm7 0c0-1.7-1.2-2.8-2.7-2.8c-1.5 0-2.8 1.1-2.8 2.8c0 1.7 1.3 2.9 2.8 2.9c1.5 0 2.7-1.2 2.7-2.9zm3.1 0c0-2.6 2-4.3 4.3-4.3c2.3 0 4.3 1.7 4.3 4.3c0 2.6-2 4.3-4.3 4.3c-2.3 0-4.3-1.7-4.3-4.3zm7 0c0-1.7-1.2-2.8-2.7-2.8c-1.5 0-2.7 1.1-2.7 2.8c0 1.7 1.2 2.9 2.7 2.9c1.5 0 2.7-1.2 2.7-2.9zm11 4.1h-2l-3.8-4v4h-1.5V84h1.5v7.3l2.8-2.9h2.2l-3.5 3.6l4.3 4.6zM497.7 84h1.5v12.6h-1.5s-.03-1.26 0-1.3c-.6 1-1.8 1.5-2.9 1.5c-2.3 0-4.1-1.7-4.1-4.3c0-2.6 1.8-4.3 4-4.3c1.3 0 2.4.6 3 1.5c-.03.02 0-5.7 0-5.7zm0 8.5c0-1.8-1.5-2.8-2.8-2.8c-1.5 0-2.7 1.2-2.7 2.8c0 1.6 1.2 2.9 2.7 2.9c1.5 0 2.8-1.1 2.8-2.9zm11.8.7h-6.6c.2 1.4 1.3 2.2 2.7 2.2c1 0 1.9-.5 2.3-1.3l1.4.5c-.7 1.5-2.2 2.2-3.8 2.2c-2.3 0-4.2-1.7-4.2-4.3c0-2.6 1.9-4.3 4.2-4.3c2.3 0 4.1 1.7 4.1 4.3c0 .2 0 .5-.1.7zm-1.5-1.3c-.1-1.4-1.1-2.2-2.5-2.2c-1.4 0-2.4.7-2.6 2.2h5.1z" stroke="none" fill="#000"/></g><g id="Polygon18322"><path d="m11.7 67.4h1.7l-3.1 8.2H9l-2.2-6.1l-2.2 6.1H3.4L.2 67.4h1.7L4 73.3l2.1-5.9h1.4l2.1 5.9l2.1-5.9zm10.8 4.8h-6.6c.2 1.4 1.2 2.2 2.6 2.2c1 0 1.9-.5 2.4-1.3l1.3.5c-.7 1.5-2.1 2.2-3.7 2.2c-2.3 0-4.2-1.7-4.2-4.3c0-2.6 1.9-4.3 4.2-4.3c2.3 0 4 1.7 4 4.3v.7zM21 70.9c-.2-1.4-1.2-2.2-2.5-2.2c-1.4 0-2.4.7-2.6 2.2h5.1zm2.3 7.2c.9-1.4 1.5-2.6 1.3-4.7h1.7c.2 2-.6 3.9-2 5l-1-.3zm19.5-7.2c.05-.01 0 4.7 0 4.7h-1.5s.03-4.62 0-4.6c0-1.4-.8-2.3-2-2.3c-1.1 0-2.5.7-2.5 2.5c.05-.01 0 4.4 0 4.4h-1.5v-8.2h1.5s.05 1.29 0 1.3c.5-1 1.9-1.5 2.8-1.5c2 0 3.3 1.4 3.2 3.7zm9-3.5h1.5v8.2h-1.5s.03-1.44 0-1.4c-.5.9-1.7 1.6-3 1.6c-2.1 0-4-1.8-4-4.3c0-2.4 1.8-4.3 4.1-4.3c1.2 0 2.4.6 2.9 1.5c.03.02 0-1.3 0-1.3zm0 4.1c0-1.7-1.4-2.8-2.8-2.8c-1.4 0-2.6 1.3-2.6 2.8c0 1.6 1.2 2.9 2.7 2.9c1.4 0 2.7-1.2 2.7-2.9zm10.6-4.1h1.6v8.2h-1.6s.05-1.44 0-1.4c-.5.9-1.6 1.6-2.9 1.6c-2.2 0-4.1-1.8-4.1-4.3c0-2.4 1.8-4.3 4.1-4.3c1.3 0 2.4.6 2.9 1.5c.05.02 0-1.3 0-1.3zm0 4.1c0-1.7-1.4-2.8-2.7-2.8c-1.5 0-2.7 1.3-2.7 2.8c0 1.6 1.2 2.9 2.7 2.9c1.4 0 2.7-1.2 2.7-2.9zm9.5-4l-.3 1.5c-.4-.2-.8-.3-1.2-.3c-1.6 0-2.2 1.8-2.2 3.9c-.03.02 0 3 0 3h-1.6v-8.2h1.6s-.03 1.9 0 1.9c.4-1.4 1.2-2.1 2.3-2.1c.5 0 1.1.2 1.4.3zm13.9-.1h1.6v8.2h-1.6s.04-1.44 0-1.4c-.5.9-1.6 1.6-3 1.6c-2.1 0-4-1.8-4-4.3c0-2.4 1.8-4.3 4.1-4.3c1.2 0 2.4.6 2.9 1.5c.04.02 0-1.3 0-1.3zm0 4.1c0-1.7-1.4-2.8-2.7-2.8c-1.5 0-2.7 1.3-2.7 2.8c0 1.6 1.2 2.9 2.7 2.9c1.4 0 2.7-1.2 2.7-2.9zm10.7-4.1h1.5v8.2h-1.5s-.04-1.44 0-1.4c-.6.9-1.7 1.6-3 1.6c-2.2 0-4-1.8-4-4.3c0-2.4 1.7-4.3 4-4.3c1.3 0 2.4.6 3 1.5c-.04.02 0-1.3 0-1.3zm0 4.1c0-1.7-1.5-2.8-2.8-2.8c-1.5 0-2.7 1.3-2.7 2.8c0 1.6 1.2 2.9 2.7 2.9c1.4 0 2.8-1.2 2.8-2.9zm11.7-.6c-.03-.01 0 4.7 0 4.7h-1.6s.04-4.62 0-4.6c0-1.4-.8-2.3-1.9-2.3c-1.2 0-2.5.7-2.5 2.5c-.04-.01 0 4.4 0 4.4h-1.6v-8.2h1.6s-.04 1.29 0 1.3c.5-1 1.8-1.5 2.7-1.5c2 0 3.3 1.4 3.3 3.7zm2.5 4.7V63h1.5v12.6h-1.5zm11.9-3.4h-6.7c.2 1.4 1.3 2.2 2.7 2.2c1 0 1.9-.5 2.4-1.3l1.3.5c-.7 1.5-2.2 2.2-3.8 2.2c-2.3 0-4.2-1.7-4.2-4.3c0-2.6 1.9-4.3 4.2-4.3c2.4 0 4.1 1.7 4.1 4.3v.7zm-1.5-1.3c-.2-1.4-1.2-2.2-2.6-2.2c-1.4 0-2.3.7-2.6 2.2h5.2zm3.3-6.5c0-.5.4-1 1-1c.6 0 1.1.5 1.1 1c0 .6-.5 1-1.1 1c-.6 0-1-.4-1-1zm.3 11.2v-8.2h1.5v8.2h-1.5zM135.3 63h1.5v12.6h-1.5v-1.3c-.6 1-1.7 1.5-2.9 1.5c-2.3 0-4.1-1.7-4.1-4.3c0-2.6 1.8-4.3 4.1-4.3c1.2 0 2.3.6 2.9 1.5V63zm0 8.5c0-1.8-1.4-2.8-2.8-2.8c-1.5 0-2.7 1.2-2.7 2.8c0 1.6 1.2 2.9 2.7 2.9c1.5 0 2.8-1.1 2.8-2.9zm3.9-7.1c0-.5.4-1 1-1c.6 0 1.1.5 1.1 1c0 .6-.5 1-1.1 1c-.6 0-1-.4-1-1zm.3 11.2v-8.2h1.5v8.2h-1.5zm11.7-4.7c-.04-.01 0 4.7 0 4.7h-1.6s.04-4.62 0-4.6c0-1.4-.8-2.3-1.9-2.3c-1.2 0-2.5.7-2.5 2.5c-.04-.01 0 4.4 0 4.4h-1.6v-8.2h1.6s-.04 1.29 0 1.3c.5-1 1.8-1.5 2.7-1.5c2 0 3.3 1.4 3.3 3.7zm9-3.5h1.5s-.02 7.08 0 7.1c0 3.8-1.8 5.3-4.5 5.3c-1.5 0-2.8-.8-3.6-2.2l1.3-.7c.5 1 1.4 1.5 2.3 1.5c1.8 0 3-1.1 3-3.8v-.3c-.6 1-1.8 1.5-2.9 1.5c-2.3 0-4.1-1.7-4.1-4.3c0-2.6 1.8-4.3 4-4.3c1.3 0 2.4.6 3 1.5c-.04.02 0-1.3 0-1.3zm0 4.1c0-1.8-1.5-2.8-2.8-2.8c-1.5 0-2.7 1.2-2.7 2.8c0 1.6 1.2 2.9 2.7 2.9c1.4 0 2.8-1.1 2.8-2.9zm16.2-4.1h1.6l-3.4 8.2h-1.5l-3.4-8.2h1.6l2.6 6.3l2.5-6.3zm9.4 0h1.6v8.2h-1.6s.04-1.44 0-1.4c-.5.9-1.6 1.6-3 1.6c-2.1 0-4-1.8-4-4.3c0-2.4 1.8-4.3 4.1-4.3c1.2 0 2.4.6 2.9 1.5c.04.02 0-1.3 0-1.3zm0 4.1c0-1.7-1.4-2.8-2.7-2.8c-1.5 0-2.7 1.3-2.7 2.8c0 1.6 1.2 2.9 2.7 2.9c1.4 0 2.7-1.2 2.7-2.9zm11.7-.6c.05-.01 0 4.7 0 4.7H196s.02-4.62 0-4.6c0-1.4-.8-2.3-2-2.3c-1.1 0-2.5.7-2.5 2.5c.04-.01 0 4.4 0 4.4H190v-8.2h1.5s.04 1.29 0 1.3c.5-1 1.9-1.5 2.8-1.5c2 0 3.3 1.4 3.2 3.7zM213 63h1.5v12.6H213v-1.3c-.6 1-1.7 1.5-2.9 1.5c-2.3 0-4.1-1.7-4.1-4.3c0-2.6 1.8-4.3 4.1-4.3c1.2 0 2.3.6 2.9 1.5V63zm0 8.5c0-1.8-1.4-2.8-2.8-2.8c-1.5 0-2.7 1.2-2.7 2.8c0 1.6 1.2 2.9 2.7 2.9c1.5 0 2.8-1.1 2.8-2.9zm11.9.7h-6.7c.2 1.4 1.3 2.2 2.7 2.2c1 0 1.9-.5 2.4-1.3l1.3.5c-.7 1.5-2.2 2.2-3.8 2.2c-2.3 0-4.2-1.7-4.2-4.3c0-2.6 1.9-4.3 4.2-4.3c2.4 0 4.1 1.7 4.1 4.3v.7zm-1.5-1.3c-.2-1.4-1.2-2.2-2.6-2.2c-1.4 0-2.3.7-2.6 2.2h5.2zm15.3-3.4l-.3 1.5c-.4-.2-.8-.3-1.2-.3c-1.6 0-2.2 1.8-2.2 3.9c-.04.02 0 3 0 3h-1.6v-8.2h1.6s-.04 1.9 0 1.9c.4-1.4 1.2-2.1 2.3-2.1c.5 0 1.1.2 1.4.3zm8.9 4.7h-6.7c.3 1.4 1.3 2.2 2.7 2.2c1 0 1.9-.5 2.4-1.3l1.3.5c-.7 1.5-2.2 2.2-3.7 2.2c-2.4 0-4.2-1.7-4.2-4.3c0-2.6 1.8-4.3 4.2-4.3c2.3 0 4 1.7 4 4.3v.7zm-1.5-1.3c-.2-1.4-1.2-2.2-2.5-2.2c-1.4 0-2.4.7-2.6 2.2h5.1zm3 2.3h1.4c0 .7.6 1.3 1.6 1.3c1 0 1.7-.5 1.7-1.2c0-.6-.5-.9-1.2-1l-1.1-.3c-1.3-.4-2.1-1-2.1-2.4c0-1.3 1.1-2.4 2.8-2.4c1.3 0 2.8.8 2.8 2.4h-1.5c0-.6-.7-1-1.3-1c-.8 0-1.3.5-1.3 1.1c0 .6.5.9 1 1l1.2.3c1.7.4 2.2 1.4 2.2 2.3c0 1.6-1.5 2.5-3.2 2.5c-1.5 0-3-.9-3-2.6zm14.1-5.8h1.5v8.2h-1.5s.02-1.26 0-1.3c-.5 1.1-1.8 1.5-2.7 1.5c-2 0-3.3-1.3-3.3-3.6c.02-.03 0-4.8 0-4.8h1.5s.04 4.73 0 4.7c0 1.4.9 2.3 2 2.3c1.1 0 2.5-.7 2.5-2.5c.02.04 0-4.5 0-4.5zm4.2 8.2V63h1.5v12.6h-1.5zm8.1-8.2v1.4h-1.8v6.8h-1.5v-6.8h-1.5v-1.4h1.5v-3h1.5v3h1.8zm7.9 0h1.6v8.2h-1.6s.04-1.44 0-1.4c-.5.9-1.6 1.6-3 1.6c-2.1 0-4-1.8-4-4.3c0-2.4 1.8-4.3 4.1-4.3c1.2 0 2.4.6 2.9 1.5c.04.02 0-1.3 0-1.3zm0 4.1c0-1.7-1.4-2.8-2.7-2.8c-1.5 0-2.7 1.3-2.7 2.8c0 1.6 1.2 2.9 2.7 2.9c1.4 0 2.7-1.2 2.7-2.9zm8.1-4.1v1.4h-1.7v6.8h-1.6v-6.8h-1.4v-1.4h1.4v-3h1.6v3h1.7zm9.2 4.8h-6.6c.2 1.4 1.3 2.2 2.7 2.2c1 0 1.9-.5 2.4-1.3l1.3.5c-.7 1.5-2.2 2.2-3.8 2.2c-2.3 0-4.2-1.7-4.2-4.3c0-2.6 1.9-4.3 4.2-4.3c2.3 0 4.1 1.7 4.1 4.3c0 .2 0 .5-.1.7zm-1.4-1.3c-.2-1.4-1.2-2.2-2.6-2.2c-1.4 0-2.3.7-2.6 2.2h5.2zm11.1 0v4.7h-1.5s-.04-4.62 0-4.6c0-1.4-.9-2.3-2-2.3c-1.2 0-2.5.7-2.5 2.5c-.02-.01 0 4.4 0 4.4h-1.5v-8.2h1.5s-.02 1.29 0 1.3c.5-1 1.8-1.5 2.7-1.5c2 0 3.3 1.4 3.3 3.7zm14.6-3.5h1.6l-3.4 8.2h-1.5l-3.4-8.2h1.6l2.6 6.3l2.5-6.3zm9.4 0h1.5v8.2h-1.5s.02-1.44 0-1.4c-.5.9-1.7 1.6-3 1.6c-2.1 0-4-1.8-4-4.3c0-2.4 1.8-4.3 4.1-4.3c1.2 0 2.4.6 2.9 1.5c.02.02 0-1.3 0-1.3zm0 4.1c0-1.7-1.4-2.8-2.8-2.8c-1.4 0-2.6 1.3-2.6 2.8c0 1.6 1.2 2.9 2.7 2.9c1.4 0 2.7-1.2 2.7-2.9zm11.7-.6c.03-.01 0 4.7 0 4.7h-1.5V71c0-1.4-.8-2.3-2-2.3c-1.1 0-2.5.7-2.5 2.5c.03-.01 0 4.4 0 4.4h-1.5v-8.2h1.5s.03 1.29 0 1.3c.5-1 1.8-1.5 2.7-1.5c2.1 0 3.3 1.4 3.3 3.7zm16.5 0c.04-.01 0 4.7 0 4.7h-1.5s.02-4.62 0-4.6c0-1.4-.8-2.3-2-2.3c-1.1 0-2.5.7-2.5 2.5c.04-.01 0 4.4 0 4.4h-1.5V63h1.5s.04 5.69 0 5.7c.5-1 1.9-1.5 2.7-1.5c2.1 0 3.4 1.4 3.3 3.7zm10.3 1.3h-6.7c.2 1.4 1.3 2.2 2.7 2.2c1 0 1.9-.5 2.4-1.3l1.3.5c-.7 1.5-2.2 2.2-3.8 2.2c-2.3 0-4.2-1.7-4.2-4.3c0-2.6 1.9-4.3 4.2-4.3c2.4 0 4.1 1.7 4.1 4.3v.7zm-1.5-1.3c-.2-1.4-1.2-2.2-2.6-2.2c-1.3 0-2.3.7-2.6 2.2h5.2zm7.4-3.5v1.4H377v6.8h-1.5v-6.8H374v-1.4h1.5v-3h1.5v3h1.8zm7.5 4.1c0-2.6 2-4.3 4.3-4.3c2.3 0 4.3 1.7 4.3 4.3c0 2.6-2 4.3-4.3 4.3c-2.3 0-4.3-1.7-4.3-4.3zm7.1 0c0-1.7-1.3-2.8-2.8-2.8c-1.5 0-2.7 1.1-2.7 2.8c0 1.7 1.2 2.9 2.7 2.9c1.5 0 2.8-1.2 2.8-2.9zm11.1-.6c.04-.01 0 4.7 0 4.7H403s.02-4.62 0-4.6c0-1.4-.8-2.3-2-2.3c-1.1 0-2.5.7-2.5 2.5c.04-.01 0 4.4 0 4.4H397v-8.2h1.5s.04 1.29 0 1.3c.5-1 1.9-1.5 2.8-1.5c2 0 3.3 1.4 3.2 3.7zm9-7.9h1.6v12.6h-1.6s.04-1.26 0-1.3c-.5 1-1.7 1.5-2.9 1.5c-2.2 0-4.1-1.7-4.1-4.3c0-2.6 1.9-4.3 4.1-4.3c1.2 0 2.4.6 2.9 1.5c.04.02 0-5.7 0-5.7zm0 8.5c0-1.8-1.4-2.8-2.7-2.8c-1.5 0-2.7 1.2-2.7 2.8c0 1.6 1.2 2.9 2.7 2.9c1.4 0 2.7-1.1 2.7-2.9zm11.9.7h-6.6c.2 1.4 1.2 2.2 2.6 2.2c1 0 1.9-.5 2.4-1.3l1.3.5c-.7 1.5-2.1 2.2-3.7 2.2c-2.3 0-4.2-1.7-4.2-4.3c0-2.6 1.9-4.3 4.2-4.3c2.3 0 4 1.7 4 4.3v.7zm-1.5-1.3c-.2-1.4-1.2-2.2-2.5-2.2c-1.4 0-2.4.7-2.6 2.2h5.1zm8.9-3.4l-.3 1.5c-.4-.2-.8-.3-1.2-.3c-1.6 0-2.2 1.8-2.2 3.9c-.04.02 0 3 0 3h-1.6v-8.2h1.6s-.04 1.9 0 1.9c.4-1.4 1.2-2.1 2.3-2.1c.5 0 1.1.2 1.4.3zm8-.1v1.3l-5 5.5h5v1.4h-7.1v-1.2l4.9-5.5h-4.7v-1.5h6.9zm1.5 4.1c0-2.6 1.9-4.3 4.3-4.3c2.3 0 4.2 1.7 4.2 4.3c0 2.6-1.9 4.3-4.2 4.3c-2.4 0-4.3-1.7-4.3-4.3zm7 0c0-1.7-1.2-2.8-2.7-2.8c-1.5 0-2.8 1.1-2.8 2.8c0 1.7 1.3 2.9 2.8 2.9c1.5 0 2.7-1.2 2.7-2.9zm11.3.7H454c.2 1.4 1.3 2.2 2.7 2.2c1 0 1.9-.5 2.4-1.3l1.3.5c-.7 1.5-2.2 2.2-3.8 2.2c-2.3 0-4.2-1.7-4.2-4.3c0-2.6 1.9-4.3 4.2-4.3c2.3 0 4.1 1.7 4.1 4.3c0 .2 0 .5-.1.7zm-1.4-1.3c-.2-1.4-1.2-2.2-2.6-2.2c-1.4 0-2.3.7-2.6 2.2h5.2zm10.9 4.7H468l-3.7-4v4h-1.5V63h1.5v7.3l2.8-2.9h2.1l-3.5 3.6l4.4 4.6zm-.2 2.5c1-1.4 1.6-2.6 1.4-4.7h1.6c.2 2-.6 3.9-1.9 5l-1.1-.3zm19.8-5.9H483c.2 1.4 1.3 2.2 2.7 2.2c1 0 1.9-.5 2.4-1.3l1.3.5c-.7 1.5-2.2 2.2-3.8 2.2c-2.3 0-4.2-1.7-4.2-4.3c0-2.6 1.9-4.3 4.2-4.3c2.4 0 4.1 1.7 4.1 4.3v.7zm-1.5-1.3c-.2-1.4-1.2-2.2-2.6-2.2c-1.3 0-2.3.7-2.6 2.2h5.2zm11.3 1.3h-6.7c.2 1.4 1.3 2.2 2.7 2.2c1 0 1.9-.5 2.4-1.3l1.3.5c-.7 1.5-2.2 2.2-3.8 2.2c-2.3 0-4.2-1.7-4.2-4.3c0-2.6 1.9-4.3 4.2-4.3c2.4 0 4.1 1.7 4.1 4.3v.7zm-1.5-1.3c-.2-1.4-1.2-2.2-2.6-2.2c-1.3 0-2.3.7-2.6 2.2h5.2zm11.1 0v4.7h-1.5V71c0-1.4-.8-2.3-2-2.3c-1.1 0-2.5.7-2.5 2.5c.01-.01 0 4.4 0 4.4h-1.5v-8.2h1.5v1.3c.5-1 1.8-1.5 2.7-1.5c2.1 0 3.3 1.4 3.3 3.7z" stroke="none" fill="#000"/></g><g id="Polygon18321"><path d="m5.3 46.4v1.4H3.5v6.8H2v-6.8H.5v-1.4h1.5v-3h1.5v3h1.8zm9.2 4.8H7.8c.2 1.4 1.3 2.2 2.7 2.2c1 0 1.9-.5 2.4-1.3l1.3.5c-.7 1.5-2.2 2.2-3.8 2.2c-2.3 0-4.2-1.7-4.2-4.3c0-2.6 1.9-4.3 4.2-4.3c2.4 0 4.1 1.7 4.1 4.3v.7zM13 49.9c-.2-1.4-1.2-2.2-2.6-2.2c-1.4 0-2.3.7-2.6 2.2h5.2zm20.5.6c0 2.6-1.9 4.3-4.1 4.3c-1.2 0-2.4-.5-2.9-1.5v1.3H25V42h1.5v5.7c.5-.9 1.7-1.5 2.9-1.5c2.3 0 4.1 1.7 4.1 4.3zm-1.5 0c0-1.6-1.2-2.8-2.7-2.8c-1.4 0-2.8 1-2.8 2.8c0 1.8 1.3 2.9 2.8 2.9c1.5 0 2.7-1.3 2.7-2.9zm8.9-4l-.3 1.5c-.4-.2-.9-.3-1.2-.3c-1.6 0-2.2 1.8-2.2 3.9c-.04.02 0 3 0 3h-1.6v-8.2h1.6s-.04 1.9 0 1.9c.4-1.4 1.2-2.1 2.3-2.1c.5 0 1.1.2 1.4.3zm8.9 4.7h-6.7c.3 1.4 1.3 2.2 2.7 2.2c1 0 1.9-.5 2.4-1.3l1.3.5c-.7 1.5-2.2 2.2-3.7 2.2c-2.4 0-4.2-1.7-4.2-4.3c0-2.6 1.8-4.3 4.2-4.3c2.3 0 4 1.7 4 4.3v.7zm-1.5-1.3c-.2-1.4-1.2-2.2-2.5-2.2c-1.4 0-2.4.7-2.6 2.2h5.1zm11.1 0c.04-.01 0 4.7 0 4.7h-1.5V50c0-1.4-.8-2.3-2-2.3c-1.1 0-2.5.7-2.5 2.5c.03-.01 0 4.4 0 4.4h-1.5v-8.2h1.5s.03 1.29 0 1.3c.5-1 1.9-1.5 2.7-1.5c2.1 0 3.4 1.4 3.3 3.7zm9-3.5h1.6s-.05 7.08 0 7.1c0 3.8-1.8 5.3-4.5 5.3c-1.5 0-2.9-.8-3.7-2.2l1.3-.7c.5 1 1.5 1.5 2.4 1.5c1.8 0 2.9-1.1 2.9-3.8v-.3c-.5 1-1.7 1.5-2.9 1.5c-2.2 0-4.1-1.7-4.1-4.3c0-2.6 1.9-4.3 4.1-4.3c1.2 0 2.4.6 2.9 1.5c.03.02 0-1.3 0-1.3zm0 4.1c0-1.8-1.4-2.8-2.8-2.8c-1.4 0-2.6 1.2-2.6 2.8c0 1.6 1.2 2.9 2.6 2.9c1.5 0 2.8-1.1 2.8-2.9zm11.9.7h-6.7c.3 1.4 1.3 2.2 2.7 2.2c1 0 1.9-.5 2.4-1.3l1.3.5c-.7 1.5-2.2 2.2-3.7 2.2c-2.4 0-4.2-1.7-4.2-4.3c0-2.6 1.8-4.3 4.2-4.3c2.3 0 4 1.7 4 4.3v.7zm-1.5-1.3c-.2-1.4-1.2-2.2-2.5-2.2c-1.4 0-2.4.7-2.6 2.2h5.1zm11.1 0c.04-.01 0 4.7 0 4.7h-1.5s.02-4.62 0-4.6c0-1.4-.8-2.3-2-2.3c-1.1 0-2.5.7-2.5 2.5c.04-.01 0 4.4 0 4.4h-1.5v-8.2h1.5s.04 1.29 0 1.3c.5-1 1.9-1.5 2.7-1.5c2.1 0 3.4 1.4 3.3 3.7zm2.3 3.8c0-.6.5-1 1.1-1c.6 0 1.1.4 1.1 1c0 .7-.5 1.1-1.1 1.1c-.6 0-1.1-.4-1.1-1.1zm12.5-2.5h1.6c0 1.1 1.1 2.2 2.7 2.2c1.5 0 2.4-1.1 2.4-2.1c0-1.2-1.1-1.7-2.1-2l-1.5-.4c-2.6-.6-3-2.1-3-3.1c0-2.1 1.9-3.5 4-3.5c2.1 0 3.8 1.4 3.8 3.5H111c0-1.2-1-2-2.3-2c-1.2 0-2.3.8-2.3 2c0 .4.1 1.3 1.7 1.7l1.6.4c2.1.6 3.3 1.6 3.3 3.3c0 1.9-1.5 3.6-4 3.6c-2.6 0-4.3-1.7-4.3-3.6zm16.8-4.8h1.6v8.2h-1.6s.05-1.44 0-1.4c-.5.9-1.6 1.6-2.9 1.6c-2.2 0-4.1-1.8-4.1-4.3c0-2.4 1.8-4.3 4.1-4.3c1.3 0 2.4.6 2.9 1.5c.05.02 0-1.3 0-1.3zm0 4.1c0-1.7-1.4-2.8-2.7-2.8c-1.5 0-2.7 1.3-2.7 2.8c0 1.6 1.2 2.9 2.7 2.9c1.4 0 2.7-1.2 2.7-2.9zm17.1-.6v4.7h-1.5s-.03-4.62 0-4.6c0-1.4-.8-2.3-2-2.3c-1.4 0-2.2 1-2.2 2.8c.02.02 0 4.1 0 4.1h-1.5V50c0-1.4-.8-2.3-1.8-2.3c-1.2 0-2.3.8-2.3 2.5c-.05-.01 0 4.4 0 4.4h-1.6v-8.2h1.6s-.05 1.3 0 1.3c.4-.9 1.4-1.5 2.6-1.5c1.2 0 2.2.7 2.7 1.8c.7-1.5 2-1.8 2.8-1.8c2.1 0 3.2 1.4 3.2 3.7zm10.2 1.3h-6.6c.2 1.4 1.2 2.2 2.6 2.2c1 0 1.9-.5 2.4-1.3l1.3.5c-.7 1.5-2.1 2.2-3.7 2.2c-2.3 0-4.2-1.7-4.2-4.3c0-2.6 1.9-4.3 4.2-4.3c2.3 0 4 1.7 4 4.3v.7zm-1.5-1.3c-.2-1.4-1.2-2.2-2.5-2.2c-1.4 0-2.4.7-2.6 2.2h5.1zm11.2 0c-.04-.01 0 4.7 0 4.7h-1.6s.03-4.62 0-4.6c0-1.4-.8-2.3-1.9-2.3c-1.2 0-2.5.7-2.5 2.5c-.05-.01 0 4.4 0 4.4h-1.6v-8.2h1.6s-.05 1.29 0 1.3c.4-1 1.8-1.5 2.7-1.5c2 0 3.3 1.4 3.3 3.7zm23.8 0c-.04-.01 0 4.7 0 4.7h-1.6s.04-4.62 0-4.6c0-1.4-.7-2.3-1.9-2.3c-1.5 0-2.2 1-2.2 2.8v4.1h-1.5s-.03-4.62 0-4.6c0-1.4-.8-2.3-1.9-2.3c-1.1 0-2.3.8-2.3 2.5c.02-.01 0 4.4 0 4.4h-1.5v-8.2h1.5s.02 1.3 0 1.3c.4-.9 1.5-1.5 2.6-1.5c1.2 0 2.3.7 2.7 1.8c.8-1.5 2.1-1.8 2.9-1.8c2 0 3.2 1.4 3.2 3.7zm10.2 1.3h-6.7c.3 1.4 1.3 2.2 2.7 2.2c1 0 1.9-.5 2.4-1.3l1.3.5c-.7 1.5-2.2 2.2-3.7 2.2c-2.4 0-4.2-1.7-4.2-4.3c0-2.6 1.8-4.3 4.2-4.3c2.3 0 4 1.7 4 4.3v.7zm-1.5-1.3c-.2-1.4-1.2-2.2-2.5-2.2c-1.4 0-2.4.7-2.7 2.2h5.2zm7.4-3.5v1.4h-1.8v6.8h-1.5v-6.8h-1.5v-1.4h1.5v-3h1.5v3h1.8zm17.8 4.8h-6.7c.2 1.4 1.3 2.2 2.7 2.2c1 0 1.9-.5 2.4-1.3l1.3.5c-.7 1.5-2.2 2.2-3.8 2.2c-2.3 0-4.2-1.7-4.2-4.3c0-2.6 1.9-4.3 4.2-4.3c2.4 0 4.1 1.7 4.1 4.3v.7zm-1.5-1.3c-.2-1.4-1.2-2.2-2.6-2.2c-1.3 0-2.3.7-2.6 2.2h5.2zm11.3 1.3h-6.7c.2 1.4 1.3 2.2 2.7 2.2c1 0 1.9-.5 2.4-1.3l1.3.5c-.7 1.5-2.2 2.2-3.8 2.2c-2.3 0-4.2-1.7-4.2-4.3c0-2.6 1.9-4.3 4.2-4.3c2.4 0 4.1 1.7 4.1 4.3v.7zm-1.5-1.3c-.2-1.4-1.2-2.2-2.6-2.2c-1.3 0-2.3.7-2.6 2.2h5.2zm11.1 0v4.7h-1.5s-.02-4.62 0-4.6c0-1.4-.9-2.3-2-2.3c-1.1 0-2.5.7-2.5 2.5v4.4h-1.5v-8.2h1.5v1.3c.5-1 1.8-1.5 2.7-1.5c2 0 3.3 1.4 3.3 3.7zm17.4-3.5h1.5v8.2H253v-1.4c-.6.9-1.7 1.6-3 1.6c-2.1 0-4-1.8-4-4.3c0-2.4 1.8-4.3 4.1-4.3c1.2 0 2.3.6 2.9 1.5v-1.3zm0 4.1c0-1.7-1.4-2.8-2.8-2.8c-1.5 0-2.7 1.3-2.7 2.8c0 1.6 1.2 2.9 2.7 2.9c1.5 0 2.8-1.2 2.8-2.9zm10.6-4.1h1.5v8.2h-1.5v-1.4c-.5.9-1.7 1.6-3 1.6c-2.1 0-4-1.8-4-4.3c0-2.4 1.8-4.3 4.1-4.3c1.2 0 2.4.6 2.9 1.5v-1.3zm0 4.1c0-1.7-1.4-2.8-2.8-2.8c-1.5 0-2.6 1.3-2.6 2.8c0 1.6 1.1 2.9 2.6 2.9c1.5 0 2.8-1.2 2.8-2.9zm11.7-.6c.02-.01 0 4.7 0 4.7h-1.5V50c0-1.4-.8-2.3-2-2.3c-1.1 0-2.5.7-2.5 2.5c.02-.01 0 4.4 0 4.4h-1.5v-8.2h1.5s.02 1.29 0 1.3c.5-1 1.8-1.5 2.7-1.5c2.1 0 3.3 1.4 3.3 3.7zm6.4-3.5v1.4h-1.8v6.8h-1.5v-6.8h-1.5v-1.4h1.5v-3h1.5v3h1.8zm7.9 0h1.6v8.2h-1.6s.04-1.44 0-1.4c-.5.9-1.6 1.6-3 1.6c-2.1 0-4-1.8-4-4.3c0-2.4 1.8-4.3 4.1-4.3c1.2 0 2.4.6 2.9 1.5c.04.02 0-1.3 0-1.3zm0 4.1c0-1.7-1.4-2.8-2.7-2.8c-1.5 0-2.7 1.3-2.7 2.8c0 1.6 1.2 2.9 2.7 2.9c1.4 0 2.7-1.2 2.7-2.9zm4.2 4.1V42h1.5v12.6h-1.5zm25.5-4.7c-.05-.01 0 4.7 0 4.7h-1.6s.03-4.62 0-4.6c0-1.4-.7-2.3-1.9-2.3c-1.5 0-2.2 1-2.2 2.8c-.02.02 0 4.1 0 4.1h-1.5s-.04-4.62 0-4.6c0-1.4-.8-2.3-1.9-2.3c-1.1 0-2.3.8-2.3 2.5c.01-.01 0 4.4 0 4.4h-1.5v-8.2h1.5v1.3c.4-.9 1.5-1.5 2.6-1.5c1.2 0 2.3.7 2.7 1.8c.8-1.5 2.1-1.8 2.9-1.8c2 0 3.2 1.4 3.2 3.7zm1.9.6c0-2.6 2-4.3 4.3-4.3c2.3 0 4.3 1.7 4.3 4.3c0 2.6-2 4.3-4.3 4.3c-2.3 0-4.3-1.7-4.3-4.3zm7.1 0c0-1.7-1.3-2.8-2.8-2.8c-1.5 0-2.7 1.1-2.7 2.8c0 1.7 1.2 2.9 2.7 2.9c1.5 0 2.8-1.2 2.8-2.9zm3 1.7h1.4c0 .7.6 1.3 1.6 1.3c1 0 1.6-.5 1.6-1.2c0-.6-.4-.9-1.1-1l-1.1-.3c-1.4-.4-2.1-1-2.1-2.4c0-1.3 1.1-2.4 2.8-2.4c1.3 0 2.8.8 2.8 2.4h-1.5c0-.6-.7-1-1.3-1c-.8 0-1.3.5-1.3 1.1c0 .6.5.9 1 1l1.2.3c1.7.4 2.2 1.4 2.2 2.3c0 1.6-1.5 2.5-3.2 2.5c-1.5 0-3-.9-3-2.6zm8.2 2.4V42h1.5v12.6h-1.5zm3.9-11.2c0-.5.5-1 1-1c.6 0 1.1.5 1.1 1c0 .6-.5 1-1.1 1c-.5 0-1-.4-1-1zm.3 11.2v-8.2h1.5v8.2h-1.5zm17-4.7v4.7h-1.5V50c0-1.4-.8-2.3-2-2.3c-1.4 0-2.2 1-2.2 2.8c.04.02 0 4.1 0 4.1h-1.5s.02-4.62 0-4.6c0-1.4-.7-2.3-1.8-2.3c-1.2 0-2.3.8-2.3 2.5c-.03-.01 0 4.4 0 4.4h-1.6v-8.2h1.6s-.03 1.3 0 1.3c.4-.9 1.4-1.5 2.6-1.5c1.2 0 2.2.7 2.7 1.8c.7-1.5 2-1.8 2.8-1.8c2.1 0 3.2 1.4 3.2 3.7zm1.9 2.3h1.4c0 .7.6 1.3 1.6 1.3c1.1 0 1.7-.5 1.7-1.2c0-.6-.5-.9-1.1-1L365 51c-1.3-.4-2.1-1-2.1-2.4c0-1.3 1.2-2.4 2.8-2.4c1.4 0 2.8.8 2.8 2.4H367c0-.6-.6-1-1.3-1c-.8 0-1.3.5-1.3 1.1c0 .6.5.9 1.1 1l1.2.3c1.7.4 2.1 1.4 2.1 2.3c0 1.6-1.5 2.5-3.2 2.5c-1.4 0-2.9-.9-3-2.6zm12.2-5.8v1.4H373v6.8h-1.5v-6.8H370v-1.4h1.5v-3h1.5v3h1.8zm7.6 0h1.5v8.2h-1.5s-.03-1.26 0-1.3c-.5 1.1-1.8 1.5-2.7 1.5c-2.1 0-3.3-1.3-3.3-3.6c-.03-.03 0-4.8 0-4.8h1.5v4.7c0 1.4.8 2.3 2 2.3c1.1 0 2.5-.7 2.5-2.5c-.03.04 0-4.5 0-4.5zM393 42h1.5v12.6H393v-1.3c-.5 1-1.7 1.5-2.9 1.5c-2.2 0-4.1-1.7-4.1-4.3c0-2.6 1.8-4.3 4.1-4.3c1.2 0 2.4.6 2.9 1.5V42zm0 8.5c0-1.8-1.4-2.8-2.8-2.8c-1.5 0-2.7 1.2-2.7 2.8c0 1.6 1.2 2.9 2.7 2.9c1.5 0 2.8-1.1 2.8-2.9zm11.9.7h-6.7c.2 1.4 1.3 2.2 2.7 2.2c1 0 1.9-.5 2.4-1.3l1.3.5c-.7 1.5-2.2 2.2-3.8 2.2c-2.3 0-4.2-1.7-4.2-4.3c0-2.6 1.9-4.3 4.2-4.3c2.4 0 4.1 1.7 4.1 4.3v.7zm-1.5-1.3c-.2-1.4-1.2-2.2-2.6-2.2c-1.3 0-2.3.7-2.6 2.2h5.2zm11.1 0v4.7H413s-.02-4.62 0-4.6c0-1.4-.9-2.3-2-2.3c-1.1 0-2.5.7-2.5 2.5v4.4H407v-8.2h1.5v1.3c.5-1 1.8-1.5 2.7-1.5c2 0 3.3 1.4 3.3 3.7zm6.4-3.5v1.4h-1.8v6.8h-1.5v-6.8h-1.5v-1.4h1.5v-3h1.5v3h1.8zm9.2 4.8h-6.7c.2 1.4 1.3 2.2 2.7 2.2c1 0 1.9-.5 2.4-1.3l1.3.5c-.7 1.5-2.2 2.2-3.8 2.2c-2.3 0-4.2-1.7-4.2-4.3c0-2.6 1.9-4.3 4.2-4.3c2.4 0 4.1 1.7 4.1 4.3v.7zm-1.5-1.3c-.2-1.4-1.2-2.2-2.6-2.2c-1.3 0-2.3.7-2.6 2.2h5.2zm11.1 0v4.7h-1.5s-.02-4.62 0-4.6c0-1.4-.9-2.3-2-2.3c-1.1 0-2.5.7-2.5 2.5v4.4h-1.5v-8.2h1.5v1.3c.5-1 1.8-1.5 2.7-1.5c2 0 3.3 1.4 3.3 3.7zm18.5 0c-.03-.01 0 4.7 0 4.7h-1.6s.05-4.62 0-4.6c0-1.4-.8-2.3-1.9-2.3c-1.2 0-2.5.7-2.5 2.5c-.03-.01 0 4.4 0 4.4h-1.6V42h1.6s-.03 5.69 0 5.7c.5-1 1.8-1.5 2.7-1.5c2 0 3.3 1.4 3.3 3.7zm10.2 1.3h-6.7c.3 1.4 1.3 2.2 2.7 2.2c1 0 1.9-.5 2.4-1.3l1.3.5c-.7 1.5-2.2 2.2-3.7 2.2c-2.4 0-4.2-1.7-4.2-4.3c0-2.6 1.8-4.3 4.2-4.3c2.3 0 4 1.7 4 4.3v.7zm-1.5-1.3c-.2-1.4-1.2-2.2-2.5-2.2c-1.4 0-2.4.7-2.6 2.2h5.1zm12.1.6c0 2.6-1.8 4.3-4.1 4.3c-1.1 0-2.3-.5-2.9-1.5c.03.04 0 1.3 0 1.3h-1.5V42h1.5s.03 5.72 0 5.7c.6-.9 1.7-1.5 3-1.5c2.2 0 4 1.7 4 4.3zm-1.5 0c0-1.6-1.2-2.8-2.7-2.8c-1.3 0-2.8 1-2.8 2.8c0 1.8 1.3 2.9 2.8 2.9c1.5 0 2.7-1.3 2.7-2.9zm12.2 0c0 2.6-1.9 4.3-4.1 4.3c-1.2 0-2.4-.5-2.9-1.5c-.03.04 0 1.3 0 1.3h-1.6V42h1.6s-.03 5.72 0 5.7c.5-.9 1.7-1.5 2.9-1.5c2.2 0 4.1 1.7 4.1 4.3zm-1.6 0c0-1.6-1.2-2.8-2.7-2.8c-1.3 0-2.7 1-2.7 2.8c0 1.8 1.3 2.9 2.7 2.9c1.5 0 2.7-1.3 2.7-2.9zm11.4.7h-6.7c.2 1.4 1.3 2.2 2.7 2.2c1 0 1.9-.5 2.4-1.3l1.3.5c-.7 1.5-2.2 2.2-3.8 2.2c-2.3 0-4.2-1.7-4.2-4.3c0-2.6 1.9-4.3 4.2-4.3c2.4 0 4.1 1.7 4.1 4.3v.7zm-1.5-1.3c-.2-1.4-1.2-2.2-2.6-2.2c-1.3 0-2.3.7-2.6 2.2h5.2zm11.1 0v4.7h-1.5V50c0-1.4-.8-2.3-2-2.3c-1.1 0-2.5.7-2.5 2.5c.01-.01 0 4.4 0 4.4h-1.5v-8.2h1.5v1.3c.5-1 1.8-1.5 2.7-1.5c2.1 0 3.3 1.4 3.3 3.7z" stroke="none" fill="#000"/></g><g id="Polygon18320"><path d="m7.8 25.4h1.5v7.1c0 3.8-1.7 5.3-4.4 5.3c-1.5 0-2.9-.8-3.7-2.2l1.3-.7c.5 1 1.5 1.5 2.4 1.5c1.8 0 2.9-1.1 2.9-3.8v-.3c-.6 1-1.7 1.5-2.9 1.5c-2.3 0-4.1-1.7-4.1-4.3c0-2.6 1.8-4.3 4.1-4.3c1.2 0 2.3.6 2.9 1.5v-1.3zm0 4.1c0-1.8-1.4-2.8-2.8-2.8c-1.5 0-2.7 1.2-2.7 2.8c0 1.6 1.2 2.9 2.7 2.9c1.5 0 2.8-1.1 2.8-2.9zm11.9.7H13c.2 1.4 1.3 2.2 2.7 2.2c1 0 1.9-.5 2.4-1.3l1.3.5c-.7 1.5-2.2 2.2-3.8 2.2c-2.3 0-4.2-1.7-4.2-4.3c0-2.6 1.9-4.3 4.2-4.3c2.4 0 4.1 1.7 4.1 4.3v.7zm-1.5-1.3c-.2-1.4-1.2-2.2-2.6-2.2c-1.4 0-2.3.7-2.6 2.2h5.2zm11.1 0v4.7h-1.5s-.03-4.62 0-4.6c0-1.4-.9-2.3-2-2.3c-1.1 0-2.5.7-2.5 2.5c-.01-.01 0 4.4 0 4.4h-1.5V21h1.5v5.7c.5-1 1.8-1.5 2.7-1.5c2 0 3.3 1.4 3.3 3.7zm2 .6c0-2.6 1.9-4.3 4.2-4.3c2.4 0 4.3 1.7 4.3 4.3c0 2.6-1.9 4.3-4.3 4.3c-2.3 0-4.2-1.7-4.2-4.3zm7 0c0-1.7-1.3-2.8-2.8-2.8c-1.4 0-2.7 1.1-2.7 2.8c0 1.7 1.3 2.9 2.7 2.9c1.5 0 2.8-1.2 2.8-2.9zm9.5-4.1h1.6v8.2h-1.6s.04-1.26 0-1.3c-.4 1.1-1.8 1.5-2.7 1.5c-2 0-3.3-1.3-3.3-3.6c.04-.03 0-4.8 0-4.8h1.6s-.04 4.73 0 4.7c0 1.4.8 2.3 1.9 2.3c1.2 0 2.5-.7 2.5-2.5c.04.04 0-4.5 0-4.5zM58.5 21h1.5v12.6h-1.5s-.03-1.26 0-1.3c-.6 1-1.8 1.5-2.9 1.5c-2.3 0-4.1-1.7-4.1-4.3c0-2.6 1.8-4.3 4-4.3c1.3 0 2.4.6 3 1.5c-.03.02 0-5.7 0-5.7zm0 8.5c0-1.8-1.5-2.8-2.8-2.8c-1.5 0-2.7 1.2-2.7 2.8c0 1.6 1.2 2.9 2.7 2.9c1.5 0 2.8-1.1 2.8-2.9zm11.8.7h-6.6c.2 1.4 1.3 2.2 2.7 2.2c1 0 1.9-.5 2.3-1.3l1.4.5c-.7 1.5-2.2 2.2-3.8 2.2c-2.3 0-4.2-1.7-4.2-4.3c0-2.6 1.9-4.3 4.2-4.3c2.3 0 4.1 1.7 4.1 4.3c0 .2-.1.5-.1.7zm-1.5-1.3c-.1-1.4-1.1-2.2-2.5-2.2c-1.4 0-2.4.7-2.6 2.2h5.1zm11.2 0c-.03-.01 0 4.7 0 4.7h-1.5s-.05-4.62 0-4.6c0-1.4-.9-2.3-2-2.3c-1.2 0-2.5.7-2.5 2.5c-.03-.01 0 4.4 0 4.4h-1.6v-8.2h1.6s-.03 1.29 0 1.3c.5-1 1.8-1.5 2.7-1.5c2 0 3.3 1.4 3.3 3.7zm9.6.6c0-2.6 2-4.3 4.3-4.3c2.3 0 4.3 1.7 4.3 4.3c0 2.6-2 4.3-4.3 4.3c-2.3 0-4.3-1.7-4.3-4.3zm7.1 0c0-1.7-1.3-2.8-2.8-2.8c-1.5 0-2.7 1.1-2.7 2.8c0 1.7 1.2 2.9 2.7 2.9c1.5 0 2.8-1.2 2.8-2.9zm16.5-.6c-.03-.01 0 4.7 0 4.7h-1.5s-.05-4.62 0-4.6c0-1.4-.8-2.3-2-2.3c-1.4 0-2.2 1-2.2 2.8v4.1H106s-.02-4.62 0-4.6c0-1.4-.8-2.3-1.9-2.3c-1.1 0-2.3.8-2.3 2.5c.03-.01 0 4.4 0 4.4h-1.5v-8.2h1.5s.03 1.3 0 1.3c.4-.9 1.5-1.5 2.7-1.5c1.1 0 2.2.7 2.7 1.8c.7-1.5 2-1.8 2.8-1.8c2.1 0 3.2 1.4 3.2 3.7zm16.7-7.9h1.5v12.6h-1.5s-.05-1.26 0-1.3c-.6 1-1.8 1.5-3 1.5c-2.2 0-4-1.7-4-4.3c0-2.6 1.8-4.3 4-4.3c1.3 0 2.4.6 3 1.5c-.05.02 0-5.7 0-5.7zm0 8.5c0-1.8-1.5-2.8-2.8-2.8c-1.5 0-2.7 1.2-2.7 2.8c0 1.6 1.2 2.9 2.7 2.9c1.4 0 2.8-1.1 2.8-2.9zm11.8.7h-6.6c.2 1.4 1.2 2.2 2.6 2.2c1 0 2-.5 2.4-1.3l1.3.5c-.7 1.5-2.1 2.2-3.7 2.2c-2.3 0-4.2-1.7-4.2-4.3c0-2.6 1.9-4.3 4.2-4.3c2.3 0 4.1 1.7 4.1 4.3c0 .2-.1.5-.1.7zm-1.5-1.3c-.2-1.4-1.2-2.2-2.5-2.2c-1.4 0-2.4.7-2.6 2.2h5.1zm19.8.6c0 2.6-1.8 4.3-4 4.3c-1.3 0-2.4-.5-3-1.5c.04.04 0 5.3 0 5.3h-1.5V25.4h1.5s.04 1.32 0 1.3c.6-.9 1.8-1.5 2.9-1.5c2.3 0 4.1 1.8 4.1 4.3zm-1.5.1c0-1.7-1.2-2.9-2.7-2.9c-1.4 0-2.8 1.1-2.8 2.9c0 1.7 1.5 2.8 2.8 2.8c1.5 0 2.7-1.2 2.7-2.8zm3.1-.1c0-2.6 1.9-4.3 4.3-4.3c2.3 0 4.3 1.7 4.3 4.3c0 2.6-2 4.3-4.3 4.3c-2.4 0-4.3-1.7-4.3-4.3zm7 0c0-1.7-1.2-2.8-2.7-2.8c-1.5 0-2.8 1.1-2.8 2.8c0 1.7 1.3 2.9 2.8 2.9c1.5 0 2.7-1.2 2.7-2.9zm3 1.7h1.4c.1.7.7 1.3 1.7 1.3c1 0 1.6-.5 1.6-1.2c0-.6-.5-.9-1.1-1l-1.1-.3c-1.4-.4-2.2-1-2.2-2.4c0-1.3 1.2-2.4 2.8-2.4c1.4 0 2.8.8 2.8 2.4h-1.4c0-.6-.7-1-1.3-1c-.8 0-1.4.5-1.4 1.1c0 .6.6.9 1.1 1l1.2.3c1.7.4 2.1 1.4 2.1 2.3c0 1.6-1.4 2.5-3.1 2.5c-1.5 0-3-.9-3.1-2.6zm8-8.8c0-.5.5-1 1-1c.6 0 1.1.5 1.1 1c0 .6-.5 1-1.1 1c-.5 0-1-.4-1-1zm.3 11.2v-8.2h1.5v8.2h-1.5zm8.1-8.2v1.4h-1.8v6.8h-1.5v-6.8h-1.5v-1.4h1.5v-3h1.5v3h1.8zm1.4-3c0-.5.4-1 1-1c.6 0 1.1.5 1.1 1c0 .6-.5 1-1.1 1c-.6 0-1-.4-1-1zm.3 11.2v-8.2h1.5v8.2h-1.5zm11.8-3.4h-6.6c.2 1.4 1.2 2.2 2.6 2.2c1 0 2-.5 2.4-1.3l1.3.5c-.7 1.5-2.1 2.2-3.7 2.2c-2.3 0-4.2-1.7-4.2-4.3c0-2.6 1.9-4.3 4.2-4.3c2.3 0 4.1 1.7 4.1 4.3c0 .2-.1.5-.1.7zm-1.5-1.3c-.2-1.4-1.2-2.2-2.5-2.2c-1.4 0-2.4.7-2.6 2.2h5.1zm16.9-3.5h1.6l-3.4 8.2h-1.5l-3.3-8.2h1.6l2.5 6.3l2.5-6.3zm9.5 0h1.5v8.2h-1.5s-.03-1.44 0-1.4c-.6.9-1.7 1.6-3 1.6c-2.2 0-4-1.8-4-4.3c0-2.4 1.7-4.3 4-4.3c1.3 0 2.4.6 3 1.5c-.03.02 0-1.3 0-1.3zm0 4.1c0-1.7-1.4-2.8-2.8-2.8c-1.5 0-2.7 1.3-2.7 2.8c0 1.6 1.2 2.9 2.7 2.9c1.5 0 2.8-1.2 2.8-2.9zm11.7-.6c-.02-.01 0 4.7 0 4.7h-1.5s-.04-4.62 0-4.6c0-1.4-.9-2.3-2-2.3c-1.2 0-2.5.7-2.5 2.5c-.02-.01 0 4.4 0 4.4h-1.5v-8.2h1.5s-.02 1.29 0 1.3c.5-1 1.8-1.5 2.7-1.5c2 0 3.3 1.4 3.3 3.7zm16.7-7.9h1.5v12.6h-1.5s-.04-1.26 0-1.3c-.6 1-1.8 1.5-2.9 1.5c-2.3 0-4.1-1.7-4.1-4.3c0-2.6 1.8-4.3 4-4.3c1.3 0 2.4.6 3 1.5c-.04.02 0-5.7 0-5.7zm0 8.5c0-1.8-1.5-2.8-2.8-2.8c-1.5 0-2.7 1.2-2.7 2.8c0 1.6 1.2 2.9 2.7 2.9c1.4 0 2.8-1.1 2.8-2.9zm11.8.7H260c.2 1.4 1.3 2.2 2.7 2.2c.9 0 1.9-.5 2.3-1.3l1.3.5c-.7 1.5-2.1 2.2-3.7 2.2c-2.3 0-4.2-1.7-4.2-4.3c0-2.6 1.9-4.3 4.2-4.3c2.3 0 4.1 1.7 4.1 4.3c0 .2-.1.5-.1.7zm-1.5-1.3c-.2-1.4-1.2-2.2-2.5-2.2c-1.4 0-2.4.7-2.6 2.2h5.1zm17.8-7.9h1.5v12.6h-1.5s-.02-1.26 0-1.3c-.6 1-1.7 1.5-2.9 1.5c-2.3 0-4.1-1.7-4.1-4.3c0-2.6 1.8-4.3 4.1-4.3c1.2 0 2.3.6 2.9 1.5c-.02.02 0-5.7 0-5.7zm0 8.5c0-1.8-1.5-2.8-2.8-2.8c-1.5 0-2.7 1.2-2.7 2.8c0 1.6 1.2 2.9 2.7 2.9c1.5 0 2.8-1.1 2.8-2.9zm11.8.7h-6.6c.2 1.4 1.3 2.2 2.7 2.2c1 0 1.9-.5 2.4-1.3l1.3.5c-.7 1.5-2.2 2.2-3.8 2.2c-2.3 0-4.2-1.7-4.2-4.3c0-2.6 1.9-4.3 4.2-4.3c2.4 0 4.1 1.7 4.1 4.3c0 .2 0 .5-.1.7zm-1.4-1.3c-.2-1.4-1.2-2.2-2.6-2.2c-1.4 0-2.3.7-2.6 2.2h5.2zm24.1 0v4.7h-1.5V29c0-1.4-.8-2.3-2-2.3c-1.4 0-2.2 1-2.2 2.8c.04.02 0 4.1 0 4.1h-1.5s.02-4.62 0-4.6c0-1.4-.7-2.3-1.8-2.3c-1.2 0-2.3.8-2.3 2.5c-.03-.01 0 4.4 0 4.4h-1.5v-8.2h1.5s-.03 1.3 0 1.3c.4-.9 1.4-1.5 2.6-1.5c1.2 0 2.2.7 2.7 1.8c.7-1.5 2-1.8 2.8-1.8c2.1 0 3.2 1.4 3.2 3.7zm2 .6c0-2.6 1.9-4.3 4.3-4.3c2.3 0 4.2 1.7 4.2 4.3c0 2.6-1.9 4.3-4.2 4.3c-2.4 0-4.3-1.7-4.3-4.3zm7 0c0-1.7-1.2-2.8-2.7-2.8c-1.5 0-2.8 1.1-2.8 2.8c0 1.7 1.3 2.9 2.8 2.9c1.5 0 2.7-1.2 2.7-2.9zm3 1.7h1.4c.1.7.7 1.3 1.7 1.3c1 0 1.6-.5 1.6-1.2c0-.6-.5-.9-1.1-1l-1.1-.3c-1.4-.4-2.2-1-2.2-2.4c0-1.3 1.2-2.4 2.8-2.4c1.4 0 2.8.8 2.8 2.4h-1.4c-.1-.6-.7-1-1.3-1c-.8 0-1.4.5-1.4 1.1c0 .6.6.9 1.1 1l1.2.3c1.7.4 2.1 1.4 2.1 2.3c0 1.6-1.4 2.5-3.1 2.5c-1.5 0-3-.9-3.1-2.6zm8.3 2.4V21h1.5v12.6h-1.5zm3.8-11.2c0-.5.5-1 1.1-1c.6 0 1.1.5 1.1 1c0 .6-.5 1-1.1 1c-.6 0-1.1-.4-1.1-1zm.3 11.2v-8.2h1.6v8.2h-1.6zm17.1-4.7c-.03-.01 0 4.7 0 4.7h-1.6s.05-4.62 0-4.6c0-1.4-.7-2.3-1.9-2.3c-1.4 0-2.2 1-2.2 2.8v4.1h-1.5s-.02-4.62 0-4.6c0-1.4-.8-2.3-1.9-2.3c-1.1 0-2.3.8-2.3 2.5c.03-.01 0 4.4 0 4.4H346v-8.2h1.5s.03 1.3 0 1.3c.4-.9 1.5-1.5 2.7-1.5c1.1 0 2.2.7 2.7 1.8c.7-1.5 2-1.8 2.8-1.8c2.1 0 3.2 1.4 3.2 3.7zm1.9 2.3h1.4c0 .7.6 1.3 1.6 1.3c1 0 1.7-.5 1.7-1.2c0-.6-.5-.9-1.2-1l-1.1-.3c-1.4-.4-2.1-1-2.1-2.4c0-1.3 1.1-2.4 2.8-2.4c1.3 0 2.8.8 2.8 2.4h-1.5c0-.6-.7-1-1.3-1c-.8 0-1.3.5-1.3 1.1c0 .6.5.9 1 1l1.2.3c1.7.4 2.2 1.4 2.2 2.3c0 1.6-1.5 2.5-3.2 2.5c-1.5 0-3-.9-3-2.6zm12.1-5.8v1.4h-1.7v6.8h-1.5v-6.8h-1.5v-1.4h1.5v-3h1.5v3h1.7zm7.6 0h1.6v8.2h-1.6s.04-1.26 0-1.3c-.5 1.1-1.8 1.5-2.7 1.5c-2 0-3.3-1.3-3.3-3.6c.03-.03 0-4.8 0-4.8h1.6s-.04 4.73 0 4.7c0 1.4.8 2.3 1.9 2.3c1.2 0 2.5-.7 2.5-2.5c.04.04 0-4.5 0-4.5zm10.7-4.4h1.5v12.6h-1.5s-.04-1.26 0-1.3c-.6 1-1.8 1.5-2.9 1.5c-2.3 0-4.1-1.7-4.1-4.3c0-2.6 1.8-4.3 4-4.3c1.3 0 2.4.6 3 1.5c-.04.02 0-5.7 0-5.7zm0 8.5c0-1.8-1.5-2.8-2.8-2.8c-1.5 0-2.7 1.2-2.7 2.8c0 1.6 1.2 2.9 2.7 2.9c1.4 0 2.8-1.1 2.8-2.9zm11.8.7h-6.6c.2 1.4 1.3 2.2 2.7 2.2c.9 0 1.9-.5 2.3-1.3l1.3.5c-.7 1.5-2.1 2.2-3.7 2.2c-2.3 0-4.2-1.7-4.2-4.3c0-2.6 1.9-4.3 4.2-4.3c2.3 0 4.1 1.7 4.1 4.3c0 .2-.1.5-.1.7zm-1.5-1.3c-.2-1.4-1.2-2.2-2.5-2.2c-1.4 0-2.4.7-2.6 2.2h5.1zm11.2 0c-.03-.01 0 4.7 0 4.7h-1.6s.04-4.62 0-4.6c0-1.4-.8-2.3-1.9-2.3c-1.2 0-2.5.7-2.5 2.5c-.04-.01 0 4.4 0 4.4h-1.6v-8.2h1.6s-.04 1.29 0 1.3c.5-1 1.8-1.5 2.7-1.5c2 0 3.3 1.4 3.3 3.7zm6.3-3.5v1.4h-1.7v6.8h-1.6v-6.8h-1.4v-1.4h1.4v-3h1.6v3h1.7zm9.2 4.8h-6.6c.2 1.4 1.3 2.2 2.7 2.2c.9 0 1.9-.5 2.3-1.3l1.3.5c-.7 1.5-2.1 2.2-3.7 2.2c-2.3 0-4.2-1.7-4.2-4.3c0-2.6 1.9-4.3 4.2-4.3c2.3 0 4.1 1.7 4.1 4.3c0 .2-.1.5-.1.7zm-1.5-1.3c-.2-1.4-1.2-2.2-2.5-2.2c-1.4 0-2.4.7-2.6 2.2h5.1zm11.2 0c-.03-.01 0 4.7 0 4.7h-1.6s.04-4.62 0-4.6c0-1.4-.8-2.3-1.9-2.3c-1.2 0-2.5.7-2.5 2.5c-.04-.01 0 4.4 0 4.4h-1.6v-8.2h1.6s-.04 1.29 0 1.3c.5-1 1.8-1.5 2.7-1.5c2 0 3.3 1.4 3.3 3.7zm9.9-6.5c0-.5.5-1 1-1c.6 0 1.1.5 1.1 1c0 .6-.5 1-1.1 1c-.5 0-1-.4-1-1zm.3 11.2v-8.2h1.5v8.2h-1.5zm11.7-4.7c-.02-.01 0 4.7 0 4.7h-1.5s-.04-4.62 0-4.6c0-1.4-.9-2.3-2-2.3c-1.2 0-2.5.7-2.5 2.5c-.02-.01 0 4.4 0 4.4h-1.5v-8.2h1.5s-.02 1.29 0 1.3c.5-1 1.8-1.5 2.7-1.5c2 0 3.3 1.4 3.3 3.7zm17.5 4.7h-2l-3.8-4v4H470V21h1.5v7.3l2.9-2.9h2.1L473 29l4.3 4.6zm7.2-8.2h1.5v8.2h-1.5s-.03-1.44 0-1.4c-.6.9-1.7 1.6-3 1.6c-2.2 0-4-1.8-4-4.3c0-2.4 1.7-4.3 4.1-4.3c1.2 0 2.3.6 2.9 1.5c-.03.02 0-1.3 0-1.3zm0 4.1c0-1.7-1.4-2.8-2.8-2.8c-1.5 0-2.7 1.3-2.7 2.8c0 1.6 1.2 2.9 2.7 2.9c1.5 0 2.8-1.2 2.8-2.9zm10.6-4.1h1.5v8.2h-1.5v-1.4c-.5.9-1.7 1.6-3 1.6c-2.1 0-4-1.8-4-4.3c0-2.4 1.8-4.3 4.1-4.3c1.2 0 2.4.6 2.9 1.5v-1.3zm0 4.1c0-1.7-1.4-2.8-2.8-2.8c-1.5 0-2.7 1.3-2.7 2.8c0 1.6 1.2 2.9 2.7 2.9c1.5 0 2.8-1.2 2.8-2.9zm9.4-4l-.2 1.5c-.5-.2-.9-.3-1.2-.3c-1.6 0-2.3 1.8-2.3 3.9c.02.02 0 3 0 3h-1.5v-8.2h1.5s.02 1.9 0 1.9c.4-1.4 1.2-2.1 2.3-2.1c.6 0 1.2.2 1.4.3zm5.5-.1v1.4h-1.8v6.8h-1.5v-6.8h-1.5v-1.4h1.5v-3h1.5v3h1.8z" stroke="none" fill="#000"/></g><g id="Polygon18319"><path d="m1.7 12.6v-12h1.6v12H1.7zm12-4.7v4.7h-1.5s-.04-4.62 0-4.6c0-1.4-.9-2.3-2-2.3c-1.2 0-2.5.7-2.5 2.5c-.02-.01 0 4.4 0 4.4H6.2V4.4h1.5s-.02 1.29 0 1.3c.5-1 1.8-1.5 2.7-1.5c2 0 3.3 1.4 3.3 3.7zm13.6 3.2h4.7v1.5h-7.2v-.7s4.3-5.16 4.3-5.2c.7-.8 1.2-1.8 1.2-2.3c0-1.1-.8-1.9-2.1-1.9c-1.2 0-2.1.7-2.1 1.7l-1.4-.3c.2-1.7 1.6-2.9 3.5-2.9c2.2 0 3.6 1.4 3.6 3.4c0 .9-.6 2.1-1.3 3c0-.03-3.2 3.7-3.2 3.7zm6.6-4.2c0-3.2.9-5.9 4.2-5.9c3.3 0 4.1 2.7 4.1 5.9c0 3.2-.8 5.9-4.1 5.9c-3.3 0-4.2-2.7-4.2-5.9zm6.8 0c0-2.4-.5-4.4-2.6-4.4c-2.1 0-2.6 2-2.6 4.4c0 2.4.5 4.5 2.6 4.5c2.1 0 2.6-2.1 2.6-4.5zm6 4.2h4.6v1.5h-7.2v-.7s4.35-5.16 4.4-5.2c.7-.8 1.2-1.8 1.2-2.3c0-1.1-.9-1.9-2.1-1.9c-1.2 0-2.1.7-2.2 1.7L44 3.9c.3-1.7 1.6-2.9 3.6-2.9c2.1 0 3.6 1.4 3.6 3.4c0 .9-.6 2.1-1.3 3c-.05-.03-3.2 3.7-3.2 3.7zm13.8-1.8c0 2.1-1.6 3.5-4 3.5c-1.6 0-3-.9-3.7-2.4l1.3-.7c.5 1.1 1.4 1.7 2.4 1.7c1.4 0 2.5-.9 2.5-2.1c0-1.3-1-2.1-2.5-2.1c.04-.03-1.2 0-1.2 0V5.9s1.13-.04 1.1 0c1.2 0 2-.8 2-1.8c0-1-.7-1.6-1.8-1.6c-.8 0-1.6.4-2 1.1l-1.1-.9c.6-1 1.8-1.7 3.1-1.7c2 0 3.3 1.2 3.3 3.1c0 1.1-.5 2-1.4 2.4c1.2.4 2 1.4 2 2.8zm10.9-7.9c0-.5.5-1 1.1-1c.6 0 1.1.5 1.1 1c0 .6-.5 1-1.1 1c-.6 0-1.1-.4-1.1-1zm.4 11.2V4.4h1.5v8.2h-1.5zm3.5-2.4h1.4c0 .7.6 1.3 1.6 1.3c1.1 0 1.7-.5 1.7-1.2c0-.6-.5-.9-1.2-1L77.7 9c-1.3-.4-2.1-1-2.1-2.4c0-1.3 1.1-2.4 2.8-2.4c1.4 0 2.8.8 2.8 2.4h-1.5c0-.6-.6-1-1.3-1c-.8 0-1.3.5-1.3 1.1c0 .6.5.9 1 1l1.3.3c1.6.4 2.1 1.4 2.1 2.3c0 1.6-1.5 2.5-3.2 2.5c-1.5 0-3-.9-3-2.6zm24.9-1h-6.6c.2 1.4 1.2 2.2 2.6 2.2c1 0 2-.5 2.4-1.3l1.3.5c-.7 1.5-2.1 2.2-3.7 2.2c-2.3 0-4.2-1.7-4.2-4.3c0-2.6 1.9-4.3 4.2-4.3c2.3 0 4.1 1.7 4.1 4.3c0 .2-.1.5-.1.7zm-1.5-1.3c-.2-1.4-1.2-2.2-2.5-2.2c-1.4 0-2.4.7-2.6 2.2h5.1zm8.9-3.4l-.3 1.5c-.4-.2-.8-.3-1.1-.3c-1.7 0-2.3 1.8-2.3 3.9c-.02.02 0 3 0 3h-1.6V4.4h1.6s-.02 1.9 0 1.9c.4-1.4 1.2-2.1 2.3-2.1c.5 0 1.1.2 1.4.3zm17.7 4.7h-6.6c.2 1.4 1.3 2.2 2.7 2.2c1 0 1.9-.5 2.4-1.3l1.3.5c-.7 1.5-2.2 2.2-3.8 2.2c-2.3 0-4.2-1.7-4.2-4.3c0-2.6 1.9-4.3 4.2-4.3c2.3 0 4.1 1.7 4.1 4.3c0 .2 0 .5-.1.7zm-1.4-1.3c-.2-1.4-1.2-2.2-2.6-2.2c-1.4 0-2.3.7-2.6 2.2h5.2zm11.2 1.3h-6.6c.2 1.4 1.3 2.2 2.7 2.2c1 0 1.9-.5 2.4-1.3l1.3.5c-.7 1.5-2.2 2.2-3.8 2.2c-2.3 0-4.2-1.7-4.2-4.3c0-2.6 1.9-4.3 4.2-4.3c2.3 0 4.1 1.7 4.1 4.3c0 .2 0 .5-.1.7zm-1.4-1.3c-.2-1.4-1.2-2.2-2.6-2.2c-1.4 0-2.3.7-2.6 2.2h5.2zm11.1 0v4.7h-1.5s-.03-4.62 0-4.6c0-1.4-.9-2.3-2-2.3c-1.1 0-2.5.7-2.5 2.5c-.01-.01 0 4.4 0 4.4h-1.5V4.4h1.5v1.3c.5-1 1.8-1.5 2.7-1.5c2 0 3.3 1.4 3.3 3.7zM164 9.2h-6.6c.2 1.4 1.2 2.2 2.6 2.2c1 0 2-.5 2.4-1.3l1.3.5c-.7 1.5-2.1 2.2-3.7 2.2c-2.3 0-4.2-1.7-4.2-4.3c0-2.6 1.9-4.3 4.2-4.3c2.3 0 4.1 1.7 4.1 4.3c0 .2-.1.5-.1.7zm-1.5-1.3c-.2-1.4-1.2-2.2-2.5-2.2c-1.4 0-2.4.7-2.6 2.2h5.1zm11.3 1.3h-6.6c.2 1.4 1.2 2.2 2.6 2.2c1 0 2-.5 2.4-1.3l1.3.5c-.7 1.5-2.1 2.2-3.7 2.2c-2.3 0-4.2-1.7-4.2-4.3c0-2.6 1.9-4.3 4.2-4.3c2.3 0 4.1 1.7 4.1 4.3c0 .2-.1.5-.1.7zm-1.5-1.3c-.2-1.4-1.2-2.2-2.5-2.2c-1.4 0-2.4.7-2.6 2.2h5.1zm8.9-3.4l-.3 1.5c-.4-.2-.8-.3-1.2-.3c-1.6 0-2.2 1.8-2.2 3.9c-.03.02 0 3 0 3h-1.6V4.4h1.6s-.03 1.9 0 1.9c.4-1.4 1.2-2.1 2.3-2.1c.5 0 1.1.2 1.4.3zm.8 5.7h1.4c0 .7.6 1.3 1.6 1.3c1 0 1.6-.5 1.6-1.2c0-.6-.4-.9-1.1-1l-1.1-.3c-1.4-.4-2.1-1-2.1-2.4c0-1.3 1.1-2.4 2.8-2.4c1.3 0 2.8.8 2.8 2.4h-1.5c0-.6-.7-1-1.3-1c-.8 0-1.3.5-1.3 1.1c0 .6.5.9 1 1l1.2.3c1.7.4 2.2 1.4 2.2 2.3c0 1.6-1.5 2.5-3.2 2.5c-1.5 0-3-.9-3-2.6zm12.1-5.8v1.4h-1.7v6.8h-1.6V5.8h-1.4V4.4h1.4v-3h1.6v3h1.7zm9.2 4.8h-6.6c.2 1.4 1.3 2.2 2.7 2.2c1 0 1.9-.5 2.3-1.3l1.4.5c-.7 1.5-2.2 2.2-3.8 2.2c-2.3 0-4.2-1.7-4.2-4.3c0-2.6 1.9-4.3 4.2-4.3c2.3 0 4.1 1.7 4.1 4.3c0 .2 0 .5-.1.7zm-1.4-1.3c-.2-1.4-1.2-2.2-2.6-2.2c-1.4 0-2.3.7-2.6 2.2h5.2zm20-7.3h1.6v12H222l-5.6-9.2v9.2h-1.6v-12h1.6l5.5 9.1V.6zm10.8 3.8h1.6v8.2h-1.6s.05-1.44 0-1.4c-.5.9-1.6 1.6-2.9 1.6c-2.2 0-4.1-1.8-4.1-4.3c0-2.4 1.8-4.3 4.1-4.3c1.3 0 2.4.6 2.9 1.5c.05.02 0-1.3 0-1.3zm0 4.1c0-1.7-1.4-2.8-2.7-2.8c-1.5 0-2.7 1.3-2.7 2.8c0 1.6 1.2 2.9 2.7 2.9c1.4 0 2.7-1.2 2.7-2.9zm8.2-4.1v1.4h-1.8v6.8h-1.5V5.8h-1.5V4.4h1.5v-3h1.5v3h1.8zm1.3-3c0-.5.5-1 1.1-1c.6 0 1.1.5 1.1 1c0 .6-.5 1-1.1 1c-.6 0-1.1-.4-1.1-1zm.3 11.2V4.4h1.6v8.2h-1.6zm3.7-4.1c0-2.6 1.9-4.3 4.2-4.3c2.4 0 4.3 1.7 4.3 4.3c0 2.6-1.9 4.3-4.3 4.3c-2.3 0-4.2-1.7-4.2-4.3zm7 0c0-1.7-1.3-2.8-2.8-2.8c-1.5 0-2.7 1.1-2.7 2.8c0 1.7 1.2 2.9 2.7 2.9c1.5 0 2.8-1.2 2.8-2.9zm11.2-.6c-.05-.01 0 4.7 0 4.7h-1.6s.03-4.62 0-4.6c0-1.4-.8-2.3-1.9-2.3c-1.2 0-2.5.7-2.5 2.5c-.05-.01 0 4.4 0 4.4h-1.6V4.4h1.6s-.05 1.29 0 1.3c.4-1 1.8-1.5 2.7-1.5c2 0 3.3 1.4 3.3 3.7zm8.9-3.5h1.6v8.2h-1.6s.03-1.44 0-1.4c-.5.9-1.6 1.6-3 1.6c-2.1 0-4-1.8-4-4.3c0-2.4 1.8-4.3 4.1-4.3c1.2 0 2.4.6 2.9 1.5c.03.02 0-1.3 0-1.3zm0 4.1c0-1.7-1.4-2.8-2.8-2.8c-1.4 0-2.6 1.3-2.6 2.8c0 1.6 1.2 2.9 2.7 2.9c1.4 0 2.7-1.2 2.7-2.9zm4.2 4.1V0h1.5v12.6h-1.5zm11.9-3.4h-6.7c.2 1.4 1.3 2.2 2.7 2.2c1 0 1.9-.5 2.4-1.3l1.3.5c-.7 1.5-2.2 2.2-3.8 2.2c-2.3 0-4.2-1.7-4.2-4.3c0-2.6 1.9-4.3 4.2-4.3c2.4 0 4.1 1.7 4.1 4.3v.7zm-1.5-1.3c-.2-1.4-1.2-2.2-2.6-2.2c-1.3 0-2.3.7-2.6 2.2h5.2zm26.7 4.7H313l-1.1-9.2l-3.8 7.9h-1.4l-3.9-7.9l-1.1 9.2h-1.5l1.4-12h1.5l4.3 8.9l4.3-8.9h1.4l1.5 12zm1.6-4.1c0-2.6 2-4.3 4.3-4.3c2.3 0 4.3 1.7 4.3 4.3c0 2.6-2 4.3-4.3 4.3c-2.3 0-4.3-1.7-4.3-4.3zm7.1 0c0-1.7-1.3-2.8-2.8-2.8c-1.5 0-2.7 1.1-2.7 2.8c0 1.7 1.2 2.9 2.7 2.9c1.5 0 2.8-1.2 2.8-2.9zm2.9 1.7h1.5c0 .7.6 1.3 1.6 1.3c1 0 1.6-.5 1.6-1.2c0-.6-.4-.9-1.1-1l-1.1-.3c-1.4-.4-2.2-1-2.2-2.4c0-1.3 1.2-2.4 2.8-2.4c1.4 0 2.9.8 2.9 2.4h-1.5c0-.6-.7-1-1.3-1c-.8 0-1.3.5-1.3 1.1c0 .6.5.9 1 1l1.2.3c1.7.4 2.2 1.4 2.2 2.3c0 1.6-1.5 2.5-3.2 2.5c-1.5 0-3-.9-3.1-2.6zm8.3 2.4V0h1.5v12.6h-1.5zm3.9-11.2c0-.5.4-1 1-1c.6 0 1.1.5 1.1 1c0 .6-.5 1-1.1 1c-.6 0-1-.4-1-1zm.3 11.2V4.4h1.5v8.2h-1.5zm17-4.7v4.7h-1.5s-.03-4.62 0-4.6c0-1.4-.8-2.3-2-2.3c-1.4 0-2.2 1-2.2 2.8c.03.02 0 4.1 0 4.1h-1.5V8c0-1.4-.7-2.3-1.8-2.3c-1.2 0-2.3.8-2.3 2.5c-.04-.01 0 4.4 0 4.4h-1.6V4.4h1.6s-.04 1.3 0 1.3c.4-.9 1.4-1.5 2.6-1.5c1.2 0 2.2.7 2.7 1.8c.7-1.5 2-1.8 2.8-1.8c2.1 0 3.2 1.4 3.2 3.7zm1.9 2.3h1.4c0 .7.6 1.3 1.6 1.3c1.1 0 1.7-.5 1.7-1.2c0-.6-.5-.9-1.1-1L360 9c-1.3-.4-2.1-1-2.1-2.4c0-1.3 1.1-2.4 2.8-2.4c1.4 0 2.8.8 2.8 2.4H362c0-.6-.6-1-1.3-1c-.8 0-1.3.5-1.3 1.1c0 .6.5.9 1.1 1l1.2.3c1.7.4 2.1 1.4 2.1 2.3c0 1.6-1.5 2.5-3.2 2.5c-1.4 0-2.9-.9-3-2.6zm12.2-5.8v1.4H368v6.8h-1.5V5.8H365V4.4h1.5v-3h1.5v3h1.8zm7.6 0h1.5v8.2h-1.5s-.04-1.26 0-1.3c-.5 1.1-1.8 1.5-2.8 1.5c-2 0-3.3-1.3-3.2-3.6c-.04-.03 0-4.8 0-4.8h1.5s-.02 4.73 0 4.7c0 1.4.8 2.3 1.9 2.3c1.2 0 2.5-.7 2.6-2.5c-.04.04 0-4.5 0-4.5zM388 0h1.5v12.6H388s-.02-1.26 0-1.3c-.6 1-1.7 1.5-2.9 1.5c-2.3 0-4.1-1.7-4.1-4.3c0-2.6 1.8-4.3 4.1-4.3c1.2 0 2.3.6 2.9 1.5c-.02.02 0-5.7 0-5.7zm0 8.5c0-1.8-1.5-2.8-2.8-2.8c-1.5 0-2.7 1.2-2.7 2.8c0 1.6 1.2 2.9 2.7 2.9c1.5 0 2.8-1.1 2.8-2.9zm11.8.7h-6.6c.2 1.4 1.3 2.2 2.7 2.2c1 0 1.9-.5 2.4-1.3l1.3.5c-.7 1.5-2.2 2.2-3.8 2.2c-2.3 0-4.2-1.7-4.2-4.3c0-2.6 1.9-4.3 4.2-4.3c2.4 0 4.1 1.7 4.1 4.3c0 .2 0 .5-.1.7zm-1.4-1.3c-.2-1.4-1.2-2.2-2.6-2.2c-1.4 0-2.3.7-2.6 2.2h5.2zm11.1 0v4.7H408s-.03-4.62 0-4.6c0-1.4-.9-2.3-2-2.3c-1.1 0-2.5.7-2.5 2.5c-.01-.01 0 4.4 0 4.4H402V4.4h1.5v1.3c.5-1 1.8-1.5 2.7-1.5c2 0 3.3 1.4 3.3 3.7zm6.3-3.5v1.4h-1.7v6.8h-1.5V5.8h-1.5V4.4h1.5v-3h1.5v3h1.7zm9.2 4.8h-6.6c.2 1.4 1.3 2.2 2.7 2.2c1 0 1.9-.5 2.4-1.3l1.3.5c-.7 1.5-2.2 2.2-3.8 2.2c-2.3 0-4.2-1.7-4.2-4.3c0-2.6 1.9-4.3 4.2-4.3c2.4 0 4.1 1.7 4.1 4.3c0 .2 0 .5-.1.7zm-1.4-1.3c-.2-1.4-1.2-2.2-2.6-2.2c-1.4 0-2.3.7-2.6 2.2h5.2zm11.1 0v4.7h-1.5s-.03-4.62 0-4.6c0-1.4-.9-2.3-2-2.3c-1.1 0-2.5.7-2.5 2.5c-.01-.01 0 4.4 0 4.4h-1.5V4.4h1.5v1.3c.5-1 1.8-1.5 2.7-1.5c2 0 3.3 1.4 3.3 3.7zm13.5 3.2h5.7v1.5h-7.3v-12h7.1v1.4h-5.5v3.9h4.8v1.5h-4.8v3.7zm15.3-3.2v4.7H462s-.03-4.62 0-4.6c0-1.4-.9-2.3-2-2.3c-1.1 0-2.5.7-2.5 2.5c-.01-.01 0 4.4 0 4.4H456V4.4h1.5v1.3c.5-1 1.8-1.5 2.7-1.5c2 0 3.3 1.4 3.3 3.7zm9-3.5h1.5v12.2h-1.5v-5.3c-.6 1-1.7 1.5-2.9 1.5c-2.3 0-4.1-1.7-4.1-4.3c0-2.5 1.8-4.3 4.1-4.3c1.2 0 2.3.6 2.9 1.5V4.4zm0 4.2c0-1.8-1.3-2.9-2.8-2.9c-1.5 0-2.7 1.2-2.7 2.9c0 1.6 1.2 2.8 2.7 2.8c1.4 0 2.8-1.1 2.8-2.8zm10.1-4.2h1.5v8.2h-1.5s-.03-1.26 0-1.3c-.5 1.1-1.8 1.5-2.7 1.5c-2.1 0-3.4-1.3-3.3-3.6c-.04-.03 0-4.8 0-4.8h1.5v4.7c0 1.4.8 2.3 1.9 2.3c1.2 0 2.5-.7 2.6-2.5c-.03.04 0-4.5 0-4.5zm11.8 4.8h-6.6c.2 1.4 1.2 2.2 2.6 2.2c1 0 1.9-.5 2.4-1.3l1.3.5c-.7 1.5-2.1 2.2-3.7 2.2c-2.3 0-4.2-1.7-4.2-4.3c0-2.6 1.9-4.3 4.2-4.3c2.3 0 4 1.7 4 4.3v.7zm-1.5-1.3c-.2-1.4-1.2-2.2-2.5-2.2c-1.4 0-2.4.7-2.6 2.2h5.1zm7.4-3.5v1.4h-1.7v6.8H497V5.8h-1.4V4.4h1.4v-3h1.6v3h1.7zm9.2 4.8h-6.6c.2 1.4 1.3 2.2 2.7 2.2c1 0 1.9-.5 2.3-1.3l1.4.5c-.7 1.5-2.2 2.2-3.8 2.2c-2.3 0-4.2-1.7-4.2-4.3c0-2.6 1.9-4.3 4.2-4.3c2.3 0 4.1 1.7 4.1 4.3c0 .2 0 .5-.1.7zM508 7.9c-.1-1.4-1.1-2.2-2.5-2.2c-1.4 0-2.4.7-2.6 2.2h5.1z" stroke="none" fill="#000"/></g></svg>