<?xml version="1.0" standalone="no"?><!DOCTYPE svg PUBLIC "-//W3C//DTD SVG 1.1//EN" "http://www.w3.org/Graphics/SVG/1.1/DTD/svg11.dtd"><svg xmlns="http://www.w3.org/2000/svg" version="1.1" width="510.3px" height="113.6px" viewBox="0 -7 510.3 113.6" style="top:-7px"><desc>In samenwerking met Edloket (Amerpoort Amersfoort) heb ik een interactieve infographic gemaakt naar aanleiding van he...</desc><defs/><g id="Polygon18648"><path d="m4.7 91.8c.9 0 1.8-.2 2.5-.6c.7-.5 1.3-1 1.6-1.8c.4-.7.6-1.5.6-2.3c0-.9-.2-1.7-.5-2.4c-.4-.7-.8-1.3-1.5-1.8c-.6-.4-1.4-.6-2.2-.6c-1 0-1.8.2-2.5.6c-.7.4-1.3 1-1.7 1.7c-.4.7-.6 1.5-.6 2.5c0 .9.2 1.7.6 2.4c.3.7.8 1.3 1.5 1.7c.6.4 1.3.6 2.2.6zm.1-8.8c.7 0 1.2.2 1.7.6c.4.5.8 1 1 1.7c.2.7.3 1.4.3 2.1c0 1.1-.2 1.9-.6 2.6c-.4.7-1.2 1-2.2 1c-.6 0-1.2-.2-1.6-.6c-.5-.4-.8-.9-1-1.6c-.2-.7-.3-1.4-.3-2.1c0-2.5.9-3.7 2.7-3.7zm8.7 8l-1.1-.2s-.04-4.13 0-4.1c.1-.2.4-.4.6-.5c.3-.1.5-.2.8-.2c.4 0 .7.2.9.4c.3.2.4.5.4 1c-.02-.01 0 3.4 0 3.4l-1 .3l-.1.5h3.3l.1-.6l-1.1-.2v-3.7c0-.7-.1-1.2-.5-1.5c-.3-.4-.7-.6-1.3-.6c-.4 0-.8.1-1.2.4c-.4.2-.7.5-1 .8c.03-.01 0 0 0 0l.1-.9l-.1-.2l-2.2.3l-.1.6l1.1.3v4.5l-1.1.3v.5h3.4l.1-.6zm5.1-1.3c-.1.8.1 1.3.4 1.6c.2.3.6.5 1.1.5c.4 0 .8-.1 1.1-.3c.4-.2.7-.5.9-.8l-.2-.4s0 .1-.1.1c-.1.1-.3.2-.4.2c-.2.1-.4.1-.5.1c-.3 0-.5 0-.6-.1c-.2-.1-.3-.2-.4-.5c-.1-.2-.1-.5-.1-.8c.01-.02 0-3.3 0-3.3h2.1v-.6h-2.1v-1.7s-.34-.04-.3 0c-.3.3-.6.7-.9 1c-.3.4-.7.7-.9.9c-.05.03 0 .4 0 .4h.9s-.05 3.71 0 3.7zm4.4-3.6l1.8 5.7l.8-.1l1.3-4.4l1.3 4.5l.9-.1l1.6-5.6l.8-.3l.1-.6h-2.8l-.1.6l1.1.3l-1.1 3.8l-.1-.8l-1.1-3.6l-1 .2l-1.2 4.2l-.2-.9l-.9-2.9l1-.3l.1-.6h-3l-.1.6l.8.3zm11.9 5.7c.6 0 1.1-.1 1.6-.4c.4-.3.8-.7 1.1-1.2c.2-.6.4-1.1.4-1.8c0-.7-.1-1.3-.4-1.8c-.2-.5-.5-.9-1-1.2c-.4-.3-.9-.4-1.5-.4c-.6 0-1.1.1-1.6.4c-.5.3-.9.7-1.1 1.2c-.3.6-.5 1.2-.5 1.9c0 .6.1 1.2.4 1.7c.2.5.5.9 1 1.2c.4.3 1 .4 1.6.4zm-.1-6c.4 0 .8.1 1.1.5c.2.3.5.7.6 1.2c.1.5.2 1 .2 1.5c0 .3-.1.7-.2 1c-.1.3-.3.6-.5.8c-.2.2-.5.3-.8.3c-.5 0-.9-.1-1.2-.4c-.2-.3-.5-.7-.6-1.2c-.1-.5-.2-1-.2-1.5c0-.4.1-.8.2-1.1c.1-.4.3-.6.5-.8c.2-.2.5-.3.9-.3zm8 5.2l-1.7-.3s-.03-2.77 0-2.8c0-.3.1-.6.3-.9c.1-.2.3-.4.4-.5c.2-.1.4-.2.5-.2c.2 0 .3.1.5.1c.1.1.3.1.4.2c.3-.2.4-.5.4-.8c0-.2 0-.4-.2-.6c-.1-.1-.3-.2-.6-.2c-.2 0-.4.1-.6.2c-.3.2-.5.4-.7.7c-.2.3-.4.6-.5 1.1c.02-.04-.1 0-.1 0l.1-1.7l-.1-.2l-2.1.3l-.1.5l1.2.4v4.5l-1.2.3v.5h4l.1-.6zm4.5 2.8l-1.1-.3v-6.8c.2-.2.4-.3.7-.5c.2-.1.5-.2.8-.2c.5 0 .8.2 1.1.7c.2.4.3 1.1.3 1.9c0 .8-.1 1.3-.4 1.7c-.3.5-.6.7-1.1.7c-.3 0-.5 0-.7-.1c-.1 0-.3 0-.4-.1v.9c.2 0 .5.1.7.1c.6 0 1.2-.2 1.7-.5c.5-.3.8-.7 1.1-1.3c.3-.5.4-1.1.4-1.8c0-.7-.1-1.3-.2-1.8c-.2-.5-.5-.8-.8-1c-.4-.3-.7-.4-1.2-.4c-.4 0-.8.2-1.1.4c-.4.2-.7.5-.9.8c0 .04-.1 0-.1 0l.2-.9l-.2-.1l-2.1.2l-.1.6l1.1.3v7.2l-1.1.3l-.1.5h3.5v-.5zm6.7-2c.5 0 .9 0 1.3-.2c.4-.2.8-.4 1.1-.7l-.2-.4c-.2.1-.4.2-.6.2c-.2.1-.3.1-.5.2h-.5c-.5 0-.8-.2-1.1-.4c-.3-.2-.6-.6-.7-.9c-.2-.4-.3-.8-.3-1.2l3.6-.1c0-.1 0-.3.1-.5v-.4c0-.5-.1-1-.3-1.3c-.1-.4-.4-.6-.7-.8c-.3-.2-.6-.3-1-.3c-.5 0-.9.2-1.4.5c-.5.2-.8.6-1.1 1.2c-.3.5-.5 1.1-.5 1.8c0 .7.2 1.3.4 1.8c.3.5.6.9 1 1.2c.5.2.9.3 1.4.3zm-.1-6c.7 0 1 .4 1 1.3v.3c0 .1 0 .2-.1.2l-2.3.2c.1-.5.1-.8.3-1.1c.1-.3.3-.6.5-.7c.2-.2.4-.2.6-.2zm6.6 5.2l-1.1-.2v-4.1c.2-.2.4-.4.6-.5c.3-.1.6-.2.8-.2c.4 0 .7.2 1 .4c.2.2.3.5.3 1c.01-.01 0 3.4 0 3.4l-1 .3l-.1.5h3.3l.1-.6l-1.1-.2s.03-3.69 0-3.7c0-.7-.1-1.2-.4-1.5c-.3-.4-.8-.6-1.3-.6c-.5 0-.9.1-1.2.4c-.4.2-.8.5-1 .8h-.1l.1-.9l-.1-.2l-2.2.3l-.1.6l1.2.3v4.5l-1.1.3l-.1.5h3.4l.1-.6zm7.1-4.9l2 5.7l.9-.1l2-5.6l.8-.3l.1-.6h-2.8l-.1.6l1.2.3l-1.4 4.1l-1.4-4.1l1.1-.3v-.6h-3.3v.6l.9.3zm9.1 5.7c.6 0 1.1-.1 1.6-.4c.4-.3.8-.7 1.1-1.2c.3-.6.4-1.1.4-1.8c0-.7-.1-1.3-.4-1.8c-.2-.5-.5-.9-1-1.2c-.4-.3-.9-.4-1.5-.4c-.6 0-1.1.1-1.6.4c-.5.3-.8.7-1.1 1.2c-.3.6-.5 1.2-.5 1.9c0 .6.1 1.2.4 1.7c.2.5.5.9 1 1.2c.5.3 1 .4 1.6.4zm-.1-6c.4 0 .8.1 1.1.5c.3.3.5.7.6 1.2c.1.5.2 1 .2 1.5c0 .3-.1.7-.2 1c-.1.3-.3.6-.5.8c-.2.2-.5.3-.8.3c-.5 0-.9-.1-1.2-.4c-.2-.3-.5-.7-.6-1.2c-.1-.5-.2-1-.2-1.5c0-.4.1-.8.2-1.1c.1-.4.3-.6.5-.8c.2-.2.5-.3.9-.3zm7 6c.5 0 1-.1 1.5-.4c.5-.3.9-.7 1.1-1.2c.3-.6.4-1.1.4-1.8c0-.7-.1-1.3-.3-1.8c-.2-.5-.6-.9-1-1.2c-.5-.3-1-.4-1.6-.4c-.5 0-1 .1-1.5.4c-.5.3-.9.7-1.2 1.2c-.3.6-.4 1.2-.4 1.9c0 .6.1 1.2.3 1.7c.2.5.6.9 1 1.2c.5.3 1 .4 1.7.4zm-.2-6c.5 0 .8.1 1.1.5c.3.3.5.7.6 1.2c.2.5.2 1 .2 1.5c0 .3 0 .7-.1 1c-.2.3-.3.6-.6.8c-.2.2-.5.3-.8.3c-.4 0-.8-.1-1.1-.4c-.3-.3-.5-.7-.6-1.2c-.2-.5-.2-1-.2-1.5c0-.4 0-.8.1-1.1c.1-.4.3-.6.5-.8c.3-.2.6-.3.9-.3zm8 5.2l-1.7-.3v-2.8l.3-.9c.1-.2.3-.4.5-.5c.2-.1.3-.2.5-.2c.1 0 .3.1.4.1c.2.1.3.1.5.2c.2-.2.4-.5.4-.8c0-.2-.1-.4-.2-.6c-.2-.1-.4-.2-.6-.2c-.3 0-.5.1-.7.2c-.2.2-.4.4-.6.7c-.2.3-.4.6-.5 1.1c-.03-.04-.2 0-.2 0l.2-1.7l-.2-.2l-2.1.3l-.1.5l1.2.4v4.5l-1.1.3l-.1.5h4l.1-.6zm6.5.8c.4 0 .9-.1 1.3-.2c.4-.2.8-.4 1-.7l-.2-.4c-.2.2-.5.3-.7.3c-.2.1-.5.2-.8.2c-.5 0-.9-.2-1.2-.5c-.3-.3-.6-.7-.7-1.2c-.2-.5-.3-1-.3-1.4c0-.4.1-.8.2-1.1c.1-.4.3-.6.5-.8c.2-.2.5-.3.8-.3c.2 0 .5.1.7.4c.1.2.3.5.4.8c.3 0 .6-.1.7-.2c.2-.2.3-.3.3-.6c0-.2-.1-.3-.2-.5c-.2-.2-.3-.3-.6-.4c-.3-.1-.6-.2-1-.2c-.5 0-1 .2-1.5.5c-.5.3-.9.7-1.2 1.2c-.3.6-.4 1.2-.4 1.9c0 .6.1 1.1.4 1.6c.2.5.5.9 1 1.2c.4.3.9.4 1.5.4zm5.8 0c.6 0 1.1-.1 1.6-.4c.4-.3.8-.7 1.1-1.2c.3-.6.4-1.1.4-1.8c0-.7-.1-1.3-.4-1.8c-.2-.5-.5-.9-1-1.2c-.4-.3-.9-.4-1.5-.4c-.6 0-1.1.1-1.6.4c-.5.3-.8.7-1.1 1.2c-.3.6-.5 1.2-.5 1.9c0 .6.1 1.2.4 1.7c.2.5.5.9 1 1.2c.4.3 1 .4 1.6.4zm-.1-6c.4 0 .8.1 1.1.5c.3.3.5.7.6 1.2c.1.5.2 1 .2 1.5c0 .3-.1.7-.2 1c-.1.3-.3.6-.5.8c-.2.2-.5.3-.8.3c-.5 0-.9-.1-1.2-.4c-.2-.3-.5-.7-.6-1.2c-.1-.5-.2-1-.2-1.5c0-.4.1-.8.2-1.1c.1-.4.3-.6.5-.8c.2-.2.5-.3.9-.3zm7.3 5.2l-1-.2v-4.1c.2-.2.4-.4.6-.5c.3-.1.6-.1.8-.1c.3 0 .5 0 .7.1c.2.1.3.3.4.5c.1.2.2.4.2.6v3.5l-1 .3l-.1.5h3.3l.1-.6l-1.1-.2s-.02-4.02 0-4l.6-.6c.2-.1.5-.1.8-.1c.4 0 .7.1.9.3c.2.3.3.6.3.9v3.5l-.9.3l-.1.5h3.2l.1-.6l-1.1-.2s.04-3.64 0-3.6c0-1.4-.5-2.1-1.7-2.1c-.4 0-.8.1-1.2.3c-.4.3-.7.5-.9.9h-.1c-.1-.5-.3-.8-.6-1c-.3-.1-.7-.2-1.1-.2c-.4 0-.8.1-1.2.3c-.4.2-.7.5-1 .8c.05 0 0 0 0 0l.1-.9l-.1-.2l-2.2.3l-.1.6l1.2.4v4.4l-1.1.3l-.1.5h3.4v-.6zm11.5 2.8l-1.2-.3s.02-6.76 0-6.8c.2-.2.4-.3.7-.5c.3-.1.5-.2.8-.2c.5 0 .8.2 1.1.7c.2.4.3 1.1.3 1.9c0 .8-.1 1.3-.4 1.7c-.2.5-.6.7-1.1.7c-.3 0-.5 0-.7-.1c-.1 0-.3 0-.4-.1v.9c.3 0 .5.1.7.1c.6 0 1.2-.2 1.7-.5c.5-.3.9-.7 1.1-1.3c.3-.5.5-1.1.5-1.8c0-.7-.1-1.3-.3-1.8c-.2-.5-.5-.8-.8-1c-.3-.3-.7-.4-1.2-.4c-.4 0-.8.2-1.1.4c-.4.2-.6.5-.9.8c.02.04 0 0 0 0l.1-.9l-.2-.1l-2.1.2l-.1.6l1.1.3v7.2l-1.1.3v.5h3.4l.1-.5zm4.6-4.1c0 .7.2 1.2.4 1.6c.3.3.7.5 1.2.5c.9 0 1.6-.4 2.1-1.1c.04-.04.1 0 .1 0c0 0 .03.02 0 0c0 .3.1.6.3.8c.2.2.5.3.8.3h.6c.1-.1.3-.1.5-.2c.02.05.1-.6.1-.6c0 0-.36-.03-.4 0c-.2-.1-.3-.1-.4-.2c-.1 0-.2-.1-.3-.2v-.6c-.05.04 0-4.7 0-4.7l-.2-.1l-2.2.1v.7l1.1.3s.04 3.92 0 3.9c-.1.2-.3.3-.5.4c-.3.1-.5.2-.8.2c-.8 0-1.2-.5-1.2-1.5c.05 0 0-4 0-4l-.1-.1l-2 .1l-.1.6l1 .4s.01 3.36 0 3.4zm7.3 0c0 .8.1 1.3.4 1.6c.3.3.7.5 1.2.5c.4 0 .8-.1 1.1-.3c.3-.2.6-.5.8-.8l-.1-.4s-.1.1-.2.1c-.1.1-.2.2-.4.2c-.1.1-.3.1-.5.1c-.2 0-.4 0-.6-.1c-.1-.1-.3-.2-.3-.5c-.1-.2-.1-.5-.1-.8c-.04-.02 0-3.3 0-3.3h2l.1-.6h-2.1v-1.7s-.39-.04-.4 0c-.3.3-.5.7-.9 1c-.3.4-.6.7-.9.9v.4h.9v3.7zm6.8 2.1c.5 0 .9 0 1.3-.2c.5-.2.8-.4 1.1-.7l-.2-.4c-.2.1-.4.2-.6.2c-.2.1-.3.1-.5.2h-.5c-.4 0-.8-.2-1.1-.4c-.3-.2-.5-.6-.7-.9l-.3-1.2l3.6-.1c0-.1 0-.3.1-.5v-.4c0-.5-.1-1-.3-1.3c-.1-.4-.4-.6-.7-.8c-.3-.2-.6-.3-.9-.3c-.5 0-1 .2-1.5.5c-.4.2-.8.6-1.1 1.2c-.3.5-.5 1.1-.5 1.8c0 .7.2 1.3.4 1.8c.3.5.6.9 1 1.2c.5.2.9.3 1.4.3zm-.1-6c.7 0 1 .4 1 1.3v.5l-2.3.2c0-.5.1-.8.2-1.1c.1-.3.3-.6.5-.7c.2-.2.4-.2.6-.2zm7.2 5.2l-1.7-.3s.03-2.77 0-2.8l.3-.9c.2-.2.3-.4.5-.5c.2-.1.3-.2.5-.2c.1 0 .3.1.4.1c.2.1.3.1.5.2c.3-.2.4-.5.4-.8c0-.2-.1-.4-.2-.6c-.2-.1-.4-.2-.6-.2c-.2 0-.5.1-.7.2c-.2.2-.4.4-.6.7c-.2.3-.4.6-.5 1.1c-.02-.04-.2 0-.2 0l.2-1.7l-.2-.2l-2.1.3l-.1.5l1.2.4v4.5l-1.1.3l-.1.5h4.1v-.6zm6.6.8c.6 0 1.1-.1 1.6-.4c.5-.3.8-.7 1.1-1.2c.3-.6.4-1.1.4-1.8c0-.7-.1-1.3-.3-1.8c-.3-.5-.6-.9-1-1.2c-.5-.3-1-.4-1.6-.4c-.5 0-1.1.1-1.6.4c-.4.3-.8.7-1.1 1.2c-.3.6-.5 1.2-.5 1.9c0 .6.1 1.2.4 1.7c.2.5.6.9 1 1.2c.5.3 1 .4 1.6.4zm-.1-6c.4 0 .8.1 1.1.5c.3.3.5.7.6 1.2c.1.5.2 1 .2 1.5c0 .3-.1.7-.2 1c-.1.3-.3.6-.5.8c-.2.2-.5.3-.8.3c-.5 0-.8-.1-1.1-.4c-.3-.3-.5-.7-.7-1.2c-.1-.5-.2-1-.2-1.5c0-.4.1-.8.2-1.1c.1-.4.3-.6.5-.8c.3-.2.6-.3.9-.3zm8.1 5.2l-1.8-.3v-4.8h1.8v-.7H161s-.02-.77 0-.8c0-.6.1-1.1.2-1.4c.2-.2.4-.4.7-.4c.2 0 .4.1.7.3l.6.6c.2 0 .3-.2.4-.3c.2-.2.3-.3.3-.5c0-.3-.2-.5-.4-.6c-.3-.2-.6-.3-1-.3c-.4 0-.8.2-1.2.4c-.4.3-.7.7-1 1.2c-.3.5-.5 1.1-.6 1.8c.05-.02-1 .1-1 .1l-.1.6h1.1v4.9l-1.1.3l-.1.5h4.2l.1-.6zm6.4.6l.1-.6l-1.2-.2v-8.5l-.2-.2l-2.1.2l-.1.5l1.2.4v7.6l-1.1.2l-.1.6h3.5zm1.9.2c.5 0 1-.1 1.3-.4c.3-.2.6-.5.7-.7c.02-.04.1 0 .1 0v.1c0 .1 0 .3.1.4c.1.2.2.3.4.4c.2.1.4.1.6.1h.7c.1-.1.3-.1.3-.1c.03.01.1-.6.1-.6c0 0-.34-.09-.3-.1c-.3 0-.4-.1-.6-.1c-.1-.1-.1-.2-.2-.3c0-.2-.1-.3-.1-.6v-2.6c0-.8-.1-1.4-.4-1.7c-.3-.4-.7-.6-1.4-.6c-.3 0-.7.1-1.1.2c-.4.2-.7.4-1 .6c-.2.2-.4.5-.4.7c0 .3.1.5.3.6c.2.1.5.2.7.2c.1-.5.1-.9.2-1c0-.2.1-.4.2-.5c.1 0 .2-.1.5-.1c.4 0 .8.2 1 .6c.2.3.3.8.3 1.4v.4c-.8 0-1.4.2-1.9.4c-.5.2-.9.5-1.2.8c-.2.4-.3.7-.3 1.1c0 .3 0 .5.2.7c.1.3.3.4.5.5c.2.1.5.2.7.2zm2-1.6c-.2.2-.4.4-.6.5c-.2.1-.5.2-.7.2c-.2 0-.3-.1-.5-.1c-.1-.1-.2-.2-.2-.4c-.1-.1-.1-.2-.1-.4c0-.3.1-.6.4-.9c.4-.3.9-.5 1.7-.6v1.7zm5.9 3.6l-1.1-.3s-.03-6.76 0-6.8c.2-.2.4-.3.7-.5c.2-.1.5-.2.8-.2c.4 0 .8.2 1 .7c.3.4.4 1.1.4 1.9c0 .8-.2 1.3-.4 1.7c-.3.5-.7.7-1.2.7c-.2 0-.5 0-.6-.1c-.2 0-.3 0-.5-.1l.1.9c.2 0 .4.1.7.1c.6 0 1.1-.2 1.6-.5c.5-.3.9-.7 1.2-1.3c.3-.5.4-1.1.4-1.8c0-.7-.1-1.3-.3-1.8c-.2-.5-.4-.8-.8-1c-.3-.3-.7-.4-1.1-.4c-.4 0-.8.2-1.2.4c-.3.2-.6.5-.8.8c-.03.04-.1 0-.1 0l.1-.9l-.1-.1l-2.2.2l-.1.6l1.2.3v7.2l-1.1.3l-.1.5h3.4l.1-.5zm4.6-4.1c0 .8.1 1.3.4 1.6c.3.3.7.5 1.2.5c.4 0 .8-.1 1.1-.3c.3-.2.6-.5.9-.8l-.2-.4s-.1.1-.2.1c-.1.1-.2.2-.4.2c-.1.1-.3.1-.5.1c-.2 0-.4 0-.6-.1c-.1-.1-.2-.2-.3-.5c-.1-.2-.1-.5-.1-.8c-.03-.02 0-3.3 0-3.3h2l.1-.6h-2.1v-1.7s-.38-.04-.4 0c-.2.3-.5.7-.9 1c-.3.4-.6.7-.9.9v.4h.9s.01 3.71 0 3.7zm7 2.1c.6 0 1.1-.1 1.6-.4c.5-.3.8-.7 1.1-1.2c.3-.6.4-1.1.4-1.8c0-.7-.1-1.3-.3-1.8c-.3-.5-.6-.9-1-1.2c-.5-.3-1-.4-1.6-.4c-.5 0-1.1.1-1.5.4c-.5.3-.9.7-1.2 1.2c-.3.6-.5 1.2-.5 1.9c0 .6.2 1.2.4 1.7c.2.5.6.9 1 1.2c.5.3 1 .4 1.6.4zm-.1-6c.5 0 .8.1 1.1.5c.3.3.5.7.6 1.2c.1.5.2 1 .2 1.5c0 .3 0 .7-.2 1c-.1.3-.2.6-.5.8c-.2.2-.5.3-.8.3c-.5 0-.8-.1-1.1-.4c-.3-.3-.5-.7-.7-1.2c-.1-.5-.2-1-.2-1.5c0-.4.1-.8.2-1.1c.1-.4.3-.6.5-.8c.3-.2.6-.3.9-.3zm7.2 8l-1.1-.3s-.05-6.76 0-6.8c.1-.2.4-.3.6-.5c.3-.1.6-.2.9-.2c.4 0 .8.2 1 .7c.2.4.4 1.1.4 1.9c0 .8-.2 1.3-.4 1.7c-.3.5-.7.7-1.2.7c-.3 0-.5 0-.6-.1c-.2 0-.3 0-.5-.1v.9c.3 0 .5.1.7.1c.7 0 1.2-.2 1.7-.5c.5-.3.9-.7 1.2-1.3c.3-.5.4-1.1.4-1.8c0-.7-.1-1.3-.3-1.8c-.2-.5-.4-.8-.8-1c-.3-.3-.7-.4-1.1-.4c-.5 0-.8.2-1.2.4c-.3.2-.6.5-.8.8c-.05.04-.1 0-.1 0l.1-.9l-.1-.1l-2.2.2l-.1.6l1.2.3v7.2l-1.2.3v.5h3.4l.1-.5z" stroke="none" fill="#000"/></g><g id="Polygon18647"><path d="m.8 50.5c0-2.6 1.9-4.3 4.2-4.3c2.4 0 4.3 1.7 4.3 4.3c0 2.6-1.9 4.3-4.3 4.3c-2.3 0-4.2-1.7-4.2-4.3zm7 0c0-1.7-1.3-2.8-2.8-2.8c-1.4 0-2.7 1.1-2.7 2.8c0 1.7 1.3 2.9 2.7 2.9c1.5 0 2.8-1.2 2.8-2.9zm11.2-.6c-.03-.01 0 4.7 0 4.7h-1.6s.05-4.62 0-4.6c0-1.4-.8-2.3-1.9-2.3c-1.2 0-2.5.7-2.5 2.5c-.03-.01 0 4.4 0 4.4h-1.6v-8.2h1.6s-.03 1.29 0 1.3c.5-1 1.8-1.5 2.7-1.5c2 0 3.3 1.4 3.3 3.7zm9-7.9h1.5v12.6H28s-.04-1.26 0-1.3c-.6 1-1.8 1.5-2.9 1.5c-2.3 0-4.1-1.7-4.1-4.3c0-2.6 1.8-4.3 4-4.3c1.3 0 2.4.6 3 1.5c-.04.02 0-5.7 0-5.7zm0 8.5c0-1.8-1.5-2.8-2.8-2.8c-1.5 0-2.7 1.2-2.7 2.8c0 1.6 1.2 2.9 2.7 2.9c1.5 0 2.8-1.1 2.8-2.9zm11.8.7h-6.6c.2 1.4 1.3 2.2 2.7 2.2c1 0 1.9-.5 2.3-1.3l1.3.5c-.7 1.5-2.1 2.2-3.7 2.2c-2.3 0-4.2-1.7-4.2-4.3c0-2.6 1.9-4.3 4.2-4.3c2.3 0 4.1 1.7 4.1 4.3c0 .2-.1.5-.1.7zm-1.5-1.3c-.2-1.4-1.1-2.2-2.5-2.2c-1.4 0-2.4.7-2.6 2.2h5.1zm8.9-3.4L47 48c-.5-.2-.9-.3-1.2-.3c-1.7 0-2.3 1.8-2.3 3.9v3h-1.6v-8.2h1.6v1.9c.4-1.4 1.2-2.1 2.3-2.1c.6 0 1.2.2 1.4.3zm8.1-.1v1.3l-5.1 5.5h5.1v1.4h-7.2v-1.2l4.9-5.5h-4.6v-1.5h6.9zm1.4 4.1c0-2.6 2-4.3 4.3-4.3c2.3 0 4.3 1.7 4.3 4.3c0 2.6-2 4.3-4.3 4.3c-2.3 0-4.3-1.7-4.3-4.3zm7.1 0c0-1.7-1.3-2.8-2.8-2.8c-1.5 0-2.7 1.1-2.7 2.8c0 1.7 1.2 2.9 2.7 2.9c1.5 0 2.8-1.2 2.8-2.9zm11.3.7h-6.7c.3 1.4 1.3 2.2 2.7 2.2c1 0 1.9-.5 2.4-1.3l1.3.5c-.7 1.5-2.2 2.2-3.8 2.2c-2.3 0-4.2-1.7-4.2-4.3c0-2.6 1.9-4.3 4.2-4.3c2.4 0 4.1 1.7 4.1 4.3v.7zm-1.5-1.3c-.2-1.4-1.2-2.2-2.6-2.2c-1.3 0-2.3.7-2.6 2.2h5.2zm10.9 4.7h-2l-3.8-4v4h-1.5V42h1.5v7.3l2.8-2.9h2.2L80.2 50l4.3 4.6zm10.9-8.2h1.6l-3.4 8.2h-1.5l-3.4-8.2h1.7l2.5 6.3l2.5-6.3zm9.4 0h1.6v8.2h-1.6s.04-1.44 0-1.4c-.5.9-1.6 1.6-3 1.6c-2.1 0-4-1.8-4-4.3c0-2.4 1.8-4.3 4.1-4.3c1.2 0 2.4.6 2.9 1.5c.04.02 0-1.3 0-1.3zm0 4.1c0-1.7-1.4-2.8-2.7-2.8c-1.5 0-2.7 1.3-2.7 2.8c0 1.6 1.2 2.9 2.7 2.9c1.4 0 2.7-1.2 2.7-2.9zm11.7-.6c.05-.01 0 4.7 0 4.7H115s.03-4.62 0-4.6c0-1.4-.8-2.3-2-2.3c-1.1 0-2.5.7-2.5 2.5c.05-.01 0 4.4 0 4.4H109v-8.2h1.5s.05 1.29 0 1.3c.5-1 1.9-1.5 2.8-1.5c2 0 3.3 1.4 3.2 3.7zm9.1 3.2h4.7v1.5h-7.2v-.7s4.28-5.16 4.3-5.2c.7-.8 1.2-1.8 1.2-2.3c0-1.1-.8-1.9-2.1-1.9c-1.2 0-2.1.7-2.2 1.7l-1.3-.3c.2-1.7 1.6-2.9 3.5-2.9c2.2 0 3.6 1.4 3.6 3.4c0 .9-.6 2.1-1.3 3c-.02-.03-3.2 3.7-3.2 3.7zm6.6-4.2c0-3.2.9-5.9 4.2-5.9c3.3 0 4.1 2.7 4.1 5.9c0 3.2-.8 5.9-4.1 5.9c-3.3 0-4.2-2.7-4.2-5.9zm6.8 0c0-2.4-.5-4.4-2.6-4.4c-2.1 0-2.6 2-2.6 4.4c0 2.4.5 4.5 2.6 4.5c2.1 0 2.6-2.1 2.6-4.5zm6.9-5.9h.1v11.6h-1.5v-9.3l-2.5 1v-1.5l3.9-1.8zm11.2 8.2c0 2.1-1.8 3.6-4.3 3.6c-2.5 0-4.3-1.5-4.3-3.6c0-1.5.9-2.7 2.2-3.2c-.7-.5-1.2-1.2-1.2-2.1c0-1.6 1.3-2.9 3.3-2.9c2 0 3.3 1.3 3.3 2.9c0 .9-.5 1.6-1.2 2.1c1.3.5 2.2 1.7 2.2 3.2zm-6-5.2c0 .8.8 1.5 1.7 1.5c1 0 1.7-.6 1.7-1.5c0-.9-.7-1.6-1.7-1.6c-.9 0-1.7.7-1.7 1.6zm4.4 5.1c0-1.4-1.3-2.3-2.7-2.3c-1.5 0-2.7 1-2.7 2.3c0 1.3 1.2 2.3 2.7 2.3c1.6 0 2.7-1 2.7-2.3zm7.6-.6c0-2.6 2-4.3 4.3-4.3c2.3 0 4.3 1.7 4.3 4.3c0 2.6-2 4.3-4.3 4.3c-2.3 0-4.3-1.7-4.3-4.3zm7.1 0c0-1.7-1.3-2.8-2.8-2.8c-1.5 0-2.7 1.1-2.7 2.8c0 1.7 1.2 2.9 2.7 2.9c1.5 0 2.8-1.2 2.8-2.9zm11.1-.6c.02-.01 0 4.7 0 4.7h-1.5V50c0-1.4-.8-2.3-2-2.3c-1.1 0-2.5.7-2.5 2.5c.01-.01 0 4.4 0 4.4h-1.5v-8.2h1.5v1.3c.5-1 1.8-1.5 2.7-1.5c2.1 0 3.3 1.4 3.3 3.7zm9-7.9h1.5v12.6h-1.5v-1.3c-.5 1-1.7 1.5-2.9 1.5c-2.2 0-4.1-1.7-4.1-4.3c0-2.6 1.8-4.3 4.1-4.3c1.2 0 2.4.6 2.9 1.5V42zm0 8.5c0-1.8-1.4-2.8-2.8-2.8c-1.5 0-2.6 1.2-2.6 2.8c0 1.6 1.1 2.9 2.6 2.9c1.5 0 2.8-1.1 2.8-2.9zm11.9.7h-6.7c.3 1.4 1.3 2.2 2.7 2.2c1 0 1.9-.5 2.4-1.3l1.3.5c-.7 1.5-2.2 2.2-3.8 2.2c-2.3 0-4.2-1.7-4.2-4.3c0-2.6 1.9-4.3 4.2-4.3c2.4 0 4.1 1.7 4.1 4.3v.7zm-1.5-1.3c-.2-1.4-1.2-2.2-2.6-2.2c-1.3 0-2.3.7-2.6 2.2h5.2zm8.8-3.4l-.2 1.5c-.4-.2-.9-.3-1.2-.3c-1.6 0-2.3 1.8-2.3 3.9c.03.02 0 3 0 3h-1.5v-8.2h1.5s.03 1.9 0 1.9c.5-1.4 1.2-2.1 2.3-2.1c.6 0 1.2.2 1.4.3zm5.5 8.1V42h1.6v12.6H215zm10.6-8.2h1.6v8.2h-1.6s.04-1.44 0-1.4c-.5.9-1.6 1.6-3 1.6c-2.1 0-4-1.8-4-4.3c0-2.4 1.8-4.3 4.1-4.3c1.2 0 2.4.6 2.9 1.5c.04.02 0-1.3 0-1.3zm0 4.1c0-1.7-1.4-2.8-2.7-2.8c-1.5 0-2.7 1.3-2.7 2.8c0 1.6 1.2 2.9 2.7 2.9c1.4 0 2.7-1.2 2.7-2.9zm10.7-4.1h1.5v8.2h-1.5s-.04-1.44 0-1.4c-.6.9-1.7 1.6-3 1.6c-2.2 0-4-1.8-4-4.3c0-2.4 1.7-4.3 4-4.3c1.3 0 2.4.6 3 1.5c-.04.02 0-1.3 0-1.3zm0 4.1c0-1.7-1.5-2.8-2.8-2.8c-1.5 0-2.7 1.3-2.7 2.8c0 1.6 1.2 2.9 2.7 2.9c1.5 0 2.8-1.2 2.8-2.9zm10.6-4.1h1.5s.03 7.08 0 7.1c0 3.8-1.7 5.3-4.4 5.3c-1.5 0-2.9-.8-3.7-2.2l1.3-.7c.5 1 1.5 1.5 2.4 1.5c1.8 0 2.9-1.1 2.9-3.8v-.3c-.5 1-1.7 1.5-2.9 1.5c-2.2 0-4.1-1.7-4.1-4.3c0-2.6 1.8-4.3 4.1-4.3c1.2 0 2.4.6 2.9 1.5v-1.3zm0 4.1c0-1.8-1.4-2.8-2.8-2.8c-1.5 0-2.7 1.2-2.7 2.8c0 1.6 1.2 2.9 2.7 2.9c1.5 0 2.8-1.1 2.8-2.9zm10.6-4.1h1.6s-.03 7.08 0 7.1c0 3.8-1.8 5.3-4.5 5.3c-1.5 0-2.8-.8-3.7-2.2l1.3-.7c.5 1 1.5 1.5 2.4 1.5c1.8 0 2.9-1.1 2.9-3.8v-.3c-.5 1-1.7 1.5-2.9 1.5c-2.2 0-4.1-1.7-4.1-4.3c0-2.6 1.9-4.3 4.1-4.3c1.2 0 2.4.6 2.9 1.5c.04.02 0-1.3 0-1.3zm0 4.1c0-1.8-1.4-2.8-2.7-2.8c-1.5 0-2.7 1.2-2.7 2.8c0 1.6 1.2 2.9 2.7 2.9c1.4 0 2.7-1.1 2.7-2.9zm11.9.7h-6.6c.2 1.4 1.2 2.2 2.6 2.2c1 0 1.9-.5 2.4-1.3l1.3.5c-.7 1.5-2.1 2.2-3.7 2.2c-2.3 0-4.2-1.7-4.2-4.3c0-2.6 1.9-4.3 4.2-4.3c2.3 0 4 1.7 4 4.3v.7zm-1.5-1.3c-.2-1.4-1.2-2.2-2.5-2.2c-1.4 0-2.4.7-2.6 2.2h5.1zm3.6 4.7V42h1.5v12.6h-1.5zm11.9-3.4h-6.7c.3 1.4 1.3 2.2 2.7 2.2c1 0 1.9-.5 2.4-1.3l1.3.5c-.7 1.5-2.2 2.2-3.8 2.2c-2.3 0-4.2-1.7-4.2-4.3c0-2.6 1.9-4.3 4.2-4.3c2.4 0 4.1 1.7 4.1 4.3v.7zm-1.5-1.3c-.2-1.4-1.2-2.2-2.6-2.2c-1.3 0-2.3.7-2.6 2.2h5.2zm7.4-3.5v1.4h-1.8v6.8H286v-6.8h-1.5v-1.4h1.5v-3h1.5v3h1.8zm5.6 0v1.4h-1.8v6.8h-1.5v-6.8h-1.5v-1.4h1.5v-3h1.5v3h1.8zm9.2 4.8h-6.6c.2 1.4 1.2 2.2 2.6 2.2c1 0 1.9-.5 2.4-1.3l1.3.5c-.7 1.5-2.1 2.2-3.7 2.2c-2.3 0-4.2-1.7-4.2-4.3c0-2.6 1.9-4.3 4.2-4.3c2.3 0 4 1.7 4 4.3v.7zm-1.5-1.3c-.2-1.4-1.2-2.2-2.5-2.2c-1.4 0-2.4.7-2.6 2.2h5.1zm8.9-3.4l-.3 1.5c-.4-.2-.8-.3-1.2-.3c-1.6 0-2.2 1.8-2.2 3.9c-.03.02 0 3 0 3h-1.6v-8.2h1.6s-.03 1.9 0 1.9c.4-1.4 1.2-2.1 2.3-2.1c.5 0 1.1.2 1.4.3zm7.7-4.5h1.5v12.6h-1.5s-.02-1.26 0-1.3c-.6 1-1.8 1.5-2.9 1.5c-2.3 0-4.1-1.7-4.1-4.3c0-2.6 1.8-4.3 4.1-4.3c1.2 0 2.3.6 2.9 1.5c-.02.02 0-5.7 0-5.7zm0 8.5c0-1.8-1.5-2.8-2.8-2.8c-1.5 0-2.7 1.2-2.7 2.8c0 1.6 1.2 2.9 2.7 2.9c1.5 0 2.8-1.1 2.8-2.9zm11.8.7h-6.6c.2 1.4 1.3 2.2 2.7 2.2c1 0 1.9-.5 2.4-1.3l1.3.5c-.7 1.5-2.2 2.2-3.8 2.2c-2.3 0-4.2-1.7-4.2-4.3c0-2.6 1.9-4.3 4.2-4.3c2.3 0 4.1 1.7 4.1 4.3c0 .2 0 .5-.1.7zm-1.4-1.3c-.2-1.4-1.2-2.2-2.6-2.2c-1.4 0-2.3.7-2.6 2.2h5.2zm11.1 0v4.7h-1.5s-.04-4.62 0-4.6c0-1.4-.9-2.3-2-2.3c-1.2 0-2.5.7-2.5 2.5c-.02-.01 0 4.4 0 4.4h-1.5v-8.2h1.5s-.02 1.29 0 1.3c.5-1 1.8-1.5 2.7-1.5c2 0 3.3 1.4 3.3 3.7zm6.6-6.5c0-.5.5-1 1.1-1c.6 0 1.1.5 1.1 1c0 .6-.5 1-1.1 1c-.6 0-1.1-.4-1.1-1zm.4 11.2v-8.2h1.5v8.2h-1.5zm11.6-4.7c.04-.01 0 4.7 0 4.7h-1.5s.02-4.62 0-4.6c0-1.4-.8-2.3-2-2.3c-1.1 0-2.5.7-2.5 2.5c.04-.01 0 4.4 0 4.4h-1.5v-8.2h1.5s.04 1.29 0 1.3c.5-1 1.9-1.5 2.8-1.5c2 0 3.3 1.4 3.2 3.7zm14.5-7.3h1.6v12h-1.6l-5.6-9.2v9.2h-1.5v-12h1.5l5.6 9.1v-9.1zm12 8.6h-6.6c.2 1.4 1.3 2.2 2.7 2.2c1 0 1.9-.5 2.3-1.3l1.4.5c-.7 1.5-2.2 2.2-3.8 2.2c-2.3 0-4.2-1.7-4.2-4.3c0-2.6 1.9-4.3 4.2-4.3c2.3 0 4.1 1.7 4.1 4.3c0 .2 0 .5-.1.7zm-1.5-1.3c-.1-1.4-1.1-2.2-2.5-2.2c-1.4 0-2.4.7-2.6 2.2h5.1zm10.1-7.9h1.5v12.6h-1.5v-1.3c-.5 1-1.7 1.5-2.9 1.5c-2.2 0-4.1-1.7-4.1-4.3c0-2.6 1.8-4.3 4.1-4.3c1.2 0 2.4.6 2.9 1.5V42zm0 8.5c0-1.8-1.4-2.8-2.8-2.8c-1.5 0-2.6 1.2-2.6 2.8c0 1.6 1.1 2.9 2.6 2.9c1.5 0 2.8-1.1 2.8-2.9zm11.9.7h-6.7c.3 1.4 1.3 2.2 2.7 2.2c1 0 1.9-.5 2.4-1.3l1.3.5c-.7 1.5-2.2 2.2-3.7 2.2c-2.4 0-4.2-1.7-4.2-4.3c0-2.6 1.8-4.3 4.2-4.3c2.3 0 4 1.7 4 4.3v.7zm-1.5-1.3c-.2-1.4-1.2-2.2-2.5-2.2c-1.4 0-2.4.7-2.7 2.2h5.2zm8.8-3.4l-.2 1.5c-.4-.2-.9-.3-1.2-.3c-1.6 0-2.3 1.8-2.3 3.9c.03.02 0 3 0 3h-1.5v-8.2h1.5s.03 1.9 0 1.9c.5-1.4 1.2-2.1 2.3-2.1c.6 0 1.2.2 1.4.3zm1.6 8.1V42h1.5v12.6h-1.5zm10.6-8.2h1.5v8.2h-1.5s-.03-1.44 0-1.4c-.6.9-1.7 1.6-3 1.6c-2.2 0-4-1.8-4-4.3c0-2.4 1.7-4.3 4-4.3c1.3 0 2.4.6 3 1.5c-.03.02 0-1.3 0-1.3zm0 4.1c0-1.7-1.4-2.8-2.8-2.8c-1.5 0-2.7 1.3-2.7 2.8c0 1.6 1.2 2.9 2.7 2.9c1.5 0 2.8-1.2 2.8-2.9zm11.7-.6c-.02-.01 0 4.7 0 4.7H436s-.05-4.62 0-4.6c0-1.4-.9-2.3-2-2.3c-1.2 0-2.5.7-2.5 2.5c-.02-.01 0 4.4 0 4.4H430v-8.2h1.5s-.02 1.29 0 1.3c.5-1 1.8-1.5 2.7-1.5c2 0 3.3 1.4 3.3 3.7zm9-7.9h1.5v12.6h-1.5s-.03-1.26 0-1.3c-.6 1-1.8 1.5-2.9 1.5c-2.3 0-4.1-1.7-4.1-4.3c0-2.6 1.8-4.3 4-4.3c1.3 0 2.4.6 3 1.5c-.03.02 0-5.7 0-5.7zm0 8.5c0-1.8-1.5-2.8-2.8-2.8c-1.5 0-2.7 1.2-2.7 2.8c0 1.6 1.2 2.9 2.7 2.9c1.5 0 2.8-1.1 2.8-2.9z" stroke="none" fill="#000"/></g><g id="Polygon18646"><path d="m9 30.2H2.4c.2 1.4 1.2 2.2 2.6 2.2c1 0 1.9-.5 2.4-1.3l1.3.5C8 33.1 6.6 33.8 5 33.8c-2.3 0-4.2-1.7-4.2-4.3c0-2.6 1.9-4.3 4.2-4.3c2.3 0 4 1.7 4 4.3v.7zm-1.5-1.3c-.2-1.4-1.2-2.2-2.5-2.2c-1.4 0-2.4.7-2.6 2.2h5.1zm11.3 1.3h-6.6c.2 1.4 1.2 2.2 2.6 2.2c1 0 1.9-.5 2.4-1.3l1.3.5c-.7 1.5-2.1 2.2-3.7 2.2c-2.3 0-4.2-1.7-4.2-4.3c0-2.6 1.9-4.3 4.2-4.3c2.3 0 4 1.7 4 4.3v.7zm-1.5-1.3c-.2-1.4-1.2-2.2-2.5-2.2c-1.4 0-2.4.7-2.6 2.2h5.1zm11.2 0c-.05-.01 0 4.7 0 4.7h-1.6s.03-4.62 0-4.6c0-1.4-.8-2.3-1.9-2.3c-1.2 0-2.5.7-2.5 2.5c-.05-.01 0 4.4 0 4.4h-1.6v-8.2h1.6s-.05 1.29 0 1.3c.4-1 1.8-1.5 2.7-1.5c2 0 3.3 1.4 3.3 3.7zm9-6.5c0-.5.5-1 1.1-1c.6 0 1.1.5 1.1 1c0 .6-.5 1-1.1 1c-.6 0-1.1-.4-1.1-1zm.3 11.2v-8.2h1.5v8.2h-1.5zm11.7-4.7c.02-.01 0 4.7 0 4.7H48V29c0-1.4-.8-2.3-2-2.3c-1.1 0-2.5.7-2.5 2.5c.01-.01 0 4.4 0 4.4H42v-8.2h1.5v1.3c.5-1 1.8-1.5 2.7-1.5c2.1 0 3.3 1.4 3.3 3.7zm6.4-3.5v1.4h-1.8v6.8h-1.5v-6.8h-1.5v-1.4h1.5v-3h1.5v3h1.8zm9.2 4.8h-6.7c.3 1.4 1.3 2.2 2.7 2.2c1 0 1.9-.5 2.4-1.3l1.3.5c-.7 1.5-2.2 2.2-3.8 2.2c-2.3 0-4.2-1.7-4.2-4.3c0-2.6 1.9-4.3 4.2-4.3c2.4 0 4.1 1.7 4.1 4.3v.7zm-1.5-1.3c-.2-1.4-1.2-2.2-2.6-2.2c-1.3 0-2.3.7-2.6 2.2h5.2zm8.8-3.4l-.2 1.5c-.4-.2-.9-.3-1.2-.3c-1.6 0-2.3 1.8-2.3 3.9c.03.02 0 3 0 3h-1.5v-8.2h1.5s.03 1.9 0 1.9c.5-1.4 1.2-2.1 2.3-2.1c.6 0 1.2.2 1.4.3zm7.7-.1h1.5v8.2h-1.5s.02-1.44 0-1.4c-.5.9-1.7 1.6-3 1.6c-2.1 0-4-1.8-4-4.3c0-2.4 1.8-4.3 4.1-4.3c1.2 0 2.4.6 2.9 1.5c.02.02 0-1.3 0-1.3zm0 4.1c0-1.7-1.4-2.8-2.8-2.8c-1.4 0-2.6 1.3-2.6 2.8c0 1.6 1.2 2.9 2.7 2.9c1.4 0 2.7-1.2 2.7-2.9zm3.6 0c0-2.6 2.1-4.3 4.4-4.3c1.3 0 2.4.5 3.1 1.3l-.9 1c-.5-.5-1.3-.8-2.1-.8c-1.6 0-2.9 1.1-2.9 2.8c0 1.7 1.3 2.9 2.9 2.9c.8 0 1.6-.3 2.1-.9l.9 1c-.7.8-1.8 1.3-3.1 1.3c-2.3 0-4.4-1.7-4.4-4.3zm13.4-4.1v1.4h-1.8v6.8h-1.5v-6.8h-1.5v-1.4h1.5v-3h1.5v3h1.8zm1.4-3c0-.5.5-1 1-1c.6 0 1.1.5 1.1 1c0 .6-.5 1-1.1 1c-.5 0-1-.4-1-1zm.3 11.2v-8.2h1.5v8.2h-1.5zm11.8-3.4H104c.2 1.4 1.3 2.2 2.7 2.2c1 0 1.9-.5 2.3-1.3l1.3.5c-.7 1.5-2.1 2.2-3.7 2.2c-2.3 0-4.2-1.7-4.2-4.3c0-2.6 1.9-4.3 4.2-4.3c2.3 0 4.1 1.7 4.1 4.3c0 .2-.1.5-.1.7zm-1.5-1.3c-.2-1.4-1.2-2.2-2.5-2.2c-1.4 0-2.4.7-2.6 2.2h5.1zm9-3.5h1.7l-3.4 8.2h-1.5l-3.4-8.2h1.6l2.5 6.3l2.5-6.3zm10.7 4.8h-6.6c.2 1.4 1.3 2.2 2.7 2.2c1 0 1.9-.5 2.4-1.3l1.3.5c-.7 1.5-2.2 2.2-3.8 2.2c-2.3 0-4.2-1.7-4.2-4.3c0-2.6 1.9-4.3 4.2-4.3c2.3 0 4.1 1.7 4.1 4.3c0 .2 0 .5-.1.7zm-1.4-1.3c-.2-1.4-1.2-2.2-2.6-2.2c-1.4 0-2.3.7-2.6 2.2h5.2zm10.1-6.5c0-.5.5-1 1-1c.6 0 1.1.5 1.1 1c0 .6-.5 1-1.1 1c-.5 0-1-.4-1-1zm.3 11.2v-8.2h1.5v8.2h-1.5zm11.7-4.7c-.02-.01 0 4.7 0 4.7H148s-.04-4.62 0-4.6c0-1.4-.9-2.3-2-2.3c-1.2 0-2.5.7-2.5 2.5c-.02-.01 0 4.4 0 4.4H142v-8.2h1.5s-.02 1.29 0 1.3c.5-1 1.8-1.5 2.7-1.5c2 0 3.3 1.4 3.3 3.7zm6.4-6.5c-1.4 0-1.8.9-1.8 2v1h1.9v1.4h-1.9v6.8h-1.5v-6.8H151v-1.4h1.6s-.02-.8 0-.8c0-2.1.9-3.6 3.1-3.6h.8v1.4s-.58.03-.6 0zm1 7.1c0-2.6 2-4.3 4.3-4.3c2.3 0 4.3 1.7 4.3 4.3c0 2.6-2 4.3-4.3 4.3c-2.3 0-4.3-1.7-4.3-4.3zm7.1 0c0-1.7-1.3-2.8-2.8-2.8c-1.5 0-2.7 1.1-2.7 2.8c0 1.7 1.2 2.9 2.7 2.9c1.5 0 2.8-1.2 2.8-2.9zm10.1-4.1h1.5v7.1c0 3.8-1.8 5.3-4.5 5.3c-1.4 0-2.8-.8-3.6-2.2l1.3-.7c.5 1 1.4 1.5 2.3 1.5c1.9 0 3-1.1 3-3.8v-.3c-.6 1-1.8 1.5-2.9 1.5c-2.3 0-4.1-1.7-4.1-4.3c0-2.6 1.8-4.3 4-4.3c1.3 0 2.4.6 3 1.5c-.03.02 0-1.3 0-1.3zm0 4.1c0-1.8-1.5-2.8-2.8-2.8c-1.5 0-2.7 1.2-2.7 2.8c0 1.6 1.2 2.9 2.7 2.9c1.5 0 2.8-1.1 2.8-2.9zm9.4-4l-.2 1.5c-.5-.2-.9-.3-1.2-.3c-1.7 0-2.3 1.8-2.3 3.9v3h-1.5v-8.2h1.5v1.9c.4-1.4 1.2-2.1 2.3-2.1c.6 0 1.2.2 1.4.3zm7.7-.1h1.5v8.2h-1.5v-1.4c-.6.9-1.7 1.6-3 1.6c-2.1 0-4-1.8-4-4.3c0-2.4 1.8-4.3 4.1-4.3c1.2 0 2.3.6 2.9 1.5v-1.3zm0 4.1c0-1.7-1.4-2.8-2.8-2.8c-1.5 0-2.7 1.3-2.7 2.8c0 1.6 1.2 2.9 2.7 2.9c1.5 0 2.8-1.2 2.8-2.9zm12.7 0c0 2.6-1.8 4.3-4.1 4.3c-1.2 0-2.4-.5-2.9-1.5v5.3h-1.5V25.4h1.5v1.3c.5-.9 1.7-1.5 2.9-1.5c2.2 0 4.1 1.8 4.1 4.3zm-1.5.1c0-1.7-1.2-2.9-2.7-2.9c-1.5 0-2.8 1.1-2.8 2.9c0 1.7 1.4 2.8 2.8 2.8c1.5 0 2.7-1.2 2.7-2.8zm11.1-.7c.03-.01 0 4.7 0 4.7H212V29c0-1.4-.8-2.3-2-2.3c-1.1 0-2.5.7-2.5 2.5c.03-.01 0 4.4 0 4.4H206V21h1.5s.03 5.69 0 5.7c.5-1 1.9-1.5 2.7-1.5c2.1 0 3.4 1.4 3.3 3.7zm2.3-6.5c0-.5.4-1 1-1c.6 0 1.1.5 1.1 1c0 .6-.5 1-1.1 1c-.6 0-1-.4-1-1zm.3 11.2v-8.2h1.5v8.2h-1.5zm3.6-4.1c0-2.6 2-4.3 4.4-4.3c1.2 0 2.3.5 3.1 1.3l-1 1c-.5-.5-1.2-.8-2.1-.8c-1.6 0-2.9 1.1-2.9 2.8c0 1.7 1.3 2.9 2.9 2.9c.9 0 1.6-.3 2.1-.9l1 1c-.8.8-1.9 1.3-3.1 1.3c-2.4 0-4.4-1.7-4.4-4.3zm22.7-4.1h1.5v7.1c0 3.8-1.7 5.3-4.4 5.3c-1.5 0-2.9-.8-3.7-2.2l1.3-.7c.5 1 1.4 1.5 2.4 1.5c1.8 0 2.9-1.1 2.9-3.8v-.3c-.6 1-1.8 1.5-2.9 1.5c-2.3 0-4.1-1.7-4.1-4.3c0-2.6 1.8-4.3 4.1-4.3c1.2 0 2.3.6 2.9 1.5c-.02.02 0-1.3 0-1.3zm0 4.1c0-1.8-1.5-2.8-2.8-2.8c-1.5 0-2.7 1.2-2.7 2.8c0 1.6 1.2 2.9 2.7 2.9c1.5 0 2.8-1.1 2.8-2.9zm11.8.7h-6.6c.2 1.4 1.3 2.2 2.7 2.2c1 0 1.9-.5 2.4-1.3l1.3.5c-.7 1.5-2.2 2.2-3.8 2.2c-2.3 0-4.2-1.7-4.2-4.3c0-2.6 1.9-4.3 4.2-4.3c2.3 0 4.1 1.7 4.1 4.3c0 .2 0 .5-.1.7zm-1.4-1.3c-.2-1.4-1.2-2.2-2.6-2.2c-1.4 0-2.3.7-2.6 2.2h5.2zm16.4 0c.03-.01 0 4.7 0 4.7h-1.5V29c0-1.4-.7-2.3-1.9-2.3c-1.5 0-2.2 1-2.2 2.8c-.04.02 0 4.1 0 4.1H262s.03-4.62 0-4.6c0-1.4-.7-2.3-1.8-2.3c-1.2 0-2.3.8-2.3 2.5c-.01-.01 0 4.4 0 4.4h-1.5v-8.2h1.5v1.3c.4-.9 1.5-1.5 2.6-1.5c1.2 0 2.2.7 2.7 1.8c.8-1.5 2-1.8 2.9-1.8c2 0 3.1 1.4 3.1 3.7zm9-3.5h1.5v8.2h-1.5v-1.4c-.5.9-1.7 1.6-3 1.6c-2.1 0-4-1.8-4-4.3c0-2.4 1.8-4.3 4.1-4.3c1.2 0 2.4.6 2.9 1.5v-1.3zm0 4.1c0-1.7-1.4-2.8-2.8-2.8c-1.5 0-2.7 1.3-2.7 2.8c0 1.6 1.2 2.9 2.7 2.9c1.5 0 2.8-1.2 2.8-2.9zm10.6-4.1h1.5v8.2h-1.5s.03-1.44 0-1.4c-.5.9-1.7 1.6-3 1.6c-2.1 0-4-1.8-4-4.3c0-2.4 1.8-4.3 4.1-4.3c1.2 0 2.4.6 2.9 1.5c.03.02 0-1.3 0-1.3zm0 4.1c0-1.7-1.4-2.8-2.8-2.8c-1.4 0-2.6 1.3-2.6 2.8c0 1.6 1.2 2.9 2.7 2.9c1.4 0 2.7-1.2 2.7-2.9zm11.5 4.1h-2l-3.8-4v4H293V21h1.5v7.3l2.9-2.9h2.1L296 29l4.3 4.6zm5.1-8.2v1.4h-1.7v6.8h-1.6v-6.8h-1.4v-1.4h1.4v-3h1.6v3h1.7zm16.1 3.5c-.03-.01 0 4.7 0 4.7h-1.6s.05-4.62 0-4.6c0-1.4-.8-2.3-1.9-2.3c-1.2 0-2.5.7-2.5 2.5c-.03-.01 0 4.4 0 4.4h-1.6v-8.2h1.6s-.03 1.29 0 1.3c.5-1 1.8-1.5 2.7-1.5c2 0 3.3 1.4 3.3 3.7zm8.9-3.5h1.6v8.2h-1.6s.05-1.44 0-1.4c-.5.9-1.6 1.6-2.9 1.6c-2.2 0-4.1-1.8-4.1-4.3c0-2.4 1.8-4.3 4.1-4.3c1.3 0 2.4.6 2.9 1.5c.05.02 0-1.3 0-1.3zm0 4.1c0-1.7-1.4-2.8-2.7-2.8c-1.5 0-2.7 1.3-2.7 2.8c0 1.6 1.2 2.9 2.7 2.9c1.4 0 2.7-1.2 2.7-2.9zm10.7-4.1h1.5v8.2h-1.5s-.03-1.44 0-1.4c-.6.9-1.7 1.6-3 1.6c-2.2 0-4-1.8-4-4.3c0-2.4 1.7-4.3 4-4.3c1.3 0 2.4.6 3 1.5c-.03.02 0-1.3 0-1.3zm0 4.1c0-1.7-1.4-2.8-2.8-2.8c-1.5 0-2.7 1.3-2.7 2.8c0 1.6 1.2 2.9 2.7 2.9c1.5 0 2.8-1.2 2.8-2.9zm9.4-4l-.2 1.5c-.5-.2-.9-.3-1.2-.3c-1.7 0-2.3 1.8-2.3 3.9v3h-1.5v-8.2h1.5v1.9c.4-1.4 1.2-2.1 2.3-2.1c.6 0 1.2.2 1.4.3zm14.3-.1h1.6v8.2h-1.6s.04-1.44 0-1.4c-.5.9-1.6 1.6-2.9 1.6c-2.2 0-4.1-1.8-4.1-4.3c0-2.4 1.8-4.3 4.1-4.3c1.2 0 2.4.6 2.9 1.5c.04.02 0-1.3 0-1.3zm0 4.1c0-1.7-1.4-2.8-2.7-2.8c-1.5 0-2.7 1.3-2.7 2.8c0 1.6 1.2 2.9 2.7 2.9c1.4 0 2.7-1.2 2.7-2.9zm10.7-4.1h1.5v8.2h-1.5s-.03-1.44 0-1.4c-.6.9-1.7 1.6-3 1.6c-2.2 0-4-1.8-4-4.3c0-2.4 1.7-4.3 4-4.3c1.3 0 2.4.6 3 1.5c-.03.02 0-1.3 0-1.3zm0 4.1c0-1.7-1.5-2.8-2.8-2.8c-1.5 0-2.7 1.3-2.7 2.8c0 1.6 1.2 2.9 2.7 2.9c1.5 0 2.8-1.2 2.8-2.9zm11.7-.6c-.03-.01 0 4.7 0 4.7h-1.5s-.05-4.62 0-4.6c0-1.4-.9-2.3-2-2.3c-1.2 0-2.5.7-2.5 2.5c-.03-.01 0 4.4 0 4.4h-1.6v-8.2h1.6s-.03 1.29 0 1.3c.5-1 1.8-1.5 2.7-1.5c2 0 3.3 1.4 3.3 3.7zm2.5 4.7V21h1.5v12.6h-1.5zm11.9-3.4h-6.7c.2 1.4 1.3 2.2 2.7 2.2c1 0 1.9-.5 2.4-1.3l1.3.5c-.7 1.5-2.2 2.2-3.8 2.2c-2.3 0-4.2-1.7-4.2-4.3c0-2.6 1.9-4.3 4.2-4.3c2.4 0 4.1 1.7 4.1 4.3v.7zm-1.5-1.3c-.2-1.4-1.2-2.2-2.6-2.2c-1.3 0-2.3.7-2.6 2.2h5.2zm3.3-6.5c0-.5.5-1 1-1c.6 0 1.1.5 1.1 1c0 .6-.5 1-1.1 1c-.5 0-1-.4-1-1zm.3 11.2v-8.2h1.5v8.2h-1.5zM414.3 21h1.5v12.6h-1.5v-1.3c-.5 1-1.7 1.5-2.9 1.5c-2.2 0-4.1-1.7-4.1-4.3c0-2.6 1.8-4.3 4.1-4.3c1.2 0 2.4.6 2.9 1.5V21zm0 8.5c0-1.8-1.4-2.8-2.8-2.8c-1.5 0-2.7 1.2-2.7 2.8c0 1.6 1.2 2.9 2.7 2.9c1.5 0 2.8-1.1 2.8-2.9zm3.9-7.1c0-.5.5-1 1-1c.6 0 1.1.5 1.1 1c0 .6-.5 1-1.1 1c-.5 0-1-.4-1-1zm.3 11.2v-8.2h1.5v8.2h-1.5zm11.7-4.7c-.03-.01 0 4.7 0 4.7h-1.6s.05-4.62 0-4.6c0-1.4-.8-2.3-1.9-2.3c-1.2 0-2.5.7-2.5 2.5c-.03-.01 0 4.4 0 4.4h-1.6v-8.2h1.6s-.03 1.29 0 1.3c.5-1 1.8-1.5 2.7-1.5c2 0 3.3 1.4 3.3 3.7zm9-3.5h1.5v7.1c0 3.8-1.8 5.3-4.5 5.3c-1.4 0-2.8-.8-3.6-2.2l1.3-.7c.5 1 1.4 1.5 2.3 1.5c1.8 0 3-1.1 3-3.8v-.3c-.6 1-1.8 1.5-2.9 1.5c-2.3 0-4.1-1.7-4.1-4.3c0-2.6 1.8-4.3 4-4.3c1.3 0 2.4.6 3 1.5c-.03.02 0-1.3 0-1.3zm0 4.1c0-1.8-1.5-2.8-2.8-2.8c-1.5 0-2.7 1.2-2.7 2.8c0 1.6 1.2 2.9 2.7 2.9c1.5 0 2.8-1.1 2.8-2.9zm16.6-4.1h1.6l-3.4 8.2h-1.5l-3.4-8.2h1.6l2.6 6.3l2.5-6.3zm9.4 0h1.6v8.2h-1.6s.03-1.44 0-1.4c-.5.9-1.6 1.6-3 1.6c-2.1 0-4-1.8-4-4.3c0-2.4 1.8-4.3 4.1-4.3c1.2 0 2.4.6 2.9 1.5c.03.02 0-1.3 0-1.3zm0 4.1c0-1.7-1.4-2.8-2.8-2.8c-1.4 0-2.6 1.3-2.6 2.8c0 1.6 1.2 2.9 2.7 2.9c1.4 0 2.7-1.2 2.7-2.9zm11.7-.6c.04-.01 0 4.7 0 4.7h-1.5s.02-4.62 0-4.6c0-1.4-.8-2.3-2-2.3c-1.1 0-2.5.7-2.5 2.5c.04-.01 0 4.4 0 4.4h-1.5v-8.2h1.5s.04 1.29 0 1.3c.5-1 1.9-1.5 2.7-1.5c2.1 0 3.4 1.4 3.3 3.7zm16.9 0c.04-.01 0 4.7 0 4.7h-1.5V29c0-1.4-.8-2.3-2-2.3c-1.1 0-2.5.7-2.5 2.5c.03-.01 0 4.4 0 4.4h-1.5V21h1.5s.03 5.69 0 5.7c.5-1 1.9-1.5 2.7-1.5c2.1 0 3.4 1.4 3.3 3.7zm10.3 1.3h-6.7c.2 1.4 1.3 2.2 2.7 2.2c1 0 1.9-.5 2.4-1.3l1.3.5c-.7 1.5-2.2 2.2-3.8 2.2c-2.3 0-4.2-1.7-4.2-4.3c0-2.6 1.9-4.3 4.2-4.3c2.4 0 4.1 1.7 4.1 4.3v.7zm-1.5-1.3c-.2-1.4-1.2-2.2-2.6-2.2c-1.4 0-2.3.7-2.6 2.2h5.2zm7.4-3.5v1.4h-1.8v6.8h-1.5v-6.8h-1.5v-1.4h1.5v-3h1.5v3h1.8z" stroke="none" fill="#000"/></g><g id="Polygon18645"><path d="m1.7 12.6v-12h1.6v12H1.7zm12-4.7v4.7h-1.5s-.04-4.62 0-4.6c0-1.4-.9-2.3-2-2.3c-1.2 0-2.5.7-2.5 2.5c-.02-.01 0 4.4 0 4.4H6.2V4.4h1.5s-.02 1.29 0 1.3c.5-1 1.8-1.5 2.7-1.5c2 0 3.3 1.4 3.3 3.7zm8.6 2.3h1.4c.1.7.7 1.3 1.7 1.3c1 0 1.6-.5 1.6-1.2c0-.6-.5-.9-1.1-1L24.8 9c-1.4-.4-2.2-1-2.2-2.4c0-1.3 1.2-2.4 2.8-2.4c1.4 0 2.8.8 2.8 2.4h-1.4c-.1-.6-.7-1-1.4-1c-.7 0-1.3.5-1.3 1.1c0 .6.6.9 1.1 1l1.2.3c1.7.4 2.1 1.4 2.1 2.3c0 1.6-1.4 2.5-3.1 2.5c-1.5 0-3-.9-3.1-2.6zM37 4.4h1.5v8.2H37s.02-1.44 0-1.4c-.5.9-1.7 1.6-3 1.6c-2.1 0-4-1.8-4-4.3c0-2.4 1.8-4.3 4.1-4.3c1.2 0 2.4.6 2.9 1.5c.02.02 0-1.3 0-1.3zm0 4.1c0-1.7-1.4-2.8-2.8-2.8c-1.5 0-2.6 1.3-2.6 2.8c0 1.6 1.1 2.9 2.7 2.9c1.4 0 2.7-1.2 2.7-2.9zm17.1-.6c-.04-.01 0 4.7 0 4.7h-1.6s.04-4.62 0-4.6c0-1.4-.7-2.3-1.9-2.3c-1.5 0-2.2 1-2.2 2.8v4.1h-1.5s-.03-4.62 0-4.6c0-1.4-.8-2.3-1.9-2.3c-1.1 0-2.3.8-2.3 2.5c.02-.01 0 4.4 0 4.4h-1.5V4.4h1.5s.02 1.3 0 1.3c.4-.9 1.5-1.5 2.6-1.5c1.2 0 2.3.7 2.7 1.8c.8-1.5 2.1-1.8 2.9-1.8c2 0 3.2 1.4 3.2 3.7zm10.2 1.3h-6.7c.3 1.4 1.3 2.2 2.7 2.2c1 0 1.9-.5 2.4-1.3l1.3.5c-.7 1.5-2.2 2.2-3.7 2.2c-2.4 0-4.2-1.7-4.2-4.3c0-2.6 1.8-4.3 4.2-4.3c2.3 0 4 1.7 4 4.3v.7zm-1.5-1.3c-.2-1.4-1.2-2.2-2.5-2.2c-1.4 0-2.4.7-2.7 2.2h5.2zm11.1 0c.02-.01 0 4.7 0 4.7h-1.5V8c0-1.4-.8-2.3-2-2.3c-1.1 0-2.5.7-2.5 2.5c.02-.01 0 4.4 0 4.4h-1.5V4.4h1.5s.02 1.29 0 1.3c.5-1 1.8-1.5 2.7-1.5c2.1 0 3.3 1.4 3.3 3.7zm12.9-3.5h1.6l-3 8.2h-1.3l-2.3-6.1l-2.1 6.1h-1.3l-3.1-8.2h1.6l2.1 5.9l2.1-5.9h1.5l2.1 5.9l2.1-5.9zm10.7 4.8h-6.6c.2 1.4 1.3 2.2 2.7 2.2c1 0 1.9-.5 2.4-1.3l1.3.5c-.7 1.5-2.2 2.2-3.8 2.2c-2.3 0-4.2-1.7-4.2-4.3c0-2.6 1.9-4.3 4.2-4.3c2.4 0 4.1 1.7 4.1 4.3c0 .2 0 .5-.1.7zm-1.4-1.3c-.2-1.4-1.2-2.2-2.6-2.2c-1.4 0-2.3.7-2.6 2.2h5.2zm8.8-3.4l-.2 1.5c-.5-.2-.9-.3-1.2-.3c-1.6 0-2.3 1.8-2.3 3.9v3h-1.5V4.4h1.5v1.9c.4-1.4 1.2-2.1 2.3-2.1c.6 0 1.2.2 1.4.3zm8.9 8.1h-2.1l-3.7-4v4h-1.6V0h1.6v7.3l2.8-2.9h2.1L109.4 8l4.4 4.6zm.8-11.2c0-.5.5-1 1.1-1c.6 0 1.1.5 1.1 1c0 .6-.5 1-1.1 1c-.6 0-1.1-.4-1.1-1zm.3 11.2V4.4h1.6v8.2h-1.6zm11.7-4.7c.03-.01 0 4.7 0 4.7h-1.5V8c0-1.4-.8-2.3-2-2.3c-1.1 0-2.5.7-2.5 2.5c.03-.01 0 4.4 0 4.4h-1.5V4.4h1.5s.03 1.29 0 1.3c.5-1 1.9-1.5 2.7-1.5c2.1 0 3.4 1.4 3.3 3.7zm9-3.5h1.6s-.05 7.08 0 7.1c0 3.8-1.8 5.3-4.5 5.3c-1.5 0-2.9-.8-3.7-2.2l1.3-.7c.5 1 1.5 1.5 2.4 1.5c1.8 0 2.9-1.1 2.9-3.8v-.3c-.5 1-1.7 1.5-2.9 1.5c-2.2 0-4.1-1.7-4.1-4.3c0-2.6 1.9-4.3 4.1-4.3c1.2 0 2.4.6 2.9 1.5c.03.02 0-1.3 0-1.3zm0 4.1c0-1.8-1.4-2.8-2.8-2.8c-1.4 0-2.6 1.2-2.6 2.8c0 1.6 1.2 2.9 2.6 2.9c1.5 0 2.8-1.1 2.8-2.9zm23.8-.6c.02-.01 0 4.7 0 4.7h-1.5V8c0-1.4-.8-2.3-1.9-2.3c-1.5 0-2.3 1-2.3 2.8c.05.02 0 4.1 0 4.1h-1.5s.02-4.62 0-4.6c0-1.4-.7-2.3-1.8-2.3c-1.2 0-2.3.8-2.3 2.5c-.02-.01 0 4.4 0 4.4h-1.5V4.4h1.5s-.02 1.3 0 1.3c.4-.9 1.4-1.5 2.6-1.5c1.2 0 2.2.7 2.7 1.8c.7-1.5 2-1.8 2.8-1.8c2.1 0 3.2 1.4 3.2 3.7zm10.2 1.3H163c.2 1.4 1.3 2.2 2.7 2.2c1 0 1.9-.5 2.3-1.3l1.4.5c-.7 1.5-2.2 2.2-3.8 2.2c-2.3 0-4.2-1.7-4.2-4.3c0-2.6 1.9-4.3 4.2-4.3c2.3 0 4.1 1.7 4.1 4.3c0 .2 0 .5-.1.7zm-1.5-1.3c-.1-1.4-1.1-2.2-2.5-2.2c-1.4 0-2.4.7-2.6 2.2h5.1zm7.5-3.5v1.4h-1.8v6.8h-1.5V5.8h-1.5V4.4h1.5v-3h1.5v3h1.8zm17 6.7h5.7v1.5h-7.2v-12h7.1v1.4h-5.6v3.9h4.9v1.5h-4.9v3.7zM206.8 0h1.6v12.6h-1.6s.03-1.26 0-1.3c-.5 1-1.7 1.5-2.9 1.5c-2.2 0-4.1-1.7-4.1-4.3c0-2.6 1.9-4.3 4.1-4.3c1.2 0 2.4.6 2.9 1.5c.03.02 0-5.7 0-5.7zm0 8.5c0-1.8-1.4-2.8-2.7-2.8c-1.5 0-2.7 1.2-2.7 2.8c0 1.6 1.2 2.9 2.7 2.9c1.4 0 2.7-1.1 2.7-2.9zm4.2 4.1V0h1.5v12.6H211zm3.6-4.1c0-2.6 2-4.3 4.3-4.3c2.3 0 4.3 1.7 4.3 4.3c0 2.6-2 4.3-4.3 4.3c-2.3 0-4.3-1.7-4.3-4.3zm7.1 0c0-1.7-1.3-2.8-2.8-2.8c-1.5 0-2.7 1.1-2.7 2.8c0 1.7 1.2 2.9 2.7 2.9c1.5 0 2.8-1.2 2.8-2.9zm10.9 4.1h-2l-3.8-4v4h-1.5V0h1.5v7.3l2.9-2.9h2.1L228.3 8l4.3 4.6zm8.4-3.4h-6.6c.2 1.4 1.2 2.2 2.6 2.2c1 0 1.9-.5 2.4-1.3l1.3.5c-.7 1.5-2.1 2.2-3.7 2.2c-2.3 0-4.2-1.7-4.2-4.3c0-2.6 1.9-4.3 4.2-4.3c2.3 0 4 1.7 4 4.3v.7zm-1.5-1.3c-.2-1.4-1.2-2.2-2.5-2.2c-1.4 0-2.4.7-2.6 2.2h5.1zm7.4-3.5v1.4h-1.7v6.8h-1.6V5.8h-1.4V4.4h1.4v-3h1.6v3h1.7zm12.8 11c-2.9 0-4.8-3-4.8-7.7c0-4.6 1.9-7.7 4.8-7.7v1.3c-2 0-3.4 2.6-3.4 6.4c0 3.8 1.4 6.4 3.4 6.4v1.3zm9.6-2.8l-1.1-3.1H263l-1.2 3.1h-1.7l4.6-12h1.7l4.6 12h-1.7zm-5.8-4.5h4.1l-2-5.5l-2.1 5.5zm21.7-.2c.02-.01 0 4.7 0 4.7h-1.5V8c0-1.4-.8-2.3-1.9-2.3c-1.5 0-2.3 1-2.3 2.8c.05.02 0 4.1 0 4.1H278s.03-4.62 0-4.6c0-1.4-.7-2.3-1.8-2.3c-1.2 0-2.3.8-2.3 2.5c-.02-.01 0 4.4 0 4.4h-1.5V4.4h1.5s-.02 1.3 0 1.3c.4-.9 1.4-1.5 2.6-1.5c1.2 0 2.2.7 2.7 1.8c.8-1.5 2-1.8 2.9-1.8c2 0 3.1 1.4 3.1 3.7zm10.2 1.3h-6.6c.2 1.4 1.3 2.2 2.7 2.2c1 0 1.9-.5 2.3-1.3l1.4.5c-.7 1.5-2.2 2.2-3.8 2.2c-2.3 0-4.2-1.7-4.2-4.3c0-2.6 1.9-4.3 4.2-4.3c2.3 0 4.1 1.7 4.1 4.3c0 .2 0 .5-.1.7zM294 7.9c-.2-1.4-1.2-2.2-2.6-2.2c-1.4 0-2.3.7-2.6 2.2h5.2zm8.8-3.4l-.2 1.5c-.5-.2-.9-.3-1.2-.3c-1.7 0-2.3 1.8-2.3 3.9v3h-1.5V4.4h1.5v1.9c.4-1.4 1.2-2.1 2.3-2.1c.6 0 1.2.2 1.4.3zm10.1 4c0 2.6-1.9 4.3-4.1 4.3c-1.3 0-2.4-.5-2.9-1.5c-.05.04 0 5.3 0 5.3h-1.6V4.4h1.6s-.05 1.32 0 1.3c.5-.9 1.7-1.5 2.9-1.5c2.2 0 4.1 1.8 4.1 4.3zm-1.6.1c0-1.7-1.2-2.9-2.7-2.9c-1.4 0-2.7 1.1-2.7 2.9c0 1.7 1.4 2.8 2.7 2.8c1.5 0 2.7-1.2 2.7-2.8zm3.1-.1c0-2.6 2-4.3 4.3-4.3c2.3 0 4.3 1.7 4.3 4.3c0 2.6-2 4.3-4.3 4.3c-2.3 0-4.3-1.7-4.3-4.3zm7 0c0-1.7-1.2-2.8-2.7-2.8c-1.5 0-2.8 1.1-2.8 2.8c0 1.7 1.3 2.9 2.8 2.9c1.5 0 2.7-1.2 2.7-2.9zm3.1 0c0-2.6 2-4.3 4.3-4.3c2.3 0 4.3 1.7 4.3 4.3c0 2.6-2 4.3-4.3 4.3c-2.3 0-4.3-1.7-4.3-4.3zm7.1 0c0-1.7-1.3-2.8-2.8-2.8c-1.5 0-2.7 1.1-2.7 2.8c0 1.7 1.2 2.9 2.7 2.9c1.5 0 2.8-1.2 2.8-2.9zm8.8-4l-.2 1.5c-.4-.2-.9-.3-1.2-.3c-1.6 0-2.3 1.8-2.3 3.9c.04.02 0 3 0 3h-1.5V4.4h1.5s.04 1.9 0 1.9c.5-1.4 1.2-2.1 2.3-2.1c.6 0 1.2.2 1.4.3zm5.5-.1v1.4h-1.8v6.8h-1.5V5.8h-1.5V4.4h1.5v-3h1.5v3h1.8zm22.6 8.2l-1.1-3.1h-5.2l-1.2 3.1h-1.7l4.6-12h1.7l4.6 12h-1.7zm-5.8-4.5h4.1l-2-5.5l-2.1 5.5zm21.7-.2c.02-.01 0 4.7 0 4.7h-1.5V8c0-1.4-.8-2.3-1.9-2.3c-1.5 0-2.3 1-2.3 2.8c.05.02 0 4.1 0 4.1h-1.5s.03-4.62 0-4.6c0-1.4-.7-2.3-1.8-2.3c-1.2 0-2.3.8-2.3 2.5c-.02-.01 0 4.4 0 4.4h-1.5V4.4h1.5s-.02 1.3 0 1.3c.4-.9 1.4-1.5 2.6-1.5c1.2 0 2.2.7 2.7 1.8c.8-1.5 2-1.8 2.9-1.8c2 0 3.1 1.4 3.1 3.7zm10.2 1.3H388c.2 1.4 1.3 2.2 2.7 2.2c1 0 1.9-.5 2.3-1.3l1.4.5c-.7 1.5-2.2 2.2-3.8 2.2c-2.3 0-4.2-1.7-4.2-4.3c0-2.6 1.9-4.3 4.2-4.3c2.3 0 4.1 1.7 4.1 4.3c0 .2 0 .5-.1.7zm-1.4-1.3c-.2-1.4-1.2-2.2-2.6-2.2c-1.4 0-2.3.7-2.6 2.2h5.2zm8.8-3.4l-.2 1.5c-.5-.2-.9-.3-1.2-.3c-1.7 0-2.3 1.8-2.3 3.9v3h-1.5V4.4h1.5v1.9c.4-1.4 1.2-2.1 2.3-2.1c.6 0 1.2.2 1.4.3zm.8 5.7h1.4c0 .7.6 1.3 1.6 1.3c1.1 0 1.7-.5 1.7-1.2c0-.6-.5-.9-1.2-1l-1.1-.3c-1.3-.4-2.1-1-2.1-2.4c0-1.3 1.1-2.4 2.8-2.4c1.4 0 2.8.8 2.8 2.4h-1.5c0-.6-.6-1-1.3-1c-.8 0-1.3.5-1.3 1.1c0 .6.5.9 1 1l1.3.3c1.6.4 2.1 1.4 2.1 2.3c0 1.6-1.5 2.5-3.2 2.5c-1.5 0-3-.9-3-2.6zM415 1.4c-1.4 0-1.8.9-1.8 2c.02-.01 0 1 0 1h1.9v1.4h-1.9v6.8h-1.5V5.8h-1.6V4.4h1.6v-.8c0-2.1.9-3.6 3.1-3.6h.9v1.4s-.66.03-.7 0zm1.1 7.1c0-2.6 1.9-4.3 4.2-4.3c2.4 0 4.3 1.7 4.3 4.3c0 2.6-1.9 4.3-4.3 4.3c-2.3 0-4.2-1.7-4.2-4.3zm7 0c0-1.7-1.3-2.8-2.8-2.8c-1.5 0-2.7 1.1-2.7 2.8c0 1.7 1.2 2.9 2.7 2.9c1.5 0 2.8-1.2 2.8-2.9zm3.1 0c0-2.6 1.9-4.3 4.2-4.3c2.4 0 4.3 1.7 4.3 4.3c0 2.6-1.9 4.3-4.3 4.3c-2.3 0-4.2-1.7-4.2-4.3zm7 0c0-1.7-1.3-2.8-2.8-2.8c-1.4 0-2.7 1.1-2.7 2.8c0 1.7 1.3 2.9 2.7 2.9c1.5 0 2.8-1.2 2.8-2.9zm8.9-4l-.2 1.5c-.5-.2-.9-.3-1.2-.3c-1.7 0-2.3 1.8-2.3 3.9v3h-1.6V4.4h1.6v1.9c.4-1.4 1.2-2.1 2.3-2.1c.6 0 1.2.2 1.4.3zm5.4-.1v1.4h-1.7v6.8h-1.6V5.8h-1.4V4.4h1.4v-3h1.6v3h1.7zm.8 9.7c2 0 3.4-2.6 3.4-6.4c0-3.8-1.4-6.4-3.4-6.4V0c2.9 0 4.8 3.1 4.8 7.7c0 4.7-1.9 7.7-4.8 7.7v-1.3zm21.3-6.2v4.7h-1.5s-.03-4.62 0-4.6c0-1.4-.9-2.3-2-2.3c-1.1 0-2.5.7-2.5 2.5c-.01-.01 0 4.4 0 4.4h-1.5V0h1.5v5.7c.5-1 1.8-1.5 2.7-1.5c2 0 3.3 1.4 3.3 3.7zm10.2 1.3h-6.6c.2 1.4 1.2 2.2 2.6 2.2c1 0 1.9-.5 2.4-1.3l1.3.5c-.7 1.5-2.1 2.2-3.7 2.2c-2.3 0-4.2-1.7-4.2-4.3c0-2.6 1.9-4.3 4.2-4.3c2.3 0 4 1.7 4 4.3v.7zm-1.5-1.3c-.2-1.4-1.2-2.2-2.5-2.2c-1.4 0-2.4.7-2.6 2.2h5.1zm12.2.6c0 2.6-1.9 4.3-4.1 4.3c-1.2 0-2.4-.5-2.9-1.5c-.05.04 0 1.3 0 1.3h-1.6V0h1.6s-.05 5.72 0 5.7c.5-.9 1.7-1.5 2.9-1.5c2.2 0 4.1 1.7 4.1 4.3zm-1.6 0c0-1.6-1.2-2.8-2.7-2.8c-1.3 0-2.7 1-2.7 2.8c0 1.8 1.3 2.9 2.7 2.9c1.5 0 2.7-1.3 2.7-2.9zM499 1.4c0-.5.5-1 1.1-1c.6 0 1.1.5 1.1 1c0 .6-.5 1-1.1 1c-.6 0-1.1-.4-1.1-1zm.3 11.2V4.4h1.5v8.2h-1.5zm11.5 0h-2l-3.8-4v4h-1.5V0h1.5v7.3l2.8-2.9h2.2L506.5 8l4.3 4.6z" stroke="none" fill="#000"/></g></svg>