<?xml version="1.0" standalone="no"?><!DOCTYPE svg PUBLIC "-//W3C//DTD SVG 1.1//EN" "http://www.w3.org/Graphics/SVG/1.1/DTD/svg11.dtd"><svg xmlns="http://www.w3.org/2000/svg" version="1.1" width="510.3px" height="158.6px" viewBox="0 -7 510.3 158.6" style="top:-7px"><desc>Om de diversiteit en complexiteit van de visies en ideeen van de CE (Circulaire Economie) in beeld te brengen, heeft ...</desc><defs/><g id="Polygon18810"><path d="m4.8 133.8c.8 0 1.4 0 2-.1c.5-.2 1.1-.4 1.5-.7c.04.04 0-2.6 0-2.6l1-.3v-.5h-4l-.1.6l1.7.2v2.3c-.1.1-.3.2-.5.3c-.3 0-.5.1-.8.1c-.7 0-1.3-.2-1.9-.6c-.5-.4-1-.9-1.2-1.6c-.3-.6-.5-1.3-.5-2c0-.9.2-1.6.4-2.2c.3-.5.6-.9 1.1-1.2c.4-.3.9-.4 1.5-.4c.5 0 1 .1 1.4.3c.3.1.7.3.9.5c-.03.05.2 1.4.2 1.4l.7.2s.14-2.4.1-2.4c-.3-.2-.7-.4-1.2-.5c-.5-.1-1.1-.2-1.7-.2c-.9 0-1.7.2-2.4.6c-.8.4-1.4 1-1.9 1.7c-.4.8-.7 1.7-.7 2.7c0 .8.2 1.6.5 2.3c.4.6.9 1.2 1.5 1.6c.7.4 1.5.5 2.4.5zm7.7 0c.5 0 .9 0 1.3-.2c.4-.2.8-.4 1.1-.7l-.2-.4c-.2.1-.4.2-.6.2c-.2.1-.3.1-.5.2h-.5c-.4 0-.8-.2-1.1-.4c-.3-.2-.5-.6-.7-.9c-.2-.4-.2-.8-.3-1.2l3.6-.1c0-.1 0-.3.1-.5v-.4c0-.5-.1-1-.3-1.3c-.1-.4-.4-.6-.7-.8c-.3-.2-.6-.3-1-.3c-.4 0-.9.2-1.4.5c-.4.2-.8.6-1.1 1.2c-.3.5-.5 1.1-.5 1.8c0 .7.2 1.3.4 1.8c.3.5.6.9 1 1.2c.5.2.9.3 1.4.3zm-.1-6c.7 0 1 .4 1 1.3v.5l-2.3.2c0-.5.1-.8.2-1.1c.1-.3.3-.6.5-.7c.2-.2.4-.2.6-.2zM19 133l-1.1-.2s.04-4.11 0-4.1c.2-.2.4-.4.7-.5c.3-.1.5-.1.8-.1c.2 0 .4 0 .6.1c.2.1.4.3.5.5c.1.2.1.4.1.6c.04.03 0 3.5 0 3.5l-.9.3l-.1.5h3.2l.1-.6l-1.1-.2s.03-4.02 0-4c.2-.2.5-.4.7-.6c.2-.1.4-.1.7-.1c.4 0 .7.1.9.3c.3.3.4.6.4.9c-.04.03 0 3.5 0 3.5l-1 .3v.5h3.1l.1-.6l-1-.2s-.01-3.64 0-3.6c0-1.4-.6-2.1-1.7-2.1c-.5 0-.9.1-1.2.3c-.4.3-.7.5-1 .9h-.1c-.1-.5-.3-.8-.6-1c-.3-.1-.6-.2-1-.2c-.4 0-.8.1-1.2.3c-.4.2-.7.5-1 .8h-.1l.2-.9l-.2-.2l-2.2.3l-.1.6l1.2.4v4.4l-1.1.3l-.1.5h3.4l.1-.6zm9.6.8c.5 0 1-.1 1.3-.4c.3-.2.6-.5.7-.7c.01-.04.1 0 .1 0v.1c0 .1 0 .3.1.4c.1.2.2.3.4.4c.1.1.4.1.6.1h.7c.1-.1.2-.1.3-.1c.02.01.1-.6.1-.6l-.4-.1c-.2 0-.4-.1-.5-.1c-.1-.1-.2-.2-.2-.3c0-.2-.1-.3-.1-.6v-2.6c0-.8-.1-1.4-.4-1.7c-.3-.4-.7-.6-1.4-.6c-.3 0-.7.1-1.1.2c-.4.2-.7.4-1 .6c-.3.2-.4.5-.4.7c0 .3.1.5.3.6c.2.1.4.2.7.2c.1-.5.1-.9.1-1c.1-.2.1-.4.2-.5c.2 0 .3-.1.5-.1c.5 0 .8.2 1 .6c.2.3.3.8.3 1.4v.4c-.7 0-1.4.2-1.9.4c-.5.2-.8.5-1.1.8c-.2.4-.3.7-.3 1.1c0 .3 0 .5.2.7c.1.3.3.4.5.5c.2.1.4.2.7.2zm1.9-1.6c-.1.2-.3.4-.5.5c-.3.1-.5.2-.7.2c-.2 0-.4-.1-.5-.1c-.1-.1-.2-.2-.3-.4c0-.1-.1-.2-.1-.4c0-.3.2-.6.5-.9c.3-.3.9-.5 1.6-.6v1.7zm4.2 1.6c.5 0 .9-.1 1.3-.4c.3-.2.5-.5.7-.7c-.01-.04.1 0 .1 0c0 0-.03.07 0 .1c0 .1 0 .3.1.4c.1.2.2.3.4.4c.1.1.3.1.6.1h.7c.1-.1.2-.1.3-.1l.1-.6l-.4-.1c-.2 0-.4-.1-.5-.1c-.1-.1-.2-.2-.2-.3c-.1-.2-.1-.3-.1-.6v-2.6c0-.8-.1-1.4-.4-1.7c-.3-.4-.8-.6-1.4-.6c-.3 0-.7.1-1.1.2c-.4.2-.7.4-1 .6c-.3.2-.4.5-.4.7c0 .3.1.5.3.6c.2.1.4.2.7.2c.1-.5.1-.9.1-1c.1-.2.1-.4.2-.5c.1 0 .3-.1.5-.1c.5 0 .8.2 1 .6c.2.3.3.8.3 1.4v.4c-.7 0-1.4.2-1.9.4c-.5.2-.9.5-1.1.8c-.2.4-.4.7-.4 1.1c0 .3.1.5.2.7c.2.3.3.4.6.5c.2.1.4.2.7.2zm1.9-1.6c-.1.2-.3.4-.6.5c-.2.1-.4.2-.7.2c-.1 0-.3-.1-.4-.1c-.1-.1-.2-.2-.3-.4c0-.1-.1-.2-.1-.4c0-.3.2-.6.5-.9c.3-.3.9-.5 1.6-.6v1.7zm6 1.4v-.6l-1.1-.2v-8.4l-.2-.2l-2.1.1l-.1.6l1.2.4v7.5l-1.2.2v.6h3.5zm-.2-2.1c.5.6.8 1.1 1.1 1.4c.3.3.5.5.8.6c.2.2.5.3.8.3c.3 0 .6-.1.9-.2c.01.02.1-.5.1-.5l-.3-.1c-.2 0-.5-.1-.6-.2c-.2-.1-.4-.3-.6-.5c-.2-.2-.4-.5-.7-.9c-.2-.3-.4-.5-.5-.6c.02-.01-.6-.7-.6-.7l1.8-2.2l1.1-.3l.1-.5h-3.2v.5l.9.3l-1.8 2.4v.2l.7 1s.02.02 0 0zm4.8.2c0 .8.1 1.3.4 1.6c.3.3.7.5 1.2.5c.4 0 .8-.1 1.1-.3c.3-.2.6-.5.8-.8l-.1-.4s-.1.1-.2.1c-.1.1-.2.2-.4.2c-.1.1-.3.1-.5.1c-.2 0-.4 0-.6-.1c-.1-.1-.3-.2-.3-.5c-.1-.2-.1-.5-.1-.8c-.04-.02 0-3.3 0-3.3h2l.1-.6h-2.1v-1.7s-.39-.04-.4 0c-.3.3-.5.7-.9 1c-.3.4-.6.7-.9.9v.4h.9v3.7zm6.7-3.6l2.1 5.7l.9-.1l2-5.6l.8-.3l.1-.6H57l-.1.6l1.2.3l-1.5 4.1l-1.3-4.1l1-.3l.1-.6h-3.3l-.1.6l.9.3zm9.2 5.7c.6 0 1.1-.1 1.6-.4c.4-.3.8-.7 1.1-1.2c.2-.6.4-1.1.4-1.8c0-.7-.1-1.3-.4-1.8c-.2-.5-.5-.9-1-1.2c-.4-.3-.9-.4-1.5-.4c-.6 0-1.1.1-1.6.4c-.5.3-.9.7-1.2 1.2c-.3.6-.4 1.2-.4 1.9c0 .6.1 1.2.3 1.7c.3.5.6.9 1.1 1.2c.4.3 1 .4 1.6.4zm-.1-6c.4 0 .8.1 1 .5c.3.3.5.7.7 1.2c.1.5.2 1 .2 1.5c0 .3-.1.7-.2 1c-.1.3-.3.6-.5.8c-.2.2-.5.3-.9.3c-.4 0-.8-.1-1.1-.4c-.3-.3-.5-.7-.6-1.2c-.1-.5-.2-1-.2-1.5c0-.4 0-.8.2-1.1c.1-.4.2-.6.5-.8c.2-.2.5-.3.9-.3zm6.9 6c.6 0 1.1-.1 1.6-.4c.5-.3.8-.7 1.1-1.2c.3-.6.4-1.1.4-1.8c0-.7-.1-1.3-.3-1.8c-.3-.5-.6-.9-1-1.2c-.5-.3-1-.4-1.6-.4c-.5 0-1.1.1-1.5.4c-.5.3-.9.7-1.2 1.2c-.3.6-.5 1.2-.5 1.9c0 .6.1 1.2.4 1.7c.2.5.6.9 1 1.2c.5.3 1 .4 1.6.4zm-.1-6c.4 0 .8.1 1.1.5c.3.3.5.7.6 1.2c.1.5.2 1 .2 1.5c0 .3-.1.7-.2 1c-.1.3-.2.6-.5.8c-.2.2-.5.3-.8.3c-.5 0-.8-.1-1.1-.4c-.3-.3-.5-.7-.7-1.2c-.1-.5-.2-1-.2-1.5c0-.4.1-.8.2-1.1c.1-.4.3-.6.5-.8c.3-.2.6-.3.9-.3zm8 5.2l-1.7-.3v-2.8c0-.3.1-.6.3-.9c.1-.2.3-.4.5-.5c.1-.1.3-.2.4-.2c.2 0 .3.1.5.1c.1.1.3.1.4.2c.3-.2.5-.5.5-.8c0-.2-.1-.4-.3-.6c-.1-.1-.3-.2-.6-.2c-.2 0-.4.1-.6.2c-.2.2-.5.4-.7.7c-.2.3-.3.6-.5 1.1c.05-.04-.1 0-.1 0l.2-1.7l-.2-.2l-2.1.3l-.1.5l1.2.4v4.5l-1.1.3l-.1.5h4l.1-.6zm6.8 0l-1.1-.2v-4.1c.2-.3.5-.4.7-.5c.2-.1.5-.2.7-.2c.4 0 .7.1.9.3c.3.3.4.6.4 1.1c-.02-.03 0 3.4 0 3.4l-1 .3l-.1.5h3.3l.1-.6l-1.1-.2s-.01-3.57 0-3.6c0-.8-.2-1.4-.5-1.7c-.3-.3-.7-.5-1.3-.5c-.7 0-1.5.4-2.1 1.2c-.04-.03-.1 0-.1 0l.1-.8v-3.1l-.2-.2l-2.1.2l-.1.5l1.2.4v7.6l-1.1.2l-.1.6h3.4l.1-.6zm7.1.8c.5 0 .9 0 1.3-.2c.4-.2.8-.4 1.1-.7l-.2-.4c-.2.1-.4.2-.6.2c-.2.1-.3.1-.5.2h-.5c-.5 0-.8-.2-1.1-.4c-.3-.2-.5-.6-.7-.9c-.2-.4-.2-.8-.3-1.2l3.6-.1c0-.1 0-.3.1-.5v-.4c0-.5-.1-1-.3-1.3c-.1-.4-.4-.6-.7-.8c-.3-.2-.6-.3-1-.3c-.4 0-.9.2-1.4.5c-.5.2-.8.6-1.1 1.2c-.3.5-.5 1.1-.5 1.8c0 .7.2 1.3.4 1.8c.3.5.6.9 1 1.2c.5.2.9.3 1.4.3zm-.1-6c.7 0 1 .4 1 1.3v.3c0 .1 0 .2-.1.2l-2.3.2c.1-.5.2-.8.3-1.1c.1-.3.3-.6.5-.7c.2-.2.4-.2.6-.2zm3.9 3.9c0 .8.2 1.3.4 1.6c.3.3.7.5 1.2.5c.4 0 .8-.1 1.1-.3c.4-.2.6-.5.9-.8l-.2-.4s0 .1-.2.1c-.1.1-.2.2-.4.2c-.1.1-.3.1-.4.1c-.3 0-.5 0-.7-.1c-.1-.1-.2-.2-.3-.5c-.1-.2-.1-.5-.1-.8c-.02-.02 0-3.3 0-3.3h2l.1-.6h-2.1v-1.7s-.37-.04-.4 0c-.2.3-.5.7-.8 1c-.4.4-.7.7-1 .9c.02.03 0 .4 0 .4h1s-.08 3.71-.1 3.7zm10.7 2.1c.5 0 .9-.1 1.4-.2c.4-.2.8-.4 1.1-.6c.4-.2.6-.5.9-.7l-.3-.6c-.3.3-.7.6-1.2.8c-.4.2-.9.3-1.4.3c-.6 0-1.1-.2-1.6-.5c-.5-.3-.9-.7-1.2-1.3c-.3-.6-.5-1.4-.5-2.2c0-.8.1-1.4.4-2c.2-.6.5-1 1-1.3c.4-.3.8-.5 1.3-.5c.5 0 .9.1 1.2.2c.3.2.6.3.7.6c.03-.02.3 1.6.3 1.6l.7.1l.2-2.4c-.3-.3-.7-.5-1.2-.6c-.4-.1-.9-.2-1.4-.2c-1.1 0-2 .3-2.7.8c-.7.5-1.2 1.1-1.5 1.9c-.4.7-.5 1.5-.5 2.3c0 .9.1 1.7.5 2.4c.4.7 1 1.2 1.6 1.6c.7.3 1.4.5 2.2.5zm7.8-.8l-1.4-.3v-3h1.3s1.16 2.06 1.2 2.1c.3.6.7 1.1 1.1 1.4c.4.4.9.6 1.5.6c.3 0 .6-.1.8-.2c.04.02.2-.5.2-.5c0 0-.29-.05-.3 0c-.3-.1-.5-.3-.7-.4c-.3-.2-.5-.4-.6-.6c-.2-.2-.5-.6-.8-1l-1.4-1.9s.05.03 0 0c.5-.1.9-.3 1.2-.6c.3-.3.5-.6.7-.9c.2-.3.2-.7.2-1c0-.8-.3-1.4-.9-1.7c-.7-.4-1.6-.6-2.7-.6c-.5 0-1 .1-1.6.1c-.5.1-1.1.2-1.8.3c.03-.02 0 .5 0 .5l1.2.3v7.1l-1.2.4l-.1.5h4l.1-.6zm-1.4-7.9h.9c.4 0 .8 0 1.1.2c.3.2.5.4.7.8c.2.3.2.6.2 1c0 .5-.1.9-.4 1.2c-.3.4-.6.6-1 .7c-.03.02-1.5 0-1.5 0v-3.9s.02-.01 0 0zm7.5.3v7.3l-1.2.4l-.1.5h7.5l.2-2.3l-.6-.1l-.7 1.7h-3.7v-3.6h2.1l.2 1.3l.6-.1l.3-2.8l-.7.1l-.3.9h-2.2v-3.5h3.5l.3 1.6h.6l.3-2.3h-7.3l-.1.6l1.3.3zm9.1 8.4c.6 0 1.1-.1 1.6-.4c.5-.2.9-.5 1.2-.9c.3-.5.5-1 .5-1.5c0-.4-.1-.7-.3-1c-.2-.3-.4-.5-.7-.7c-.3-.2-.7-.5-1.2-.7c-.5-.3-.8-.5-1.1-.7c-.3-.2-.5-.4-.7-.6c-.2-.3-.3-.6-.3-1c0-.4.1-.8.4-1c.2-.2.6-.4 1-.4c.1 0 .3.1.5.2c.2 0 .3.1.4.2c.2.1.3.2.3.3l.2 1.4s.71.12.7.1c0-.2.1-.5.1-1c0-.5.1-.8.1-1c-.6-.5-1.3-.8-2.1-.8c-.5 0-.9.1-1.4.3c-.4.2-.8.5-1 .9c-.3.4-.4.9-.4 1.4c0 .5.1.9.3 1.2c.2.3.5.6.8.8c.3.3.7.5 1.2.8c.5.2.8.4 1 .5c.3.2.5.4.6.6c.2.2.3.4.3.7c0 .4-.1.6-.3.9c-.2.2-.4.4-.7.5c-.2.1-.5.2-.8.2c-.3 0-.6-.1-.9-.3c-.2-.1-.4-.3-.6-.5l-.3-1.4l-.7-.1s-.12 2.14-.1 2.1c.2.3.6.5 1 .7c.5.1.9.2 1.4.2zm3.6-6.9l.7.1l.4-1.8h2.2v7.5l-1.3.4v.5h3.9l.1-.6l-1.3-.2v-7.6h2.2l.3 1.7l.7.1l.2-2.5h-8.1v2.4zm9.7-1.5v7.3l-1.2.4l-.1.5h4l.1-.6l-1.4-.2v-7.5l1.3-.2v-.6h-3.9l-.1.6l1.3.3zm4.4 0v7.3l-1.2.4l-.1.5h3.5l.1-.6l-1.3-.2v-6.2l4.8 7.2l1.1-.2v-8.3l1.3-.2v-.6h-3.4l-.1.6l1.3.3v6.2l-4.7-7.1h-2.5l-.1.6l1.3.3zm12.9 8.4c.8 0 1.4 0 2-.1c.6-.2 1.1-.4 1.6-.7c-.05.04 0-2.6 0-2.6l.9-.3v-.5h-4l-.1.6l1.7.2s.02 2.35 0 2.3c-.1.1-.3.2-.5.3c-.2 0-.5.1-.7.1c-.8 0-1.4-.2-2-.6c-.5-.4-.9-.9-1.2-1.6c-.3-.6-.5-1.3-.5-2c0-.9.2-1.6.4-2.2c.3-.5.6-.9 1.1-1.2c.4-.3.9-.4 1.5-.4c.5 0 1 .1 1.4.3c.4.1.7.3.9.5c-.02.05.2 1.4.2 1.4l.7.2s.15-2.4.2-2.4c-.4-.2-.8-.4-1.3-.5c-.5-.1-1.1-.2-1.7-.2c-.8 0-1.6.2-2.4.6c-.8.4-1.4 1-1.8 1.7c-.5.8-.7 1.7-.7 2.7c0 .8.1 1.6.4 2.3c.4.6.9 1.2 1.5 1.6c.7.4 1.5.5 2.4.5zm11.6-.8l-1.7-.3s-.03-7.62 0-7.6h.3c.1-.1.3-.1.4-.1c.8 0 1.4.2 1.8.7c.3.4.5 1 .5 1.6c0 .7-.2 1.2-.6 1.5c-.3.4-.9.5-1.7.6c-.01-.04-.4 0-.4 0l.1.6s.25-.02.2 0h.6c.6 0 1.1-.1 1.6-.4c.6-.2 1-.6 1.3-1c.3-.5.4-1 .4-1.5c0-1-.3-1.7-1-2.1c-.6-.4-1.5-.6-2.6-.6c-.6 0-1.1.1-1.7.1c-.6.1-1.2.2-1.8.2c-.02.05-.1.6-.1.6l1.3.2v7.2l-1.3.4v.5h4.3l.1-.6zm7 0l-1.7-.3s-.02-2.77 0-2.8c0-.3.1-.6.3-.9c.1-.2.3-.4.5-.5c.1-.1.3-.2.4-.2c.2 0 .3.1.5.1c.1.1.3.1.4.2c.3-.2.4-.5.4-.8c0-.2 0-.4-.2-.6c-.1-.1-.3-.2-.6-.2c-.2 0-.4.1-.6.2c-.3.2-.5.4-.7.7c-.2.3-.3.6-.5 1.1c.04-.04-.1 0-.1 0l.1-1.7l-.1-.2l-2.1.3l-.1.5l1.2.4v4.5l-1.2.3v.5h4l.1-.6zm4.4.8c.5 0 1-.1 1.5-.4c.5-.3.8-.7 1.1-1.2c.3-.6.4-1.1.4-1.8c0-.7-.1-1.3-.3-1.8c-.3-.5-.6-.9-1-1.2c-.5-.3-1-.4-1.6-.4c-.5 0-1 .1-1.5.4c-.5.3-.9.7-1.2 1.2c-.3.6-.5 1.2-.5 1.9c0 .6.2 1.2.4 1.7c.2.5.6.9 1 1.2c.5.3 1 .4 1.7.4zm-.2-6c.5 0 .8.1 1.1.5c.3.3.5.7.6 1.2c.2.5.2 1 .2 1.5c0 .3 0 .7-.1 1c-.2.3-.3.6-.6.8c-.2.2-.5.3-.8.3c-.5 0-.8-.1-1.1-.4c-.3-.3-.5-.7-.7-1.2c-.1-.5-.2-1-.2-1.5c0-.4.1-.8.2-1.1c.1-.4.3-.6.5-.8c.3-.2.6-.3.9-.3zm5.5-2c.2 0 .3 0 .5-.1l.3-.3c.1-.2.1-.3.1-.5c0-.2-.1-.4-.2-.6c-.2-.2-.4-.3-.7-.3c-.2 0-.4.1-.6.3c-.2.2-.3.4-.3.6c0 .2.1.3.1.5c.1.1.2.2.4.3c.1.1.3.1.4.1zm-1.4 10.4c.6-.3 1.1-.8 1.5-1.4c.4-.6.6-1.3.6-2.3v-5.2l-.2-.2l-2 .2l-.1.6l1.1.4s-.03 4.06 0 4.1c0 .6-.1 1.1-.3 1.5c-.1.5-.3.8-.5 1.1l-.8.8c-.05-.02.3.6.3.6c0 0 .35-.15.4-.2zm6-2.4c.5 0 1 0 1.4-.2c.4-.2.8-.4 1-.7l-.1-.4c-.2.1-.5.2-.6.2c-.2.1-.4.1-.5.2h-.6c-.4 0-.8-.2-1.1-.4c-.3-.2-.5-.6-.6-.9c-.2-.4-.3-.8-.3-1.2l3.5-.1c.1-.1.1-.3.1-.5v-.4c0-.5 0-1-.2-1.3c-.2-.4-.4-.6-.7-.8c-.3-.2-.6-.3-1-.3c-.5 0-1 .2-1.4.5c-.5.2-.9.6-1.2 1.2c-.3.5-.4 1.1-.4 1.8c0 .7.1 1.3.4 1.8c.2.5.6.9 1 1.2c.4.2.9.3 1.3.3zm-.1-6c.7 0 1 .4 1 1.3v.5l-2.3.2c0-.5.1-.8.2-1.1c.2-.3.3-.6.5-.7c.2-.2.4-.2.6-.2zm6.1 6c.5 0 .9-.1 1.4-.2c.4-.2.7-.4.9-.7l-.2-.4c-.2.2-.4.3-.6.3c-.3.1-.5.2-.9.2c-.4 0-.8-.2-1.2-.5c-.3-.3-.5-.7-.7-1.2c-.2-.5-.2-1-.2-1.4c0-.4 0-.8.1-1.1c.2-.4.3-.6.5-.8c.3-.2.5-.3.8-.3c.3 0 .5.1.7.4c.2.2.3.5.5.8c.3 0 .5-.1.7-.2c.1-.2.2-.3.2-.6c0-.2-.1-.3-.2-.5c-.1-.2-.3-.3-.6-.4c-.2-.1-.6-.2-1-.2c-.5 0-1 .2-1.5.5c-.4.3-.8.7-1.1 1.2c-.3.6-.5 1.2-.5 1.9c0 .6.2 1.1.4 1.6c.2.5.6.9 1 1.2c.5.3 1 .4 1.5.4zm3.6-2.1c0 .8.1 1.3.4 1.6c.3.3.6.5 1.1.5c.4 0 .8-.1 1.2-.3c.3-.2.6-.5.8-.8l-.1-.4s-.1.1-.2.1c-.1.1-.3.2-.4.2c-.2.1-.3.1-.5.1c-.2 0-.5 0-.6-.1c-.2-.1-.3-.2-.4-.5c0-.2-.1-.5-.1-.8c.03-.02.1-3.3.1-3.3h2v-.6h-2v-1.7s-.42-.04-.4 0c-.3.3-.6.7-.9 1c-.3.4-.6.7-.9.9c-.03.03 0 .4 0 .4h.9s-.03 3.71 0 3.7zm7.6-6.3v7.3l-1.3.4v.5h7.4l.2-2.3l-.6-.1l-.7 1.7h-3.6v-3.6h2l.2 1.3l.7-.1l.2-2.8l-.7.1l-.3.9h-2.1v-3.5h3.4l.3 1.6h.7l.2-2.3h-7.3l-.1.6l1.4.3zm7.3 6.3c0 .7.1 1.2.4 1.6c.3.3.7.5 1.2.5c.9 0 1.6-.4 2.1-1.1c.01-.04.1 0 .1 0c0 0 0 .02 0 0c0 .3.1.6.3.8c.2.2.4.3.8.3h.5c.2-.1.4-.1.6-.2c-.02.05 0-.6 0-.6c0 0-.29-.03-.3 0c-.2-.1-.3-.1-.4-.2c-.1 0-.2-.1-.3-.2c0-.1-.1-.3-.1-.6c.02.04 0-4.7 0-4.7l-.1-.1l-2.2.1l-.1.7l1.2.3v3.9c-.2.2-.4.3-.6.4c-.2.1-.4.2-.8.2c-.7 0-1.1-.5-1.1-1.5c.02 0 0-4 0-4l-.2-.1l-1.9.1l-.1.6l1 .4s-.02 3.36 0 3.4zm10.6 1.3l-1.7-.3s-.03-2.77 0-2.8c0-.3.1-.6.3-.9c.1-.2.3-.4.4-.5c.2-.1.4-.2.5-.2c.2 0 .3.1.5.1c.1.1.3.1.4.2c.3-.2.4-.5.4-.8c0-.2 0-.4-.2-.6c-.1-.1-.3-.2-.6-.2c-.2 0-.4.1-.6.2c-.3.2-.5.4-.7.7c-.2.3-.3.6-.5 1.1c.03-.04-.1 0-.1 0l.1-1.7l-.1-.2l-2.1.3l-.1.5l1.2.4v4.5l-1.2.3v.5h4l.1-.6zm4.3.8c.6 0 1.1-.1 1.6-.4c.5-.3.8-.7 1.1-1.2c.3-.6.4-1.1.4-1.8c0-.7-.1-1.3-.3-1.8c-.3-.5-.6-.9-1-1.2c-.5-.3-1-.4-1.6-.4c-.5 0-1.1.1-1.5.4c-.5.3-.9.7-1.2 1.2c-.3.6-.5 1.2-.5 1.9c0 .6.1 1.2.4 1.7c.2.5.6.9 1 1.2c.5.3 1 .4 1.6.4zm-.1-6c.4 0 .8.1 1.1.5c.3.3.5.7.6 1.2c.1.5.2 1 .2 1.5c0 .3 0 .7-.2 1c-.1.3-.2.6-.5.8c-.2.2-.5.3-.8.3c-.5 0-.8-.1-1.1-.4c-.3-.3-.5-.7-.7-1.2c-.1-.5-.2-1-.2-1.5c0-.4.1-.8.2-1.1c.1-.4.3-.6.5-.8c.3-.2.6-.3.9-.3zm7.2 8l-1.2-.3s.04-6.76 0-6.8c.2-.2.5-.3.7-.5c.3-.1.6-.2.8-.2c.5 0 .9.2 1.1.7c.2.4.3 1.1.3 1.9c0 .8-.1 1.3-.4 1.7c-.2.5-.6.7-1.1.7c-.3 0-.5 0-.6-.1c-.2 0-.3 0-.5-.1v.9c.3 0 .5.1.7.1c.6 0 1.2-.2 1.7-.5c.5-.3.9-.7 1.2-1.3c.2-.5.4-1.1.4-1.8c0-.7-.1-1.3-.3-1.8c-.2-.5-.5-.8-.8-1c-.3-.3-.7-.4-1.1-.4c-.5 0-.8.2-1.2.4c-.3.2-.6.5-.9.8c.04.04 0 0 0 0l.1-.9l-.2-.1l-2.1.2l-.1.6l1.2.3v7.2l-1.2.3v.5h3.4l.1-.5zm5.3-2c.5 0 .9-.1 1.3-.4c.3-.2.5-.5.7-.7c-.03-.04 0 0 0 0c0 0 .05.07 0 .1c0 .1.1.3.2.4c0 .2.2.3.3.4c.2.1.4.1.7.1h.6c.2-.1.3-.1.4-.1c-.02.01.1-.6.1-.6l-.4-.1c-.2 0-.4-.1-.5-.1c-.1-.1-.2-.2-.2-.3c-.1-.2-.1-.3-.1-.6v-2.6c0-.8-.2-1.4-.4-1.7c-.3-.4-.8-.6-1.4-.6c-.4 0-.7.1-1.1.2c-.4.2-.8.4-1 .6c-.3.2-.4.5-.4.7c0 .3.1.5.3.6c.2.1.4.2.7.2c0-.5.1-.9.1-1c0-.2.1-.4.2-.5c.1 0 .3-.1.5-.1c.5 0 .8.2 1 .6c.2.3.3.8.3 1.4v.4c-.8 0-1.4.2-1.9.4c-.5.2-.9.5-1.1.8c-.3.4-.4.7-.4 1.1c0 .3.1.5.2.7c.1.3.3.4.5.5c.3.1.5.2.8.2zm1.9-1.6c-.1.2-.3.4-.6.5c-.2.1-.4.2-.7.2c-.1 0-.3-.1-.4-.1c-.1-.1-.2-.2-.3-.4c-.1-.1-.1-.2-.1-.4c0-.3.2-.6.5-.9c.3-.3.8-.5 1.6-.6v1.7z" stroke="none" fill="#000"/></g><g id="Polygon18809"><path d="m6.9 88.4h1.7l-3.5 8.2H3.7L.3 88.4h1.6l2.5 6.3l2.5-6.3zm9.5 0h1.5v8.2h-1.5s-.02-1.44 0-1.4c-.6.9-1.7 1.6-3 1.6c-2.1 0-4-1.8-4-4.3c0-2.4 1.7-4.3 4.1-4.3c1.2 0 2.3.6 2.9 1.5c-.02.02 0-1.3 0-1.3zm0 4.1c0-1.7-1.4-2.8-2.8-2.8c-1.5 0-2.7 1.3-2.7 2.8c0 1.6 1.2 2.9 2.7 2.9c1.5 0 2.8-1.2 2.8-2.9zm11.7-.6v4.7h-1.5s-.04-4.62 0-4.6c0-1.4-.9-2.3-2-2.3c-1.2 0-2.5.7-2.5 2.5c-.02-.01 0 4.4 0 4.4h-1.5v-8.2h1.5s-.02 1.29 0 1.3c.5-1 1.8-1.5 2.7-1.5c2 0 3.3 1.4 3.3 3.7zM41.5 84h1.5v12.6h-1.5v-1.3c-.5 1-1.7 1.5-2.9 1.5c-2.2 0-4.1-1.7-4.1-4.3c0-2.6 1.8-4.3 4.1-4.3c1.2 0 2.4.6 2.9 1.5V84zm0 8.5c0-1.8-1.4-2.8-2.8-2.8c-1.5 0-2.7 1.2-2.7 2.8c0 1.6 1.2 2.9 2.7 2.9c1.5 0 2.8-1.1 2.8-2.9zm11.9.7h-6.7c.3 1.4 1.3 2.2 2.7 2.2c1 0 1.9-.5 2.4-1.3l1.3.5c-.7 1.5-2.2 2.2-3.8 2.2c-2.3 0-4.2-1.7-4.2-4.3c0-2.6 1.9-4.3 4.2-4.3c2.4 0 4.1 1.7 4.1 4.3v.7zm-1.5-1.3c-.2-1.4-1.2-2.2-2.6-2.2c-1.3 0-2.3.7-2.6 2.2h5.2zm10-3.5v1.3l-5 5.5h5v1.4h-7.1v-1.2l4.9-5.5H55v-1.5h6.9zm9.7 4.8H65c.2 1.4 1.3 2.2 2.7 2.2c1 0 1.9-.5 2.4-1.3l1.3.5c-.7 1.5-2.2 2.2-3.8 2.2c-2.3 0-4.2-1.7-4.2-4.3c0-2.6 1.9-4.3 4.2-4.3c2.3 0 4.1 1.7 4.1 4.3c0 .2 0 .5-.1.7zm-1.4-1.3c-.2-1.4-1.2-2.2-2.6-2.2c-1.4 0-2.3.7-2.6 2.2h5.2zm15.9.9v1.5h-1.7v2.3h-1.5v-2.3h-5.8v-.4l7.1-8.7h.2v7.6h1.7zm-6.5 0h3.3v-3.9l-3.3 3.9zm16.9-4.4v1.4h-1.8v6.8h-1.5v-6.8h-1.5v-1.4h1.5v-3h1.5v3h1.8zm7.3 0h1.6l-5.1 12.2h-1.6l1.7-4.2l-3.2-8h1.6l2.5 6.1l2.5-6.1zm11.7 4.1c0 2.6-1.8 4.3-4.1 4.3c-1.2 0-2.4-.5-2.9-1.5v5.3H107V88.4h1.5v1.3c.5-.9 1.7-1.5 2.9-1.5c2.2 0 4.1 1.8 4.1 4.3zm-1.5.1c0-1.7-1.2-2.9-2.7-2.9c-1.5 0-2.8 1.1-2.8 2.9c0 1.7 1.4 2.8 2.8 2.8c1.5 0 2.7-1.2 2.7-2.8zm11.3.6h-6.7c.3 1.4 1.3 2.2 2.7 2.2c1 0 1.9-.5 2.4-1.3l1.3.5c-.7 1.5-2.2 2.2-3.7 2.2c-2.4 0-4.2-1.7-4.2-4.3c0-2.6 1.8-4.3 4.2-4.3c2.3 0 4 1.7 4 4.3v.7zm-1.5-1.3c-.2-1.4-1.2-2.2-2.5-2.2c-1.4 0-2.4.7-2.6 2.2h5.1zm3 2.3h1.4c0 .7.6 1.3 1.6 1.3c1 0 1.7-.5 1.7-1.2c0-.6-.5-.9-1.2-1l-1.1-.3c-1.3-.4-2.1-1-2.1-2.4c0-1.3 1.1-2.4 2.8-2.4c1.3 0 2.8.8 2.8 2.4h-1.5c0-.6-.7-1-1.3-1c-.8 0-1.3.5-1.3 1.1c0 .6.5.9 1 1l1.2.3c1.7.4 2.2 1.4 2.2 2.3c0 1.6-1.5 2.5-3.2 2.5c-1.5 0-3-.9-3-2.6zm7.9 1.5c0-.6.5-1 1.1-1c.6 0 1.2.4 1.2 1c0 .7-.6 1.1-1.2 1.1c-.6 0-1.1-.4-1.1-1.1z" stroke="none" fill="#000"/></g><g id="Polygon18808"><path d="m8.9 70.9c-.04-.01 0 4.7 0 4.7H7.3s.03-4.62 0-4.6c0-1.4-.8-2.3-1.9-2.3c-1.2 0-2.5.7-2.5 2.5c-.05-.01 0 4.4 0 4.4H1.3V63h1.6s-.05 5.69 0 5.7c.4-1 1.8-1.5 2.7-1.5c2 0 3.3 1.4 3.3 3.7zm10.2 1.3h-6.7c.3 1.4 1.3 2.2 2.7 2.2c1 0 1.9-.5 2.4-1.3l1.3.5c-.7 1.5-2.2 2.2-3.8 2.2c-2.3 0-4.2-1.7-4.2-4.3c0-2.6 1.9-4.3 4.2-4.3c2.4 0 4.1 1.7 4.1 4.3v.7zm-1.5-1.3c-.2-1.4-1.2-2.2-2.6-2.2c-1.3 0-2.3.7-2.6 2.2h5.2zm12.1.6c0 2.6-1.8 4.3-4.1 4.3c-1.2 0-2.3-.5-2.9-1.5v1.3h-1.5V63h1.5v5.7c.6-.9 1.7-1.5 2.9-1.5c2.3 0 4.1 1.7 4.1 4.3zm-1.5 0c0-1.6-1.2-2.8-2.7-2.8c-1.4 0-2.8 1-2.8 2.8c0 1.8 1.3 2.9 2.8 2.9c1.5 0 2.7-1.3 2.7-2.9zm13.8-.6v4.7h-1.5s-.04-4.62 0-4.6c0-1.4-.9-2.3-2-2.3c-1.2 0-2.5.7-2.5 2.5c-.02-.01 0 4.4 0 4.4h-1.5V63h1.5s-.02 5.69 0 5.7c.5-1 1.8-1.5 2.7-1.5c2 0 3.3 1.4 3.3 3.7zm10.2 1.3h-6.6c.2 1.4 1.2 2.2 2.6 2.2c1 0 1.9-.5 2.4-1.3l1.3.5c-.7 1.5-2.1 2.2-3.7 2.2c-2.3 0-4.2-1.7-4.2-4.3c0-2.6 1.9-4.3 4.2-4.3c2.3 0 4 1.7 4 4.3v.7zm-1.5-1.3c-.2-1.4-1.2-2.2-2.5-2.2c-1.4 0-2.4.7-2.6 2.2h5.1zm16.5 0v4.7h-1.5s-.04-4.62 0-4.6c0-1.4-.8-2.3-2-2.3c-1.4 0-2.2 1-2.2 2.8c.02.02 0 4.1 0 4.1H60V71c0-1.4-.8-2.3-1.8-2.3c-1.2 0-2.4.8-2.4 2.5c.05-.01 0 4.4 0 4.4h-1.5v-8.2h1.5s.05 1.3 0 1.3c.4-.9 1.5-1.5 2.7-1.5c1.2 0 2.2.7 2.7 1.8c.7-1.5 2-1.8 2.8-1.8c2.1 0 3.2 1.4 3.2 3.7zm11.6-3.5h1.5s.03 7.08 0 7.1c0 3.8-1.7 5.3-4.4 5.3c-1.5 0-2.9-.8-3.7-2.2l1.3-.7c.5 1 1.5 1.5 2.4 1.5c1.8 0 2.9-1.1 2.9-3.8v-.3c-.5 1-1.7 1.5-2.9 1.5c-2.2 0-4.1-1.7-4.1-4.3c0-2.6 1.8-4.3 4.1-4.3c1.2 0 2.4.6 2.9 1.5v-1.3zm0 4.1c0-1.8-1.4-2.8-2.8-2.8c-1.5 0-2.6 1.2-2.6 2.8c0 1.6 1.1 2.9 2.6 2.9c1.5 0 2.8-1.1 2.8-2.9zm11.9.7H84c.3 1.4 1.3 2.2 2.7 2.2c1 0 1.9-.5 2.4-1.3l1.3.5c-.7 1.5-2.2 2.2-3.7 2.2c-2.4 0-4.2-1.7-4.2-4.3c0-2.6 1.8-4.3 4.2-4.3c2.3 0 4 1.7 4 4.3v.7zm-1.5-1.3c-.2-1.4-1.2-2.2-2.5-2.2c-1.4 0-2.4.7-2.7 2.2h5.2zm11.1 0c.02-.01 0 4.7 0 4.7h-1.5V71c0-1.4-.8-2.3-2-2.3c-1.1 0-2.5.7-2.5 2.5c.02-.01 0 4.4 0 4.4h-1.5V63h1.5s.02 5.69 0 5.7c.5-1 1.8-1.5 2.7-1.5c2.1 0 3.3 1.4 3.3 3.7zm2 .6c0-2.6 1.9-4.3 4.3-4.3c2.3 0 4.3 1.7 4.3 4.3c0 2.6-2 4.3-4.3 4.3c-2.4 0-4.3-1.7-4.3-4.3zm7 0c0-1.7-1.2-2.8-2.7-2.8c-1.5 0-2.8 1.1-2.8 2.8c0 1.7 1.3 2.9 2.8 2.9c1.5 0 2.7-1.2 2.7-2.9zm3.7 4.1V63h1.5v12.6H113zm12.7-4.1c0 2.6-1.9 4.3-4.1 4.3c-1.2 0-2.4-.5-2.9-1.5c-.04.04 0 5.3 0 5.3h-1.6V67.4h1.6s-.04 1.32 0 1.3c.5-.9 1.7-1.5 2.9-1.5c2.2 0 4.1 1.8 4.1 4.3zm-1.6.1c0-1.7-1.2-2.9-2.7-2.9c-1.4 0-2.7 1.1-2.7 2.9c0 1.7 1.4 2.8 2.7 2.8c1.5 0 2.7-1.2 2.7-2.8zm11.4.6h-6.7c.2 1.4 1.3 2.2 2.7 2.2c1 0 1.9-.5 2.4-1.3l1.3.5c-.7 1.5-2.2 2.2-3.8 2.2c-2.3 0-4.2-1.7-4.2-4.3c0-2.6 1.9-4.3 4.2-4.3c2.4 0 4.1 1.7 4.1 4.3v.7zm-1.5-1.3c-.2-1.4-1.2-2.2-2.6-2.2c-1.3 0-2.3.7-2.6 2.2h5.2zm11.1 0v4.7h-1.5s-.02-4.62 0-4.6c0-1.4-.9-2.3-2-2.3c-1.1 0-2.5.7-2.5 2.5v4.4h-1.5v-8.2h1.5v1.3c.5-1 1.8-1.5 2.7-1.5c2 0 3.3 1.4 3.3 3.7zm18 0c.03-.01 0 4.7 0 4.7h-1.5V71c0-1.4-.7-2.3-1.9-2.3c-1.5 0-2.2 1-2.2 2.8c-.04.02 0 4.1 0 4.1h-1.6s.04-4.62 0-4.6c0-1.4-.7-2.3-1.8-2.3c-1.2 0-2.3.8-2.3 2.5c-.01-.01 0 4.4 0 4.4h-1.5v-8.2h1.5v1.3c.4-.9 1.5-1.5 2.6-1.5c1.2 0 2.2.7 2.7 1.8c.8-1.5 2-1.8 2.9-1.8c2 0 3.1 1.4 3.1 3.7zm10.2 1.3h-6.6c.2 1.4 1.3 2.2 2.7 2.2c1 0 1.9-.5 2.4-1.3l1.3.5c-.7 1.5-2.2 2.2-3.8 2.2c-2.3 0-4.2-1.7-4.2-4.3c0-2.6 1.9-4.3 4.2-4.3c2.4 0 4.1 1.7 4.1 4.3c0 .2 0 .5-.1.7zm-1.4-1.3c-.2-1.4-1.2-2.2-2.6-2.2c-1.4 0-2.3.7-2.6 2.2h5.2zm7.4-3.5v1.4h-1.8v6.8H176v-6.8h-1.5v-1.4h1.5v-3h1.5v3h1.8zm11.8 3.5v4.7h-1.5s-.02-4.62 0-4.6c0-1.4-.9-2.3-2-2.3c-1.1 0-2.5.7-2.5 2.5v4.4h-1.5V63h1.5v5.7c.5-1 1.8-1.5 2.7-1.5c2 0 3.3 1.4 3.3 3.7zm10.2 1.3h-6.6c.2 1.4 1.2 2.2 2.6 2.2c1 0 2-.5 2.4-1.3l1.3.5c-.7 1.5-2.1 2.2-3.7 2.2c-2.3 0-4.2-1.7-4.2-4.3c0-2.6 1.9-4.3 4.2-4.3c2.3 0 4.1 1.7 4.1 4.3c0 .2-.1.5-.1.7zm-1.5-1.3c-.2-1.4-1.2-2.2-2.5-2.2c-1.4 0-2.4.7-2.6 2.2h5.1zm7.4-3.5v1.4h-1.7v6.8h-1.6v-6.8h-1.4v-1.4h1.4v-3h1.6v3h1.7zm3.8 4.1c0-2.6 1.9-4.3 4.3-4.3c2.3 0 4.2 1.7 4.2 4.3c0 2.6-1.9 4.3-4.2 4.3c-2.4 0-4.3-1.7-4.3-4.3zm7 0c0-1.7-1.2-2.8-2.7-2.8c-1.5 0-2.8 1.1-2.8 2.8c0 1.7 1.3 2.9 2.8 2.9c1.5 0 2.7-1.2 2.7-2.9zm11.2-.6c-.02-.01 0 4.7 0 4.7h-1.5s-.04-4.62 0-4.6c0-1.4-.9-2.3-2-2.3c-1.2 0-2.5.7-2.5 2.5c-.02-.01 0 4.4 0 4.4h-1.5v-8.2h1.5s-.02 1.29 0 1.3c.5-1 1.8-1.5 2.7-1.5c2 0 3.3 1.4 3.3 3.7zm6.3-3.5v1.4h-1.7v6.8h-1.6v-6.8h-1.4v-1.4h1.4v-3h1.6v3h1.7zm12.1 0h1.7l-3.1 8.2H245l-2.3-6.1l-2.2 6.1h-1.2l-3.2-8.2h1.7l2.1 5.9l2.1-5.9h1.4l2.1 5.9l2.1-5.9zm10.8 4.8h-6.6c.2 1.4 1.2 2.2 2.6 2.2c1 0 1.9-.5 2.4-1.3l1.3.5c-.7 1.5-2.1 2.2-3.7 2.2c-2.3 0-4.2-1.7-4.2-4.3c0-2.6 1.9-4.3 4.2-4.3c2.3 0 4 1.7 4 4.3v.7zm-1.5-1.3c-.2-1.4-1.2-2.2-2.5-2.2c-1.4 0-2.4.7-2.6 2.2h5.1zm8.9-3.4l-.3 1.5c-.4-.2-.8-.3-1.2-.3c-1.6 0-2.2 1.8-2.2 3.9c-.03.02 0 3 0 3h-1.6v-8.2h1.6s-.03 1.9 0 1.9c.4-1.4 1.2-2.1 2.3-2.1c.5 0 1.1.2 1.4.3zm10 4c0 2.6-1.8 4.3-4.1 4.3c-1.2 0-2.3-.5-2.9-1.5c.02.04 0 5.3 0 5.3h-1.5V67.4h1.5s.02 1.32 0 1.3c.6-.9 1.8-1.5 2.9-1.5c2.3 0 4.1 1.8 4.1 4.3zm-1.5.1c0-1.7-1.2-2.9-2.7-2.9c-1.5 0-2.8 1.1-2.8 2.9c0 1.7 1.5 2.8 2.8 2.8c1.5 0 2.7-1.2 2.7-2.8zm11.3.6H279c.2 1.4 1.2 2.2 2.6 2.2c1 0 2-.5 2.4-1.3l1.3.5c-.7 1.5-2.1 2.2-3.7 2.2c-2.3 0-4.2-1.7-4.2-4.3c0-2.6 1.9-4.3 4.2-4.3c2.3 0 4.1 1.7 4.1 4.3c0 .2-.1.5-.1.7zm-1.5-1.3c-.2-1.4-1.2-2.2-2.5-2.2c-1.4 0-2.4.7-2.6 2.2h5.1zm11.2 0c-.04-.01 0 4.7 0 4.7h-1.6s.04-4.62 0-4.6c0-1.4-.8-2.3-1.9-2.3c-1.2 0-2.5.7-2.5 2.5c-.04-.01 0 4.4 0 4.4h-1.6v-8.2h1.6s-.04 1.29 0 1.3c.5-1 1.8-1.5 2.7-1.5c2 0 3.3 1.4 3.3 3.7zm10.7-3.5h1.7l-3.5 8.2h-1.4l-3.4-8.2h1.6l2.5 6.3l2.5-6.3zm9.5 0h1.5v8.2h-1.5s-.02-1.44 0-1.4c-.6.9-1.7 1.6-3 1.6c-2.1 0-4-1.8-4-4.3c0-2.4 1.7-4.3 4.1-4.3c1.2 0 2.3.6 2.9 1.5c-.02.02 0-1.3 0-1.3zm0 4.1c0-1.7-1.4-2.8-2.8-2.8c-1.5 0-2.7 1.3-2.7 2.8c0 1.6 1.2 2.9 2.7 2.9c1.5 0 2.8-1.2 2.8-2.9zm11.7-.6v4.7h-1.5s-.03-4.62 0-4.6c0-1.4-.9-2.3-2-2.3c-1.1 0-2.5.7-2.5 2.5c-.01-.01 0 4.4 0 4.4h-1.5v-8.2h1.5v1.3c.5-1 1.8-1.5 2.7-1.5c2 0 3.3 1.4 3.3 3.7zm12.8 1.3h-6.6c.2 1.4 1.3 2.2 2.7 2.2c1 0 1.9-.5 2.3-1.3l1.4.5c-.7 1.5-2.2 2.2-3.8 2.2c-2.3 0-4.2-1.7-4.2-4.3c0-2.6 1.9-4.3 4.2-4.3c2.3 0 4.1 1.7 4.1 4.3c0 .2 0 .5-.1.7zm-1.5-1.3c-.1-1.4-1.1-2.2-2.5-2.2c-1.4 0-2.4.7-2.6 2.2h5.1zm11.3 1.3h-6.6c.2 1.4 1.3 2.2 2.7 2.2c1 0 1.9-.5 2.3-1.3l1.4.5c-.7 1.5-2.2 2.2-3.8 2.2c-2.3 0-4.2-1.7-4.2-4.3c0-2.6 1.9-4.3 4.2-4.3c2.3 0 4.1 1.7 4.1 4.3c0 .2 0 .5-.1.7zm-1.5-1.3c-.1-1.4-1.1-2.2-2.5-2.2c-1.4 0-2.4.7-2.6 2.2h5.1zm11.2 0c-.02-.01 0 4.7 0 4.7H358s-.04-4.62 0-4.6c0-1.4-.9-2.3-2-2.3c-1.2 0-2.5.7-2.5 2.5c-.02-.01 0 4.4 0 4.4H352v-8.2h1.5s-.02 1.29 0 1.3c.5-1 1.8-1.5 2.7-1.5c2 0 3.3 1.4 3.3 3.7zm10.7-3.5h1.7l-3.4 8.2H367l-3.4-8.2h1.6l2.5 6.3l2.5-6.3zm3-3c0-.5.4-1 1-1c.6 0 1.1.5 1.1 1c0 .6-.5 1-1.1 1c-.6 0-1-.4-1-1zm.3 11.2v-8.2h1.5v8.2h-1.5zm3.5-2.4h1.4c0 .7.6 1.3 1.6 1.3c1.1 0 1.7-.5 1.7-1.2c0-.6-.5-.9-1.1-1l-1.2-.3c-1.3-.4-2.1-1-2.1-2.4c0-1.3 1.1-2.4 2.8-2.4c1.4 0 2.8.8 2.8 2.4h-1.5c0-.6-.6-1-1.3-1c-.8 0-1.3.5-1.3 1.1c0 .6.5.9 1.1 1l1.2.3c1.7.4 2.1 1.4 2.1 2.3c0 1.6-1.5 2.5-3.2 2.5c-1.4 0-2.9-.9-3-2.6zm14.1-5.8h1.6v8.2h-1.6s.04-1.26 0-1.3c-.4 1.1-1.8 1.5-2.7 1.5c-2 0-3.3-1.3-3.3-3.6c.04-.03 0-4.8 0-4.8h1.6s-.04 4.73 0 4.7c0 1.4.8 2.3 1.9 2.3c1.2 0 2.5-.7 2.5-2.5c.04.04 0-4.5 0-4.5zm11.9 4.8h-6.7c.3 1.4 1.3 2.2 2.7 2.2c1 0 1.9-.5 2.4-1.3l1.3.5c-.7 1.5-2.2 2.2-3.7 2.2c-2.4 0-4.2-1.7-4.2-4.3c0-2.6 1.8-4.3 4.2-4.3c2.3 0 4 1.7 4 4.3v.7zm-1.5-1.3c-.2-1.4-1.2-2.2-2.5-2.2c-1.4 0-2.4.7-2.6 2.2h5.1zm3.6 4.7V63h1.5v12.6h-1.5zm11.9-3.4h-6.7c.2 1.4 1.3 2.2 2.7 2.2c1 0 1.9-.5 2.4-1.3l1.3.5c-.7 1.5-2.2 2.2-3.8 2.2c-2.3 0-4.2-1.7-4.2-4.3c0-2.6 1.9-4.3 4.2-4.3c2.4 0 4.1 1.7 4.1 4.3v.7zm-1.5-1.3c-.2-1.4-1.2-2.2-2.6-2.2c-1.4 0-2.3.7-2.6 2.2h5.2zm14.7.6c0 2.6-1.8 4.3-4.1 4.3c-1.2 0-2.3-.5-2.9-1.5c.02.04 0 5.3 0 5.3h-1.5V67.4h1.5s.02 1.32 0 1.3c.6-.9 1.8-1.5 2.9-1.5c2.3 0 4.1 1.8 4.1 4.3zm-1.5.1c0-1.7-1.2-2.9-2.7-2.9c-1.5 0-2.8 1.1-2.8 2.9c0 1.7 1.5 2.8 2.8 2.8c1.5 0 2.7-1.2 2.7-2.8zm8.9-4.1l-.3 1.5c-.4-.2-.8-.3-1.1-.3c-1.7 0-2.3 1.8-2.3 3.9c-.02.02 0 3 0 3h-1.6v-8.2h1.6s-.02 1.9 0 1.9c.4-1.4 1.2-2.1 2.3-2.1c.6 0 1.1.2 1.4.3zm8.9 4.7h-6.6c.2 1.4 1.2 2.2 2.6 2.2c1 0 2-.5 2.4-1.3l1.3.5c-.7 1.5-2.1 2.2-3.7 2.2c-2.3 0-4.2-1.7-4.2-4.3c0-2.6 1.9-4.3 4.2-4.3c2.3 0 4.1 1.7 4.1 4.3c0 .2-.1.5-.1.7zm-1.5-1.3c-.2-1.4-1.2-2.2-2.5-2.2c-1.4 0-2.4.7-2.6 2.2h5.1zm3 2.3h1.4c0 .7.6 1.3 1.6 1.3c1.1 0 1.7-.5 1.7-1.2c0-.6-.5-.9-1.1-1l-1.2-.3c-1.3-.4-2.1-1-2.1-2.4c0-1.3 1.1-2.4 2.8-2.4c1.4 0 2.8.8 2.8 2.4h-1.5c0-.6-.6-1-1.3-1c-.8 0-1.3.5-1.3 1.1c0 .6.5.9 1.1 1l1.2.3c1.7.4 2.1 1.4 2.1 2.3c0 1.6-1.5 2.5-3.2 2.5c-1.4 0-2.9-.9-3-2.6zm15.9-1h-6.6c.2 1.4 1.3 2.2 2.7 2.2c1 0 1.9-.5 2.3-1.3l1.3.5c-.7 1.5-2.1 2.2-3.7 2.2c-2.3 0-4.2-1.7-4.2-4.3c0-2.6 1.9-4.3 4.2-4.3c2.3 0 4.1 1.7 4.1 4.3c0 .2-.1.5-.1.7zm-1.5-1.3c-.2-1.4-1.1-2.2-2.5-2.2c-1.4 0-2.4.7-2.6 2.2h5.1zm11.2 0c-.03-.01 0 4.7 0 4.7H472s.05-4.62 0-4.6c0-1.4-.8-2.3-1.9-2.3c-1.2 0-2.5.7-2.5 2.5c-.03-.01 0 4.4 0 4.4H466v-8.2h1.6s-.03 1.29 0 1.3c.5-1 1.8-1.5 2.7-1.5c2 0 3.3 1.4 3.3 3.7zm6.3-3.5v1.4h-1.7v6.8h-1.6v-6.8h-1.4v-1.4h1.4v-3h1.6v3h1.7zm8 0h1.5v8.2h-1.5v-1.4c-.6.9-1.7 1.6-3 1.6c-2.1 0-4-1.8-4-4.3c0-2.4 1.8-4.3 4.1-4.3c1.2 0 2.3.6 2.9 1.5v-1.3zm0 4.1c0-1.7-1.4-2.8-2.8-2.8c-1.5 0-2.7 1.3-2.7 2.8c0 1.6 1.2 2.9 2.7 2.9c1.5 0 2.8-1.2 2.8-2.9zm8.1-4.1v1.4h-1.8v6.8h-1.5v-6.8h-1.5v-1.4h1.5v-3h1.5v3h1.8zm1.4-3c0-.5.5-1 1-1c.6 0 1.1.5 1.1 1c0 .6-.5 1-1.1 1c-.5 0-1-.4-1-1zm.3 11.2v-8.2h1.5v8.2h-1.5zm11.8-3.4h-6.6c.2 1.4 1.3 2.2 2.7 2.2c1 0 1.9-.5 2.3-1.3l1.4.5c-.7 1.5-2.2 2.2-3.8 2.2c-2.3 0-4.2-1.7-4.2-4.3c0-2.6 1.9-4.3 4.2-4.3c2.3 0 4.1 1.7 4.1 4.3c0 .2 0 .5-.1.7zm-1.5-1.3c-.1-1.4-1.1-2.2-2.5-2.2c-1.4 0-2.4.7-2.6 2.2h5.1z" stroke="none" fill="#000"/></g><g id="Polygon18807"><path d="m.8 48.6c0-3.4 2.8-6.3 6.2-6.3c1.8 0 3.4.8 4.5 2.1l-1.2 1c-.8-1-2-1.6-3.3-1.6c-2.6 0-4.6 2.2-4.6 4.8c0 2.6 2 4.8 4.6 4.8c1.3 0 2.5-.7 3.3-1.6l1.2 1c-1.1 1.2-2.7 2-4.5 2c-3.4 0-6.2-2.8-6.2-6.2zm18.9-2.2h1.6v8.2h-1.6s.04-1.44 0-1.4c-.5.9-1.6 1.6-3 1.6c-2.1 0-4-1.8-4-4.3c0-2.4 1.8-4.3 4.1-4.3c1.2 0 2.4.6 2.9 1.5c.04.02 0-1.3 0-1.3zm0 4.1c0-1.7-1.4-2.8-2.7-2.8c-1.5 0-2.7 1.3-2.7 2.8c0 1.6 1.2 2.9 2.7 2.9c1.4 0 2.7-1.2 2.7-2.9zm4.2 4.1V42h1.5v12.6h-1.5zm3.9-11.2c0-.5.5-1 1-1c.6 0 1.1.5 1.1 1c0 .6-.5 1-1.1 1c-.5 0-1-.4-1-1zm.3 11.2v-8.2h1.5v8.2h-1.5zm3.5-2.4h1.4c0 .7.7 1.3 1.6 1.3c1.1 0 1.7-.5 1.7-1.2c0-.6-.5-.9-1.1-1l-1.1-.3c-1.4-.4-2.2-1-2.2-2.4c0-1.3 1.2-2.4 2.8-2.4c1.4 0 2.8.8 2.8 2.4H36c0-.6-.6-1-1.3-1c-.8 0-1.3.5-1.3 1.1c0 .6.5.9 1.1 1l1.2.3c1.7.4 2.1 1.4 2.1 2.3c0 1.6-1.5 2.5-3.2 2.5c-1.4 0-2.9-.9-3-2.6zm12.2-5.8v1.4H42v6.8h-1.5v-6.8H39v-1.4h1.5v-3h1.5v3h1.8zm.9 4.1c0-2.6 2-4.3 4.3-4.3c2.3 0 4.3 1.7 4.3 4.3c0 2.6-2 4.3-4.3 4.3c-2.3 0-4.3-1.7-4.3-4.3zm7.1 0c0-1.7-1.3-2.8-2.8-2.8c-1.5 0-2.7 1.1-2.7 2.8c0 1.7 1.2 2.9 2.7 2.9c1.5 0 2.8-1.2 2.8-2.9zM66.5 44h-5.4v3.9h4.3v1.5h-4.3v5.2h-1.6v-12h7v1.4zm6.4 2.5l-.3 1.5c-.4-.2-.9-.3-1.2-.3c-1.6 0-2.2 1.8-2.2 3.9c-.05.02 0 3 0 3h-1.6v-8.2h1.6s-.05 1.9 0 1.9c.4-1.4 1.2-2.1 2.2-2.1c.6 0 1.2.2 1.5.3zm1.2-3.1c0-.5.5-1 1-1c.6 0 1.1.5 1.1 1c0 .6-.5 1-1.1 1c-.5 0-1-.4-1-1zm.3 11.2v-8.2h1.5v8.2h-1.5zM85 46.4h1.5v8.2H85v-1.4c-.6.9-1.7 1.6-3 1.6c-2.1 0-4-1.8-4-4.3c0-2.4 1.8-4.3 4.1-4.3c1.2 0 2.3.6 2.9 1.5v-1.3zm0 4.1c0-1.7-1.4-2.8-2.8-2.8c-1.5 0-2.7 1.3-2.7 2.8c0 1.6 1.2 2.9 2.7 2.9c1.5 0 2.8-1.2 2.8-2.9zm11.7-.6v4.7h-1.5s-.03-4.62 0-4.6c0-1.4-.9-2.3-2-2.3c-1.1 0-2.5.7-2.5 2.5c-.01-.01 0 4.4 0 4.4h-1.5v-8.2h1.5v1.3c.5-1 1.8-1.5 2.7-1.5c2 0 3.3 1.4 3.3 3.7zm6.3-3.5v1.4h-1.7v6.8h-1.5v-6.8h-1.5v-1.4h1.5v-3h1.5v3h1.7zm9.8 11c-2.9 0-4.8-3-4.8-7.7c0-4.6 1.9-7.7 4.8-7.7v1.3c-2 0-3.4 2.6-3.4 6.4c0 3.8 1.4 6.4 3.4 6.4v1.3zm6.9-14.8c2.5 0 3.6 1.8 3.6 3.7c0 1.9-1.1 3.8-3.6 3.8c-.03-.02-3.2 0-3.2 0v4.5h-1.6v-12s4.77-.04 4.8 0zm-.1 6c1.5 0 2.1-1.1 2.1-2.3c0-1.1-.6-2.3-2-2.3c-.05.03-3.2 0-3.2 0v4.6h3.1zm13.1 1.3c.02-.01 0 4.7 0 4.7h-1.5V50c0-1.4-.8-2.3-2-2.3c-1.1 0-2.5.7-2.5 2.5c.02-.01 0 4.4 0 4.4h-1.5V42h1.5s.02 5.69 0 5.7c.5-1 1.8-1.5 2.7-1.5c2.1 0 3.3 1.4 3.3 3.7zm7.6-7.3c3.4 0 5.4 2.6 5.4 6c0 3.4-2 6-5.4 6c-.02.02-4.7 0-4.7 0v-12s4.68-.04 4.7 0zm0 10.5c2.5 0 3.8-1.9 3.8-4.5c0-2.6-1.3-4.6-3.8-4.6c-.02.03-3.1 0-3.1 0v9.1s3.08.05 3.1 0zm6.2 3c2 0 3.3-2.6 3.3-6.4c0-3.8-1.3-6.4-3.3-6.4V42c2.9 0 4.8 3.1 4.8 7.7c0 4.7-1.9 7.7-4.8 7.7v-1.3zm18.4-4.9h-6.7c.3 1.4 1.3 2.2 2.7 2.2c1 0 1.9-.5 2.4-1.3l1.3.5c-.7 1.5-2.2 2.2-3.7 2.2c-2.4 0-4.2-1.7-4.2-4.3c0-2.6 1.8-4.3 4.2-4.3c2.3 0 4 1.7 4 4.3v.7zm-1.5-1.3c-.2-1.4-1.2-2.2-2.5-2.2c-1.4 0-2.4.7-2.7 2.2h5.2zm11.3 1.3H168c.3 1.4 1.3 2.2 2.7 2.2c1 0 1.9-.5 2.4-1.3l1.3.5c-.7 1.5-2.2 2.2-3.7 2.2c-2.4 0-4.2-1.7-4.2-4.3c0-2.6 1.8-4.3 4.2-4.3c2.3 0 4 1.7 4 4.3v.7zm-1.5-1.3c-.2-1.4-1.2-2.2-2.5-2.2c-1.4 0-2.4.7-2.7 2.2h5.2zm11.1 0c.02-.01 0 4.7 0 4.7h-1.5V50c0-1.4-.8-2.3-2-2.3c-1.1 0-2.5.7-2.5 2.5c.02-.01 0 4.4 0 4.4h-1.5v-8.2h1.5s.02 1.29 0 1.3c.5-1 1.8-1.5 2.7-1.5c2.1 0 3.3 1.4 3.3 3.7zm8.4 3.2h4.6v1.5h-7.2v-.7s4.33-5.16 4.3-5.2c.7-.8 1.2-1.8 1.2-2.3c0-1.1-.8-1.9-2-1.9c-1.3 0-2.1.7-2.2 1.7l-1.4-.3c.2-1.7 1.6-2.9 3.6-2.9c2.1 0 3.6 1.4 3.6 3.4c0 .9-.6 2.1-1.4 3l-3.1 3.7zm14 1.5h-1.8l-2.3-3.2l-2.4 3.2h-1.8l3.2-4.5l-2.6-3.7h1.8l1.8 2.5l1.7-2.5h1.8l-2.6 3.7l3.2 4.5zm3.6-1.5h4.6v1.5h-7.2v-.7s4.34-5.16 4.3-5.2c.8-.8 1.2-1.8 1.2-2.3c0-1.1-.8-1.9-2-1.9c-1.3 0-2.1.7-2.2 1.7l-1.4-.3c.3-1.7 1.6-2.9 3.6-2.9c2.1 0 3.6 1.4 3.6 3.4c0 .9-.6 2.1-1.4 3c.04-.03-3.1 3.7-3.1 3.7zm14.5-6.7v1.4h-1.7v6.8h-1.6v-6.8h-1.4v-1.4h1.4v-3h1.6v3h1.7zm7.3 0h1.6l-5 12.2h-1.6l1.7-4.2l-3.3-8h1.6l2.5 6.1l2.5-6.1zm11.7 4.1c0 2.6-1.8 4.3-4.1 4.3c-1.2 0-2.3-.5-2.9-1.5c.03.04 0 5.3 0 5.3h-1.5V46.4h1.5s.03 1.32 0 1.3c.6-.9 1.8-1.5 2.9-1.5c2.3 0 4.1 1.8 4.1 4.3zm-1.5.1c0-1.7-1.2-2.9-2.7-2.9c-1.5 0-2.8 1.1-2.8 2.9c0 1.7 1.5 2.8 2.8 2.8c1.5 0 2.7-1.2 2.7-2.8zm11.3.6H247c.2 1.4 1.3 2.2 2.7 2.2c1 0 1.9-.5 2.3-1.3l1.3.5c-.7 1.5-2.1 2.2-3.7 2.2c-2.3 0-4.2-1.7-4.2-4.3c0-2.6 1.9-4.3 4.2-4.3c2.3 0 4.1 1.7 4.1 4.3c0 .2-.1.5-.1.7zm-1.5-1.3c-.2-1.4-1.2-2.2-2.5-2.2c-1.4 0-2.4.7-2.6 2.2h5.1zm6.8.6c0-2.6 2-4.3 4.4-4.3c1.2 0 2.4.5 3.1 1.3l-1 1c-.5-.5-1.2-.8-2.1-.8c-1.6 0-2.9 1.1-2.9 2.8c0 1.7 1.3 2.9 2.9 2.9c.9 0 1.6-.3 2.1-.9l1 1c-.7.8-1.9 1.3-3.1 1.3c-2.4 0-4.4-1.7-4.4-4.3zm9.1-7.1c0-.5.5-1 1.1-1c.5 0 1 .5 1 1c0 .6-.5 1-1 1c-.6 0-1.1-.4-1.1-1zm.3 11.2v-8.2h1.5v8.2h-1.5zm9.4-8.1l-.2 1.5c-.5-.2-.9-.3-1.2-.3c-1.6 0-2.3 1.8-2.3 3.9v3h-1.5v-8.2h1.5v1.9c.4-1.4 1.2-2.1 2.3-2.1c.6 0 1.2.2 1.4.3zm.7 4c0-2.6 2-4.3 4.4-4.3c1.3 0 2.4.5 3.1 1.3l-1 1c-.5-.5-1.2-.8-2.1-.8c-1.6 0-2.9 1.1-2.9 2.8c0 1.7 1.3 2.9 2.9 2.9c.9 0 1.6-.3 2.1-.9l1 1c-.7.8-1.8 1.3-3.1 1.3c-2.4 0-4.4-1.7-4.4-4.3zm15.3-4.1h1.5v8.2h-1.5v-1.3c-.5 1.1-1.8 1.5-2.7 1.5c-2 0-3.3-1.3-3.3-3.6v-4.8h1.5s.03 4.73 0 4.7c0 1.4.9 2.3 2 2.3c1.1 0 2.5-.7 2.5-2.5v-4.5zm4.2 8.2V42h1.5v12.6h-1.5zm10.6-8.2h1.5v8.2h-1.5s-.02-1.44 0-1.4c-.6.9-1.7 1.6-3 1.6c-2.1 0-4-1.8-4-4.3c0-2.4 1.7-4.3 4.1-4.3c1.2 0 2.3.6 2.9 1.5c-.02.02 0-1.3 0-1.3zm0 4.1c0-1.7-1.4-2.8-2.8-2.8c-1.5 0-2.7 1.3-2.7 2.8c0 1.6 1.2 2.9 2.7 2.9c1.5 0 2.8-1.2 2.8-2.9zm3.8-7.1c0-.5.5-1 1.1-1c.6 0 1.1.5 1.1 1c0 .6-.5 1-1.1 1c-.6 0-1.1-.4-1.1-1zm.4 11.2v-8.2h1.5v8.2h-1.5zm9.4-8.1l-.3 1.5c-.4-.2-.8-.3-1.2-.3c-1.6 0-2.2 1.8-2.2 3.9c-.03.02 0 3 0 3h-1.6v-8.2h1.6s-.03 1.9 0 1.9c.4-1.4 1.2-2.1 2.3-2.1c.5 0 1.1.2 1.4.3zm8.9 4.7h-6.6c.2 1.4 1.2 2.2 2.6 2.2c1 0 1.9-.5 2.4-1.3l1.3.5c-.7 1.5-2.1 2.2-3.7 2.2c-2.3 0-4.2-1.7-4.2-4.3c0-2.6 1.9-4.3 4.2-4.3c2.3 0 4 1.7 4 4.3v.7zm-1.5-1.3c-.2-1.4-1.2-2.2-2.5-2.2c-1.4 0-2.4.7-2.6 2.2h5.1zm13.8-7.9h1.5v12.6h-1.5s-.02-1.26 0-1.3c-.6 1-1.8 1.5-2.9 1.5c-2.3 0-4.1-1.7-4.1-4.3c0-2.6 1.8-4.3 4.1-4.3c1.2 0 2.3.6 2.9 1.5c-.02.02 0-5.7 0-5.7zm0 8.5c0-1.8-1.5-2.8-2.8-2.8c-1.5 0-2.7 1.2-2.7 2.8c0 1.6 1.2 2.9 2.7 2.9c1.5 0 2.8-1.1 2.8-2.9zm3.8-7.1c0-.5.5-1 1.1-1c.6 0 1.1.5 1.1 1c0 .6-.5 1-1.1 1c-.6 0-1.1-.4-1.1-1zm.4 11.2v-8.2h1.5v8.2h-1.5zm3.5-2.4h1.4c0 .7.6 1.3 1.6 1.3c1.1 0 1.7-.5 1.7-1.2c0-.6-.5-.9-1.1-1l-1.2-.3c-1.3-.4-2.1-1-2.1-2.4c0-1.3 1.1-2.4 2.8-2.4c1.4 0 2.8.8 2.8 2.4h-1.5c0-.6-.6-1-1.3-1c-.8 0-1.3.5-1.3 1.1c0 .6.5.9 1.1 1l1.2.3c1.7.4 2.1 1.4 2.1 2.3c0 1.6-1.5 2.5-3.2 2.5c-1.4 0-2.9-.9-3-2.6zm7.7-1.7c0-2.6 2-4.3 4.4-4.3c1.2 0 2.4.5 3.1 1.3l-1 1c-.5-.5-1.2-.8-2.1-.8c-1.6 0-2.9 1.1-2.9 2.8c0 1.7 1.3 2.9 2.9 2.9c.9 0 1.6-.3 2.1-.9l1 1c-.7.8-1.9 1.3-3.1 1.3c-2.4 0-4.4-1.7-4.4-4.3zm8.6 0c0-2.6 2-4.3 4.3-4.3c2.3 0 4.3 1.7 4.3 4.3c0 2.6-2 4.3-4.3 4.3c-2.3 0-4.3-1.7-4.3-4.3zm7.1 0c0-1.7-1.3-2.8-2.8-2.8c-1.5 0-2.7 1.1-2.7 2.8c0 1.7 1.2 2.9 2.7 2.9c1.5 0 2.8-1.2 2.8-2.9zm9.5-4.1h1.5v8.2h-1.5v-1.3c-.5 1.1-1.8 1.5-2.7 1.5c-2.1 0-3.3-1.3-3.3-3.6v-4.8h1.5s.02 4.73 0 4.7c0 1.4.8 2.3 2 2.3c1.1 0 2.5-.7 2.5-2.5v-4.5zm9.4.1l-.2 1.5c-.5-.2-.9-.3-1.2-.3c-1.6 0-2.3 1.8-2.3 3.9v3h-1.5v-8.2h1.5v1.9c.4-1.4 1.2-2.1 2.3-2.1c.6 0 1.2.2 1.4.3zm.8 5.7h1.4c0 .7.6 1.3 1.6 1.3c1.1 0 1.7-.5 1.7-1.2c0-.6-.5-.9-1.1-1l-1.2-.3c-1.3-.4-2.1-1-2.1-2.4c0-1.3 1.1-2.4 2.8-2.4c1.4 0 2.8.8 2.8 2.4h-1.5c0-.6-.6-1-1.3-1c-.8 0-1.3.5-1.3 1.1c0 .6.5.9 1.1 1l1.2.3c1.7.4 2.1 1.4 2.1 2.3c0 1.6-1.5 2.5-3.2 2.5c-1.4 0-2.9-.9-3-2.6zm11.4-1.7c0-2.6 1.9-4.3 4.3-4.3c2.3 0 4.2 1.7 4.2 4.3c0 2.6-1.9 4.3-4.2 4.3c-2.4 0-4.3-1.7-4.3-4.3zm7 0c0-1.7-1.2-2.8-2.7-2.8c-1.5 0-2.8 1.1-2.8 2.8c0 1.7 1.3 2.9 2.8 2.9c1.5 0 2.7-1.2 2.7-2.9zm11.2-.6v4.7h-1.5s-.04-4.62 0-4.6c0-1.4-.9-2.3-2-2.3c-1.2 0-2.5.7-2.5 2.5c-.02-.01 0 4.4 0 4.4h-1.5v-8.2h1.5s-.02 1.29 0 1.3c.5-1 1.8-1.5 2.7-1.5c2 0 3.3 1.4 3.3 3.7zm6.3-3.5v1.4h-1.7v6.8h-1.6v-6.8h-1.4v-1.4h1.4v-3h1.6v3h1.7zm12.1 0h1.7l-3.1 8.2h-1.2l-2.3-6.1l-2.2 6.1h-1.2l-3.1-8.2h1.6l2.1 5.9l2.1-5.9h1.4l2.1 5.9l2.1-5.9zm3-3c0-.5.4-1 1-1c.6 0 1.1.5 1.1 1c0 .6-.5 1-1.1 1c-.6 0-1-.4-1-1zm.3 11.2v-8.2h1.5v8.2h-1.5zm11.5 0h-2.1l-3.7-4v4h-1.6V42h1.6v7.3l2.8-2.9h2.1l-3.5 3.6l4.4 4.6zm8.5 0h-2.1l-3.7-4v4H458V42h1.6v7.3l2.8-2.9h2.1L461 50l4.4 4.6zm8.4-3.4h-6.7c.2 1.4 1.3 2.2 2.7 2.2c1 0 1.9-.5 2.4-1.3l1.3.5c-.7 1.5-2.2 2.2-3.8 2.2c-2.3 0-4.2-1.7-4.2-4.3c0-2.6 1.9-4.3 4.2-4.3c2.4 0 4.1 1.7 4.1 4.3v.7zm-1.5-1.3c-.2-1.4-1.2-2.2-2.6-2.2c-1.4 0-2.3.7-2.6 2.2h5.2zm3.6 4.7V42h1.5v12.6h-1.5zM486.5 42h1.5v12.6h-1.5v-1.3c-.5 1-1.7 1.5-2.9 1.5c-2.3 0-4.1-1.7-4.1-4.3c0-2.6 1.8-4.3 4.1-4.3c1.2 0 2.4.6 2.9 1.5V42zm0 8.5c0-1.8-1.4-2.8-2.8-2.8c-1.5 0-2.7 1.2-2.7 2.8c0 1.6 1.2 2.9 2.7 2.9c1.5 0 2.8-1.1 2.8-2.9zm3.9 3.2c0-.6.5-1 1.1-1c.6 0 1.1.4 1.1 1c0 .7-.5 1.1-1.1 1.1c-.6 0-1.1-.4-1.1-1.1zm8.6.9v-12h1.6v12H499zm11.8 0h-2l-3.8-4v4h-1.5V42h1.5v7.3l2.8-2.9h2.2l-3.5 3.6l4.3 4.6z" stroke="none" fill="#000"/></g><g id="Polygon18806"><path d="m.8 27.6c0-3.4 2.8-6.3 6.2-6.3c1.8 0 3.4.8 4.5 2.1l-1.2 1c-.8-1-2-1.6-3.3-1.6c-2.6 0-4.6 2.2-4.6 4.8c0 2.6 2 4.8 4.6 4.8c1.3 0 2.5-.7 3.3-1.6l1.2 1c-1.1 1.2-2.7 2-4.5 2c-3.4 0-6.2-2.8-6.2-6.2zm14.5 4.5h5.7v1.5h-7.3v-12h7.1v1.4h-5.5v3.9h4.8v1.5h-4.8v3.7zm17.6 4.3c-2.9 0-4.8-3-4.8-7.7c0-4.6 1.9-7.7 4.8-7.7v1.3c-2 0-3.3 2.6-3.3 6.4c0 3.8 1.3 6.4 3.3 6.4v1.3zm.7-8.8c0-3.4 2.7-6.3 6.1-6.3c1.9 0 3.5.8 4.5 2.1l-1.1 1c-.8-1-2-1.6-3.4-1.6c-2.5 0-4.5 2.2-4.5 4.8c0 2.6 2 4.8 4.5 4.8c1.4 0 2.6-.7 3.4-1.6l1.1 1c-1 1.2-2.6 2-4.5 2c-3.4 0-6.1-2.8-6.1-6.2zm12.2-5.2c0-.5.5-1 1.1-1c.6 0 1.1.5 1.1 1c0 .6-.5 1-1.1 1c-.6 0-1.1-.4-1.1-1zm.3 11.2v-8.2h1.6v8.2h-1.6zm9.4-8.1l-.2 1.5c-.4-.2-.9-.3-1.2-.3c-1.6 0-2.3 1.8-2.3 3.9c.04.02 0 3 0 3h-1.5v-8.2h1.5s.04 1.9 0 1.9c.5-1.4 1.2-2.1 2.3-2.1c.6 0 1.2.2 1.4.3zm.7 4c0-2.6 2.1-4.3 4.4-4.3c1.3 0 2.4.5 3.1 1.3l-.9 1c-.5-.5-1.3-.8-2.1-.8c-1.7 0-2.9 1.1-2.9 2.8c0 1.7 1.2 2.9 2.9 2.9c.8 0 1.6-.3 2.1-.9l.9 1c-.7.8-1.8 1.3-3.1 1.3c-2.3 0-4.4-1.7-4.4-4.3zm15.3-4.1h1.6v8.2h-1.6s.04-1.26 0-1.3c-.4 1.1-1.8 1.5-2.7 1.5c-2 0-3.3-1.3-3.3-3.6c.04-.03 0-4.8 0-4.8h1.6s-.04 4.73 0 4.7c0 1.4.8 2.3 1.9 2.3c1.2 0 2.5-.7 2.5-2.5c.04.04 0-4.5 0-4.5zm4.2 8.2V21h1.5v12.6h-1.5zm10.6-8.2h1.5v8.2h-1.5v-1.4c-.5.9-1.7 1.6-3 1.6c-2.1 0-4-1.8-4-4.3c0-2.4 1.8-4.3 4.1-4.3c1.2 0 2.4.6 2.9 1.5v-1.3zm0 4.1c0-1.7-1.4-2.8-2.8-2.8c-1.5 0-2.6 1.3-2.6 2.8c0 1.6 1.1 2.9 2.6 2.9c1.5 0 2.8-1.2 2.8-2.9zm3.9-7.1c0-.5.5-1 1-1c.6 0 1.1.5 1.1 1c0 .6-.5 1-1.1 1c-.5 0-1-.4-1-1zm.3 11.2v-8.2h1.5v8.2h-1.5zm9.4-8.1l-.2 1.5c-.5-.2-.9-.3-1.2-.3c-1.7 0-2.3 1.8-2.3 3.9v3h-1.5v-8.2h1.5v1.9c.4-1.4 1.2-2.1 2.3-2.1c.6 0 1.2.2 1.4.3zm8.9 4.7h-6.6c.2 1.4 1.3 2.2 2.7 2.2c1 0 1.9-.5 2.3-1.3l1.4.5c-.7 1.5-2.2 2.2-3.8 2.2c-2.3 0-4.2-1.7-4.2-4.3c0-2.6 1.9-4.3 4.2-4.3c2.3 0 4.1 1.7 4.1 4.3c0 .2 0 .5-.1.7zm-1.5-1.3c-.1-1.4-1.1-2.2-2.5-2.2c-1.4 0-2.4.7-2.6 2.2h5.1zm10.9 3.2h5.7v1.5h-7.2v-12h7.1v1.4h-5.6v3.9h4.9v1.5h-4.9v3.7zm7.2-2.6c0-2.6 2-4.3 4.4-4.3c1.3 0 2.4.5 3.1 1.3l-1 1c-.5-.5-1.2-.8-2.1-.8c-1.6 0-2.9 1.1-2.9 2.8c0 1.7 1.3 2.9 2.9 2.9c.9 0 1.6-.3 2.1-.9l1 1c-.7.8-1.8 1.3-3.1 1.3c-2.4 0-4.4-1.7-4.4-4.3zm8.7 0c0-2.6 1.9-4.3 4.2-4.3c2.4 0 4.3 1.7 4.3 4.3c0 2.6-1.9 4.3-4.3 4.3c-2.3 0-4.2-1.7-4.2-4.3zm7 0c0-1.7-1.3-2.8-2.8-2.8c-1.5 0-2.7 1.1-2.7 2.8c0 1.7 1.2 2.9 2.7 2.9c1.5 0 2.8-1.2 2.8-2.9zm11.2-.6c-.04-.01 0 4.7 0 4.7h-1.6s.04-4.62 0-4.6c0-1.4-.8-2.3-1.9-2.3c-1.2 0-2.5.7-2.5 2.5c-.04-.01 0 4.4 0 4.4h-1.6v-8.2h1.6s-.04 1.29 0 1.3c.4-1 1.8-1.5 2.7-1.5c2 0 3.3 1.4 3.3 3.7zm1.9.6c0-2.6 2-4.3 4.3-4.3c2.3 0 4.3 1.7 4.3 4.3c0 2.6-2 4.3-4.3 4.3c-2.3 0-4.3-1.7-4.3-4.3zm7.1 0c0-1.7-1.3-2.8-2.8-2.8c-1.5 0-2.7 1.1-2.7 2.8c0 1.7 1.2 2.9 2.7 2.9c1.5 0 2.8-1.2 2.8-2.9zm16.5-.6c-.03-.01 0 4.7 0 4.7h-1.5s-.05-4.62 0-4.6c0-1.4-.8-2.3-2-2.3c-1.4 0-2.2 1-2.2 2.8v4.1h-1.5s-.02-4.62 0-4.6c0-1.4-.8-2.3-1.9-2.3c-1.1 0-2.3.8-2.3 2.5c.03-.01 0 4.4 0 4.4h-1.5v-8.2h1.5s.03 1.3 0 1.3c.4-.9 1.5-1.5 2.7-1.5c1.1 0 2.2.7 2.7 1.8c.7-1.5 2-1.8 2.8-1.8c2.1 0 3.2 1.4 3.2 3.7zm2.2-6.5c0-.5.5-1 1.1-1c.6 0 1 .5 1 1c0 .6-.4 1-1 1c-.6 0-1.1-.4-1.1-1zm.3 11.2v-8.2h1.5v8.2h-1.5zm11.9-3.4h-6.7c.2 1.4 1.3 2.2 2.7 2.2c1 0 1.9-.5 2.4-1.3l1.3.5c-.7 1.5-2.2 2.2-3.8 2.2c-2.3 0-4.2-1.7-4.2-4.3c0-2.6 1.9-4.3 4.2-4.3c2.4 0 4.1 1.7 4.1 4.3v.7zm-1.5-1.3c-.2-1.4-1.2-2.2-2.6-2.2c-1.3 0-2.3.7-2.6 2.2h5.2zm2.2 6.2c2 0 3.4-2.6 3.4-6.4c0-3.8-1.4-6.4-3.4-6.4V21c2.9 0 4.8 3.1 4.8 7.7c0 4.7-1.9 7.7-4.8 7.7v-1.3zM205 22.4c0-.5.5-1 1-1c.6 0 1.1.5 1.1 1c0 .6-.5 1-1.1 1c-.5 0-1-.4-1-1zm.3 11.2v-8.2h1.5v8.2h-1.5zm11.7-4.7c-.02-.01 0 4.7 0 4.7h-1.5s-.05-4.62 0-4.6c0-1.4-.9-2.3-2-2.3c-1.2 0-2.5.7-2.5 2.5c-.03-.01 0 4.4 0 4.4h-1.5v-8.2h1.5s-.03 1.29 0 1.3c.5-1 1.8-1.5 2.7-1.5c2 0 3.3 1.4 3.3 3.7zm16.4.6c0 2.6-1.9 4.3-4.1 4.3c-1.2 0-2.4-.5-2.9-1.5v1.3h-1.5V21h1.5v5.7c.5-.9 1.7-1.5 2.9-1.5c2.3 0 4.1 1.7 4.1 4.3zm-1.5 0c0-1.6-1.2-2.8-2.7-2.8c-1.4 0-2.8 1-2.8 2.8c0 1.8 1.3 2.9 2.8 2.9c1.5 0 2.7-1.3 2.7-2.9zm11.3.7h-6.7c.3 1.4 1.3 2.2 2.7 2.2c1 0 1.9-.5 2.4-1.3l1.3.5c-.7 1.5-2.2 2.2-3.7 2.2c-2.4 0-4.2-1.7-4.2-4.3c0-2.6 1.8-4.3 4.2-4.3c2.3 0 4 1.7 4 4.3v.7zm-1.5-1.3c-.2-1.4-1.2-2.2-2.5-2.2c-1.4 0-2.4.7-2.6 2.2h5.1zm11.3 1.3h-6.7c.3 1.4 1.3 2.2 2.7 2.2c1 0 1.9-.5 2.4-1.3l1.3.5c-.7 1.5-2.2 2.2-3.7 2.2c-2.4 0-4.2-1.7-4.2-4.3c0-2.6 1.8-4.3 4.2-4.3c2.3 0 4 1.7 4 4.3v.7zm-1.5-1.3c-.2-1.4-1.2-2.2-2.5-2.2c-1.4 0-2.4.7-2.6 2.2h5.1zm3.6 4.7V21h1.5v12.6h-1.5zM265.7 21h1.6v12.6h-1.6s.04-1.26 0-1.3c-.5 1-1.7 1.5-2.9 1.5c-2.2 0-4.1-1.7-4.1-4.3c0-2.6 1.9-4.3 4.1-4.3c1.2 0 2.4.6 2.9 1.5c.04.02 0-5.7 0-5.7zm0 8.5c0-1.8-1.4-2.8-2.7-2.8c-1.5 0-2.7 1.2-2.7 2.8c0 1.6 1.2 2.9 2.7 2.9c1.4 0 2.7-1.1 2.7-2.9zm13.5-4.1v1.4h-1.8v6.8h-1.5v-6.8h-1.5v-1.4h1.5v-3h1.5v3h1.8zm9.2 4.8h-6.6c.2 1.4 1.2 2.2 2.6 2.2c1 0 1.9-.5 2.4-1.3l1.3.5c-.7 1.5-2.1 2.2-3.7 2.2c-2.3 0-4.2-1.7-4.2-4.3c0-2.6 1.9-4.3 4.2-4.3c2.3 0 4 1.7 4 4.3v.7zm-1.5-1.3c-.2-1.4-1.2-2.2-2.5-2.2c-1.4 0-2.4.7-2.6 2.2h5.1zm17.5.6c0 2.6-1.9 4.3-4.1 4.3c-1.2 0-2.4-.5-2.9-1.5v1.3h-1.5V21h1.5v5.7c.5-.9 1.7-1.5 2.9-1.5c2.3 0 4.1 1.7 4.1 4.3zm-1.5 0c0-1.6-1.2-2.8-2.7-2.8c-1.4 0-2.8 1-2.8 2.8c0 1.8 1.3 2.9 2.8 2.9c1.5 0 2.7-1.3 2.7-2.9zm8.9-4l-.3 1.5c-.4-.2-.8-.3-1.2-.3c-1.6 0-2.2 1.8-2.2 3.9c-.04.02 0 3 0 3h-1.6v-8.2h1.6s-.04 1.9 0 1.9c.4-1.4 1.2-2.1 2.3-2.1c.5 0 1.1.2 1.4.3zm8.9 4.7H314c.3 1.4 1.3 2.2 2.7 2.2c1 0 1.9-.5 2.4-1.3l1.3.5c-.7 1.5-2.2 2.2-3.7 2.2c-2.4 0-4.2-1.7-4.2-4.3c0-2.6 1.8-4.3 4.2-4.3c2.3 0 4 1.7 4 4.3v.7zm-1.5-1.3c-.2-1.4-1.2-2.2-2.5-2.2c-1.4 0-2.4.7-2.6 2.2h5.1zm11.1 0c.04-.01 0 4.7 0 4.7h-1.5s.02-4.62 0-4.6c0-1.4-.8-2.3-2-2.3c-1.1 0-2.5.7-2.5 2.5c.04-.01 0 4.4 0 4.4h-1.5v-8.2h1.5s.04 1.29 0 1.3c.5-1 1.9-1.5 2.7-1.5c2.1 0 3.4 1.4 3.3 3.7zm9-3.5h1.6s-.04 7.08 0 7.1c0 3.8-1.8 5.3-4.5 5.3c-1.5 0-2.9-.8-3.7-2.2l1.3-.7c.5 1 1.5 1.5 2.4 1.5c1.8 0 2.9-1.1 2.9-3.8v-.3c-.5 1-1.7 1.5-2.9 1.5c-2.2 0-4.1-1.7-4.1-4.3c0-2.6 1.9-4.3 4.1-4.3c1.2 0 2.4.6 2.9 1.5c.03.02 0-1.3 0-1.3zm0 4.1c0-1.8-1.4-2.8-2.7-2.8c-1.5 0-2.7 1.2-2.7 2.8c0 1.6 1.2 2.9 2.7 2.9c1.4 0 2.7-1.1 2.7-2.9zm11.9.7h-6.7c.3 1.4 1.3 2.2 2.7 2.2c1 0 1.9-.5 2.4-1.3l1.3.5c-.7 1.5-2.2 2.2-3.7 2.2c-2.4 0-4.2-1.7-4.2-4.3c0-2.6 1.8-4.3 4.2-4.3c2.3 0 4 1.7 4 4.3v.7zm-1.5-1.3c-.2-1.4-1.2-2.2-2.5-2.2c-1.4 0-2.4.7-2.6 2.2h5.1zm11.1 0c.04-.01 0 4.7 0 4.7h-1.5s.02-4.62 0-4.6c0-1.4-.8-2.3-2-2.3c-1.1 0-2.5.7-2.5 2.5c.04-.01 0 4.4 0 4.4h-1.5v-8.2h1.5s.04 1.29 0 1.3c.5-1 1.9-1.5 2.7-1.5c2.1 0 3.4 1.4 3.3 3.7zm1.2 7.2c1-1.4 1.6-2.6 1.4-4.7h1.6c.2 2-.6 3.9-1.9 5l-1.1-.3zm18.5-7.2c.03-.01 0 4.7 0 4.7H379V29c0-1.4-.8-2.3-2-2.3c-1.1 0-2.5.7-2.5 2.5c.03-.01 0 4.4 0 4.4H373V21h1.5s.03 5.69 0 5.7c.5-1 1.8-1.5 2.7-1.5c2.1 0 3.3 1.4 3.3 3.7zm10.3 1.3h-6.7c.2 1.4 1.3 2.2 2.7 2.2c1 0 1.9-.5 2.4-1.3l1.3.5c-.7 1.5-2.2 2.2-3.8 2.2c-2.3 0-4.2-1.7-4.2-4.3c0-2.6 1.9-4.3 4.2-4.3c2.4 0 4.1 1.7 4.1 4.3v.7zm-1.5-1.3c-.2-1.4-1.2-2.2-2.6-2.2c-1.4 0-2.3.7-2.6 2.2h5.2zm11.3 1.3h-6.7c.2 1.4 1.3 2.2 2.7 2.2c1 0 1.9-.5 2.4-1.3l1.3.5c-.7 1.5-2.2 2.2-3.8 2.2c-2.3 0-4.2-1.7-4.2-4.3c0-2.6 1.9-4.3 4.2-4.3c2.4 0 4.1 1.7 4.1 4.3v.7zm-1.5-1.3c-.2-1.4-1.2-2.2-2.6-2.2c-1.4 0-2.3.7-2.6 2.2h5.2zm7.5-6.5c-1.5 0-1.9.9-1.9 2c.03-.01 0 1 0 1h1.9v1.4h-1.9v6.8h-1.5v-6.8h-1.6v-1.4h1.6v-.8c0-2.1.9-3.6 3.1-3.6h.9v1.4s-.65.03-.6 0zm5.6 3v1.4h-1.7v6.8h-1.6v-6.8h-1.4v-1.4h1.4v-3h1.6v3h1.7zm12.2-3.8c2.6 0 3.6 1.8 3.6 3.7c0 1.9-1 3.8-3.6 3.8c.01-.02-3.2 0-3.2 0v4.5h-1.6v-12s4.81-.04 4.8 0zm-.1 6c1.5 0 2.1-1.1 2.1-2.3c0-1.1-.6-2.3-2-2.3c-.01.03-3.2 0-3.2 0v4.6h3.1zm3.2 5.1c0-.6.5-1 1.1-1c.6 0 1.1.4 1.1 1c0 .7-.5 1.1-1.1 1.1c-.6 0-1.1-.4-1.1-1.1zm18.7.9h-1.6l-1.1-9.2l-3.8 7.9h-1.4l-3.9-7.9l-1.1 9.2h-1.5l1.4-12h1.5l4.3 8.9l4.3-8.9h1.4l1.5 12zm2-.9c0-.6.5-1 1.1-1c.6 0 1.1.4 1.1 1c0 .7-.5 1.1-1.1 1.1c-.6 0-1.1-.4-1.1-1.1zm24 .9h-1.6l-1.1-9.2l-3.8 7.9h-1.4l-3.9-7.9l-1.1 9.2h-1.5l1.5-12h1.4l4.3 8.9l4.3-8.9h1.4l1.5 12zm8.7-8.2h1.5v8.2h-1.5s-.05-1.44 0-1.4c-.6.9-1.7 1.6-3 1.6c-2.2 0-4-1.8-4-4.3c0-2.4 1.7-4.3 4-4.3c1.3 0 2.4.6 3 1.5c-.05.02 0-1.3 0-1.3zm0 4.1c0-1.7-1.5-2.8-2.8-2.8c-1.5 0-2.7 1.3-2.7 2.8c0 1.6 1.2 2.9 2.7 2.9c1.4 0 2.8-1.2 2.8-2.9zm9.4-4L490 27c-.4-.2-.8-.3-1.2-.3c-1.6 0-2.2 1.8-2.2 3.9c-.03.02 0 3 0 3H485v-8.2h1.6s-.03 1.9 0 1.9c.4-1.4 1.2-2.1 2.3-2.1c.5 0 1.1.2 1.4.3zm5.4-.1v1.4H494v6.8h-1.6v-6.8H491v-1.4h1.4v-3h1.6v3h1.7zm1.4-3c0-.5.5-1 1.1-1c.6 0 1.1.5 1.1 1c0 .6-.5 1-1.1 1c-.6 0-1.1-.4-1.1-1zm.3 11.2v-8.2h1.5v8.2h-1.5zm11.7-4.7v4.7h-1.5V29c0-1.4-.8-2.3-2-2.3c-1.1 0-2.5.7-2.5 2.5c.01-.01 0 4.4 0 4.4h-1.5v-8.2h1.5v1.3c.5-1 1.8-1.5 2.7-1.5c2.1 0 3.3 1.4 3.3 3.7z" stroke="none" fill="#000"/></g><g id="Polygon18805"><path d="m.8 6.6C.8 3.2 3.5.3 6.9.3c3.5 0 6.2 2.9 6.2 6.3c0 3.4-2.7 6.2-6.2 6.2C3.5 12.8.8 10 .8 6.6zm10.7 0c0-2.6-2-4.8-4.6-4.8c-2.5 0-4.5 2.2-4.5 4.8c0 2.6 2 4.8 4.5 4.8c2.6 0 4.6-2.2 4.6-4.8zM28 7.9c.02-.01 0 4.7 0 4.7h-1.5V8c0-1.4-.8-2.3-1.9-2.3c-1.5 0-2.3 1-2.3 2.8c.05.02 0 4.1 0 4.1h-1.5s.03-4.62 0-4.6c0-1.4-.7-2.3-1.8-2.3c-1.2 0-2.3.8-2.3 2.5c-.02-.01 0 4.4 0 4.4h-1.5V4.4h1.5s-.02 1.3 0 1.3c.4-.9 1.4-1.5 2.6-1.5c1.2 0 2.2.7 2.7 1.8c.8-1.5 2-1.8 2.9-1.8c2 0 3.1 1.4 3.1 3.7zM41.8 0h1.5v12.6h-1.5s-.05-1.26 0-1.3c-.6 1-1.8 1.5-3 1.5c-2.2 0-4-1.7-4-4.3c0-2.6 1.8-4.3 4-4.3c1.3 0 2.4.6 3 1.5c-.05.02 0-5.7 0-5.7zm0 8.5c0-1.8-1.5-2.8-2.8-2.8c-1.5 0-2.7 1.2-2.7 2.8c0 1.6 1.2 2.9 2.7 2.9c1.4 0 2.8-1.1 2.8-2.9zm11.8.7H47c.2 1.4 1.2 2.2 2.6 2.2c1 0 2-.5 2.4-1.3l1.3.5c-.7 1.5-2.1 2.2-3.7 2.2c-2.3 0-4.2-1.7-4.2-4.3c0-2.6 1.9-4.3 4.2-4.3c2.3 0 4.1 1.7 4.1 4.3c0 .2-.1.5-.1.7zm-1.5-1.3c-.2-1.4-1.2-2.2-2.5-2.2c-1.4 0-2.4.7-2.6 2.2h5.1zM66.9 0h1.6v12.6h-1.6s.03-1.26 0-1.3c-.5 1-1.7 1.5-2.9 1.5c-2.2 0-4.1-1.7-4.1-4.3c0-2.6 1.9-4.3 4.1-4.3c1.2 0 2.4.6 2.9 1.5c.03.02 0-5.7 0-5.7zm0 8.5c0-1.8-1.4-2.8-2.8-2.8c-1.4 0-2.6 1.2-2.6 2.8c0 1.6 1.2 2.9 2.6 2.9c1.5 0 2.8-1.1 2.8-2.9zm3.9-7.1c0-.5.5-1 1.1-1c.6 0 1 .5 1 1c0 .6-.4 1-1 1c-.6 0-1.1-.4-1.1-1zm.3 11.2V4.4h1.5v8.2h-1.5zm9.8-8.2h1.6l-3.4 8.2h-1.5l-3.4-8.2h1.6l2.6 6.3l2.5-6.3zm10.7 4.8h-6.7c.2 1.4 1.3 2.2 2.7 2.2c1 0 1.9-.5 2.4-1.3l1.3.5c-.7 1.5-2.2 2.2-3.8 2.2c-2.3 0-4.2-1.7-4.2-4.3c0-2.6 1.9-4.3 4.2-4.3c2.4 0 4.1 1.7 4.1 4.3v.7zm-1.5-1.3c-.2-1.4-1.2-2.2-2.6-2.2c-1.3 0-2.3.7-2.6 2.2h5.2zm8.8-3.4L98.7 6c-.4-.2-.9-.3-1.2-.3c-1.6 0-2.3 1.8-2.3 3.9c.03.02 0 3 0 3h-1.5V4.4h1.5s.03 1.9 0 1.9c.4-1.4 1.2-2.1 2.3-2.1c.6 0 1.2.2 1.4.3zm.8 5.7h1.4c0 .7.7 1.3 1.7 1.3c1 0 1.6-.5 1.6-1.2c0-.6-.5-.9-1.1-1l-1.1-.3c-1.4-.4-2.2-1-2.2-2.4c0-1.3 1.2-2.4 2.8-2.4c1.4 0 2.8.8 2.8 2.4h-1.4c-.1-.6-.7-1-1.4-1c-.7 0-1.3.5-1.3 1.1c0 .6.6.9 1.1 1l1.2.3c1.7.4 2.1 1.4 2.1 2.3c0 1.6-1.5 2.5-3.1 2.5c-1.5 0-3-.9-3.1-2.6zm8-8.8c0-.5.4-1 1-1c.6 0 1.1.5 1.1 1c0 .6-.5 1-1.1 1c-.6 0-1-.4-1-1zm.3 11.2V4.4h1.5v8.2H108zm8.1-8.2v1.4h-1.8v6.8h-1.5V5.8h-1.5V4.4h1.5v-3h1.5v3h1.8zm9.2 4.8h-6.7c.2 1.4 1.3 2.2 2.7 2.2c1 0 1.9-.5 2.4-1.3l1.3.5c-.7 1.5-2.2 2.2-3.8 2.2c-2.3 0-4.2-1.7-4.2-4.3c0-2.6 1.9-4.3 4.2-4.3c2.4 0 4.1 1.7 4.1 4.3v.7zm-1.5-1.3c-.2-1.4-1.2-2.2-2.6-2.2c-1.4 0-2.3.7-2.6 2.2h5.2zm3.3-6.5c0-.5.4-1 1-1c.6 0 1.1.5 1.1 1c0 .6-.5 1-1.1 1c-.6 0-1-.4-1-1zm.3 11.2V4.4h1.5v8.2h-1.5zm8.1-8.2v1.4h-1.8v6.8h-1.5V5.8h-1.5V4.4h1.5v-3h1.5v3h1.8zm14.1 4.8h-6.7c.2 1.4 1.3 2.2 2.7 2.2c1 0 1.9-.5 2.4-1.3l1.3.5c-.7 1.5-2.2 2.2-3.8 2.2c-2.3 0-4.2-1.7-4.2-4.3c0-2.6 1.9-4.3 4.2-4.3c2.4 0 4.1 1.7 4.1 4.3v.7zm-1.5-1.3c-.2-1.4-1.2-2.2-2.6-2.2c-1.3 0-2.3.7-2.6 2.2h5.2zm11.1 0v4.7h-1.5s-.02-4.62 0-4.6c0-1.4-.9-2.3-2-2.3c-1.1 0-2.5.7-2.5 2.5v4.4h-1.5V4.4h1.5v1.3c.5-1 1.8-1.5 2.7-1.5c2 0 3.3 1.4 3.3 3.7zm6.7.6c0-2.6 2-4.3 4.4-4.3c1.3 0 2.4.5 3.1 1.3l-1 1c-.5-.5-1.2-.8-2.1-.8c-1.6 0-2.9 1.1-2.9 2.8c0 1.7 1.3 2.9 2.9 2.9c.9 0 1.6-.3 2.1-.9l1 1c-.7.8-1.8 1.3-3.1 1.3c-2.4 0-4.4-1.7-4.4-4.3zm8.7 0c0-2.6 1.9-4.3 4.2-4.3c2.4 0 4.3 1.7 4.3 4.3c0 2.6-1.9 4.3-4.3 4.3c-2.3 0-4.2-1.7-4.2-4.3zm7 0c0-1.7-1.3-2.8-2.8-2.8c-1.5 0-2.7 1.1-2.7 2.8c0 1.7 1.2 2.9 2.7 2.9c1.5 0 2.8-1.2 2.8-2.9zm16.5-.6v4.7h-1.5s-.02-4.62 0-4.6c0-1.4-.8-2.3-2-2.3c-1.4 0-2.2 1-2.2 2.8c.03.02 0 4.1 0 4.1h-1.5V8c0-1.4-.7-2.3-1.8-2.3c-1.2 0-2.3.8-2.3 2.5c-.04-.01 0 4.4 0 4.4h-1.6V4.4h1.6s-.04 1.3 0 1.3c.4-.9 1.4-1.5 2.6-1.5c1.2 0 2.2.7 2.7 1.8c.7-1.5 2-1.8 2.8-1.8c2.1 0 3.2 1.4 3.2 3.7zm11.1.6c0 2.6-1.9 4.3-4.1 4.3c-1.2 0-2.4-.5-2.9-1.5c-.04.04 0 5.3 0 5.3h-1.6V4.4h1.6s-.04 1.32 0 1.3c.5-.9 1.7-1.5 2.9-1.5c2.2 0 4.1 1.8 4.1 4.3zm-1.6.1c0-1.7-1.2-2.9-2.7-2.9c-1.4 0-2.7 1.1-2.7 2.9c0 1.7 1.4 2.8 2.7 2.8c1.5 0 2.7-1.2 2.7-2.8zm3.7 4V0h1.5v12.6h-1.5zm11.8-3.4h-6.6c.2 1.4 1.3 2.2 2.7 2.2c.9 0 1.9-.5 2.3-1.3l1.3.5c-.7 1.5-2.1 2.2-3.7 2.2c-2.3 0-4.2-1.7-4.2-4.3c0-2.6 1.9-4.3 4.2-4.3c2.3 0 4.1 1.7 4.1 4.3c0 .2-.1.5-.1.7zm-1.5-1.3c-.2-1.4-1.2-2.2-2.5-2.2c-1.4 0-2.4.7-2.6 2.2h5.1zm10.4 4.7h-1.8l-2.3-3.2l-2.3 3.2h-1.8l3.2-4.5l-2.6-3.7h1.8l1.7 2.5l1.7-2.5h1.9l-2.7 3.7l3.2 4.5zm1.2-11.2c0-.5.5-1 1.1-1c.6 0 1.1.5 1.1 1c0 .6-.5 1-1.1 1c-.6 0-1.1-.4-1.1-1zm.3 11.2V4.4h1.6v8.2h-1.6zm8.1-8.2v1.4h-1.7v6.8h-1.6V5.8h-1.4V4.4h1.4v-3h1.6v3h1.7zm9.2 4.8h-6.6c.2 1.4 1.3 2.2 2.7 2.2c1 0 1.9-.5 2.3-1.3l1.3.5c-.7 1.5-2.1 2.2-3.7 2.2c-2.3 0-4.2-1.7-4.2-4.3c0-2.6 1.9-4.3 4.2-4.3c2.3 0 4.1 1.7 4.1 4.3c0 .2-.1.5-.1.7zm-1.5-1.3c-.2-1.4-1.2-2.2-2.5-2.2c-1.4 0-2.4.7-2.6 2.2h5.1zm3.3-6.5c0-.5.5-1 1.1-1c.6 0 1.1.5 1.1 1c0 .6-.5 1-1.1 1c-.6 0-1.1-.4-1.1-1zm.3 11.2V4.4h1.6v8.2h-1.6zm8.1-8.2v1.4h-1.7v6.8h-1.6V5.8h-1.4V4.4h1.4v-3h1.6v3h1.7zm12 0h1.7l-3.4 8.2h-1.5l-3.4-8.2h1.6l2.5 6.3l2.5-6.3zm9.5 0h1.5v8.2h-1.5v-1.4c-.5.9-1.7 1.6-3 1.6c-2.1 0-4-1.8-4-4.3c0-2.4 1.8-4.3 4.1-4.3c1.2 0 2.4.6 2.9 1.5V4.4zm0 4.1c0-1.7-1.4-2.8-2.8-2.8c-1.5 0-2.7 1.3-2.7 2.8c0 1.6 1.2 2.9 2.7 2.9c1.5 0 2.8-1.2 2.8-2.9zm11.7-.6v4.7h-1.5s-.02-4.62 0-4.6c0-1.4-.9-2.3-2-2.3c-1.1 0-2.5.7-2.5 2.5v4.4h-1.5V4.4h1.5v1.3c.5-1 1.8-1.5 2.7-1.5c2 0 3.3 1.4 3.3 3.7zM307.9 0h1.6v12.6h-1.6s.04-1.26 0-1.3c-.5 1-1.7 1.5-2.9 1.5c-2.2 0-4.1-1.7-4.1-4.3c0-2.6 1.9-4.3 4.1-4.3c1.2 0 2.4.6 2.9 1.5c.04.02 0-5.7 0-5.7zm0 8.5c0-1.8-1.4-2.8-2.7-2.8c-1.5 0-2.7 1.2-2.7 2.8c0 1.6 1.2 2.9 2.7 2.9c1.4 0 2.7-1.1 2.7-2.9zm11.9.7h-6.6c.2 1.4 1.2 2.2 2.6 2.2c1 0 1.9-.5 2.4-1.3l1.3.5c-.7 1.5-2.1 2.2-3.7 2.2c-2.3 0-4.2-1.7-4.2-4.3c0-2.6 1.9-4.3 4.2-4.3c2.3 0 4 1.7 4 4.3v.7zm-1.5-1.3c-.2-1.4-1.2-2.2-2.5-2.2c-1.4 0-2.4.7-2.6 2.2h5.1zm13.9-3.5h1.7l-3.4 8.2H329l-3.4-8.2h1.6l2.5 6.3l2.5-6.3zm3-3c0-.5.5-1 1-1c.6 0 1.1.5 1.1 1c0 .6-.5 1-1.1 1c-.5 0-1-.4-1-1zm.3 11.2V4.4h1.5v8.2h-1.5zm3.5-2.4h1.4c0 .7.6 1.3 1.6 1.3c1.1 0 1.7-.5 1.7-1.2c0-.6-.5-.9-1.1-1l-1.2-.3c-1.3-.4-2.1-1-2.1-2.4c0-1.3 1.1-2.4 2.8-2.4c1.4 0 2.8.8 2.8 2.4h-1.5c0-.6-.6-1-1.3-1c-.8 0-1.3.5-1.3 1.1c0 .6.5.9 1.1 1l1.2.3c1.7.4 2.1 1.4 2.1 2.3c0 1.6-1.5 2.5-3.2 2.5c-1.4 0-2.9-.9-3-2.6zm7.9-8.8c0-.5.5-1 1.1-1c.6 0 1.1.5 1.1 1c0 .6-.5 1-1.1 1c-.6 0-1.1-.4-1.1-1zm.4 11.2V4.4h1.5v8.2h-1.5zm11.8-3.4h-6.6c.2 1.4 1.2 2.2 2.6 2.2c1 0 1.9-.5 2.4-1.3l1.3.5c-.7 1.5-2.1 2.2-3.7 2.2c-2.3 0-4.2-1.7-4.2-4.3c0-2.6 1.9-4.3 4.2-4.3c2.3 0 4 1.7 4 4.3v.7zm-1.5-1.3c-.2-1.4-1.2-2.2-2.5-2.2c-1.4 0-2.4.7-2.6 2.2h5.1zm3 2.3h1.4c0 .7.6 1.3 1.6 1.3c1.1 0 1.7-.5 1.7-1.2c0-.6-.5-.9-1.2-1L363 9c-1.3-.4-2.1-1-2.1-2.4c0-1.3 1.1-2.4 2.8-2.4c1.4 0 2.8.8 2.8 2.4H365c0-.6-.6-1-1.3-1c-.8 0-1.3.5-1.3 1.1c0 .6.5.9 1 1l1.3.3c1.6.4 2.1 1.4 2.1 2.3c0 1.6-1.5 2.5-3.2 2.5c-1.5 0-3-.9-3-2.6zm20.7-1h-6.7c.2 1.4 1.3 2.2 2.7 2.2c1 0 1.9-.5 2.4-1.3l1.3.5c-.7 1.5-2.2 2.2-3.8 2.2c-2.3 0-4.2-1.7-4.2-4.3c0-2.6 1.9-4.3 4.2-4.3c2.4 0 4.1 1.7 4.1 4.3v.7zm-1.5-1.3c-.2-1.4-1.2-2.2-2.6-2.2c-1.4 0-2.3.7-2.6 2.2h5.2zm11.1 0v4.7h-1.5s-.03-4.62 0-4.6c0-1.4-.9-2.3-2-2.3c-1.1 0-2.5.7-2.5 2.5c-.01-.01 0 4.4 0 4.4h-1.5V4.4h1.5v1.3c.5-1 1.8-1.5 2.7-1.5c2 0 3.3 1.4 3.3 3.7zm7-6.5c0-.5.4-1 1-1c.6 0 1.1.5 1.1 1c0 .6-.5 1-1.1 1c-.6 0-1-.4-1-1zm.3 11.2V4.4h1.5v8.2h-1.5zM408.8 0h1.5v12.6h-1.5v-1.3c-.5 1-1.7 1.5-2.9 1.5c-2.3 0-4.1-1.7-4.1-4.3c0-2.6 1.8-4.3 4.1-4.3c1.2 0 2.4.6 2.9 1.5V0zm0 8.5c0-1.8-1.4-2.8-2.8-2.8c-1.5 0-2.7 1.2-2.7 2.8c0 1.6 1.2 2.9 2.7 2.9c1.5 0 2.8-1.1 2.8-2.9zm11.9.7H414c.2 1.4 1.3 2.2 2.7 2.2c1 0 1.9-.5 2.4-1.3l1.3.5c-.7 1.5-2.2 2.2-3.8 2.2c-2.3 0-4.2-1.7-4.2-4.3c0-2.6 1.9-4.3 4.2-4.3c2.4 0 4.1 1.7 4.1 4.3v.7zm-1.5-1.3c-.2-1.4-1.2-2.2-2.6-2.2c-1.3 0-2.3.7-2.6 2.2h5.2zm11.3 1.3h-6.7c.2 1.4 1.3 2.2 2.7 2.2c1 0 1.9-.5 2.4-1.3l1.3.5c-.7 1.5-2.2 2.2-3.8 2.2c-2.3 0-4.2-1.7-4.2-4.3c0-2.6 1.9-4.3 4.2-4.3c2.4 0 4.1 1.7 4.1 4.3v.7zM429 7.9c-.2-1.4-1.2-2.2-2.6-2.2c-1.3 0-2.3.7-2.6 2.2h5.2zm11.3 1.3h-6.7c.2 1.4 1.3 2.2 2.7 2.2c1 0 1.9-.5 2.4-1.3l1.3.5c-.7 1.5-2.2 2.2-3.8 2.2c-2.3 0-4.2-1.7-4.2-4.3c0-2.6 1.9-4.3 4.2-4.3c2.4 0 4.1 1.7 4.1 4.3v.7zm-1.5-1.3c-.2-1.4-1.2-2.2-2.6-2.2c-1.3 0-2.3.7-2.6 2.2h5.2zm11.1 0v4.7h-1.5s-.02-4.62 0-4.6c0-1.4-.9-2.3-2-2.3c-1.1 0-2.5.7-2.5 2.5v4.4h-1.5V4.4h1.5v1.3c.5-1 1.8-1.5 2.7-1.5c2 0 3.3 1.4 3.3 3.7zm12.9-3.5h1.6l-3.4 8.2h-1.5l-3.4-8.2h1.6l2.6 6.3l2.5-6.3zm9.4 0h1.6v8.2h-1.6s.03-1.44 0-1.4c-.5.9-1.7 1.6-3 1.6c-2.1 0-4-1.8-4-4.3c0-2.4 1.8-4.3 4.1-4.3c1.2 0 2.4.6 2.9 1.5c.03.02 0-1.3 0-1.3zm0 4.1c0-1.7-1.4-2.8-2.8-2.8c-1.4 0-2.6 1.3-2.6 2.8c0 1.6 1.2 2.9 2.7 2.9c1.4 0 2.7-1.2 2.7-2.9zm11.7-.6c.03-.01 0 4.7 0 4.7h-1.5V8c0-1.4-.8-2.3-2-2.3c-1.1 0-2.5.7-2.5 2.5c.03-.01 0 4.4 0 4.4h-1.5V4.4h1.5s.03 1.29 0 1.3c.5-1 1.9-1.5 2.7-1.5c2.1 0 3.4 1.4 3.3 3.7zM497.7 0h1.5v12.6h-1.5s-.03-1.26 0-1.3c-.6 1-1.8 1.5-2.9 1.5c-2.3 0-4.1-1.7-4.1-4.3c0-2.6 1.8-4.3 4-4.3c1.3 0 2.4.6 3 1.5c-.03.02 0-5.7 0-5.7zm0 8.5c0-1.8-1.5-2.8-2.8-2.8c-1.5 0-2.7 1.2-2.7 2.8c0 1.6 1.2 2.9 2.7 2.9c1.5 0 2.8-1.1 2.8-2.9zm11.8.7h-6.6c.2 1.4 1.3 2.2 2.7 2.2c1 0 1.9-.5 2.3-1.3l1.4.5c-.7 1.5-2.2 2.2-3.8 2.2c-2.3 0-4.2-1.7-4.2-4.3c0-2.6 1.9-4.3 4.2-4.3c2.3 0 4.1 1.7 4.1 4.3c0 .2 0 .5-.1.7zM508 7.9c-.1-1.4-1.1-2.2-2.5-2.2c-1.4 0-2.4.7-2.6 2.2h5.1z" stroke="none" fill="#000"/></g></svg>