<?xml version="1.0" standalone="no"?><!DOCTYPE svg PUBLIC "-//W3C//DTD SVG 1.1//EN" "http://www.w3.org/Graphics/SVG/1.1/DTD/svg11.dtd"><svg xmlns="http://www.w3.org/2000/svg" version="1.1" width="68.4px" height="32.9px" viewBox="0 -8 68.4 32.9" style="top:-8px"><desc>NL | ENG</desc><defs/><g id="Polygon17588"><path d="m25.8 14.8V-1.4h1.2v16.2h-1.2zm10.6-4.1h5.4v1.9h-7.5v-12h7.4v1.9h-5.3v3.2h4.6v2h-4.6v3zM51 .6h2.1v12h-1.9l-4.8-8.1v8.1h-2.1v-12h2l4.7 8v-8zm4.5 6c0-3.4 2.7-6.3 6.1-6.3c1.7 0 3.3.7 4.3 1.9l-1.5 1.3c-.7-.7-1.7-1.2-2.8-1.2c-2.3 0-4 2-4 4.3c0 2.3 1.7 4.3 4 4.3c1.8 0 3.5-1.2 3.5-2.7h-3.5V6.4h5.8c0 4.4-2.4 6.4-5.7 6.4c-3.6 0-6.2-2.8-6.2-6.2z" stroke="none" fill="#c44b1a"/></g><g id="Polygon17587"><path d="m8.3.6h2.1v12H8.5L3.7 4.5v8.1H1.5v-12h2.1l4.7 8v-8zm7.3 10.1h4.7v1.9h-6.8v-12h2.1v10.1z" stroke="none" fill="#000"/></g></svg>