<?xml version="1.0" standalone="no"?><!DOCTYPE svg PUBLIC "-//W3C//DTD SVG 1.1//EN" "http://www.w3.org/Graphics/SVG/1.1/DTD/svg11.dtd"><svg xmlns="http://www.w3.org/2000/svg" version="1.1" width="242px" height="79.2px" viewBox="0 -13 242 79.2" style="top:-13px"><desc>Proces video</desc><defs/><g id="Polygon17690"><path d="m14.7 5c6.1 0 8.7 4.5 8.7 8.9c0 4.5-2.6 8.8-8.7 8.8c-.02.02-6.3 0-6.3 0v9.9H3.5V5s11.18.04 11.2 0zm-.3 13.3c2.9 0 4.1-2.2 4.1-4.4c0-2.2-1.1-4.5-3.9-4.5H8.4v8.9s6.04.02 6 0zm25.7-4.2l-.9 4.4c-1.1-.6-2.1-.7-2.8-.7c-3 0-4.7 3-4.7 8.3c.02-.02 0 6.5 0 6.5H27V13.9h4.7s-.02 4.02 0 4c1-3.1 3-4.5 5.3-4.5c1.2 0 2.4.3 3.1.7zm1.3 9.1c0-5.9 4.6-9.8 9.9-9.8c5.3 0 10 3.9 10 9.8c0 6-4.7 9.9-10 9.9c-5.3 0-9.9-3.9-9.9-9.9zm15.2 0c0-3.2-2.4-5.4-5.3-5.4c-2.9 0-5.2 2.2-5.2 5.4c0 3.3 2.3 5.6 5.2 5.6c2.9 0 5.3-2.3 5.3-5.6zm7.8 0c0-5.9 4.8-9.8 10.2-9.8c3.2 0 5.9 1.5 7.6 3.6l-3.3 2.6c-.9-1.1-2.5-1.8-4.2-1.8c-3.3 0-5.6 2.3-5.6 5.4c0 3.2 2.3 5.6 5.6 5.6c1.7 0 3.3-.8 4.2-1.9l3.3 2.6c-1.7 2.1-4.4 3.6-7.6 3.6c-5.4 0-10.2-3.9-10.2-9.9zm39.5 1.7H89.4c.6 2.6 2.6 4 5.4 4c2 0 3.9-.9 5-2.4l3.1 2.3c-1.7 2.8-5 4.3-8.4 4.3c-5.6 0-9.8-4-9.8-9.9c0-5.9 4.4-9.8 9.8-9.8c5.3 0 9.5 3.8 9.5 9.7c0 .5 0 1.1-.1 1.8zm-4.5-3.3c-.3-2.5-2.3-4-4.9-4c-2.5 0-4.5 1.2-5.1 4h10zm7.6 5.2h4.4c0 1.3 1.1 2.5 3 2.5c1.9 0 3.1-.9 3.1-2.1c0-1-.8-1.5-2.2-1.8l-2.5-.7c-4.2-1.1-5.3-3.3-5.3-5.7c0-2.9 2.9-5.6 7-5.6c3.3 0 7.1 1.7 7 5.9h-4.4c0-1.3-1.2-2.1-2.5-2.1c-1.4 0-2.4.8-2.4 2c0 1 .9 1.5 2 1.8l3 .8c4.2 1 4.9 3.7 4.9 5.4c0 3.8-3.8 5.9-7.6 5.9c-3.7 0-7.4-2.3-7.5-6.3zm41.4-12.9h5l-7.9 18.7h-4.2l-7.8-18.7h5l4.9 12.8l5-12.8zm7.3-6.6c0-1.6 1.4-2.8 3.1-2.8c1.6 0 3 1.2 3 2.8c0 1.6-1.4 2.9-3 2.9c-1.7 0-3.1-1.3-3.1-2.9zm.7 25.3V13.9h4.7v18.7h-4.7zm24.5-28.8h4.6v28.8h-4.6s-.02-2.48 0-2.5c-1.3 2-3.9 3-6.2 3c-4.9 0-9.2-3.9-9.2-9.9c0-6 4.2-9.8 9.1-9.8c2.4 0 5 1 6.3 3c-.02-.04 0-12.6 0-12.6zm-.1 19.4c0-3.3-2.7-5.4-5.4-5.4c-2.9 0-5.2 2.3-5.2 5.4c0 3.1 2.3 5.6 5.2 5.6c2.8 0 5.4-2.3 5.4-5.6zm28.4 1.7h-14.5c.5 2.6 2.5 4 5.3 4c2 0 4-.9 5-2.4l3.2 2.3c-1.8 2.8-5.1 4.3-8.5 4.3c-5.5 0-9.8-4-9.8-9.9c0-5.9 4.5-9.8 9.8-9.8c5.3 0 9.5 3.8 9.5 9.7v1.8zm-4.6-3.3c-.2-2.5-2.2-4-4.8-4c-2.5 0-4.6 1.2-5.1 4h9.9zm7.8 1.6c0-5.9 4.6-9.8 9.9-9.8c5.3 0 9.9 3.9 9.9 9.8c0 6-4.6 9.9-9.9 9.9c-5.3 0-9.9-3.9-9.9-9.9zm15.2 0c0-3.2-2.4-5.4-5.3-5.4c-2.9 0-5.3 2.2-5.3 5.4c0 3.3 2.4 5.6 5.3 5.6c2.9 0 5.3-2.3 5.3-5.6z" stroke="none" fill="#000"/></g></svg>