<?xml version="1.0" standalone="no"?><!DOCTYPE svg PUBLIC "-//W3C//DTD SVG 1.1//EN" "http://www.w3.org/Graphics/SVG/1.1/DTD/svg11.dtd"><svg xmlns="http://www.w3.org/2000/svg" version="1.1" width="510.3px" height="163.6px" viewBox="0 -7 510.3 163.6" style="top:-7px"><desc>‘Eerst een Thuis’ is een nieuwe aanpak van dakloosheid in regio Utrecht. In opdracht van gemeente Utrecht voerde het ...</desc><defs/><g id="Polygon18488"><path d="m4.4 139.3c.9 0 1.8-.2 2.5-.7c.6-.4 1.2-1 1.5-1.7c.3-.7.5-1.5.5-2.3c0-.9-.1-1.7-.5-2.5c-.3-.7-.7-1.3-1.3-1.7c-.6-.4-1.4-.6-2.2-.6c-.9 0-1.7.2-2.4.6c-.7.4-1.2 1-1.6 1.7c-.3.7-.5 1.5-.5 2.5c0 .9.1 1.6.5 2.4c.3.7.8 1.3 1.4 1.7c.6.4 1.3.6 2.1.6zm.1-8.9c.7 0 1.3.2 1.8.6c.4.4.8.9 1 1.6c.3.7.4 1.5.4 2.3c0 .7-.1 1.3-.3 1.8c-.2.6-.5 1.1-1 1.5c-.4.3-1 .5-1.7.5c-.6 0-1.2-.2-1.7-.6c-.5-.4-.8-1-1.1-1.7c-.2-.6-.3-1.4-.3-2.2c0-.7.1-1.4.3-1.9c.2-.6.5-1.1.9-1.4c.5-.4 1.1-.5 1.7-.5zm8.3 8.3l-1-.2s-.04-4.28 0-4.3c.2-.3.5-.5.8-.6c.3-.1.6-.2.9-.2c.4 0 .7.1.9.4c.2.2.3.6.3 1.2c.04-.04 0 3.5 0 3.5l-1 .2v.4h3v-.4l-1-.2v-3.8c0-.7-.1-1.2-.5-1.6c-.3-.3-.7-.5-1.2-.5c-.4 0-.9.1-1.3.4c-.4.2-.7.5-1 .8c.03-.02 0 0 0 0v-1.1l-2 .2v.4l1.1.3v4.9l-1.1.2l-.1.4h3.2v-.4zm5.5-1.4c0 .7.1 1.2.4 1.5c.2.3.5.5 1 .5c.4 0 .7-.1 1-.3c.4-.2.6-.4.9-.7l-.2-.4s0 .1-.2.2c-.1.1-.2.1-.4.2c-.2.1-.3.1-.5.1c-.2 0-.4 0-.6-.1c-.1-.1-.2-.3-.3-.5c-.1-.2-.1-.5-.1-.9c-.02-.05 0-3.4 0-3.4h2l.1-.5h-2.1v-1.7h-.3c-.2.5-.4.9-.7 1.2c-.2.3-.5.5-.9.7v.3h.9v3.8zm4.7-3.9l1.8 5.9l.6-.1l1.3-4.7l1.4 4.8l.6-.1l1.6-5.8l.8-.2l.1-.4h-2.7v.4l1.1.2l-1.2 4.3l-.2-1.1l-1-3.5l-.9.2l-1.1 4.3l-.3-1.1l-.9-3.1l1-.2v-.4h-2.8v.4l.8.2zm11.7 5.9c.6 0 1-.1 1.5-.4c.4-.3.8-.7 1.1-1.2c.2-.5.4-1.1.4-1.8c0-.6-.2-1.2-.4-1.7c-.2-.5-.5-.9-.9-1.2c-.5-.3-.9-.4-1.5-.4c-.5 0-1.1.1-1.5.4c-.5.3-.9.7-1.1 1.2c-.3.6-.5 1.2-.5 1.9c0 .6.2 1.2.4 1.7c.2.5.6.9 1 1.1c.4.3 1 .4 1.5.4zm-.1-6.1c.4 0 .8.2 1.1.5c.3.3.5.7.7 1.2c.2.4.2.9.2 1.4c0 .5 0 .9-.2 1.2c-.1.4-.3.7-.5.9c-.3.2-.6.3-.9.3c-.5 0-.9-.1-1.2-.4c-.3-.3-.5-.7-.7-1.2c-.1-.4-.2-1-.2-1.5c0-.4 0-.8.2-1.2c.1-.4.3-.7.6-.9c.2-.2.5-.3.9-.3zm7.6 5.5l-1.7-.2v-2.8l.3-1.1c.1-.3.3-.5.4-.7c.2-.2.4-.3.6-.3c.3 0 .5.1.8.4c.1-.1.2-.2.3-.4c.1-.1.1-.2.1-.3c0-.2 0-.4-.2-.5c-.1-.2-.3-.2-.6-.2c-.2 0-.4.1-.7.2c-.2.2-.4.4-.6.7c-.2.3-.3.7-.4 1.1c-.03.02-.1 0-.1 0l.1-1.8l-.2-.1l-1.8.2l-.1.4l1.2.3v4.9l-1.2.2v.4h3.7l.1-.4zm4.7 2.7l-1.1-.2s-.02-6.92 0-6.9c.2-.3.5-.5.7-.7c.3-.1.5-.2.9-.2c.5 0 .9.2 1.2.7c.3.5.4 1.2.4 2.1c0 .5-.1.9-.2 1.3c-.2.4-.4.7-.7.9c-.2.2-.5.3-.9.3c-.3 0-.5-.1-.7-.1c-.1 0-.3 0-.5-.1l.1.7c.3 0 .5.1.7.1c.6 0 1.2-.2 1.7-.5c.5-.3.8-.7 1.1-1.2c.3-.6.4-1.2.4-1.9c0-.7-.1-1.3-.3-1.7c-.1-.5-.4-.8-.7-1c-.4-.3-.7-.4-1.2-.4c-.4 0-.8.2-1.1.4c-.4.2-.7.5-.9.8c-.02.04-.1 0-.1 0l.1-1l-.1-.1l-1.9.2l-.1.4l1.1.3v7.6l-1.1.2v.5h3.2v-.5zm6.5-2.1c.5 0 .9 0 1.3-.2c.4-.2.7-.4 1-.7l-.2-.4c-.2.2-.5.4-.8.4c-.2.1-.5.2-.8.2c-.5 0-.8-.2-1.2-.4c-.3-.3-.5-.6-.7-1c-.1-.4-.2-.9-.2-1.3l3.5-.1c.1-.1.1-.3.1-.5c.1-.2.1-.3.1-.4c0-.8-.2-1.3-.5-1.7c-.4-.4-.8-.6-1.4-.6c-.4 0-.9.2-1.3.4c-.5.3-.8.7-1.1 1.2c-.3.5-.4 1.2-.4 1.8c0 .8.1 1.4.3 1.9c.3.5.6.8 1 1.1c.4.2.8.3 1.3.3zm-.1-6.1c.3 0 .6.1.8.4c.2.3.3.6.3 1.1v.5l-2.6.2c0-.5.1-.9.2-1.2c.2-.3.3-.6.6-.8c.2-.1.4-.2.7-.2zm6.2 5.5l-1-.2s-.02-4.28 0-4.3c.3-.3.5-.5.8-.6c.3-.1.6-.2.9-.2c.4 0 .7.1.9.4c.2.2.4.6.4 1.2c-.04-.04 0 3.5 0 3.5l-1.1.2v.4h3l.1-.4l-1.1-.2s.02-3.77 0-3.8c0-.7-.1-1.2-.4-1.6c-.3-.3-.7-.5-1.3-.5c-.4 0-.8.1-1.3.4c-.4.2-.7.5-.9.8c-.05-.02-.1 0-.1 0l.1-1l-.1-.1l-2 .2v.4l1.1.3v4.9l-1.1.2l-.1.4h3.2v-.4zm7.8-5.2l2.1 5.8l.7-.1l2-5.7l.8-.3l.1-.4h-2.6l-.1.4l1.2.3l-1.6 4.4l-1.5-4.4l1-.3l.1-.4h-3v.4l.8.3zm9.3 5.8c.5 0 1-.1 1.4-.4c.5-.3.8-.7 1.1-1.2c.3-.5.4-1.1.4-1.8c0-.6-.1-1.2-.3-1.7c-.3-.5-.6-.9-1-1.2c-.4-.3-.9-.4-1.5-.4c-.5 0-1 .1-1.5.4c-.5.3-.8.7-1.1 1.2c-.3.6-.4 1.2-.4 1.9c0 .6.1 1.2.3 1.7c.3.5.6.9 1 1.1c.5.3 1 .4 1.6.4zm-.2-6.1c.5 0 .8.2 1.1.5c.3.3.6.7.7 1.2c.2.4.3.9.3 1.4c0 .5-.1.9-.2 1.2c-.2.4-.4.7-.6.9c-.3.2-.5.3-.9.3c-.4 0-.8-.1-1.1-.4c-.4-.3-.6-.7-.7-1.2c-.2-.4-.3-1-.3-1.5c0-.4.1-.8.2-1.2c.2-.4.3-.7.6-.9c.3-.2.6-.3.9-.3zm6.7 6.1c.5 0 1-.1 1.5-.4c.4-.3.8-.7 1-1.2c.3-.5.4-1.1.4-1.8c0-.6-.1-1.2-.3-1.7c-.2-.5-.5-.9-1-1.2c-.4-.3-.9-.4-1.4-.4c-.6 0-1.1.1-1.5.4c-.5.3-.9.7-1.2 1.2c-.2.6-.4 1.2-.4 1.9c0 .6.1 1.2.4 1.7c.2.5.6.9 1 1.1c.4.3.9.4 1.5.4zm-.1-6.1c.4 0 .8.2 1.1.5c.3.3.5.7.7 1.2c.1.4.2.9.2 1.4c0 .5-.1.9-.2 1.2c-.1.4-.3.7-.6.9c-.2.2-.5.3-.8.3c-.5 0-.9-.1-1.2-.4c-.3-.3-.5-.7-.7-1.2c-.2-.4-.2-1-.2-1.5c0-.4 0-.8.2-1.2c.1-.4.3-.7.5-.9c.3-.2.6-.3 1-.3zm7.6 5.5l-1.7-.2v-2.8c0-.4.1-.7.3-1.1c.1-.3.2-.5.4-.7c.2-.2.4-.3.6-.3c.2 0 .5.1.8.4c.1-.1.2-.2.3-.4c.1-.1.1-.2.1-.3c0-.2-.1-.4-.2-.5c-.2-.2-.4-.2-.6-.2c-.2 0-.5.1-.7.2c-.2.2-.4.4-.6.7c-.2.3-.3.7-.5 1.1c.04.02-.1 0-.1 0l.1-1.8l-.1-.1l-1.9.2v.4l1.1.3v4.9l-1.1.2l-.1.4h3.8l.1-.4zm7 2.7l-1.1-.2s-.03-6.92 0-6.9c.2-.3.5-.5.7-.7c.3-.1.5-.2.8-.2c.6 0 1 .2 1.3.7c.2.5.4 1.2.4 2.1c0 .5-.1.9-.2 1.3c-.2.4-.4.7-.7.9c-.2.2-.5.3-.9.3c-.3 0-.5-.1-.7-.1c-.1 0-.3 0-.5-.1l.1.7c.3 0 .5.1.7.1c.6 0 1.2-.2 1.7-.5c.5-.3.8-.7 1.1-1.2c.3-.6.4-1.2.4-1.9c0-.7-.1-1.3-.3-1.7c-.1-.5-.4-.8-.7-1c-.4-.3-.7-.4-1.2-.4c-.4 0-.8.2-1.2.4c-.3.2-.6.5-.8.8c-.03.04-.1 0-.1 0l.1-1l-.1-.1l-1.9.2l-.1.4l1.1.3v7.6l-1.1.2v.5h3.1l.1-.5zm7.7-2.7l-1.7-.2s-.02-2.77 0-2.8c0-.4.1-.7.3-1.1c.1-.3.2-.5.4-.7c.2-.2.4-.3.6-.3c.2 0 .5.1.8.4c.1-.1.2-.2.3-.4c.1-.1.1-.2.1-.3c0-.2-.1-.4-.2-.5c-.2-.2-.4-.2-.6-.2c-.2 0-.5.1-.7.2c-.2.2-.4.4-.6.7c-.2.3-.3.7-.5 1.1c.04.02-.1 0-.1 0l.1-1.8l-.1-.1l-1.9.2v.4l1.1.3v4.9l-1.1.2l-.1.4h3.8l.1-.4zm3-7.6c.2 0 .4-.1.5-.2c.1-.1.2-.3.2-.6c0-.2-.1-.4-.2-.5c-.1-.1-.3-.2-.5-.2c-.2 0-.3.1-.4.2c-.1.1-.2.3-.2.5c0 .3.1.5.2.6c.1.1.2.2.4.2zm1.7 8l.1-.4l-1.2-.2v-5.8l-.1-.1l-1.9.2v.4l1.1.3v5l-1.1.2l-.1.4h3.2zm4.1-.4l-1.1-.2v-4.3c.3-.3.6-.5.8-.6c.3-.1.6-.2.9-.2c.4 0 .7.1.9.4c.3.2.4.6.4 1.2v3.5l-1 .2l-.1.4h3l.1-.4l-1-.2s-.05-3.77 0-3.8c0-.7-.2-1.2-.5-1.6c-.3-.3-.7-.5-1.2-.5c-.5 0-.9.1-1.3.4c-.4.2-.8.5-1 .8c-.02-.02-.1 0-.1 0l.1-1l-.1-.1l-1.9.2l-.1.4l1.2.3v4.9l-1.2.2v.4h3.1l.1-.4zm5.5-1.4c-.1.7.1 1.2.3 1.5c.2.3.6.5 1.1.5c.3 0 .7-.1 1-.3c.3-.2.6-.4.8-.7l-.1-.4l-.2.2c-.1.1-.3.1-.5.2c-.1.1-.3.1-.5.1c-.2 0-.4 0-.5-.1c-.2-.1-.3-.3-.4-.5c0-.2-.1-.5-.1-.9c.03-.05.1-3.4.1-3.4h2v-.5h-2v-1.7h-.4c-.2.5-.4.9-.6 1.2c-.3.3-.6.5-.9.7c-.05-.01 0 .3 0 .3h.9s-.05 3.79 0 3.8zm8.8 2c.5 0 .9 0 1.3-.2c.4-.2.7-.4 1-.7l-.1-.4c-.3.2-.6.4-.8.4c-.3.1-.5.2-.8.2c-.5 0-.9-.2-1.2-.4c-.3-.3-.6-.6-.7-1c-.2-.4-.2-.9-.3-1.3l3.6-.1c0-.1.1-.3.1-.5v-.4c0-.8-.1-1.3-.5-1.7c-.3-.4-.8-.6-1.3-.6c-.5 0-1 .2-1.4.4c-.4.3-.8.7-1.1 1.2c-.2.5-.4 1.2-.4 1.8c0 .8.1 1.4.4 1.9c.2.5.5.8.9 1.1c.4.2.9.3 1.3.3zm-.1-6.1c.4 0 .7.1.9.4c.2.3.3.6.3 1.1c0 .3 0 .4-.1.5l-2.5.2c0-.5 0-.9.2-1.2c.1-.3.3-.6.5-.8c.2-.1.5-.2.7-.2zm6.3 5.5l-1.1-.2s.02-4.28 0-4.3c.3-.3.6-.5.9-.6c.2-.1.5-.2.9-.2c.3 0 .6.1.9.4c.2.2.3.6.3 1.2v3.5l-1 .2l-.1.4h3l.1-.4l-1-.2s-.03-3.77 0-3.8c0-.7-.2-1.2-.5-1.6c-.3-.3-.7-.5-1.2-.5c-.5 0-.9.1-1.3.4c-.4.2-.8.5-1 .8c0-.02-.1 0-.1 0l.1-1l-.1-.1l-1.9.2l-.1.4l1.2.3v4.9l-1.2.2v.4h3.1l.1-.4zm9.3.6c.5 0 .9-.1 1.2-.3c.4-.2.7-.5.9-.8c.02-.03.1 0 .1 0c0 0-.01.02 0 0c0 .3.1.6.2.8c.2.2.5.3.8.3h.4c.2-.1.3-.1.5-.2l.1-.4s-.44-.09-.4-.1c-.2 0-.3-.1-.4-.1l-.3-.3c0-.2-.1-.4-.1-.7c.04 0 0-7.8 0-7.8l-.1-.1l-1.9.2v.4l1.1.3v1.5l.1 1s-.07-.03-.1 0c-.1-.1-.3-.2-.6-.3c-.2-.1-.5-.1-.7-.1c-.5 0-1 .2-1.5.5c-.5.3-.9.7-1.2 1.3c-.3.5-.4 1.1-.4 1.8c0 .7.1 1.2.3 1.7c.2.4.5.8.8 1c.4.3.8.4 1.2.4zm.4-6.1c.3 0 .6.1 1 .2c.3.2.5.4.7.7v3.6c-.2.2-.4.4-.7.6c-.3.2-.6.3-.9.3c-.6 0-1-.3-1.4-.8c-.3-.4-.4-1.1-.4-2c0-.5 0-1 .2-1.4c.1-.4.3-.7.6-.9c.3-.2.6-.3.9-.3zm6-2.1c.2 0 .3-.1.4-.2c.1-.1.2-.3.2-.6c0-.2-.1-.4-.2-.5c-.1-.1-.3-.2-.4-.2c-.2 0-.4.1-.5.2c-.1.1-.2.3-.2.5c0 .3.1.5.2.6c.1.1.3.2.5.2zm1.7 8v-.4l-1.1-.2v-5.8l-.1-.1l-1.9.2l-.1.4l1.1.3v5l-1.1.2l-.1.4h3.3zm3.3 2.9c.5 0 1.1-.2 1.6-.4c.5-.2.9-.5 1.2-.9c.3-.4.4-.8.4-1.2c0-.4 0-.7-.2-.9c-.2-.2-.4-.3-.7-.3c-.2-.1-.6-.1-1-.1h-1.2c-.4 0-.7-.1-.9-.2c-.2-.1-.3-.2-.3-.4c0-.1 0-.2.1-.3c.1-.1.2-.3.4-.4c0 0 .1 0 .3.1h.4c.3 0 .7-.1 1-.3c.4-.2.7-.4.9-.8c.3-.3.4-.7.4-1.1c0-.2-.1-.4-.1-.6c-.1-.3-.2-.5-.3-.6c.05.01.1-.1.1-.1l1 .3h.1l.2-.7s-.07-.11-.1-.1h-.7c-.4.1-.7.1-.9.1c-.4-.3-.9-.5-1.4-.5c-.4 0-.8.1-1.1.4c-.4.2-.7.4-.9.8c-.2.3-.3.7-.3 1.1c0 .3.1.6.2.8c.1.3.2.5.4.7c.2.2.4.3.5.3v.1c-.3.1-.6.3-.8.5c-.2.3-.3.5-.3.6c0 .2 0 .4.2.6c.1.1.3.3.5.4c-.4.2-.7.4-.9.6c-.2.2-.4.5-.4.8c0 .4.1.7.4.9c.2.3.5.5.9.6c.4.1.8.2 1.3.2zm.1-8.9c.3 0 .5.1.7.3c.2.1.4.4.5.7c.1.3.1.6.1.9c0 .5-.1.9-.3 1.1c-.2.3-.5.4-.8.4c-.3 0-.5-.1-.7-.2c-.2-.2-.4-.4-.5-.7c-.1-.3-.2-.6-.2-.9c0-.5.1-.9.3-1.2c.2-.3.5-.4.9-.4zm.6 5.9c.4 0 .8 0 1 .1c.2.1.4.1.5.3c.1.1.1.3.1.5c0 .3-.1.6-.3.8c-.1.2-.4.4-.6.5c-.3.1-.6.1-.9.1c-1.4 0-2.1-.4-2.1-1.3c0-.2.1-.4.2-.6l.3-.3l.2-.1h1.6zm4.9-7.9c.2 0 .4-.1.5-.2c.1-.1.2-.3.2-.6c0-.2-.1-.4-.2-.5c-.1-.1-.3-.2-.5-.2c-.1 0-.3.1-.4.2c-.1.1-.2.3-.2.5c0 .3.1.5.2.6c.1.1.3.2.4.2zm1.7 8l.1-.4l-1.1-.2v-5.8l-.2-.1l-1.9.2v.4l1.1.3v5l-1.1.2l-.1.4h3.2zm1.7-1.8c0 .7.1 1.2.4 1.5c.2.3.6.5 1 .5c.4 0 .7-.1 1.1-.3c.3-.2.6-.4.8-.7l-.1-.4l-.2.2c-.2.1-.3.1-.5.2c-.1.1-.3.1-.5.1c-.2 0-.4 0-.6-.1c-.1-.1-.2-.3-.3-.5c0-.2-.1-.5-.1-.9c.01-.05 0-3.4 0-3.4h2.1v-.5h-2.1v-1.7h-.3c-.2.5-.4.9-.7 1.2c-.2.3-.5.5-.9.7c.03-.01 0 .3 0 .3h1s-.07 3.79-.1 3.8zm5.4 2c.4 0 .7-.1 1-.2c.3-.1.5-.3.7-.4c.2-.2.3-.4.4-.5c-.02-.03 0 0 0 0c0 0 .04.08 0 .1c0 .2.1.5.3.7c.2.2.4.3.8.3c.1 0 .2-.1.3-.1c.1 0 .2 0 .4-.1c-.01.05.1 0 .1 0l.1-.4l-.4-.1c-.2 0-.4-.1-.5-.2c-.1-.1-.2-.2-.2-.4c0-.1-.1-.3-.1-.6v-2.5c0-.8-.1-1.4-.4-1.7c-.3-.4-.7-.6-1.4-.6c-.3 0-.7.1-1 .3c-.4.1-.7.3-.9.5c-.3.2-.4.5-.4.7c0 .3.1.5.3.6c.1 0 .3.1.6.1c0-.4 0-.7.1-.9c0-.3.1-.4.2-.6c.2-.1.4-.1.6-.1c.5 0 .9.2 1.1.5c.2.4.3.9.3 1.6v.4c-.8.1-1.4.2-1.9.4c-.5.2-.9.4-1.2.8c-.2.3-.4.6-.4 1.1c0 .2.1.5.2.7c.2.2.4.3.6.4c.2.2.5.2.7.2zm2-1.5c-.1.2-.3.4-.6.6c-.3.1-.5.2-.9.2c-.2 0-.3 0-.5-.1c-.1-.1-.2-.2-.3-.4c-.1-.1-.1-.3-.1-.4c0-.9.8-1.4 2.4-1.6v1.7zm4.1 1.5c.3 0 .6-.1.9-.2c.3-.1.5-.3.7-.4c.2-.2.3-.4.4-.5c0-.03.1 0 .1 0c0 0-.05.08 0 .1c0 .2 0 .5.2.7c.2.2.4.3.8.3c.1 0 .2-.1.3-.1c.1 0 .3 0 .4-.1c0 .05.2 0 .2 0v-.4l-.4-.1c-.2 0-.4-.1-.5-.2c-.1-.1-.2-.2-.2-.4v-3.1c0-.8-.2-1.4-.5-1.7c-.3-.4-.7-.6-1.3-.6c-.4 0-.8.1-1.1.3c-.4.1-.7.3-.9.5c-.2.2-.4.5-.4.7c0 .3.1.5.3.6c.1 0 .3.1.6.1c0-.4 0-.7.1-.9c0-.3.1-.4.3-.6c.1-.1.3-.1.5-.1c.5 0 .9.2 1.1.5c.2.4.3.9.3 1.6v.4c-.7.1-1.4.2-1.9.4c-.5.2-.9.4-1.2.8c-.2.3-.3.6-.3 1.1c0 .2 0 .5.2.7c.1.2.3.3.5.4c.2.2.5.2.8.2zm1.9-1.5c-.1.2-.3.4-.6.6c-.2.1-.5.2-.9.2c-.2 0-.3 0-.5-.1c-.1-.1-.2-.2-.3-.4c-.1-.1-.1-.3-.1-.4c0-.9.8-1.4 2.4-1.6v1.7zm5.8 1.3l.1-.4l-1.2-.2v-8.8l-.1-.1l-1.9.2l-.1.3l1.2.3v8.1l-1.2.2v.4h3.2z" stroke="none" fill="#000"/></g><g id="Polygon18487"><path d="m7.8 89h1.5v7c0 3.9-1.7 5.3-4.4 5.3c-1.5 0-2.9-.7-3.7-2.2l1.3-.7c.5 1 1.5 1.5 2.4 1.5c1.8 0 2.9-1 2.9-3.8v-.3c-.6 1-1.7 1.5-2.9 1.5C2.6 97.3.8 95.6.8 93c0-2.6 1.8-4.3 4.1-4.3c1.2 0 2.3.6 2.9 1.5V89zm0 4c0-1.8-1.4-2.8-2.8-2.8c-1.5 0-2.7 1.2-2.7 2.8c0 1.6 1.2 2.9 2.7 2.9c1.5 0 2.8-1.1 2.8-2.9zm11.9.7H13c.2 1.4 1.3 2.2 2.7 2.2c1 0 1.9-.5 2.4-1.3l1.3.5c-.7 1.5-2.2 2.2-3.8 2.2c-2.3 0-4.2-1.7-4.2-4.3c0-2.6 1.9-4.3 4.2-4.3c2.4 0 4.1 1.7 4.1 4.3v.7zm-1.5-1.3c-.2-1.4-1.2-2.2-2.6-2.2c-1.4 0-2.3.7-2.6 2.2h5.2zm9-3.4h1.6l-3.4 8.1h-1.5L20.5 89h1.6l2.6 6.2l2.5-6.2zm8.4.1l-.2 1.4c-.4-.2-.9-.3-1.2-.3c-1.6 0-2.3 1.8-2.3 3.9c.04.03 0 3 0 3h-1.5V89h1.5s.04 1.81 0 1.8c.5-1.4 1.2-2.1 2.3-2.1c.6 0 1.2.2 1.4.4zm7.7-.1h1.6v8.1h-1.6s.03-1.43 0-1.4c-.5 1-1.7 1.6-3 1.6c-2.1 0-4-1.8-4-4.3c0-2.4 1.8-4.3 4.1-4.3c1.2 0 2.4.6 2.9 1.5c.03.03 0-1.2 0-1.2zm0 4c0-1.7-1.4-2.8-2.8-2.8c-1.4 0-2.6 1.3-2.6 2.8c0 1.6 1.2 2.9 2.7 2.9c1.4 0 2.7-1.2 2.7-2.9zM54 89h1.5v8.1H54s-.05-1.43 0-1.4c-.6 1-1.7 1.6-3 1.6c-2.2 0-4-1.8-4-4.3c0-2.4 1.7-4.3 4-4.3c1.3 0 2.4.6 3 1.5c-.05.03 0-1.2 0-1.2zm0 4c0-1.7-1.5-2.8-2.8-2.8c-1.5 0-2.7 1.3-2.7 2.8c0 1.6 1.2 2.9 2.7 2.9c1.4 0 2.8-1.2 2.8-2.9zm10.6-4h1.5v7c0 3.9-1.7 5.3-4.4 5.3c-1.5 0-2.9-.7-3.7-2.2l1.3-.7c.5 1 1.5 1.5 2.4 1.5c1.8 0 2.9-1 2.9-3.8v-.3c-.6 1-1.7 1.5-2.9 1.5c-2.3 0-4.1-1.7-4.1-4.3c0-2.6 1.8-4.3 4.1-4.3c1.2 0 2.3.6 2.9 1.5V89zm0 4c0-1.8-1.4-2.8-2.8-2.8c-1.5 0-2.7 1.2-2.7 2.8c0 1.6 1.2 2.9 2.7 2.9c1.5 0 2.8-1.1 2.8-2.9zm10.6-8.5h1.6v12.6h-1.6s.03-1.25 0-1.3c-.5 1-1.7 1.5-2.9 1.5c-2.2 0-4.1-1.7-4.1-4.3c0-2.6 1.9-4.3 4.1-4.3c1.2 0 2.4.6 2.9 1.5c.03.03 0-5.7 0-5.7zm0 8.5c0-1.8-1.4-2.8-2.8-2.8c-1.4 0-2.6 1.2-2.6 2.8c0 1.6 1.2 2.9 2.6 2.9c1.5 0 2.8-1.1 2.8-2.9zm8.1 0c0-2.6 1.9-4.3 4.3-4.3c2.3 0 4.2 1.7 4.2 4.3c0 2.6-1.9 4.3-4.2 4.3c-2.4 0-4.3-1.7-4.3-4.3zm7 0c0-1.7-1.2-2.8-2.7-2.8c-1.5 0-2.8 1.1-2.8 2.8c0 1.7 1.3 2.9 2.8 2.9c1.5 0 2.7-1.2 2.7-2.9zm16.5-.6c.02 0 0 4.7 0 4.7h-1.5v-4.6c0-1.4-.8-2.3-1.9-2.3c-1.5 0-2.3 1-2.3 2.8c.05.03 0 4.1 0 4.1h-1.5s.03-4.61 0-4.6c0-1.4-.7-2.3-1.8-2.3c-1.2 0-2.3.8-2.3 2.5c-.02 0 0 4.4 0 4.4H94V89h1.5s-.02 1.21 0 1.2c.4-.9 1.4-1.5 2.6-1.5c1.2 0 2.2.7 2.7 1.8c.8-1.5 2-1.8 2.9-1.8c2 0 3.1 1.4 3.1 3.7zm13.4-7.9h1.6v12.6h-1.6s.04-1.25 0-1.3c-.5 1-1.7 1.5-2.9 1.5c-2.2 0-4.1-1.7-4.1-4.3c0-2.6 1.9-4.3 4.1-4.3c1.2 0 2.4.6 2.9 1.5c.04.03 0-5.7 0-5.7zm0 8.5c0-1.8-1.4-2.8-2.7-2.8c-1.5 0-2.7 1.2-2.7 2.8c0 1.6 1.2 2.9 2.7 2.9c1.4 0 2.7-1.1 2.7-2.9zm11.9.7h-6.6c.2 1.4 1.2 2.2 2.6 2.2c1 0 1.9-.5 2.4-1.3l1.3.5c-.7 1.5-2.1 2.2-3.7 2.2c-2.3 0-4.2-1.7-4.2-4.3c0-2.6 1.9-4.3 4.2-4.3c2.3 0 4 1.7 4 4.3v.7zm-1.5-1.3c-.2-1.4-1.2-2.2-2.5-2.2c-1.4 0-2.4.7-2.6 2.2h5.1zm13.3-3.3l-.2 1.4c-.5-.2-.9-.3-1.2-.3c-1.7 0-2.3 1.8-2.3 3.9v3h-1.5V89h1.5s-.01 1.81 0 1.8c.4-1.4 1.2-2.1 2.3-2.1c.6 0 1.2.2 1.4.4zm7.7-.1h1.5v8.1h-1.5s-.02-1.43 0-1.4c-.6 1-1.7 1.6-3 1.6c-2.1 0-4-1.8-4-4.3c0-2.4 1.8-4.3 4.1-4.3c1.2 0 2.3.6 2.9 1.5c-.02.03 0-1.2 0-1.2zm0 4c0-1.7-1.4-2.8-2.8-2.8c-1.5 0-2.7 1.3-2.7 2.8c0 1.6 1.2 2.9 2.7 2.9c1.5 0 2.8-1.2 2.8-2.9zm12.7 0c0 2.6-1.8 4.3-4.1 4.3c-1.2 0-2.4-.5-2.9-1.5v5.3h-1.5V89h1.5v1.2c.5-.9 1.7-1.5 2.9-1.5c2.2 0 4.1 1.8 4.1 4.3zm-1.6.1c0-1.7-1.1-2.9-2.6-2.9c-1.5 0-2.8 1.1-2.8 2.9c0 1.7 1.4 2.8 2.8 2.8c1.5 0 2.6-1.2 2.6-2.8zm12.2-.1c0 2.6-1.8 4.3-4 4.3c-1.3 0-2.4-.5-3-1.5c.03.05 0 5.3 0 5.3h-1.5V89h1.5s.03 1.23 0 1.2c.6-.9 1.8-1.5 2.9-1.5c2.3 0 4.1 1.8 4.1 4.3zm-1.5.1c0-1.7-1.2-2.9-2.7-2.9c-1.5 0-2.8 1.1-2.8 2.9c0 1.7 1.5 2.8 2.8 2.8c1.5 0 2.7-1.2 2.7-2.8zm3.1-.1c0-2.6 1.9-4.3 4.3-4.3c2.3 0 4.2 1.7 4.2 4.3c0 2.6-1.9 4.3-4.2 4.3c-2.4 0-4.3-1.7-4.3-4.3zm7 0c0-1.7-1.2-2.8-2.7-2.8c-1.5 0-2.8 1.1-2.8 2.8c0 1.7 1.3 2.9 2.8 2.9c1.5 0 2.7-1.2 2.7-2.9zm8.9-3.9l-.2 1.4c-.5-.2-.9-.3-1.2-.3c-1.7 0-2.3 1.8-2.3 3.9v3h-1.5V89h1.5v1.8c.4-1.4 1.2-2.1 2.3-2.1c.6 0 1.2.2 1.4.4zm5.5-.1v1.3h-1.8v6.8h-1.5v-6.8h-1.5V89h1.5v-3.1h1.5v3.1h1.8zm7.9 0h1.5v8.1h-1.5v-1.4c-.5 1-1.7 1.6-3 1.6c-2.1 0-4-1.8-4-4.3c0-2.4 1.8-4.3 4.1-4.3c1.2 0 2.4.6 2.9 1.5V89zm0 4c0-1.7-1.4-2.8-2.8-2.8c-1.5 0-2.6 1.3-2.6 2.8c0 1.6 1.1 2.9 2.6 2.9c1.5 0 2.8-1.2 2.8-2.9zm10.7-4h1.5s-.02 6.99 0 7c0 3.9-1.8 5.3-4.5 5.3c-1.5 0-2.8-.7-3.6-2.2l1.3-.7c.5 1 1.4 1.5 2.3 1.5c1.8 0 3-1 3-3.8v-.3c-.6 1-1.8 1.5-3 1.5c-2.2 0-4-1.7-4-4.3c0-2.6 1.8-4.3 4-4.3c1.3 0 2.4.6 3 1.5c-.05.03 0-1.2 0-1.2zm0 4c0-1.8-1.5-2.8-2.8-2.8c-1.5 0-2.7 1.2-2.7 2.8c0 1.6 1.2 2.9 2.7 2.9c1.4 0 2.8-1.1 2.8-2.9zm11.8.7h-6.6c.2 1.4 1.2 2.2 2.6 2.2c1 0 2-.5 2.4-1.3l1.3.5c-.7 1.5-2.1 2.2-3.7 2.2c-2.3 0-4.2-1.7-4.2-4.3c0-2.6 1.9-4.3 4.2-4.3c2.3 0 4.1 1.7 4.1 4.3c0 .2-.1.5-.1.7zm-1.5-1.3c-.2-1.4-1.2-2.2-2.5-2.2c-1.4 0-2.4.7-2.6 2.2h5.1zm13.6-3.4h1.7l-3.4 8.1h-1.5l-3.4-8.1h1.6l2.5 6.2l2.5-6.2zm2.5 4c0-2.6 2-4.3 4.3-4.3c2.3 0 4.3 1.7 4.3 4.3c0 2.6-2 4.3-4.3 4.3c-2.3 0-4.3-1.7-4.3-4.3zm7 0c0-1.7-1.2-2.8-2.7-2.8c-1.5 0-2.7 1.1-2.7 2.8c0 1.7 1.2 2.9 2.7 2.9c1.5 0 2.7-1.2 2.7-2.9zm8.9-3.9l-.2 1.4c-.4-.2-.9-.3-1.2-.3c-1.6 0-2.3 1.8-2.3 3.9c.03.03 0 3 0 3h-1.5V89h1.5s.03 1.81 0 1.8c.4-1.4 1.2-2.1 2.3-2.1c.6 0 1.2.2 1.4.4zm14.4 3.3c.02 0 0 4.7 0 4.7h-1.5v-4.6c0-1.4-.8-2.3-1.9-2.3c-1.5 0-2.2 1-2.2 2.8c-.05.03 0 4.1 0 4.1H266s.03-4.61 0-4.6c0-1.4-.7-2.3-1.8-2.3c-1.2 0-2.3.8-2.3 2.5c-.02 0 0 4.4 0 4.4h-1.5V89h1.5s-.02 1.21 0 1.2c.4-.9 1.5-1.5 2.6-1.5c1.2 0 2.2.7 2.7 1.8c.8-1.5 2-1.8 2.9-1.8c2 0 3.1 1.4 3.1 3.7zm10.9-3.4v1.3h-1.8v6.8h-1.5v-6.8h-1.5V89h1.5v-3.1h1.5v3.1h1.8zm9.2 4.7h-6.6c.2 1.4 1.2 2.2 2.6 2.2c1 0 1.9-.5 2.4-1.3l1.3.5c-.7 1.5-2.1 2.2-3.7 2.2c-2.3 0-4.2-1.7-4.2-4.3c0-2.6 1.9-4.3 4.2-4.3c2.3 0 4 1.7 4 4.3v.7zm-1.5-1.3c-.2-1.4-1.2-2.2-2.5-2.2c-1.4 0-2.4.7-2.6 2.2h5.1zm14.5-3.4h1.5s.04 6.99 0 7c0 3.9-1.7 5.3-4.4 5.3c-1.5 0-2.9-.7-3.7-2.2l1.3-.7c.5 1 1.5 1.5 2.4 1.5c1.8 0 2.9-1 2.9-3.8v-.3c-.5 1-1.7 1.5-2.9 1.5c-2.2 0-4.1-1.7-4.1-4.3c0-2.6 1.9-4.3 4.1-4.3c1.2 0 2.4.6 2.9 1.5c.02.03 0-1.2 0-1.2zm0 4c0-1.8-1.4-2.8-2.8-2.8c-1.5 0-2.6 1.2-2.6 2.8c0 1.6 1.1 2.9 2.6 2.9c1.5 0 2.8-1.1 2.8-2.9zm11.9.7h-6.7c.3 1.4 1.3 2.2 2.7 2.2c1 0 1.9-.5 2.4-1.3l1.3.5c-.7 1.5-2.2 2.2-3.7 2.2c-2.4 0-4.2-1.7-4.2-4.3c0-2.6 1.8-4.3 4.2-4.3c2.3 0 4 1.7 4 4.3v.7zm-1.5-1.3c-.2-1.4-1.2-2.2-2.5-2.2c-1.4 0-2.4.7-2.7 2.2h5.2zm9-3.4h1.6l-3.4 8.1h-1.5L319 89h1.7l2.5 6.2l2.5-6.2zm10.7 4.7h-6.7c.3 1.4 1.3 2.2 2.7 2.2c1 0 1.9-.5 2.4-1.3l1.3.5c-.7 1.5-2.2 2.2-3.7 2.2c-2.4 0-4.2-1.7-4.2-4.3c0-2.6 1.8-4.3 4.2-4.3c2.3 0 4 1.7 4 4.3v.7zm-1.5-1.3c-.2-1.4-1.2-2.2-2.5-2.2c-1.4 0-2.4.7-2.6 2.2h5.1zm11.1 0c.04 0 0 4.7 0 4.7h-1.5s.02-4.61 0-4.6c0-1.4-.8-2.3-2-2.3c-1.1 0-2.5.7-2.5 2.5c.04 0 0 4.4 0 4.4h-1.5V89h1.5s.04 1.2 0 1.2c.5-1 1.9-1.5 2.8-1.5c2 0 3.3 1.4 3.2 3.7zm2.3 3.9c0-.7.5-1.1 1.1-1.1c.6 0 1.1.4 1.1 1.1c0 .6-.5 1-1.1 1c-.6 0-1.1-.4-1.1-1z" stroke="none" fill="#000"/></g><g id="Polygon18486"><path d="m5.3 64.9c-1.4 0-1.8.9-1.8 2c.02 0 0 1.1 0 1.1h1.9v1.3H3.5v6.8H2v-6.8H.4V68h1.6v-.9c0-2.1.9-3.6 3.1-3.6h.8v1.4s-.56.04-.6 0zm9.3 7.8H7.9c.3 1.4 1.3 2.2 2.7 2.2c1 0 1.9-.5 2.4-1.3l1.3.5c-.7 1.5-2.2 2.2-3.7 2.2c-2.4 0-4.2-1.7-4.2-4.3c0-2.6 1.8-4.3 4.2-4.3c2.3 0 4 1.7 4 4.3v.7zm-1.5-1.3c-.2-1.4-1.2-2.2-2.5-2.2c-1.4 0-2.4.7-2.6 2.2h5.1zm12.1.6c0 2.6-1.8 4.3-4.1 4.3c-1.1 0-2.3-.5-2.9-1.5c.03.05 0 1.3 0 1.3h-1.5V63.5h1.5s.03 5.73 0 5.7c.6-.9 1.7-1.5 3-1.5c2.2 0 4 1.7 4 4.3zm-1.5 0c0-1.6-1.2-2.8-2.7-2.8c-1.3 0-2.8 1-2.8 2.8c0 1.8 1.3 2.9 2.8 2.9c1.5 0 2.7-1.3 2.7-2.9zm8.9-3.9l-.2 1.4c-.5-.2-.9-.3-1.2-.3c-1.7 0-2.3 1.8-2.3 3.9v3h-1.5V68h1.5s-.01 1.81 0 1.8c.4-1.4 1.2-2.1 2.3-2.1c.6 0 1.2.2 1.4.4zM40 68h1.5v8.1H40s.02-1.25 0-1.3c-.5 1.1-1.8 1.5-2.7 1.5c-2 0-3.3-1.3-3.3-3.6c.02-.02 0-4.7 0-4.7h1.5s.04 4.64 0 4.6c0 1.4.9 2.3 2 2.3c1.1 0 2.5-.7 2.5-2.4c.02-.05 0-4.5 0-4.5zm10.6 0h1.5v8.1h-1.5s.03-1.43 0-1.4c-.5 1-1.7 1.6-3 1.6c-2.1 0-4-1.8-4-4.3c0-2.4 1.8-4.3 4.1-4.3c1.2 0 2.4.6 2.9 1.5c.03.03 0-1.2 0-1.2zm0 4c0-1.7-1.4-2.8-2.8-2.8c-1.4 0-2.6 1.3-2.6 2.8c0 1.6 1.2 2.9 2.7 2.9c1.4 0 2.7-1.2 2.7-2.9zm9.5-3.9l-.3 1.4c-.4-.2-.9-.3-1.2-.3c-1.6 0-2.3 1.8-2.3 3.9c.05.03 0 3 0 3h-1.5V68h1.5s.05 1.81 0 1.8c.5-1.4 1.3-2.1 2.3-2.1c.6 0 1.2.2 1.5.4zm1.2-3.2c0-.5.5-1 1-1c.6 0 1.1.5 1.1 1c0 .6-.5 1.1-1.1 1.1c-.5 0-1-.5-1-1.1zm.3 11.2V68h1.5v8.1h-1.5zm13.1-1.4h4.6v1.4h-7.2v-.7s4.31-5.16 4.3-5.2c.7-.8 1.2-1.8 1.2-2.3c0-1.1-.8-1.9-2-1.9c-1.3 0-2.1.7-2.2 1.7l-1.4-.3c.2-1.7 1.6-2.9 3.6-2.9c2.1 0 3.5 1.4 3.5 3.4c0 .9-.5 2.1-1.3 3l-3.1 3.8zm6.6-4.3c0-3.2.8-5.9 4.1-5.9c3.3 0 4.2 2.7 4.2 5.9c0 3.3-.9 5.9-4.2 5.9c-3.3 0-4.1-2.6-4.1-5.9zm6.7 0c0-2.4-.5-4.4-2.6-4.4c-2.1 0-2.6 2-2.6 4.4c0 2.4.5 4.5 2.6 4.5c2.1 0 2.6-2.1 2.6-4.5zm6 4.3h4.7v1.4h-7.2v-.7l4.3-5.2c.7-.8 1.2-1.8 1.2-2.3c0-1.1-.9-1.9-2.1-1.9c-1.2 0-2.1.7-2.2 1.7l-1.3-.3c.2-1.7 1.5-2.9 3.5-2.9c2.2 0 3.6 1.4 3.6 3.4c0 .9-.6 2.1-1.3 3c-.04-.02-3.2 3.8-3.2 3.8zm14.8-2.4v1.5h-1.6v2.3h-1.6v-2.3h-5.8v-.4l7.1-8.7h.3v7.6h1.6zm-6.5 0h3.3v-3.9l-3.3 3.9zm14.8-.3c0-2.6 1.9-4.3 4.3-4.3c2.3 0 4.3 1.7 4.3 4.3c0 2.6-2 4.3-4.3 4.3c-2.4 0-4.3-1.7-4.3-4.3zm7 0c0-1.7-1.2-2.8-2.7-2.8c-1.5 0-2.8 1.1-2.8 2.8c0 1.7 1.3 2.9 2.8 2.9c1.5 0 2.7-1.2 2.7-2.9zm11.2-.6v4.7h-1.5s-.02-4.61 0-4.6c0-1.4-.9-2.3-2-2.3c-1.1 0-2.5.7-2.5 2.5v4.4h-1.5V68h1.5v1.2c.5-1 1.8-1.5 2.7-1.5c2 0 3.3 1.4 3.3 3.7zm9-7.9h1.5v12.6h-1.5v-1.3c-.5 1-1.7 1.5-2.9 1.5c-2.2 0-4.1-1.7-4.1-4.3c0-2.6 1.8-4.3 4.1-4.3c1.2 0 2.4.6 2.9 1.5v-5.7zm0 8.5c0-1.8-1.4-2.8-2.8-2.8c-1.5 0-2.7 1.2-2.7 2.8c0 1.6 1.2 2.9 2.7 2.9c1.5 0 2.8-1.1 2.8-2.9zm11.9.7h-6.7c.2 1.4 1.3 2.2 2.7 2.2c1 0 1.9-.5 2.4-1.3l1.3.5c-.7 1.5-2.2 2.2-3.8 2.2c-2.3 0-4.2-1.7-4.2-4.3c0-2.6 1.9-4.3 4.2-4.3c2.4 0 4.1 1.7 4.1 4.3v.7zm-1.5-1.3c-.2-1.4-1.2-2.2-2.6-2.2c-1.3 0-2.3.7-2.6 2.2h5.2zm8.8-3.3l-.2 1.4c-.5-.2-.9-.3-1.2-.3c-1.6 0-2.3 1.8-2.3 3.9c.02.03 0 3 0 3h-1.5V68h1.5s.02 1.81 0 1.8c.4-1.4 1.2-2.1 2.3-2.1c.6 0 1.2.2 1.4.4zm8.1-.1v1.2l-5 5.5h5v1.4h-7.2v-1.2l5-5.5h-4.7V68h6.9zm1.4 4c0-2.6 2-4.3 4.3-4.3c2.3 0 4.3 1.7 4.3 4.3c0 2.6-2 4.3-4.3 4.3c-2.3 0-4.3-1.7-4.3-4.3zm7.1 0c0-1.7-1.3-2.8-2.8-2.8c-1.5 0-2.7 1.1-2.7 2.8c0 1.7 1.2 2.9 2.7 2.9c1.5 0 2.8-1.2 2.8-2.9zm11.3.7h-6.6c.2 1.4 1.2 2.2 2.6 2.2c1 0 1.9-.5 2.4-1.3l1.3.5c-.7 1.5-2.1 2.2-3.7 2.2c-2.3 0-4.2-1.7-4.2-4.3c0-2.6 1.9-4.3 4.2-4.3c2.3 0 4 1.7 4 4.3v.7zm-1.5-1.3c-.2-1.4-1.2-2.2-2.5-2.2c-1.4 0-2.4.7-2.6 2.2h5.1zm11 4.7h-2.1l-3.8-4v4h-1.5V63.5h1.5v7.3l2.9-2.8h2.1l-3.5 3.5l4.4 4.6zm13.5-8.1h1.5v8.1h-1.5v-1.3c-.5 1.1-1.8 1.5-2.7 1.5c-2.1 0-3.3-1.3-3.3-3.6c-.02-.02 0-4.7 0-4.7h1.5v4.6c0 1.4.8 2.3 2 2.3c1.1 0 2.5-.7 2.5-2.4V68zm3.8-3.1c0-.5.5-1 1.1-1c.6 0 1.1.5 1.1 1c0 .6-.5 1.1-1.1 1.1c-.6 0-1.1-.5-1.1-1.1zm.4 11.2V68h1.5v8.1h-1.5zm8-8.1v1.3h-1.7v6.8h-1.6v-6.8h-1.4V68h1.4v-3.1h1.6v3.1h1.7zm16 3.4c.04 0 0 4.7 0 4.7h-1.5v-4.6c0-1.4-.8-2.3-2-2.3c-1.1 0-2.5.7-2.5 2.5c.03 0 0 4.4 0 4.4h-1.5V68h1.5s.03 1.2 0 1.2c.5-1 1.9-1.5 2.7-1.5c2.1 0 3.4 1.4 3.3 3.7zm9-3.4h1.5v8.1h-1.5v-1.4c-.5 1-1.7 1.6-3 1.6c-2.1 0-4-1.8-4-4.3c0-2.4 1.8-4.3 4.1-4.3c1.2 0 2.4.6 2.9 1.5V68zm0 4c0-1.7-1.4-2.8-2.8-2.8c-1.5 0-2.6 1.3-2.6 2.8c0 1.6 1.1 2.9 2.6 2.9c1.5 0 2.8-1.2 2.8-2.9zm10.6-4h1.6v8.1h-1.6s.04-1.43 0-1.4c-.5 1-1.6 1.6-3 1.6c-2.1 0-4-1.8-4-4.3c0-2.4 1.8-4.3 4.1-4.3c1.2 0 2.4.6 2.9 1.5c.04.03 0-1.2 0-1.2zm0 4c0-1.7-1.4-2.8-2.7-2.8c-1.5 0-2.7 1.3-2.7 2.8c0 1.6 1.2 2.9 2.7 2.9c1.4 0 2.7-1.2 2.7-2.9zm9.5-3.9l-.3 1.4c-.4-.2-.9-.3-1.2-.3c-1.6 0-2.2 1.8-2.2 3.9c-.04.03 0 3 0 3h-1.6V68h1.6s-.04 1.81 0 1.8c.4-1.4 1.2-2.1 2.3-2.1c.5 0 1.1.2 1.4.4zm14.3-4.6h1.5v12.6H286v-1.3c-.6 1-1.7 1.5-2.9 1.5c-2.3 0-4.1-1.7-4.1-4.3c0-2.6 1.8-4.3 4.1-4.3c1.2 0 2.3.6 2.9 1.5v-5.7zm0 8.5c0-1.8-1.4-2.8-2.8-2.8c-1.5 0-2.7 1.2-2.7 2.8c0 1.6 1.2 2.9 2.7 2.9c1.5 0 2.8-1.1 2.8-2.9zm11.9.7h-6.7c.2 1.4 1.3 2.2 2.7 2.2c1 0 1.9-.5 2.4-1.3l1.3.5c-.7 1.5-2.2 2.2-3.8 2.2c-2.3 0-4.2-1.7-4.2-4.3c0-2.6 1.9-4.3 4.2-4.3c2.4 0 4.1 1.7 4.1 4.3v.7zm-1.5-1.3c-.2-1.4-1.2-2.2-2.6-2.2c-1.4 0-2.3.7-2.6 2.2h5.2zm10-3.4v1.2l-5 5.5h5v1.4h-7.1v-1.2l4.9-5.5h-4.7V68h6.9zm9.7 4.7h-6.6c.2 1.4 1.3 2.2 2.7 2.2c.9 0 1.9-.5 2.3-1.3l1.3.5c-.7 1.5-2.1 2.2-3.7 2.2c-2.3 0-4.2-1.7-4.2-4.3c0-2.6 1.9-4.3 4.2-4.3c2.3 0 4.1 1.7 4.1 4.3c0 .2-.1.5-.1.7zm-1.5-1.3c-.2-1.4-1.2-2.2-2.5-2.2c-1.4 0-2.4.7-2.6 2.2h5.1zm18 0c-.04 0 0 4.7 0 4.7H331s.04-4.61 0-4.6c0-1.4-.8-2.3-1.9-2.3c-1.2 0-2.5.7-2.5 2.5c-.04 0 0 4.4 0 4.4H325V68h1.6s-.04 1.2 0 1.2c.4-1 1.8-1.5 2.7-1.5c2 0 3.3 1.4 3.3 3.7zm2.2-6.5c0-.5.5-1 1.1-1c.5 0 1 .5 1 1c0 .6-.5 1.1-1 1.1c-.6 0-1.1-.5-1.1-1.1zm.3 11.2V68h1.5v8.1h-1.5zm11.8-3.4h-6.6c.2 1.4 1.3 2.2 2.7 2.2c1 0 1.9-.5 2.4-1.3l1.3.5c-.7 1.5-2.2 2.2-3.8 2.2c-2.3 0-4.2-1.7-4.2-4.3c0-2.6 1.9-4.3 4.2-4.3c2.3 0 4.1 1.7 4.1 4.3c0 .2 0 .5-.1.7zm-1.4-1.3c-.2-1.4-1.2-2.2-2.6-2.2c-1.4 0-2.3.7-2.6 2.2h5.2zM355 68h1.5v8.1H355s-.04-1.25 0-1.3c-.5 1.1-1.8 1.5-2.8 1.5c-2 0-3.3-1.3-3.2-3.6c-.04-.02 0-4.7 0-4.7h1.5s-.02 4.64 0 4.6c0 1.4.8 2.3 1.9 2.3c1.2 0 2.5-.7 2.6-2.4c-.04-.05 0-4.5 0-4.5zm14.5 0h1.7l-3.1 8.1h-1.3l-2.2-6l-2.2 6h-1.2L358 68h1.7l2.1 5.8l2.1-5.8h1.4l2.1 5.8l2.1-5.8zm10.8 4.7h-6.6c.2 1.4 1.2 2.2 2.6 2.2c1 0 1.9-.5 2.4-1.3l1.3.5c-.7 1.5-2.1 2.2-3.7 2.2c-2.4 0-4.2-1.7-4.2-4.3c0-2.6 1.8-4.3 4.2-4.3c2.3 0 4 1.7 4 4.3v.7zm-1.5-1.3c-.2-1.4-1.2-2.2-2.5-2.2c-1.4 0-2.4.7-2.6 2.2h5.1zm16.9-3.4h1.5v8.1h-1.5s-.05-1.43 0-1.4c-.6 1-1.7 1.6-3 1.6c-2.2 0-4-1.8-4-4.3c0-2.4 1.7-4.3 4-4.3c1.3 0 2.4.6 3 1.5c-.05.03 0-1.2 0-1.2zm0 4c0-1.7-1.5-2.8-2.8-2.8c-1.5 0-2.7 1.3-2.7 2.8c0 1.6 1.2 2.9 2.7 2.9c1.4 0 2.8-1.2 2.8-2.9zm10.6-4h1.5v8.1h-1.5s-.03-1.43 0-1.4c-.6 1-1.7 1.6-3 1.6c-2.2 0-4-1.8-4-4.3c0-2.4 1.7-4.3 4.1-4.3c1.2 0 2.3.6 2.9 1.5c-.03.03 0-1.2 0-1.2zm0 4c0-1.7-1.4-2.8-2.8-2.8c-1.5 0-2.7 1.3-2.7 2.8c0 1.6 1.2 2.9 2.7 2.9c1.5 0 2.8-1.2 2.8-2.9zm11.7-.6c-.02 0 0 4.7 0 4.7h-1.5s-.04-4.61 0-4.6c0-1.4-.9-2.3-2-2.3c-1.2 0-2.5.7-2.5 2.5c-.02 0 0 4.4 0 4.4h-1.5V68h1.5s-.02 1.2 0 1.2c.5-1 1.8-1.5 2.7-1.5c2 0 3.3 1.4 3.3 3.7zm11 .6c0 2.6-1.8 4.3-4 4.3c-1.3 0-2.4-.5-3-1.5c.04.05 0 5.3 0 5.3h-1.5V68h1.5s.04 1.23 0 1.2c.6-.9 1.8-1.5 2.9-1.5c2.3 0 4.1 1.8 4.1 4.3zm-1.5.1c0-1.7-1.2-2.9-2.7-2.9c-1.4 0-2.8 1.1-2.8 2.9c0 1.7 1.5 2.8 2.8 2.8c1.5 0 2.7-1.2 2.7-2.8zm10.1-4.1h1.5v8.1h-1.5v-1.4c-.5 1-1.7 1.6-3 1.6c-2.1 0-4-1.8-4-4.3c0-2.4 1.8-4.3 4.1-4.3c1.2 0 2.4.6 2.9 1.5V68zm0 4c0-1.7-1.4-2.8-2.8-2.8c-1.5 0-2.7 1.3-2.7 2.8c0 1.6 1.2 2.9 2.7 2.9c1.5 0 2.8-1.2 2.8-2.9zm11.5 4.1h-2l-3.8-4v4h-1.5V63.5h1.5v7.3l2.8-2.8h2.2l-3.5 3.5l4.3 4.6zm.9-.8c0-.7.5-1.1 1.1-1.1c.6 0 1.1.4 1.1 1.1c0 .6-.5 1-1.1 1c-.6 0-1.1-.4-1.1-1zm11.7.8v-12h1.6v12h-1.6zm11.8 0h-2l-3.8-4v4h-1.5V63.5h1.5v7.3l2.8-2.8h2.2l-3.5 3.5l4.3 4.6zm16.2-4.1c0 2.6-1.9 4.3-4.1 4.3c-1.2 0-2.4-.5-2.9-1.5c-.03.05 0 1.3 0 1.3h-1.6V63.5h1.6s-.03 5.73 0 5.7c.5-.9 1.7-1.5 2.9-1.5c2.2 0 4.1 1.7 4.1 4.3zm-1.6 0c0-1.6-1.2-2.8-2.7-2.8c-1.3 0-2.7 1-2.7 2.8c0 1.8 1.3 2.9 2.7 2.9c1.5 0 2.7-1.3 2.7-2.9zm11.4.7h-6.7c.2 1.4 1.3 2.2 2.7 2.2c1 0 1.9-.5 2.4-1.3l1.3.5c-.7 1.5-2.2 2.2-3.8 2.2c-2.3 0-4.2-1.7-4.2-4.3c0-2.6 1.9-4.3 4.2-4.3c2.4 0 4.1 1.7 4.1 4.3v.7zm-1.5-1.3c-.2-1.4-1.2-2.2-2.6-2.2c-1.3 0-2.3.7-2.6 2.2h5.2zm11.1 0v4.7h-1.5v-4.6c0-1.4-.8-2.3-2-2.3c-1.1 0-2.5.7-2.5 2.5c.01 0 0 4.4 0 4.4h-1.5V68h1.5v1.2c.5-1 1.8-1.5 2.7-1.5c2.1 0 3.3 1.4 3.3 3.7z" stroke="none" fill="#000"/></g><g id="Polygon18485"><path d="m13.8 43.1h1.7l-4.1 12h-1.3l-2.2-7.6l-2.2 7.6H4.4l-4.1-12h1.7l3.1 9.5l2.2-7.9h1.2l2.3 7.9l3-9.5zm2 7.9c0-2.6 1.9-4.3 4.2-4.3c2.3 0 4.3 1.7 4.3 4.3c0 2.6-2 4.3-4.3 4.3c-2.3 0-4.2-1.7-4.2-4.3zm7 0c0-1.7-1.3-2.8-2.8-2.8c-1.5 0-2.7 1.1-2.7 2.8c0 1.7 1.2 2.9 2.7 2.9c1.5 0 2.8-1.2 2.8-2.9zm11.1-.6c.05 0 0 4.7 0 4.7h-1.5s.03-4.61 0-4.6c0-1.4-.8-2.3-2-2.3c-1.1 0-2.5.7-2.5 2.5c.05 0 0 4.4 0 4.4h-1.5V47h1.5s.05 1.2 0 1.2c.5-1 1.9-1.5 2.8-1.5c2 0 3.3 1.4 3.2 3.7zm10.3 1.3h-6.7c.2 1.4 1.3 2.2 2.7 2.2c1 0 1.9-.5 2.4-1.3l1.3.5c-.7 1.5-2.2 2.2-3.8 2.2c-2.3 0-4.2-1.7-4.2-4.3c0-2.6 1.9-4.3 4.2-4.3c2.4 0 4.1 1.7 4.1 4.3v.7zm-1.5-1.3c-.2-1.4-1.2-2.2-2.6-2.2c-1.3 0-2.3.7-2.6 2.2h5.2zm11.1 0v4.7h-1.5v-4.6c0-1.4-.9-2.3-2-2.3c-1.1 0-2.5.7-2.5 2.5c.01 0 0 4.4 0 4.4h-1.5V47h1.5v1.2c.5-1 1.8-1.5 2.7-1.5c2.1 0 3.3 1.4 3.3 3.7zm16.6 1.3h-6.7c.2 1.4 1.3 2.2 2.7 2.2c1 0 1.9-.5 2.4-1.3l1.3.5c-.7 1.5-2.2 2.2-3.8 2.2c-2.3 0-4.2-1.7-4.2-4.3c0-2.6 1.9-4.3 4.2-4.3c2.4 0 4.1 1.7 4.1 4.3v.7zm-1.5-1.3c-.2-1.4-1.2-2.2-2.6-2.2c-1.3 0-2.3.7-2.6 2.2h5.2zm11.1 0v4.7h-1.5v-4.6c0-1.4-.8-2.3-2-2.3c-1.1 0-2.5.7-2.5 2.5c.01 0 0 4.4 0 4.4h-1.5V47h1.5v1.2c.5-1 1.8-1.5 2.7-1.5c2.1 0 3.3 1.4 3.3 3.7zm21-7.3h1.7l-4.1 12h-1.4l-2.1-7.6l-2.2 7.6h-1.4l-4-12h1.7l3 9.5l2.3-7.9h1.2l2.2 7.9l3.1-9.5zm10.2 8.6h-6.7c.2 1.4 1.3 2.2 2.7 2.2c1 0 1.9-.5 2.4-1.3l1.3.5c-.7 1.5-2.2 2.2-3.8 2.2c-2.3 0-4.2-1.7-4.2-4.3c0-2.6 1.9-4.3 4.2-4.3c2.4 0 4.1 1.7 4.1 4.3v.7zm-1.5-1.3c-.2-1.4-1.2-2.2-2.6-2.2c-1.3 0-2.3.7-2.6 2.2h5.2zm3.6 4.7V42.5h1.5v12.6h-1.5zM124 47v1.2l-5 5.5h5v1.4h-7.2v-1.2l5-5.5h-4.7V47h6.9zm1.8-3.1c0-.5.5-1 1.1-1c.6 0 1.1.5 1.1 1c0 .6-.5 1.1-1.1 1.1c-.6 0-1.1-.5-1.1-1.1zm.3 11.2V47h1.6v8.1h-1.6zm4-11.2c0-.5.5-1 1.1-1c.6 0 1.1.5 1.1 1c0 .6-.5 1.1-1.1 1.1c-.6 0-1.1-.5-1.1-1.1zM128 59.1v-1.4s.91-.04.9 0c1.4 0 1.6-1.2 1.5-2.1c.04-.02 0-8.6 0-8.6h1.6s-.04 8.6 0 8.6c0 2-.8 3.5-3 3.5h-1zm14.1-8.7c.03 0 0 4.7 0 4.7h-1.5v-4.6c0-1.4-.8-2.3-2-2.3c-1.1 0-2.5.7-2.5 2.5c.02 0 0 4.4 0 4.4h-1.5V47h1.5s.02 1.2 0 1.2c.5-1 1.8-1.5 2.7-1.5c2.1 0 3.3 1.4 3.3 3.7zm14.5-3.4h1.6l-3.4 8.1h-1.5l-3.4-8.1h1.7l2.5 6.2l2.5-6.2zm9.5 0h1.5v8.1h-1.5s-.05-1.43 0-1.4c-.6 1-1.7 1.6-3 1.6c-2.2 0-4-1.8-4-4.3c0-2.4 1.7-4.3 4-4.3c1.3 0 2.4.6 3 1.5c-.05.03 0-1.2 0-1.2zm0 4c0-1.7-1.5-2.8-2.8-2.8c-1.5 0-2.7 1.3-2.7 2.8c0 1.6 1.2 2.9 2.7 2.9c1.4 0 2.8-1.2 2.8-2.9zm11.7-.6c-.04 0 0 4.7 0 4.7h-1.6s.04-4.61 0-4.6c0-1.4-.8-2.3-1.9-2.3c-1.2 0-2.5.7-2.5 2.5c-.04 0 0 4.4 0 4.4h-1.6V47h1.6s-.04 1.2 0 1.2c.4-1 1.8-1.5 2.7-1.5c2 0 3.3 1.4 3.3 3.7zm16.7-7.3h1.6v12h-1.6v-5.2h-5.9v5.2H187v-12h1.6v5.3h5.9v-5.3zm3.8 7.9c0-2.6 2-4.3 4.3-4.3c2.3 0 4.3 1.7 4.3 4.3c0 2.6-2 4.3-4.3 4.3c-2.3 0-4.3-1.7-4.3-4.3zm7.1 0c0-1.7-1.3-2.8-2.8-2.8c-1.5 0-2.7 1.1-2.7 2.8c0 1.7 1.2 2.9 2.7 2.9c1.5 0 2.8-1.2 2.8-2.9zm10.1-4h1.5s-.02 6.99 0 7c0 3.9-1.8 5.3-4.5 5.3c-1.5 0-2.8-.7-3.6-2.2l1.3-.7c.5 1 1.4 1.5 2.3 1.5c1.8 0 3-1 3-3.8v-.3c-.6 1-1.8 1.5-2.9 1.5c-2.3 0-4.1-1.7-4.1-4.3c0-2.6 1.8-4.3 4-4.3c1.3 0 2.4.6 3 1.5c-.04.03 0-1.2 0-1.2zm0 4c0-1.8-1.5-2.8-2.8-2.8c-1.5 0-2.7 1.2-2.7 2.8c0 1.6 1.2 2.9 2.7 2.9c1.4 0 2.8-1.1 2.8-2.9zm11.8.7h-6.6c.2 1.4 1.3 2.2 2.7 2.2c.9 0 1.9-.5 2.3-1.3l1.3.5c-.7 1.5-2.1 2.2-3.7 2.2c-2.3 0-4.2-1.7-4.2-4.3c0-2.6 1.9-4.3 4.2-4.3c2.3 0 4.1 1.7 4.1 4.3c0 .2-.1.5-.1.7zm-1.5-1.3c-.2-1.4-1.2-2.2-2.5-2.2c-1.4 0-2.4.7-2.6 2.2h5.1zm3 2.3h1.4c0 .7.6 1.3 1.6 1.3c1.1 0 1.7-.5 1.7-1.2c0-.6-.5-.9-1.1-1l-1.2-.3c-1.3-.4-2.1-1-2.1-2.3c0-1.4 1.1-2.5 2.8-2.5c1.4 0 2.8.8 2.8 2.4h-1.5c0-.6-.6-1-1.3-1c-.8 0-1.3.5-1.3 1.1c0 .6.5.9 1.1 1l1.2.3c1.7.4 2.1 1.4 2.1 2.3c0 1.6-1.5 2.5-3.2 2.5c-1.4 0-2.9-.9-3-2.6zm7.7-1.7c0-2.6 2-4.3 4.4-4.3c1.2 0 2.4.6 3.1 1.3l-1 1c-.5-.5-1.2-.8-2.1-.8c-1.6 0-2.9 1.1-2.9 2.8c0 1.7 1.3 2.9 2.9 2.9c.9 0 1.6-.3 2.1-.9l1 1c-.7.8-1.9 1.3-3.1 1.3c-2.4 0-4.4-1.7-4.4-4.3zm16.9-.6c.03 0 0 4.7 0 4.7h-1.5v-4.6c0-1.4-.8-2.3-2-2.3c-1.1 0-2.5.7-2.5 2.5c.03 0 0 4.4 0 4.4h-1.5V42.5h1.5s.03 5.7 0 5.7c.5-1 1.9-1.5 2.7-1.5c2.1 0 3.4 1.4 3.3 3.7zm2 .6c0-2.6 2-4.3 4.3-4.3c2.3 0 4.3 1.7 4.3 4.3c0 2.6-2 4.3-4.3 4.3c-2.3 0-4.3-1.7-4.3-4.3zm7 0c0-1.7-1.2-2.8-2.7-2.8c-1.5 0-2.7 1.1-2.7 2.8c0 1.7 1.2 2.9 2.7 2.9c1.5 0 2.7-1.2 2.7-2.9zm3.1 0c0-2.6 2-4.3 4.3-4.3c2.3 0 4.3 1.7 4.3 4.3c0 2.6-2 4.3-4.3 4.3c-2.3 0-4.3-1.7-4.3-4.3zm7.1 0c0-1.7-1.3-2.8-2.8-2.8c-1.5 0-2.7 1.1-2.7 2.8c0 1.7 1.2 2.9 2.7 2.9c1.5 0 2.8-1.2 2.8-2.9zm3.6 4.1V42.5h1.5v12.6h-1.5zm10.7-4.1c.02.01 0-7.9 0-7.9h1.6v7.9c0 1.9 1.3 2.8 2.8 2.8c1.5 0 2.8-.9 2.8-2.8v-7.9h1.6v7.9c0 2.8-2 4.3-4.4 4.3c-2.4 0-4.4-1.5-4.4-4.3zm15.5-4v1.3h-1.8v6.8h-1.5v-6.8h-1.5V47h1.5v-3.1h1.5v3.1h1.8zm6.9.1l-.2 1.4c-.4-.2-.9-.3-1.2-.3c-1.6 0-2.3 1.8-2.3 3.9c.02.03 0 3 0 3h-1.5V47h1.5s.02 1.81 0 1.8c.4-1.4 1.2-2.1 2.3-2.1c.6 0 1.2.2 1.4.4zm9 4.6h-6.7c.2 1.4 1.3 2.2 2.7 2.2c1 0 1.9-.5 2.4-1.3l1.3.5c-.7 1.5-2.2 2.2-3.8 2.2c-2.3 0-4.2-1.7-4.2-4.3c0-2.6 1.9-4.3 4.2-4.3c2.4 0 4.1 1.7 4.1 4.3v.7zm-1.5-1.3c-.2-1.4-1.2-2.2-2.6-2.2c-1.3 0-2.3.7-2.6 2.2h5.2zm3 .6c0-2.6 2-4.3 4.4-4.3c1.3 0 2.4.6 3.1 1.3l-1 1c-.5-.5-1.2-.8-2.1-.8c-1.6 0-2.9 1.1-2.9 2.8c0 1.7 1.3 2.9 2.9 2.9c.9 0 1.6-.3 2.1-.9l1 1c-.7.8-1.8 1.3-3.1 1.3c-2.4 0-4.4-1.7-4.4-4.3zm17-.6c-.04 0 0 4.7 0 4.7h-1.6s.03-4.61 0-4.6c0-1.4-.8-2.3-1.9-2.3c-1.2 0-2.5.7-2.5 2.5c-.05 0 0 4.4 0 4.4h-1.6V42.5h1.6s-.05 5.7 0 5.7c.4-1 1.8-1.5 2.7-1.5c2 0 3.3 1.4 3.3 3.7zm6.3-3.4v1.3h-1.8v6.8h-1.5v-6.8h-1.5V47h1.5v-3.1h1.5v3.1h1.8zm11.9 0v1.3h-1.7v6.8h-1.5v-6.8h-1.5V47h1.5v-3.1h1.5v3.1h1.7zm7.6 0h1.6v8.1h-1.6s.04-1.25 0-1.3c-.4 1.1-1.8 1.5-2.7 1.5c-2 0-3.3-1.3-3.3-3.6c.04-.02 0-4.7 0-4.7h1.6s-.04 4.64 0 4.6c0 1.4.8 2.3 1.9 2.3c1.2 0 2.5-.7 2.5-2.4c.04-.05 0-4.5 0-4.5zm3.6 5.7h1.4c0 .7.6 1.3 1.6 1.3c1 0 1.7-.5 1.7-1.2c0-.6-.5-.9-1.2-1l-1.1-.3c-1.4-.4-2.1-1-2.1-2.3c0-1.4 1.1-2.5 2.8-2.5c1.3 0 2.8.8 2.8 2.4h-1.5c0-.6-.7-1-1.3-1c-.8 0-1.3.5-1.3 1.1c0 .6.5.9 1 1l1.2.3c1.7.4 2.2 1.4 2.2 2.3c0 1.6-1.5 2.5-3.2 2.5c-1.5 0-3-.9-3-2.6zm7.6 0h1.4c0 .7.6 1.3 1.6 1.3c1.1 0 1.7-.5 1.7-1.2c0-.6-.5-.9-1.2-1l-1.1-.3c-1.3-.4-2.1-1-2.1-2.3c0-1.4 1.1-2.5 2.8-2.5c1.4 0 2.8.8 2.8 2.4h-1.5c0-.6-.6-1-1.3-1c-.8 0-1.3.5-1.3 1.1c0 .6.5.9 1 1l1.3.3c1.6.4 2.1 1.4 2.1 2.3c0 1.6-1.5 2.5-3.2 2.5c-1.5 0-3-.9-3-2.6zm15.9-1h-6.6c.2 1.4 1.2 2.2 2.6 2.2c1 0 2-.5 2.4-1.3l1.3.5c-.7 1.5-2.1 2.2-3.7 2.2c-2.3 0-4.2-1.7-4.2-4.3c0-2.6 1.9-4.3 4.2-4.3c2.3 0 4.1 1.7 4.1 4.3c0 .2-.1.5-.1.7zm-1.5-1.3c-.2-1.4-1.2-2.2-2.5-2.2c-1.4 0-2.4.7-2.6 2.2h5.1zm11.2 0c-.04 0 0 4.7 0 4.7h-1.6s.04-4.61 0-4.6c0-1.4-.8-2.3-1.9-2.3c-1.2 0-2.5.7-2.5 2.5c-.04 0 0 4.4 0 4.4h-1.6V47h1.6s-.04 1.2 0 1.2c.4-1 1.8-1.5 2.7-1.5c2 0 3.3 1.4 3.3 3.7zm15.3-3.4h1.5v8.1h-1.5s-.03-1.43 0-1.4c-.6 1-1.7 1.6-3 1.6c-2.2 0-4-1.8-4-4.3c0-2.4 1.7-4.3 4.1-4.3c1.2 0 2.3.6 2.9 1.5c-.03.03 0-1.2 0-1.2zm0 4c0-1.7-1.4-2.8-2.8-2.8c-1.5 0-2.7 1.3-2.7 2.8c0 1.6 1.2 2.9 2.7 2.9c1.5 0 2.8-1.2 2.8-2.9zm12.7 0c0 2.6-1.9 4.3-4.1 4.3c-1.2 0-2.4-.5-2.9-1.5c-.02.05 0 5.3 0 5.3h-1.5V47h1.5s-.02 1.23 0 1.2c.5-.9 1.7-1.5 2.9-1.5c2.2 0 4.1 1.8 4.1 4.3zm-1.6.1c0-1.7-1.2-2.9-2.7-2.9c-1.4 0-2.7 1.1-2.7 2.9c0 1.7 1.4 2.8 2.7 2.8c1.5 0 2.7-1.2 2.7-2.8zm8.9-4l-.2 1.4c-.4-.2-.9-.3-1.2-.3c-1.6 0-2.3 1.8-2.3 3.9c.04.03 0 3 0 3h-1.5V47h1.5s.04 1.81 0 1.8c.5-1.4 1.2-2.1 2.3-2.1c.6 0 1.2.2 1.4.4zm1.3-3.2c0-.5.4-1 1-1c.6 0 1.1.5 1.1 1c0 .6-.5 1.1-1.1 1.1c-.6 0-1-.5-1-1.1zm.3 11.2V47h1.5v8.1h-1.5zm4.1 0V42.5h1.6v12.6h-1.6zm12.7-1.4h4.6v1.4h-7.2v-.7s4.31-5.16 4.3-5.2c.7-.8 1.2-1.8 1.2-2.3c0-1.1-.8-1.9-2.1-1.9c-1.2 0-2.1.7-2.1 1.7l-1.4-.3c.2-1.7 1.6-2.9 3.5-2.9c2.2 0 3.6 1.4 3.6 3.4c0 .9-.5 2.1-1.3 3l-3.1 3.8zm6.6-4.3c0-3.2.8-5.9 4.1-5.9c3.3 0 4.1 2.7 4.1 5.9c0 3.3-.8 5.9-4.1 5.9c-3.3 0-4.1-2.6-4.1-5.9zm6.7 0c0-2.4-.5-4.4-2.6-4.4c-2.1 0-2.6 2-2.6 4.4c0 2.4.5 4.5 2.6 4.5c2.1 0 2.6-2.1 2.6-4.5zm6 4.3h4.6v1.4h-7.1v-.7l4.3-5.2c.7-.8 1.2-1.8 1.2-2.3c0-1.1-.9-1.9-2.1-1.9c-1.2 0-2.1.7-2.2 1.7l-1.3-.3c.2-1.7 1.5-2.9 3.5-2.9c2.2 0 3.6 1.4 3.6 3.4c0 .9-.6 2.1-1.3 3c-.04-.02-3.2 3.8-3.2 3.8zm10-10.2v11.6h-1.5v-9.3l-2.4 1v-1.5l3.9-1.8zm17.1 8.2h-6.7c.2 1.4 1.3 2.2 2.7 2.2c1 0 1.9-.5 2.4-1.3l1.3.5c-.7 1.5-2.2 2.2-3.8 2.2c-2.3 0-4.2-1.7-4.2-4.3c0-2.6 1.9-4.3 4.2-4.3c2.4 0 4.1 1.7 4.1 4.3v.7zm-1.5-1.3c-.2-1.4-1.2-2.2-2.6-2.2c-1.3 0-2.3.7-2.6 2.2h5.2zm11.1 0v4.7h-1.5v-4.6c0-1.4-.8-2.3-2-2.3c-1.1 0-2.5.7-2.5 2.5c.01 0 0 4.4 0 4.4h-1.5V47h1.5v1.2c.5-1 1.8-1.5 2.7-1.5c2.1 0 3.3 1.4 3.3 3.7z" stroke="none" fill="#000"/></g><g id="Polygon18484"><path d="m1.5 30c.04.01 0-7.9 0-7.9h1.6s.03 7.91 0 7.9c0 1.9 1.3 2.8 2.8 2.8c1.5 0 2.8-.9 2.8-2.8c.03.01 0-7.9 0-7.9h1.6s.02 7.91 0 7.9c0 2.8-2 4.3-4.4 4.3c-2.3 0-4.4-1.5-4.4-4.3zM17 26v1.3h-1.8v6.8h-1.5v-6.8h-1.5V26h1.5v-3.1h1.5v3.1h1.8zm7 .1l-.3 1.4c-.4-.2-.9-.3-1.2-.3c-1.6 0-2.3 1.8-2.3 3.9c.05.03 0 3 0 3h-1.5V26h1.5s.05 1.81 0 1.8c.5-1.4 1.3-2.1 2.3-2.1c.6 0 1.2.2 1.5.4zm8.9 4.6h-6.7c.3 1.4 1.3 2.2 2.7 2.2c1 0 1.9-.5 2.4-1.3l1.3.5c-.7 1.5-2.2 2.2-3.7 2.2c-2.4 0-4.2-1.7-4.2-4.3c0-2.6 1.8-4.3 4.2-4.3c2.3 0 4 1.7 4 4.3v.7zm-1.5-1.3c-.2-1.4-1.2-2.2-2.5-2.2c-1.4 0-2.4.7-2.7 2.2h5.2zm3 .6c0-2.6 2.1-4.3 4.4-4.3c1.3 0 2.4.6 3.1 1.3l-.9 1c-.5-.5-1.3-.8-2.1-.8c-1.6 0-2.9 1.1-2.9 2.8c0 1.7 1.3 2.9 2.9 2.9c.8 0 1.6-.3 2.1-.9l.9 1c-.7.8-1.8 1.3-3.1 1.3c-2.3 0-4.4-1.7-4.4-4.3zm17-.6c-.02 0 0 4.7 0 4.7h-1.5s-.04-4.61 0-4.6c0-1.4-.9-2.3-2-2.3c-1.2 0-2.5.7-2.5 2.5c-.02 0 0 4.4 0 4.4h-1.5V21.5h1.5s-.02 5.7 0 5.7c.5-1 1.8-1.5 2.7-1.5c2 0 3.3 1.4 3.3 3.7zm6.3-3.4v1.3H56v6.8h-1.6v-6.8H53V26h1.4v-3.1h1.6v3.1h1.7zm.9 7.3c0-.7.5-1.1 1.1-1.1c.7 0 1.2.4 1.2 1.1c0 .6-.5 1-1.2 1c-.6 0-1.1-.4-1.1-1zm9.5.8v-12h1.6v12h-1.6zm12-4.7c-.03 0 0 4.7 0 4.7h-1.6s.05-4.61 0-4.6c0-1.4-.8-2.3-1.9-2.3c-1.2 0-2.5.7-2.5 2.5c-.03 0 0 4.4 0 4.4h-1.6V26h1.6s-.03 1.2 0 1.2c.5-1 1.8-1.5 2.7-1.5c2 0 3.3 1.4 3.3 3.7zm6.4.6c0-2.6 2-4.3 4.3-4.3c2.3 0 4.3 1.7 4.3 4.3c0 2.6-2 4.3-4.3 4.3c-2.3 0-4.3-1.7-4.3-4.3zm7.1 0c0-1.7-1.3-2.8-2.8-2.8c-1.5 0-2.7 1.1-2.7 2.8c0 1.7 1.2 2.9 2.7 2.9c1.5 0 2.8-1.2 2.8-2.9zm12.1 0c0 2.6-1.8 4.3-4 4.3c-1.3 0-2.4-.5-3-1.5c.03.05 0 5.3 0 5.3h-1.5V26h1.5s.03 1.23 0 1.2c.6-.9 1.8-1.5 2.9-1.5c2.3 0 4.1 1.8 4.1 4.3zm-1.5.1c0-1.7-1.2-2.9-2.7-2.9c-1.5 0-2.8 1.1-2.8 2.9c0 1.7 1.5 2.8 2.8 2.8c1.5 0 2.7-1.2 2.7-2.8zm10.1-8.6h1.5v12.6h-1.5v-1.3c-.5 1-1.7 1.5-2.9 1.5c-2.2 0-4.1-1.7-4.1-4.3c0-2.6 1.8-4.3 4.1-4.3c1.2 0 2.4.6 2.9 1.5v-5.7zm0 8.5c0-1.8-1.4-2.8-2.8-2.8c-1.5 0-2.7 1.2-2.7 2.8c0 1.6 1.2 2.9 2.7 2.9c1.5 0 2.8-1.1 2.8-2.9zm9.4-3.9l-.2 1.4c-.4-.2-.9-.3-1.2-.3c-1.6 0-2.3 1.8-2.3 3.9c.03.03 0 3 0 3h-1.5V26h1.5s.03 1.81 0 1.8c.4-1.4 1.2-2.1 2.3-2.1c.6 0 1.2.2 1.4.4zm7.7-.1h1.5v8.1h-1.5s.02-1.43 0-1.4c-.5 1-1.7 1.6-3 1.6c-2.1 0-4-1.8-4-4.3c0-2.4 1.8-4.3 4.1-4.3c1.2 0 2.4.6 2.9 1.5c.02.03 0-1.2 0-1.2zm0 4c0-1.7-1.4-2.8-2.8-2.8c-1.4 0-2.6 1.3-2.6 2.8c0 1.6 1.2 2.9 2.7 2.9c1.4 0 2.7-1.2 2.7-2.9zm3.6 0c0-2.6 2.1-4.3 4.4-4.3c1.3 0 2.4.6 3.1 1.3l-.9 1c-.5-.5-1.3-.8-2.1-.8c-1.6 0-2.9 1.1-2.9 2.8c0 1.7 1.3 2.9 2.9 2.9c.8 0 1.6-.3 2.1-.9l.9 1c-.7.8-1.8 1.3-3.1 1.3c-2.3 0-4.4-1.7-4.4-4.3zm17-.6c-.02 0 0 4.7 0 4.7h-1.5s-.04-4.61 0-4.6c0-1.4-.9-2.3-2-2.3c-1.2 0-2.5.7-2.5 2.5c-.02 0 0 4.4 0 4.4h-1.5V21.5h1.5s-.02 5.7 0 5.7c.5-1 1.8-1.5 2.7-1.5c2 0 3.3 1.4 3.3 3.7zm6.3-3.4v1.3h-1.7v6.8H155v-6.8h-1.4V26h1.4v-3.1h1.6v3.1h1.7zm11.8 0h1.6l-3.4 8.1h-1.5l-3.4-8.1h1.7l2.5 6.2l2.5-6.2zm9.5 0h1.5v8.1h-1.5s-.05-1.43 0-1.4c-.6 1-1.7 1.6-3 1.6c-2.2 0-4-1.8-4-4.3c0-2.4 1.7-4.3 4-4.3c1.3 0 2.4.6 3 1.5c-.05.03 0-1.2 0-1.2zm0 4c0-1.7-1.5-2.8-2.8-2.8c-1.5 0-2.7 1.3-2.7 2.8c0 1.6 1.2 2.9 2.7 2.9c1.4 0 2.8-1.2 2.8-2.9zm11.7-.6c-.04 0 0 4.7 0 4.7h-1.6s.04-4.61 0-4.6c0-1.4-.8-2.3-1.9-2.3c-1.2 0-2.5.7-2.5 2.5c-.04 0 0 4.4 0 4.4h-1.6V26h1.6s-.04 1.2 0 1.2c.4-1 1.8-1.5 2.7-1.5c2 0 3.3 1.4 3.3 3.7zm13.4-3.4h1.6s-.03 6.99 0 7c0 3.9-1.8 5.3-4.5 5.3c-1.5 0-2.8-.7-3.7-2.2l1.3-.7c.5 1 1.5 1.5 2.4 1.5c1.8 0 2.9-1 2.9-3.8v-.3c-.5 1-1.7 1.5-2.9 1.5c-2.2 0-4.1-1.7-4.1-4.3c0-2.6 1.9-4.3 4.1-4.3c1.2 0 2.4.6 2.9 1.5c.04.03 0-1.2 0-1.2zm0 4c0-1.8-1.4-2.8-2.7-2.8c-1.5 0-2.7 1.2-2.7 2.8c0 1.6 1.2 2.9 2.7 2.9c1.4 0 2.7-1.1 2.7-2.9zm11.9.7H210c.2 1.4 1.2 2.2 2.6 2.2c1 0 1.9-.5 2.4-1.3l1.3.5c-.7 1.5-2.1 2.2-3.7 2.2c-2.3 0-4.2-1.7-4.2-4.3c0-2.6 1.9-4.3 4.2-4.3c2.3 0 4 1.7 4 4.3v.7zm-1.5-1.3c-.2-1.4-1.2-2.2-2.5-2.2c-1.4 0-2.4.7-2.6 2.2h5.1zm16.5 0v4.7h-1.5s-.04-4.61 0-4.6c0-1.4-.8-2.3-2-2.3c-1.4 0-2.2 1-2.2 2.8c.02.03 0 4.1 0 4.1h-1.5v-4.6c0-1.4-.8-2.3-1.8-2.3c-1.2 0-2.4.8-2.4 2.5c.05 0 0 4.4 0 4.4h-1.5V26h1.5s.05 1.21 0 1.2c.4-.9 1.5-1.5 2.7-1.5c1.2 0 2.2.7 2.7 1.8c.7-1.5 2-1.8 2.8-1.8c2.1 0 3.2 1.4 3.2 3.7zm10.2 1.3h-6.6c.2 1.4 1.2 2.2 2.6 2.2c1 0 1.9-.5 2.4-1.3l1.3.5c-.7 1.5-2.1 2.2-3.7 2.2c-2.3 0-4.2-1.7-4.2-4.3c0-2.6 1.9-4.3 4.2-4.3c2.3 0 4 1.7 4 4.3v.7zm-1.5-1.3c-.2-1.4-1.2-2.2-2.5-2.2c-1.4 0-2.4.7-2.6 2.2h5.1zm11.3 1.3H245c.2 1.4 1.2 2.2 2.6 2.2c1 0 1.9-.5 2.4-1.3l1.3.5c-.7 1.5-2.1 2.2-3.7 2.2c-2.3 0-4.2-1.7-4.2-4.3c0-2.6 1.9-4.3 4.2-4.3c2.3 0 4 1.7 4 4.3v.7zm-1.5-1.3c-.2-1.4-1.2-2.2-2.5-2.2c-1.4 0-2.4.7-2.6 2.2h5.1zm11.1 0c.05 0 0 4.7 0 4.7h-1.5s.03-4.61 0-4.6c0-1.4-.8-2.3-2-2.3c-1.1 0-2.5.7-2.5 2.5c.05 0 0 4.4 0 4.4h-1.5V26h1.5s.05 1.2 0 1.2c.5-1 1.9-1.5 2.8-1.5c2 0 3.3 1.4 3.2 3.7zm6.4-3.4v1.3h-1.8v6.8h-1.5v-6.8h-1.5V26h1.5v-3.1h1.5v3.1h1.8zm9.2 4.7h-6.6c.2 1.4 1.2 2.2 2.6 2.2c1 0 1.9-.5 2.4-1.3l1.3.5c-.7 1.5-2.1 2.2-3.7 2.2c-2.3 0-4.2-1.7-4.2-4.3c0-2.6 1.9-4.3 4.2-4.3c2.3 0 4 1.7 4 4.3v.7zm-1.5-1.3c-.2-1.4-1.2-2.2-2.5-2.2c-1.4 0-2.4.7-2.6 2.2h5.1zm8.3.6c.02.01 0-7.9 0-7.9h1.6v7.9c0 1.9 1.3 2.8 2.8 2.8c1.5 0 2.8-.9 2.8-2.8v-7.9h1.6v7.9c0 2.8-2 4.3-4.4 4.3c-2.4 0-4.4-1.5-4.4-4.3zm15.5-4v1.3h-1.8v6.8h-1.5v-6.8h-1.5V26h1.5v-3.1h1.5v3.1h1.8zm6.9.1l-.2 1.4c-.4-.2-.9-.3-1.2-.3c-1.6 0-2.3 1.8-2.3 3.9c.03.03 0 3 0 3h-1.5V26h1.5s.03 1.81 0 1.8c.4-1.4 1.2-2.1 2.3-2.1c.6 0 1.2.2 1.4.4zm9 4.6h-6.7c.2 1.4 1.3 2.2 2.7 2.2c1 0 1.9-.5 2.4-1.3l1.3.5c-.7 1.5-2.2 2.2-3.8 2.2c-2.3 0-4.2-1.7-4.2-4.3c0-2.6 1.9-4.3 4.2-4.3c2.4 0 4.1 1.7 4.1 4.3v.7zm-1.5-1.3c-.2-1.4-1.2-2.2-2.6-2.2c-1.3 0-2.3.7-2.6 2.2h5.2zm3 .6c0-2.6 2.1-4.3 4.4-4.3c1.3 0 2.4.6 3.1 1.3l-1 1c-.5-.5-1.2-.8-2.1-.8c-1.6 0-2.9 1.1-2.9 2.8c0 1.7 1.3 2.9 2.9 2.9c.9 0 1.6-.3 2.1-.9l1 1c-.7.8-1.8 1.3-3.1 1.3c-2.3 0-4.4-1.7-4.4-4.3zm17-.6c-.04 0 0 4.7 0 4.7h-1.6s.04-4.61 0-4.6c0-1.4-.8-2.3-1.9-2.3c-1.2 0-2.5.7-2.5 2.5c-.04 0 0 4.4 0 4.4h-1.6V21.5h1.6s-.04 5.7 0 5.7c.4-1 1.8-1.5 2.7-1.5c2 0 3.3 1.4 3.3 3.7zm6.3-3.4v1.3H338v6.8h-1.5v-6.8h-1.4V26h1.4v-3.1h1.5v3.1h1.8zm11.8 0h1.6l-3.4 8.1h-1.5l-3.4-8.1h1.6l2.6 6.2l2.5-6.2zm2.4 4c0-2.6 2-4.3 4.3-4.3c2.3 0 4.3 1.7 4.3 4.3c0 2.6-2 4.3-4.3 4.3c-2.3 0-4.3-1.7-4.3-4.3zm7.1 0c0-1.7-1.3-2.8-2.8-2.8c-1.5 0-2.7 1.1-2.7 2.8c0 1.7 1.2 2.9 2.7 2.9c1.5 0 2.8-1.2 2.8-2.9zm11.3.7h-6.7c.3 1.4 1.3 2.2 2.7 2.2c1 0 1.9-.5 2.4-1.3l1.3.5c-.7 1.5-2.2 2.2-3.7 2.2c-2.4 0-4.2-1.7-4.2-4.3c0-2.6 1.8-4.3 4.2-4.3c2.3 0 4 1.7 4 4.3v.7zm-1.5-1.3c-.2-1.4-1.2-2.2-2.5-2.2c-1.4 0-2.4.7-2.6 2.2h5.1zm8.9-3.3l-.3 1.4c-.4-.2-.9-.3-1.2-.3c-1.6 0-2.3 1.8-2.3 3.9c.05.03 0 3 0 3h-1.5V26h1.5s.05 1.81 0 1.8c.5-1.4 1.3-2.1 2.3-2.1c.6 0 1.2.2 1.5.4zm7.7-4.6h1.5v12.6h-1.5s-.04-1.25 0-1.3c-.6 1-1.8 1.5-2.9 1.5c-2.3 0-4.1-1.7-4.1-4.3c0-2.6 1.8-4.3 4-4.3c1.3 0 2.4.6 3 1.5c-.04.03 0-5.7 0-5.7zm0 8.5c0-1.8-1.5-2.8-2.8-2.8c-1.5 0-2.7 1.2-2.7 2.8c0 1.6 1.2 2.9 2.7 2.9c1.4 0 2.8-1.1 2.8-2.9zm11.8.7h-6.6c.2 1.4 1.2 2.2 2.6 2.2c1 0 2-.5 2.4-1.3l1.3.5c-.7 1.5-2.1 2.2-3.7 2.2c-2.3 0-4.2-1.7-4.2-4.3c0-2.6 1.9-4.3 4.2-4.3c2.3 0 4.1 1.7 4.1 4.3c0 .2-.1.5-.1.7zm-1.5-1.3c-.2-1.4-1.2-2.2-2.5-2.2c-1.4 0-2.4.7-2.6 2.2h5.1zm15.7 0c-.05 0 0 4.7 0 4.7h-1.6s.03-4.61 0-4.6c0-1.4-.8-2.3-1.9-2.3c-1.2 0-2.6.7-2.6 2.5c.05 0 0 4.4 0 4.4h-1.5V21.5h1.5s.05 5.7 0 5.7c.5-1 1.9-1.5 2.8-1.5c2 0 3.3 1.4 3.3 3.7zm10.2 1.3H417c.2 1.4 1.3 2.2 2.7 2.2c1 0 1.9-.5 2.4-1.3l1.3.5c-.7 1.5-2.2 2.2-3.8 2.2c-2.3 0-4.2-1.7-4.2-4.3c0-2.6 1.9-4.3 4.2-4.3c2.4 0 4.1 1.7 4.1 4.3v.7zm-1.5-1.3c-.2-1.4-1.2-2.2-2.6-2.2c-1.3 0-2.3.7-2.6 2.2h5.2zm7.4-3.4v1.3h-1.8v6.8h-1.5v-6.8h-1.5V26h1.5v-3.1h1.5v3.1h1.8zm8.1 6.7h4.9v1.4h-6.5v-12h1.6v10.6zm14.1-2h-6.7c.3 1.4 1.3 2.2 2.7 2.2c1 0 1.9-.5 2.4-1.3l1.3.5c-.7 1.5-2.2 2.2-3.7 2.2c-2.4 0-4.2-1.7-4.2-4.3c0-2.6 1.8-4.3 4.2-4.3c2.3 0 4 1.7 4 4.3v.7zm-1.5-1.3c-.2-1.4-1.2-2.2-2.5-2.2c-1.4 0-2.4.7-2.6 2.2h5.1zm3 .6c0-2.6 2.1-4.3 4.4-4.3c1.3 0 2.4.6 3.1 1.3l-.9 1c-.5-.5-1.3-.8-2.1-.8c-1.6 0-2.9 1.1-2.9 2.8c0 1.7 1.3 2.9 2.9 2.9c.8 0 1.6-.3 2.1-.9l.9 1c-.7.8-1.8 1.3-3.1 1.3c-2.3 0-4.4-1.7-4.4-4.3zm13.4-4v1.3h-1.8v6.8h-1.5v-6.8h-1.5V26h1.5v-3.1h1.5v3.1h1.8zm.9 4c0-2.6 2-4.3 4.3-4.3c2.3 0 4.3 1.7 4.3 4.3c0 2.6-2 4.3-4.3 4.3c-2.3 0-4.3-1.7-4.3-4.3zm7.1 0c0-1.7-1.3-2.8-2.8-2.8c-1.5 0-2.7 1.1-2.7 2.8c0 1.7 1.2 2.9 2.7 2.9c1.5 0 2.8-1.2 2.8-2.9zm8.9-3.9l-.3 1.4c-.4-.2-.9-.3-1.2-.3c-1.6 0-2.2 1.8-2.2 3.9c-.05.03 0 3 0 3h-1.6V26h1.6s-.05 1.81 0 1.8c.4-1.4 1.2-2.1 2.2-2.1c.6 0 1.2.2 1.5.4zm7.6-.1h1.6v8.1h-1.6s.05-1.43 0-1.4c-.5 1-1.6 1.6-2.9 1.6c-2.2 0-4.1-1.8-4.1-4.3c0-2.4 1.8-4.3 4.1-4.3c1.2 0 2.4.6 2.9 1.5c.05.03 0-1.2 0-1.2zm0 4c0-1.7-1.4-2.8-2.7-2.8c-1.5 0-2.7 1.3-2.7 2.8c0 1.6 1.2 2.9 2.7 2.9c1.4 0 2.7-1.2 2.7-2.9zm10.7-4h1.5v8.1h-1.5s-.03-1.43 0-1.4c-.6 1-1.7 1.6-3 1.6c-2.2 0-4-1.8-4-4.3c0-2.4 1.7-4.3 4-4.3c1.3 0 2.4.6 3 1.5c-.03.03 0-1.2 0-1.2zm0 4c0-1.7-1.4-2.8-2.8-2.8c-1.5 0-2.7 1.3-2.7 2.8c0 1.6 1.2 2.9 2.7 2.9c1.5 0 2.8-1.2 2.8-2.9zm8.1-4v1.3h-1.8v6.8h-1.5v-6.8h-1.5V26h1.5v-3.1h1.5v3.1h1.8z" stroke="none" fill="#000"/></g><g id="Polygon18483"><path d="m5.7 1.4c-.8.9-1.6 2.2-1.8 3.7H2.5c.5-2 1.5-3.4 2.3-4l.9.3zm9.5-.3L15 2.6H9.4l-.6 3.8h4.8L13.3 8H8.5l-.6 3.6h5.6l-.2 1.5H6l2.1-12h7.1zm7.1 7.3c0-1.4-.8-2.2-2.1-2.2c-1.4 0-2.6.8-3 2.2h5.1zm1.3 1.2H17c-.1 1.4.8 2.3 2.2 2.3c1 0 2-.5 2.6-1.3c.4.2.8.3 1.3.5c-1 1.5-2.6 2.2-4.2 2.2c-2.3 0-3.9-1.7-3.4-4.3c.5-2.6 2.6-4.2 4.9-4.2c2.3 0 3.8 1.6 3.3 4.2c0 .2 0 .5-.1.6zm3.1 3.5h-1.6L26.5 5h1.6s-.35 1.79-.3 1.8c.6-1.5 1.5-2 2.6-2c.6 0 1.2.1 1.3.3l-.5 1.5c-.4-.2-.8-.3-1.1-.3c-1.6 0-2.5 1.7-2.9 3.9c-.02-.05-.5 2.9-.5 2.9zm7.7-3.6c-1.4-.4-2.1-1.1-1.7-2.6c.3-1.2 1.7-2.1 3.2-2.1c1.4 0 2.5.6 2.4 2.3h-1.5c0-.6-.5-.9-1.1-.9c-.6 0-1.2.3-1.4.7c-.1.3-.2.4-.1.6c.1.4.4.6.9.7l1.1.3c1.6.4 1.8 1.4 1.7 2.3c-.3 1.6-1.9 2.5-3.6 2.5c-1.5 0-2.8-.9-2.6-2.6h1.5c0 .3.1.7.5.9c.3.2.7.3 1.2.3c.8-.1 1.3-.5 1.4-1.1c.2-.6-.3-.9-.9-1l-1-.3zM45 5l-.3 1.3H43l-1.2 6.8h-1.6l1.2-6.8h-1.5l.3-1.3h1.4l.6-3.1h1.6L43.2 5h1.8zm12.1 3.4c.1-1.4-.7-2.2-2.1-2.2c-1.3 0-2.5.8-2.9 2.2h5zm1.4 1.2h-6.7c0 1.4.9 2.3 2.3 2.3c1 0 1.9-.5 2.5-1.3c.4.2.9.3 1.3.5c-.9 1.5-2.5 2.2-4.1 2.2c-2.4 0-3.9-1.7-3.5-4.3c.5-2.6 2.7-4.2 5-4.2c2.3 0 3.8 1.6 3.3 4.2c-.1.2-.1.5-.1.6zm8.4-1.2c0-1.4-.8-2.2-2.1-2.2c-1.4 0-2.6.8-3 2.2h5.1zm1.3 1.2h-6.6c-.1 1.4.8 2.3 2.2 2.3c1 0 2-.5 2.6-1.3c.4.2.8.3 1.3.5c-1 1.5-2.6 2.2-4.2 2.2c-2.3 0-3.9-1.7-3.4-4.3c.4-2.6 2.6-4.2 4.9-4.2c2.3 0 3.8 1.6 3.3 4.2c0 .2-.1.5-.1.6zm3 3.5h-1.6L71.1 5h1.6s-.24 1.18-.2 1.2c.6-1 1.9-1.4 2.8-1.4c2 0 2.9 1.3 2.5 3.6c-.03 0-.9 4.7-.9 4.7h-1.5s.76-4.59.8-4.6c.2-1.4-.3-2.2-1.5-2.2c-1.1 0-2.4.7-2.7 2.4c.01.02-.8 4.4-.8 4.4zm23.7-12l-.2 1.5H91l-1.8 10.5h-1.7l1.9-10.5h-3.7l.3-1.5h8.9zm1.3 12h-1.6L96.9.5h1.5s-.95 5.68-.9 5.7c.6-1 2-1.4 2.9-1.4c2 0 3.1 1.3 2.7 3.6c-.05 0-.9 4.7-.9 4.7h-1.6s.84-4.59.8-4.6c.3-1.3-.4-2.2-1.5-2.2c-1.1 0-2.6.7-2.9 2.4l-.8 4.4zM111.8 5h1.6l-1.4 8.1h-1.6s.16-1.2.2-1.2c-.7 1-1.9 1.4-2.8 1.4c-2.1 0-2.9-1.3-2.5-3.6c-.03-.02.8-4.7.8-4.7h1.6s-.82 4.57-.8 4.6c-.3 1.4.3 2.1 1.4 2.1c1.2 0 2.4-.6 2.7-2.3l.8-4.4zm4.4 8.1h-1.6l1.5-8.1h1.5l-1.4 8.1zM117.6.9c.6 0 1 .4.9 1c-.2.7-.7 1.1-1.3 1.1c-.6 0-1.1-.4-.9-1.1c.1-.6.6-1 1.3-1zm3.7 8.6c-1.4-.4-2.1-1.1-1.7-2.6c.4-1.2 1.7-2.1 3.2-2.1c1.4 0 2.6.6 2.4 2.3h-1.5c0-.6-.5-.9-1.1-.9c-.6 0-1.2.3-1.3.7c-.2.3-.2.4-.2.6c.1.4.5.6.9.7l1.2.3c1.6.4 1.8 1.4 1.7 2.3c-.3 1.6-1.9 2.5-3.6 2.5c-1.5 0-2.9-.9-2.6-2.6h1.4c0 .3.2.7.5.9c.4.2.7.3 1.3.3c.7-.1 1.3-.5 1.4-1.1c.1-.6-.4-.9-.9-1l-1.1-.3zm6.1-4.7c.8-.8 1.5-2.1 1.8-3.6h1.4c-.5 1.9-1.5 3.4-2.3 4l-.9-.4zm7.8-2.9c0-.5.5-1 1.1-1c.6 0 1.1.5 1.1 1c0 .6-.5 1.1-1.1 1.1c-.6 0-1.1-.5-1.1-1.1zm.3 11.2V5h1.6v8.1h-1.6zm3.5-2.4h1.5c0 .7.6 1.3 1.6 1.3c1 0 1.6-.5 1.6-1.2c0-.6-.4-.9-1.1-1l-1.1-.3c-1.4-.4-2.2-1-2.2-2.3c0-1.4 1.2-2.5 2.8-2.5c1.4 0 2.9.8 2.9 2.4h-1.5c0-.6-.7-1-1.3-1c-.8 0-1.3.5-1.3 1.1c0 .6.5.9 1 1l1.2.3c1.7.4 2.2 1.4 2.2 2.3c0 1.6-1.5 2.5-3.2 2.5c-1.5 0-3-.9-3.1-2.6zm21-1h-6.6c.2 1.4 1.3 2.2 2.7 2.2c1 0 1.9-.5 2.4-1.3l1.3.5c-.7 1.5-2.2 2.2-3.8 2.2c-2.3 0-4.2-1.7-4.2-4.3c0-2.6 1.9-4.3 4.2-4.3c2.3 0 4.1 1.7 4.1 4.3c0 .2 0 .5-.1.7zm-1.4-1.3c-.2-1.4-1.2-2.2-2.6-2.2c-1.4 0-2.3.7-2.6 2.2h5.2zm11.2 1.3h-6.6c.2 1.4 1.3 2.2 2.7 2.2c1 0 1.9-.5 2.4-1.3l1.3.5c-.7 1.5-2.2 2.2-3.8 2.2c-2.3 0-4.2-1.7-4.2-4.3c0-2.6 1.9-4.3 4.2-4.3c2.3 0 4.1 1.7 4.1 4.3c0 .2 0 .5-.1.7zm-1.4-1.3c-.2-1.4-1.2-2.2-2.6-2.2c-1.4 0-2.3.7-2.6 2.2h5.2zm11.1 0v4.7H178s-.04-4.61 0-4.6c0-1.4-.9-2.3-2-2.3c-1.2 0-2.5.7-2.5 2.5c-.02 0 0 4.4 0 4.4H172V5h1.5s-.02 1.2 0 1.2c.5-1 1.8-1.5 2.7-1.5c2 0 3.3 1.4 3.3 3.7zm15.1 0v4.7h-1.5s-.02-4.61 0-4.6c0-1.4-.9-2.3-2-2.3c-1.1 0-2.5.7-2.5 2.5v4.4h-1.5V5h1.5v1.2c.5-1 1.8-1.5 2.7-1.5c2 0 3.3 1.4 3.3 3.7zm2.2-6.5c0-.5.5-1 1.1-1c.6 0 1.1.5 1.1 1c0 .6-.5 1.1-1.1 1.1c-.6 0-1.1-.5-1.1-1.1zm.3 11.2V5h1.6v8.1h-1.6zM209 9.7h-6.7c.3 1.4 1.3 2.2 2.7 2.2c1 0 1.9-.5 2.4-1.3l1.3.5c-.7 1.5-2.2 2.2-3.7 2.2c-2.4 0-4.2-1.7-4.2-4.3c0-2.6 1.8-4.3 4.2-4.3c2.3 0 4 1.7 4 4.3v.7zm-1.5-1.3c-.2-1.4-1.2-2.2-2.5-2.2c-1.4 0-2.4.7-2.6 2.2h5.1zM217 5h1.5v8.1H217v-1.3c-.5 1.1-1.8 1.5-2.7 1.5c-2.1 0-3.3-1.3-3.3-3.6V5h1.5s.02 4.64 0 4.6c0 1.4.8 2.3 2 2.3c1.1 0 2.5-.7 2.5-2.4V5zm14.6 0h1.6l-3 8.1h-1.3l-2.3-6l-2.1 6h-1.3L220.1 5h1.6l2.1 5.8l2.1-5.8h1.5l2.1 5.8l2.1-5.8zm10.7 4.7h-6.6c.2 1.4 1.3 2.2 2.7 2.2c1 0 1.9-.5 2.3-1.3l1.4.5c-.7 1.5-2.2 2.2-3.8 2.2c-2.3 0-4.2-1.7-4.2-4.3c0-2.6 1.9-4.3 4.2-4.3c2.3 0 4.1 1.7 4.1 4.3c0 .2 0 .5-.1.7zm-1.4-1.3c-.2-1.4-1.2-2.2-2.6-2.2c-1.4 0-2.3.7-2.6 2.2h5.2zM256 5h1.5v8.1H256s-.05-1.43 0-1.4c-.6 1-1.7 1.6-3 1.6c-2.2 0-4-1.8-4-4.3c0-2.4 1.7-4.3 4-4.3c1.3 0 2.4.6 3 1.5c-.05.03 0-1.2 0-1.2zm0 4c0-1.7-1.5-2.8-2.8-2.8c-1.5 0-2.7 1.3-2.7 2.8c0 1.6 1.2 2.9 2.7 2.9c1.4 0 2.8-1.2 2.8-2.9zm10.6-4h1.5v8.1h-1.5s-.02-1.43 0-1.4c-.6 1-1.7 1.6-3 1.6c-2.2 0-4-1.8-4-4.3c0-2.4 1.7-4.3 4.1-4.3c1.2 0 2.3.6 2.9 1.5c-.02.03 0-1.2 0-1.2zm0 4c0-1.7-1.4-2.8-2.8-2.8c-1.5 0-2.7 1.3-2.7 2.8c0 1.6 1.2 2.9 2.7 2.9c1.5 0 2.8-1.2 2.8-2.9zm11.7-.6c-.02 0 0 4.7 0 4.7h-1.5s-.04-4.61 0-4.6c0-1.4-.9-2.3-2-2.3c-1.2 0-2.5.7-2.5 2.5c-.02 0 0 4.4 0 4.4h-1.5V5h1.5s-.02 1.2 0 1.2c.5-1 1.8-1.5 2.7-1.5c2 0 3.3 1.4 3.3 3.7zm11 .6c0 2.6-1.8 4.3-4 4.3c-1.3 0-2.4-.5-3-1.5c.04.05 0 5.3 0 5.3h-1.5V5h1.5s.04 1.23 0 1.2c.6-.9 1.8-1.5 2.9-1.5c2.3 0 4.1 1.8 4.1 4.3zm-1.5.1c0-1.7-1.2-2.9-2.7-2.9c-1.4 0-2.8 1.1-2.8 2.9c0 1.7 1.5 2.8 2.8 2.8c1.5 0 2.7-1.2 2.7-2.8zM297.9 5h1.5v8.1h-1.5v-1.4c-.5 1-1.7 1.6-3 1.6c-2.1 0-4-1.8-4-4.3c0-2.4 1.8-4.3 4.1-4.3c1.2 0 2.4.6 2.9 1.5V5zm0 4c0-1.7-1.4-2.8-2.8-2.8c-1.5 0-2.7 1.3-2.7 2.8c0 1.6 1.2 2.9 2.7 2.9c1.5 0 2.8-1.2 2.8-2.9zm11.5 4.1h-2l-3.8-4v4h-1.5V.5h1.5v7.3l2.8-2.8h2.2l-3.5 3.5l4.3 4.6zM320.9 5h1.6l-3.4 8.1h-1.5L314.2 5h1.7l2.5 6.2l2.5-6.2zm9.5 0h1.5v8.1h-1.5s-.04-1.43 0-1.4c-.6 1-1.7 1.6-3 1.6c-2.2 0-4-1.8-4-4.3c0-2.4 1.7-4.3 4-4.3c1.3 0 2.4.6 3 1.5c-.04.03 0-1.2 0-1.2zm0 4c0-1.7-1.5-2.8-2.8-2.8c-1.5 0-2.7 1.3-2.7 2.8c0 1.6 1.2 2.9 2.7 2.9c1.4 0 2.8-1.2 2.8-2.9zm11.7-.6c-.03 0 0 4.7 0 4.7h-1.6s.05-4.61 0-4.6c0-1.4-.8-2.3-1.9-2.3c-1.2 0-2.5.7-2.5 2.5c-.03 0 0 4.4 0 4.4h-1.6V5h1.6s-.03 1.2 0 1.2c.5-1 1.8-1.5 2.7-1.5c2 0 3.3 1.4 3.3 3.7zm14-7.9h1.5v12.6h-1.5s.02-1.25 0-1.3c-.5 1-1.7 1.5-2.9 1.5c-2.2 0-4.1-1.7-4.1-4.3c0-2.6 1.9-4.3 4.1-4.3c1.2 0 2.4.6 2.9 1.5c.02.03 0-5.7 0-5.7zm0 8.5c0-1.8-1.4-2.8-2.8-2.8c-1.5 0-2.6 1.2-2.6 2.8c0 1.6 1.1 2.9 2.6 2.9c1.5 0 2.8-1.1 2.8-2.9zm10.6-4h1.6v8.1h-1.6s.04-1.43 0-1.4c-.5 1-1.6 1.6-3 1.6c-2.1 0-4-1.8-4-4.3c0-2.4 1.8-4.3 4.1-4.3c1.2 0 2.4.6 2.9 1.5c.04.03 0-1.2 0-1.2zm0 4c0-1.7-1.4-2.8-2.7-2.8c-1.5 0-2.7 1.3-2.7 2.8c0 1.6 1.2 2.9 2.7 2.9c1.4 0 2.7-1.2 2.7-2.9zm11.6 4.1h-2.1l-3.8-4v4h-1.5V.5h1.5v7.3l2.9-2.8h2.1l-3.5 3.5l4.4 4.6zm1.1 0V.5h1.6v12.6h-1.6zM383 9c0-2.6 2-4.3 4.3-4.3c2.3 0 4.3 1.7 4.3 4.3c0 2.6-2 4.3-4.3 4.3c-2.3 0-4.3-1.7-4.3-4.3zm7.1 0c0-1.7-1.3-2.8-2.8-2.8c-1.5 0-2.7 1.1-2.7 2.8c0 1.7 1.2 2.9 2.7 2.9c1.5 0 2.8-1.2 2.8-2.9zm3 0c0-2.6 2-4.3 4.3-4.3c2.3 0 4.3 1.7 4.3 4.3c0 2.6-2 4.3-4.3 4.3c-2.3 0-4.3-1.7-4.3-4.3zm7.1 0c0-1.7-1.3-2.8-2.8-2.8c-1.5 0-2.7 1.1-2.7 2.8c0 1.7 1.2 2.9 2.7 2.9c1.5 0 2.8-1.2 2.8-2.9zm3 1.7h1.4c0 .7.6 1.3 1.6 1.3c1.1 0 1.7-.5 1.7-1.2c0-.6-.5-.9-1.2-1l-1.1-.3c-1.3-.4-2.1-1-2.1-2.3c0-1.4 1.1-2.5 2.8-2.5c1.4 0 2.8.8 2.8 2.4h-1.5c0-.6-.6-1-1.3-1c-.8 0-1.3.5-1.3 1.1c0 .6.5.9 1 1l1.3.3c1.6.4 2.1 1.4 2.1 2.3c0 1.6-1.5 2.5-3.2 2.5c-1.5 0-3-.9-3-2.6zM419 8.4c-.04 0 0 4.7 0 4.7h-1.6s.04-4.61 0-4.6c0-1.4-.8-2.3-1.9-2.3c-1.2 0-2.5.7-2.5 2.5c-.04 0 0 4.4 0 4.4h-1.6V.5h1.6s-.04 5.7 0 5.7c.4-1 1.8-1.5 2.7-1.5c2 0 3.3 1.4 3.3 3.7zm10.2 1.3h-6.7c.3 1.4 1.3 2.2 2.7 2.2c1 0 1.9-.5 2.4-1.3l1.3.5c-.7 1.5-2.2 2.2-3.7 2.2c-2.4 0-4.2-1.7-4.2-4.3c0-2.6 1.8-4.3 4.2-4.3c2.3 0 4 1.7 4 4.3v.7zm-1.5-1.3c-.2-1.4-1.2-2.2-2.5-2.2c-1.4 0-2.4.7-2.7 2.2h5.2zm3.3-6.5c0-.5.5-1 1-1c.6 0 1.1.5 1.1 1c0 .6-.5 1.1-1.1 1.1c-.5 0-1-.5-1-1.1zm.3 11.2V5h1.5v8.1h-1.5zM441.9.5h1.5v12.6h-1.5s.02-1.25 0-1.3c-.5 1-1.7 1.5-2.9 1.5c-2.2 0-4.1-1.7-4.1-4.3c0-2.6 1.9-4.3 4.1-4.3c1.2 0 2.4.6 2.9 1.5c.02.03 0-5.7 0-5.7zm0 8.5c0-1.8-1.4-2.8-2.8-2.8c-1.5 0-2.6 1.2-2.6 2.8c0 1.6 1.1 2.9 2.6 2.9c1.5 0 2.8-1.1 2.8-2.9zm8.9-7.1c0-.5.5-1 1.1-1c.6 0 1.1.5 1.1 1c0 .6-.5 1.1-1.1 1.1c-.6 0-1.1-.5-1.1-1.1zm.4 11.2V5h1.5v8.1h-1.5zm11.6-4.7c.05 0 0 4.7 0 4.7h-1.5s.02-4.61 0-4.6c0-1.4-.8-2.3-2-2.3c-1.1 0-2.5.7-2.5 2.5c.04 0 0 4.4 0 4.4h-1.5V5h1.5s.04 1.2 0 1.2c.5-1 1.9-1.5 2.8-1.5c2 0 3.3 1.4 3.2 3.7zm12.9-3.3l-.3 1.4c-.4-.2-.8-.3-1.1-.3c-1.7 0-2.3 1.8-2.3 3.9c-.02.03 0 3 0 3h-1.6V5h1.6s-.02 1.81 0 1.8c.4-1.4 1.2-2.1 2.3-2.1c.5 0 1.1.2 1.4.4zm8.9 4.6H478c.2 1.4 1.2 2.2 2.6 2.2c1 0 1.9-.5 2.4-1.3l1.3.5c-.7 1.5-2.1 2.2-3.7 2.2c-2.3 0-4.2-1.7-4.2-4.3c0-2.6 1.9-4.3 4.2-4.3c2.3 0 4 1.7 4 4.3v.7zm-1.5-1.3c-.2-1.4-1.2-2.2-2.5-2.2c-1.4 0-2.4.7-2.6 2.2h5.1zM493.2 5h1.5v7c0 3.9-1.7 5.3-4.4 5.3c-1.5 0-2.9-.7-3.7-2.2l1.3-.7c.5 1 1.5 1.5 2.4 1.5c1.8 0 2.9-1 2.9-3.8v-.3c-.6 1-1.7 1.5-2.9 1.5c-2.3 0-4.1-1.7-4.1-4.3c0-2.6 1.8-4.3 4.1-4.3c1.2 0 2.3.6 2.9 1.5V5zm0 4c0-1.8-1.4-2.8-2.8-2.8c-1.5 0-2.7 1.2-2.7 2.8c0 1.6 1.2 2.9 2.7 2.9c1.5 0 2.8-1.1 2.8-2.9zm3.9-7.1c0-.5.4-1 1-1c.6 0 1.1.5 1.1 1c0 .6-.5 1.1-1.1 1.1c-.6 0-1-.5-1-1.1zm.3 11.2V5h1.5v8.1h-1.5zM501 9c0-2.6 1.9-4.3 4.2-4.3c2.4 0 4.3 1.7 4.3 4.3c0 2.6-1.9 4.3-4.3 4.3c-2.3 0-4.2-1.7-4.2-4.3zm7 0c0-1.7-1.2-2.8-2.8-2.8c-1.4 0-2.7 1.1-2.7 2.8c0 1.7 1.3 2.9 2.7 2.9c1.6 0 2.8-1.2 2.8-2.9z" stroke="none" fill="#000"/></g></svg>