<?xml version="1.0" standalone="no"?><!DOCTYPE svg PUBLIC "-//W3C//DTD SVG 1.1//EN" "http://www.w3.org/Graphics/SVG/1.1/DTD/svg11.dtd"><svg xmlns="http://www.w3.org/2000/svg" version="1.1" width="336.4px" height="78.7px" viewBox="0 -15 336.4 78.7" style="top:-15px"><desc>Laaggeletterdheid Interactieve Infographic</desc><defs/><g id="Polygon18079"><path d="m90.8 52l-1.8-.3l1.6-9.9l1.7-.4l.2-.7h-5.3l-.2.7l1.7.4l-1.5 9.9l-1.8.4l-.1.7h5.2l.3-.8zm4.3-7.9c-.5 0-1 .1-1.5.3c.04.03 0 .8 0 .8h.4c.3 0 .5 0 .6.1c.2.1.3.3.3.5c0 .1-.1.1-.1.2c.03.03-.9 6.8-.9 6.8h1.6s.96-6.43 1-6.4c.2-.3.5-.5.8-.6c.2-.2.6-.2 1-.2c.4 0 .6.1.8.3c.1.2.2.5.2.9c0 .3 0 .6-.1.9l-.4 3.2c-.1.3-.1.6-.1.8c0 .4.1.8.3 1c.2.2.6.3 1.1.3c.3 0 .5-.1.8-.1c.2-.1.4-.2.6-.2l.1-.8c-.3 0-.5 0-.7-.1c-.2 0-.3 0-.4-.2c-.1-.1-.2-.2-.2-.5c0-.4.1-1 .2-2l.4-2.2c0-.4.1-.7.1-1c0-1.2-.6-1.8-1.7-1.8c-.5 0-1 .2-1.5.5c-.5.4-.9.7-1.2 1.2h-.2c.1-.3.1-.5.1-.6c0-.4-.1-.7-.3-.8c-.3-.2-.6-.3-1.1-.3zm9.3 5.4c-.1.4-.1.8-.1 1c0 .4.1.7.3.9c.1.2.4.2.9.2c.3 0 .7-.1 1-.3l.1.5c-.3.4-.6.7-1 .9c-.3.2-.7.3-1.2.3c-.6 0-1-.1-1.3-.4c-.2-.4-.4-.8-.4-1.5c0-.3.1-.6.1-1.1c.03.02.8-4.6.8-4.6h-1l.1-1h1l.3-2.1h1.5l-.3 2.1h2.1l-.1 1H105s-.61 4.05-.6 4.1zm5.8 3.6c.4 0 .8 0 1.2-.2c.4-.2.8-.4 1.1-.6c.3-.3.6-.5.7-.7l-.2-.5c-.2.2-.5.4-.9.5c-.4.2-.8.2-1.3.2c-.5 0-.9-.1-1.1-.5c-.2-.4-.3-.9-.3-1.6v-.5c1.2 0 2.2-.2 3-.7c.9-.4 1.3-1.2 1.3-2.4c0-.6-.2-1.1-.5-1.4c-.3-.4-.8-.6-1.3-.6c-.7 0-1.4.3-2 .9c-.7.5-1.2 1.2-1.6 2.1c-.3.9-.5 1.9-.5 2.9c0 2.1.8 3.1 2.4 3.1zm1.1-8.1c.3 0 .5.2.7.4c.1.3.2.6.2 1c0 .5-.1 1-.4 1.3c-.2.3-.5.5-.9.6c-.4.1-.9.1-1.4.2c0-.9.1-1.6.3-2.1c.2-.5.4-.8.7-1c.3-.3.5-.4.8-.4zm6.1 2.9c.3-.5.6-.9.9-1.3c.3-.4.7-.6 1.1-.6c.1 0 .3 0 .4.1c.1 0 .3.1.4.2c.2-.1.3-.3.4-.6c.1-.2.2-.4.2-.6c0-.3-.1-.5-.3-.7c-.2-.2-.4-.3-.7-.3c-.3 0-.6.2-.9.4c-.3.3-.6.7-.8 1.1c-.2.4-.4.9-.6 1.3h-.1s.26-1.11.3-1.1v-.6c0-.4-.1-.6-.3-.8c-.2-.2-.6-.3-1-.3c-.6 0-1.1.1-1.5.3c-.04.03-.1.8-.1.8h.4c.3 0 .5 0 .6.1c.2.1.3.3.3.5v.2c-.05.03-.9 6.8-.9 6.8h1.6s.64-4.92.6-4.9zm10.2-3.2c-.2-.3-.9-.5-1.9-.5c-.8 0-1.6.2-2.3.7c-.8.5-1.4 1.2-1.9 2.1c-.6.9-.8 2-.8 3.2c0 .5.1 1.1.2 1.5c.2.4.4.8.7 1c.3.2.6.3 1 .3c.5 0 1-.1 1.4-.4c.4-.3.7-.6 1-1h.1c-.1.1-.1.2-.1.3c0 .4.1.6.4.8c.2.2.5.3.9.3c.4 0 .9-.1 1.5-.3c-.04-.01.1-.7.1-.7l-.7-.1c-.2 0-.3-.1-.4-.2c-.1-.1-.1-.3-.1-.6c0-.4.1-1 .2-2l.7-4.4zm-2.5 6.2c-.2.3-.5.5-.8.7c-.2.1-.5.2-.9.2c-.4 0-.6-.2-.8-.5c-.2-.3-.3-.9-.3-1.6c0-.7.1-1.4.3-2.1c.2-.7.5-1.3.9-1.7c.4-.5.8-.7 1.3-.7c.5 0 .9.1 1.2.4c-.04-.05-.9 5.3-.9 5.3c0 0 .02-.02 0 0zm7.1.9c-.7 0-1.1-.2-1.5-.7c-.3-.4-.4-1.1-.4-2c0-.6 0-1.2.2-1.8c.2-.6.4-1.1.8-1.6c.3-.4.7-.6 1.2-.6c.3 0 .5.1.7.2c.2.2.3.3.4.6c.1.2.2.4.3.8c.4 0 .7-.1.9-.3c.2-.2.4-.4.4-.7c0-.5-.2-.8-.5-1.1c-.3-.3-.8-.4-1.4-.4c-.7 0-1.5.2-2.2.7c-.8.5-1.4 1.2-1.8 2.1c-.5.8-.7 1.8-.7 2.8c0 .7.1 1.3.3 1.8c.3.5.6.9 1.1 1.1c.4.3.9.4 1.5.4c.6 0 1.1-.2 1.7-.4c.5-.3 1-.6 1.3-1l-.2-.6c-.8.5-1.5.7-2.1.7zm5.5-2.3c-.1.4-.1.8-.1 1c0 .4.1.7.3.9c.1.2.4.2.9.2c.3 0 .7-.1 1-.3l.1.5c-.3.4-.6.7-1 .9c-.3.2-.7.3-1.2.3c-.6 0-1-.1-1.3-.4c-.2-.4-.4-.8-.4-1.5c0-.3.1-.6.1-1.1c.03.02.8-4.6.8-4.6h-1l.1-1h1l.3-2.1h1.5l-.3 2.1h2.1l-.1 1h-2.2l-.6 4.1zm5.3-8.2c0 .3.2.6.4.8c.2.2.4.3.7.3c.3 0 .6-.1.8-.3c.3-.2.4-.5.4-.8c0-.3-.1-.5-.3-.8c-.2-.2-.5-.3-.8-.3c-.2 0-.4.1-.6.2c-.2.1-.3.2-.4.4c-.1.2-.2.4-.2.5zm-1.1 4c.3 0 .5 0 .6.1c.2.1.3.2.3.5v.2l-.7 4.8c-.1.3-.1.6-.1.8c0 .5.1.8.3 1c.2.2.6.3 1.1.3c.3 0 .5 0 .8-.1c.2 0 .4-.1.6-.2l.1-.8h-.7c-.2 0-.3-.1-.4-.2c-.1-.1-.2-.3-.2-.5c0-.2 0-.5.1-.8c0-.3.1-.7.1-1.3l.5-3c0-.3.1-.5.1-.8c0-.3-.1-.6-.3-.8c-.2-.2-.6-.3-1-.3c-.6 0-1.1.1-1.5.3c-.04.01-.1.8-.1.8c0 0 .39-.02.4 0zm6.4 7.8c.4 0 .8 0 1.2-.2c.5-.2.8-.4 1.1-.6c.3-.3.6-.5.7-.7l-.2-.5c-.2.2-.5.4-.9.5c-.4.2-.8.2-1.3.2c-.5 0-.8-.1-1.1-.5c-.2-.4-.3-.9-.3-1.6v-.5c1.2 0 2.2-.2 3-.7c.9-.4 1.3-1.2 1.3-2.4c0-.6-.2-1.1-.5-1.4c-.3-.4-.7-.6-1.3-.6c-.7 0-1.4.3-2 .9c-.7.5-1.2 1.2-1.5 2.1c-.4.9-.6 1.9-.6 2.9c0 2.1.8 3.1 2.4 3.1zm1.1-8.1c.3 0 .5.2.7.4c.1.3.2.6.2 1c0 .5-.1 1-.3 1.3c-.3.3-.6.5-1 .6c-.4.1-.9.1-1.4.2c0-.9.1-1.6.3-2.1c.2-.5.5-.8.7-1c.3-.3.5-.4.8-.4zm9.3-.9c-.5 0-.9.2-1.2.4l-.1.8c.1-.1.2-.1.4-.1c.1 0 .3 0 .4.1c.1.1.1.2.1.3c0 .7-.1 1.3-.2 1.9c-.2.6-.4 1.2-.7 1.7c-.3.6-.6 1.3-1.1 2.1l-.7-5c-.1-.5-.1-1-.2-1.2c-.1-.3-.2-.5-.4-.7c-.2-.1-.5-.2-.8-.2c-.6 0-1 .1-1.4.3c-.04.01-.1.8-.1.8c0 0 .37-.02.4 0h.4l.3.3c.1.1.1.3.2.5c-.02.01 1.2 7 1.2 7c0 0 1.03-.16 1-.2c.9-1.5 1.8-3 2.5-4.5c.7-1.5 1.1-2.5 1.1-3.1c0-.4-.1-.7-.3-.9c-.2-.2-.4-.3-.8-.3zm3.9 9c.4 0 .9 0 1.3-.2c.4-.2.7-.4 1-.6c.4-.3.6-.5.8-.7l-.3-.5c-.2.2-.5.4-.9.5c-.3.2-.8.2-1.2.2c-.6 0-.9-.1-1.2-.5c-.2-.4-.3-.9-.3-1.6v-.5c1.2 0 2.2-.2 3.1-.7c.8-.4 1.2-1.2 1.2-2.4c0-.6-.2-1.1-.5-1.4c-.3-.4-.7-.6-1.3-.6c-.7 0-1.4.3-2 .9c-.6.5-1.1 1.2-1.5 2.1c-.4.9-.6 1.9-.6 2.9c0 2.1.8 3.1 2.4 3.1zm1.1-8.1c.3 0 .5.2.7.4c.2.3.2.6.2 1c0 .5-.1 1-.3 1.3c-.3.3-.6.5-1 .6c-.4.1-.8.1-1.4.2c0-.9.2-1.6.4-2.1c.1-.5.4-.8.6-1c.3-.3.6-.4.8-.4zm12.5 7l-1.7-.3l1.5-9.9l1.8-.4l.2-.7h-5.4l-.2.7l1.8.4l-1.6 9.9l-1.7.4l-.2.7h5.3l.2-.8zm4.4-7.9c-.6 0-1.1.1-1.5.3l-.1.8h.4c.3 0 .5 0 .7.1c.1.1.2.3.2.5v.2c-.02.03-.9 6.8-.9 6.8h1.6l.9-6.4c.3-.3.5-.5.8-.6c.3-.2.6-.2 1-.2c.4 0 .7.1.8.3c.2.2.3.5.3.9c0 .3-.1.6-.1.9l-.5 3.2c-.1.3-.1.6-.1.8c0 .4.1.8.4 1c.2.2.5.3 1 .3c.3 0 .6-.1.8-.1c.3-.1.5-.2.6-.2l.1-.8c-.3 0-.5 0-.7-.1c-.1 0-.3 0-.4-.2c-.1-.1-.1-.2-.1-.5c0-.4 0-1 .2-2l.3-2.2c.1-.4.1-.7.1-1c0-1.2-.5-1.8-1.6-1.8c-.6 0-1.1.2-1.6.5c-.5.4-.9.7-1.2 1.2h-.1c0-.3.1-.5.1-.6c0-.4-.2-.7-.4-.8c-.2-.2-.6-.3-1-.3zm8.3 10.7c.2-.1.3-.5.4-.9c.2-.5.4-1.3.6-2.4c.01.02 1.1-6.2 1.1-6.2h1.7l.2-.8s-1.79-.04-1.8 0c.1-.9.2-1.6.3-2.1c.2-.5.3-.8.5-1c.1-.3.3-.4.6-.4c.2 0 .4.1.6.1c.2.1.3.2.4.3c.1.1.3.3.4.5l.2.2c.3-.1.5-.3.7-.4c.1-.2.2-.4.2-.6c0-.8-.5-1.1-1.6-1.1c-.5 0-1 .1-1.5.5c-.6.3-1 .8-1.4 1.5c-.4.6-.7 1.4-.9 2.3c.03.02-1.5.4-1.5.4l-.1.6h1.4s-1.08 6.57-1.1 6.6c-.2.9-.4 1.6-.5 2c-.1.3-.2.7-.4.9h1.5zm11.6-7c0-.6-.1-1.2-.3-1.8c-.2-.6-.5-1-.9-1.4c-.5-.3-1-.5-1.6-.5c-.8 0-1.6.3-2.2.8c-.7.5-1.2 1.1-1.6 1.9c-.4.9-.6 1.7-.6 2.7c0 .6.1 1.3.3 1.8c.2.6.5 1 1 1.3c.4.3.9.5 1.5.5c.8 0 1.6-.3 2.3-.8c.6-.5 1.2-1.1 1.5-2c.4-.8.6-1.6.6-2.5zm-3.8 4.1c-.3 0-.6-.1-.9-.3c-.3-.2-.5-.5-.7-1c-.1-.4-.2-.9-.2-1.5c0-.9.1-1.5.3-2.1c.1-.6.4-1 .7-1.3c.3-.3.6-.4 1-.4c.7 0 1.2.3 1.5.8c.3.6.5 1.3.5 2.1c0 1.2-.2 2.1-.6 2.7c-.4.7-.9 1-1.6 1zm5.9-1.2c0-.2.1-.4.3-.5c.1-.2.3-.3.5-.4h.5c.5 0 1-.1 1.5-.4c.5-.3 1-.7 1.3-1.2c.3-.4.5-1 .5-1.5c0-.6-.1-.9-.2-1.1v-.1l1.2.4h.1l.5-1.2l-.2-.2l-1.9.2c-.4-.4-.9-.6-1.6-.6c-.6 0-1.1.1-1.7.5c-.5.3-1 .8-1.3 1.3c-.3.6-.5 1.1-.5 1.8c0 .2 0 .5.2.8c.1.2.2.5.4.7c.1.2.3.3.4.3l.1.1c-.3.1-.6.2-.8.4c-.3.2-.5.4-.7.6c-.2.2-.3.4-.3.6c0 .4.1.6.2.8c.2.2.4.3.6.4v.1c-.3.1-.6.2-.9.4c-.3.2-.6.5-.8.8c-.2.2-.3.5-.3.9c0 .6.3 1.1.9 1.4c.6.3 1.3.5 2.2.5c.7 0 1.4-.1 2.1-.4c.8-.3 1.3-.6 1.8-1.1c.4-.4.7-.9.7-1.5c0-.6-.2-1.1-.5-1.4c-.3-.3-.6-.6-1.1-.7c-.5-.1-1-.2-1.7-.2c-.4 0-.7 0-.9-.1c-.2 0-.3 0-.4-.1c-.1-.1-.2-.2-.2-.3zm2.2-5.9c.3 0 .6.2.7.5c.1.3.2.6.2 1.1c0 .4 0 .9-.2 1.3c-.1.4-.2.7-.5 1c-.2.3-.5.4-.9.4c-.3 0-.6-.1-.7-.4c-.2-.4-.3-.7-.3-1.2c0-.4 0-.8.2-1.2c.1-.4.3-.8.6-1.1c.2-.2.6-.4.9-.4zm.9 9.3c0 .3-.1.5-.3.8c-.2.2-.5.4-.9.5c-.3.1-.7.2-1.2.2c-.3 0-.7-.1-1-.2c-.4-.1-.7-.3-.9-.5c-.2-.3-.3-.5-.3-.8c0-.2.1-.5.2-.7c.2-.2.4-.3.6-.5l.6-.3c.7 0 1.3 0 1.7.1c.5 0 .8.2 1.1.4c.3.2.4.6.4 1zm5.7-6.2c.3-.5.5-.9.9-1.3c.3-.4.7-.6 1-.6c.2 0 .4 0 .5.1c.1 0 .3.1.4.2c.2-.1.3-.3.4-.6c.1-.2.1-.4.1-.6c0-.3 0-.5-.2-.7c-.2-.2-.4-.3-.7-.3c-.3 0-.6.2-.9.4c-.3.3-.6.7-.8 1.1c-.2.4-.4.9-.6 1.3h-.1s.24-1.11.2-1.1c.1-.3.1-.5.1-.6c0-.4-.1-.6-.3-.8c-.2-.2-.6-.3-1.1-.3c-.5 0-1 .1-1.5.3c.05.03 0 .8 0 .8h.4c.3 0 .5 0 .6.1c.2.1.2.3.2.5v.2c.04.03-.9 6.8-.9 6.8h1.7s.63-4.92.6-4.9zm10.2-3.2c-.3-.3-.9-.5-2-.5c-.7 0-1.5.2-2.2.7c-.8.5-1.5 1.2-2 2.1c-.5.9-.7 2-.7 3.2c0 .5 0 1.1.2 1.5c.2.4.4.8.7 1c.3.2.6.3 1 .3c.5 0 .9-.1 1.4-.4c.4-.3.7-.6.9-1h.2c-.1.1-.1.2-.1.3c0 .4.1.6.3.8c.3.2.6.3 1 .3c.4 0 .9-.1 1.4-.3c.05-.01.2-.7.2-.7l-.7-.1c-.2 0-.3-.1-.4-.2c-.1-.1-.1-.3-.1-.6c0-.4.1-1 .2-2l.7-4.4zm-2.5 6.2c-.3.3-.5.5-.8.7c-.2.1-.5.2-.9.2c-.4 0-.7-.2-.9-.5c-.2-.3-.3-.9-.3-1.6c0-.7.1-1.4.4-2.1c.2-.7.5-1.3.9-1.7c.3-.5.8-.7 1.3-.7c.5 0 .9.1 1.1.4c.04-.05-.8 5.3-.8 5.3c0 0 0-.02 0 0zm6.6-4.4c.3-.4.6-.6.8-.7c.3-.2.6-.2 1-.2c.2 0 .5.1.7.3c.2.2.4.5.5.8c.2.4.2.9.2 1.4c0 .9-.1 1.6-.4 2.2c-.2.6-.6 1-.9 1.3c-.4.2-.8.4-1.1.4c-.4 0-.6 0-.8-.1c-.1 0-.3-.1-.5-.2l-.2 1.2c.2.1.5.1.8.1c.8 0 1.6-.2 2.3-.8c.7-.5 1.3-1.1 1.8-2c.5-.8.7-1.7.7-2.7c0-.7-.1-1.3-.3-1.8c-.2-.5-.5-.9-.9-1.1c-.3-.3-.7-.5-1.1-.5c-.4 0-.7.1-1.1.3c-.3.2-.6.4-.8.6c-.3.3-.5.5-.7.8h-.1c.1-.3.1-.5.1-.6c0-.3-.1-.5-.3-.7c-.2-.1-.5-.2-1-.2c-.5 0-1 .1-1.5.3c.01.05-.1.8-.1.8c0 0 .43.02.4 0c.3 0 .5.1.7.1c.1.1.2.3.2.5v.2l-1.5 10.2h1.6s1.45-9.92 1.5-9.9zm8.5-.1c.3-.3.6-.5.9-.6c.3-.2.6-.2 1-.2c.8 0 1.1.4 1.1 1.2c0 .3 0 .6-.1.9l-.5 3.2v.8c0 .5.1.8.3 1c.2.2.6.3 1.1.3c.2 0 .5 0 .7-.1c.3 0 .5-.1.7-.2v-.8h-.6c-.2 0-.3-.1-.4-.2c-.1-.1-.2-.3-.2-.5c0-.4.1-1.1.2-2.1l.4-2.2c0-.4.1-.7.1-1c0-.6-.2-1-.5-1.3c-.3-.3-.7-.5-1.2-.5c-.6 0-1.1.2-1.6.5c-.5.4-.9.7-1.3 1.2h-.1l.3-1.2s.42-2.74.4-2.7c.1-.4.1-.6.1-.8c0-.4-.1-.6-.3-.8c-.2-.2-.5-.3-1-.3c-.6 0-1.1.1-1.5.3l-.1.8s.41-.03.4 0c.3 0 .5 0 .7.1c.1.1.2.2.2.5v.2c-.02 0-1.7 10.9-1.7 10.9h1.6s.95-6.43.9-6.4zm7.8-5.1c0 .3.1.6.4.8c.2.2.4.3.7.3c.3 0 .6-.1.8-.3c.2-.2.4-.5.4-.8c0-.3-.1-.5-.3-.8c-.3-.2-.5-.3-.8-.3c-.2 0-.4.1-.6.2c-.2.1-.3.2-.4.4c-.1.2-.2.4-.2.5zm-1.1 4c.3 0 .5 0 .6.1c.2.1.3.2.3.5c0 0 0 .1-.1.2l-.6 4.8c-.1.3-.1.6-.1.8c0 .5.1.8.3 1c.2.2.6.3 1.1.3c.3 0 .5 0 .8-.1c.2 0 .4-.1.6-.2l.1-.8h-.7c-.2 0-.3-.1-.4-.2c-.1-.1-.2-.3-.2-.5c0-.2 0-.5.1-.8c0-.3.1-.7.1-1.3l.5-3v-.8c0-.3 0-.6-.2-.8c-.2-.2-.6-.3-1-.3c-.6 0-1.1.1-1.5.3c-.04.01-.1.8-.1.8c0 0 .38-.02.4 0zm7.6 6.5c-.6 0-1.1-.2-1.4-.7c-.4-.4-.5-1.1-.5-2c0-.6.1-1.2.2-1.8c.2-.6.4-1.1.8-1.6c.3-.4.7-.6 1.3-.6c.2 0 .4.1.6.2c.2.2.3.3.4.6c.1.2.2.4.3.8c.4 0 .7-.1.9-.3c.3-.2.4-.4.4-.7c0-.5-.2-.8-.5-1.1c-.3-.3-.8-.4-1.3-.4c-.8 0-1.6.2-2.3.7c-.8.5-1.4 1.2-1.8 2.1c-.5.8-.7 1.8-.7 2.8c0 .7.1 1.3.4 1.8c.2.5.5.9 1 1.1c.4.3.9.4 1.5.4c.6 0 1.1-.2 1.7-.4c.5-.3 1-.6 1.3-1l-.2-.6c-.8.5-1.4.7-2.1.7z" stroke="none" fill="#000"/></g><g id="Polygon18078"><path d="m7.5 25.5h11.3v3.3h-15V1.3h3.7v24.2zm29.3-15.3h3.5v18.6h-3.5s.04-3.28 0-3.3c-1.2 2.3-3.8 3.8-6.8 3.8c-4.9 0-9.2-4.1-9.2-9.8c0-5.5 4.1-9.8 9.4-9.8c2.8 0 5.4 1.2 6.6 3.4c.04-.02 0-2.9 0-2.9zm0 9.3c0-3.9-3.2-6.5-6.3-6.5c-3.4 0-6.1 3-6.1 6.5c0 3.5 2.7 6.5 6.1 6.5c3.3 0 6.3-2.7 6.3-6.5zm24.3-9.3h3.5v18.6h-3.5s.02-3.28 0-3.3c-1.2 2.3-3.8 3.8-6.8 3.8c-4.9 0-9.2-4.1-9.2-9.8c0-5.5 4.1-9.8 9.3-9.8c2.8 0 5.5 1.2 6.7 3.4c.02-.02 0-2.9 0-2.9zm0 9.3c0-3.9-3.2-6.5-6.3-6.5c-3.4 0-6.2 3-6.2 6.5c0 3.5 2.8 6.5 6.2 6.5c3.3 0 6.3-2.7 6.3-6.5zm24.3-9.3h3.5s.02 16.04 0 16c0 8.9-4 12.2-10.1 12.2c-3.4 0-6.6-1.7-8.4-5l2.9-1.6c1.2 2.2 3.4 3.3 5.5 3.3c4.1 0 6.6-2.3 6.6-8.6v-.6c-1.2 2.1-3.9 3.4-6.6 3.4c-5.1 0-9.4-3.9-9.4-9.8c0-5.9 4.2-9.8 9.4-9.8c2.8 0 5.4 1.2 6.6 3.4c.04-.02 0-2.9 0-2.9zm0 9.2c0-4-3.2-6.4-6.3-6.4c-3.4 0-6.1 2.7-6.1 6.4c0 3.8 2.7 6.6 6.1 6.6c3.3 0 6.3-2.6 6.3-6.6zm24.4-9.2h3.4s.04 16.04 0 16c0 8.9-4 12.2-10.1 12.2c-3.4 0-6.6-1.7-8.4-5l2.9-1.6c1.2 2.2 3.4 3.3 5.5 3.3c4.1 0 6.7-2.3 6.7-8.6v-.6c-1.3 2.1-4 3.4-6.7 3.4c-5.1 0-9.3-3.9-9.3-9.8c0-5.9 4.2-9.8 9.3-9.8c2.8 0 5.4 1.2 6.7 3.4c-.04-.02 0-2.9 0-2.9zm0 9.2c0-4-3.3-6.4-6.4-6.4c-3.4 0-6.1 2.7-6.1 6.4c0 3.8 2.7 6.6 6.1 6.6c3.4 0 6.4-2.6 6.4-6.6zm27.1 1.6h-15.2c.5 3.3 2.9 5 6.1 5c2.3 0 4.4-1 5.4-2.9l3 1.2c-1.6 3.3-4.9 5-8.5 5c-5.3 0-9.6-3.9-9.6-9.9c0-5.9 4.3-9.7 9.6-9.7c5.3 0 9.3 3.8 9.3 9.7c0 .6-.1 1.1-.1 1.6zm-3.4-3c-.5-3.2-2.7-5-5.8-5c-3.2 0-5.4 1.6-6 5h11.8zm8.2 10.8V0h3.5v28.8h-3.5zm27.1-7.8h-15.2c.5 3.3 2.9 5 6.1 5c2.3 0 4.4-1 5.5-2.9l3 1.2c-1.6 3.3-5 5-8.6 5c-5.3 0-9.6-3.9-9.6-9.9c0-5.9 4.3-9.7 9.6-9.7c5.3 0 9.3 3.8 9.3 9.7c0 .6-.1 1.1-.1 1.6zm-3.4-3c-.4-3.2-2.7-5-5.8-5c-3.2 0-5.4 1.6-6 5h11.8zm16.9-7.8v3h-4v15.6h-3.5V13.2h-3.4v-3h3.4V3.1h3.5v7.1h4zm12.9 0v3h-4.1v15.6h-3.5V13.2h-3.3v-3h3.3V3.1h3.5v7.1h4.1zm21 10.8H201c.5 3.3 2.9 5 6.1 5c2.3 0 4.4-1 5.5-2.9l3 1.2c-1.6 3.3-5 5-8.6 5c-5.3 0-9.6-3.9-9.6-9.9c0-5.9 4.3-9.7 9.6-9.7c5.3 0 9.3 3.8 9.3 9.7c0 .6-.1 1.1-.1 1.6zm-3.4-3c-.4-3.2-2.7-5-5.8-5c-3.2 0-5.4 1.6-6 5h11.8zm20.2-7.6l-.5 3.3c-1-.5-2-.7-2.7-.7c-3.8 0-5.2 4.1-5.2 9c-.04 0 0 6.8 0 6.8H221V10.2h3.6s-.04 4.2 0 4.2c.9-3.3 2.7-4.7 5.2-4.7c1.3 0 2.7.3 3.2.7zM250.6 0h3.5v28.8h-3.5s.04-2.88 0-2.9c-1.2 2.1-3.9 3.4-6.6 3.4c-5.1 0-9.4-3.9-9.4-9.8c0-5.9 4.2-9.8 9.4-9.8c2.8 0 5.4 1.2 6.6 3.4c.04-.02 0-13.1 0-13.1zm0 19.4c0-4-3.2-6.4-6.3-6.4c-3.4 0-6.1 2.7-6.1 6.4c0 3.8 2.7 6.6 6.1 6.6c3.3 0 6.3-2.6 6.3-6.6zm26.8-1.4v10.8h-3.5s.02-10.56 0-10.6c0-3.1-1.9-5.1-4.5-5.1c-2.6 0-5.7 1.6-5.7 5.6c-.02.02 0 10.1 0 10.1h-3.5V0h3.5s-.02 13 0 13c1.1-2.3 4.1-3.3 6.2-3.3c4.6 0 7.5 3.1 7.5 8.3zm23.4 3h-15.2c.5 3.3 2.9 5 6.1 5c2.3 0 4.3-1 5.4-2.9l3 1.2c-1.6 3.3-4.9 5-8.5 5c-5.4 0-9.6-3.9-9.6-9.9c0-5.9 4.2-9.7 9.6-9.7c5.3 0 9.2 3.8 9.2 9.7v1.6zm-3.4-3c-.5-3.2-2.8-5-5.8-5c-3.2 0-5.4 1.6-6 5h11.8zm7.5-14.7c0-1.3 1.1-2.3 2.4-2.3c1.4 0 2.5 1 2.5 2.3c0 1.3-1.1 2.3-2.5 2.3c-1.3 0-2.4-1-2.4-2.3zm.7 25.5V10.2h3.5v18.6h-3.5zM329.9 0h3.5v28.8h-3.5s-.02-2.88 0-2.9c-1.3 2.1-4 3.4-6.7 3.4c-5.1 0-9.3-3.9-9.3-9.8c0-5.9 4.2-9.8 9.3-9.8c2.8 0 5.4 1.2 6.7 3.4c-.02-.02 0-13.1 0-13.1zm0 19.4c0-4-3.3-6.4-6.4-6.4c-3.4 0-6.1 2.7-6.1 6.4c0 3.8 2.7 6.6 6.1 6.6c3.4 0 6.4-2.6 6.4-6.6z" stroke="none" fill="#000"/></g></svg>