<?xml version="1.0" standalone="no"?><!DOCTYPE svg PUBLIC "-//W3C//DTD SVG 1.1//EN" "http://www.w3.org/Graphics/SVG/1.1/DTD/svg11.dtd"><svg xmlns="http://www.w3.org/2000/svg" version="1.1" width="92.4px" height="68.2px" viewBox="0 -9 92.4 68.2" style="top:-9px"><desc>Over</desc><defs/><g id="Polygon19167"><path d="m1.8 22.2C1.8 14.4 7.9 8 15.8 8c7.8 0 14 6.4 14 14.2c0 7.8-6.2 14.3-14 14.3c-7.9 0-14-6.5-14-14.3zm23.1 0c0-5.2-3.9-9.7-9.2-9.7c-5.2 0-9 4.5-9 9.7c0 5.3 3.8 9.7 9 9.7c5.3 0 9.2-4.4 9.2-9.7zm21.8-4.9h5.1L43.9 36h-4.3l-7.8-18.7h5l5 12.8l4.9-12.8zm25.7 11H58c.5 2.6 2.5 4 5.3 4c2 0 3.9-.9 5-2.4l3.1 2.3c-1.7 2.8-5 4.3-8.4 4.3c-5.6 0-9.8-4-9.8-9.9c0-5.9 4.4-9.8 9.8-9.8c5.3 0 9.5 3.8 9.5 9.7c0 .5 0 1.1-.1 1.8zM67.9 25c-.3-2.5-2.3-4-4.9-4c-2.4 0-4.5 1.2-5 4h9.9zm21.9-7.5l-.9 4.4c-1.1-.6-2-.7-2.7-.7c-3 0-4.7 3-4.7 8.3c-.02-.02 0 6.5 0 6.5h-4.7V17.3h4.6s.04 4.02 0 4c1-3.1 3.1-4.5 5.4-4.5c1.1 0 2.3.3 3 .7z" stroke="none" fill="#000"/></g></svg>