<?xml version="1.0" standalone="no"?><!DOCTYPE svg PUBLIC "-//W3C//DTD SVG 1.1//EN" "http://www.w3.org/Graphics/SVG/1.1/DTD/svg11.dtd"><svg xmlns="http://www.w3.org/2000/svg" version="1.1" width="820px" height="132.3px" viewBox="0 -30 820 132.3" style="top:-30px"><desc>Visual Research Studio</desc><defs/><g id="Polygon17373"><path d="m34.8 2.6h7.4L25.7 57.7h-7L2.1 2.6h7.4l12.7 42.9L34.8 2.6zm14.2 4c0-2.7 2.3-4.7 4.9-4.7c2.7 0 5 2 5 4.7c0 2.6-2.3 4.6-5 4.6c-2.6 0-4.9-2-4.9-4.6zm1.5 51.1V20.3h6.9v37.4h-6.9zm16.1-11h6.4c.1 3.2 2.9 5.9 7.5 5.9c4.7 0 7.5-2.4 7.5-5.4c0-2.8-2.2-4.2-5.1-4.9l-5.1-1.2c-6.3-1.7-9.9-4.7-9.9-10.7c0-6.2 5.3-11 12.8-11c6.3 0 12.9 3.3 12.9 10.8h-6.7c-.1-2.8-3.1-4.8-6-4.8c-3.6 0-6 2.4-6 5.2c0 2.6 2.4 4 4.8 4.5l5.5 1.4C93 38.4 95 43 95 47.3c0 6.9-6.8 11.3-14.5 11.3c-6.7 0-13.6-4.2-13.9-11.9zm64.7-26.4h6.9v37.4h-6.9s-.02-5.86 0-5.9c-2.3 4.8-8.3 6.8-12.4 6.8c-9.4 0-15.1-6.2-15.1-16.7c.04.02 0-21.6 0-21.6h7v21.5c0 6.3 3.8 10.3 9 10.3c5.2 0 11.4-3.1 11.5-11.2c-.02-.02 0-20.6 0-20.6zm48.5 0h6.9v37.4h-6.9s-.04-6.66 0-6.7c-2.5 4.5-7.7 7.6-13.7 7.6c-9.8 0-18.3-8.2-18.3-19.6c0-11.1 8-19.6 18.6-19.6c5.6 0 10.9 2.4 13.4 6.8c-.04-.04 0-5.9 0-5.9zm0 18.7c0-7.7-6.5-13.1-12.8-13.1c-6.8 0-12.2 6-12.2 13.1c0 7.1 5.4 13.1 12.3 13.1c6.7 0 12.7-5.5 12.7-13.1zm19.1 18.7V0h6.9v57.7h-6.9zm69.7 0l-14.4-20.8H247v20.8h-7.2V2.6s20.68-.04 20.7 0c12 0 16.6 8.6 16.6 17.2c0 8-4.5 16.4-14.4 17.2c.02-.04 14.7 20.7 14.7 20.7h-8.8zM247 9.3v20.9s11.56.04 11.6 0c8 0 11.2-4.2 11.2-10.4c0-6.2-3.6-10.5-9.2-10.5c.04-.02-13.6 0-13.6 0zM321.3 42h-30.4c1 6.6 5.8 10.1 12.2 10.1c4.6 0 8.7-2.1 10.9-5.9l6 2.4c-3.2 6.5-9.9 10-17.1 10c-10.7 0-19.2-7.9-19.2-19.7c0-11.9 8.5-19.5 19.2-19.5c10.6 0 18.5 7.6 18.5 19.5c0 1 0 2.1-.1 3.1zm-6.8-6c-.9-6.4-5.5-10.1-11.6-10.1c-6.3 0-10.8 3.4-11.9 10.1h23.5zM328 46.7h6.5c.1 3.2 2.9 5.9 7.4 5.9c4.7 0 7.5-2.4 7.5-5.4c0-2.8-2.1-4.2-5.1-4.9l-5.1-1.2c-6.2-1.7-9.8-4.7-9.8-10.7c0-6.2 5.2-11 12.8-11c6.3 0 12.8 3.3 12.8 10.8h-6.7c-.1-2.8-3-4.8-6-4.8c-3.6 0-6 2.4-6 5.2c0 2.6 2.4 4 4.8 4.5l5.5 1.4c7.8 1.9 9.8 6.5 9.8 10.8c0 6.9-6.7 11.3-14.5 11.3c-6.7 0-13.6-4.2-13.9-11.9zm72.9-4.7h-30.4c1 6.6 5.8 10.1 12.2 10.1c4.6 0 8.7-2.1 10.9-5.9l6 2.4c-3.2 6.5-9.9 10-17.1 10c-10.7 0-19.2-7.9-19.2-19.7c0-11.9 8.5-19.5 19.2-19.5c10.6 0 18.5 7.6 18.5 19.5c0 1 0 2.1-.1 3.1zm-6.8-6c-.9-6.4-5.5-10.1-11.6-10.1c-6.3 0-10.8 3.4-11.9 10.1h23.5zM440 20.3h7v37.4h-7V51c-2.5 4.5-7.7 7.6-13.7 7.6c-9.7 0-18.3-8.2-18.3-19.6c0-11.1 8.1-19.6 18.6-19.6c5.6 0 10.9 2.4 13.4 6.8v-5.9zm0 18.7c0-7.7-6.5-13.1-12.7-13.1c-6.8 0-12.3 6-12.3 13.1c0 7.1 5.5 13.1 12.4 13.1c6.6 0 12.6-5.5 12.6-13.1zm43.1-18.2l-1.1 6.6c-2-1-4-1.3-5.4-1.3c-7.5 0-10.4 8.1-10.4 17.9c-.04 0 0 13.7 0 13.7h-7.1V20.3h7.1s-.04 8.5 0 8.5c1.9-6.6 5.5-9.4 10.4-9.4c2.7 0 5.4.7 6.5 1.4zm3.1 18.2c0-11.9 9.3-19.6 20-19.6c5.9 0 11 2.3 14.3 5.9l-4.4 4.5c-2.3-2.4-5.7-3.9-9.6-3.9c-7.4 0-13.3 5.4-13.3 13.1c0 7.6 5.9 13.1 13.3 13.1c3.9 0 7.3-1.5 9.6-3.9l4.4 4.5c-3.3 3.7-8.4 5.9-14.3 5.9c-10.7 0-20-7.8-20-19.6zm77.5-2.9c-.02-.02 0 21.6 0 21.6h-7s.02-21.22 0-21.2c0-6.3-3.8-10.3-9-10.3c-5.2 0-11.5 3.2-11.5 11.2c.04.04 0 20.3 0 20.3h-6.9V0h6.9s.04 26 0 26c2.3-4.6 8.4-6.6 12.4-6.6c9.3 0 15.2 6.2 15.1 16.7zm29.8 6h7.2c.3 4.9 4.9 9.8 12.3 9.8c7.1 0 11.1-4.6 11.1-9.5c0-5.4-4.9-7.8-9.5-9l-7.2-1.7c-11.6-2.8-13.5-9.7-13.5-14.2c0-9.5 8.6-15.9 18.2-15.9c9.7 0 17.4 6.2 17.4 16h-7.2c0-5.5-4.5-9.3-10.5-9.3c-5.5 0-10.6 3.7-10.6 9.1c0 2 .6 5.8 8 7.7l7.2 1.9c9.4 2.5 15 7.3 15 15.2c0 8.5-7 16.4-18.4 16.4c-11.6 0-19.4-8-19.5-16.5zm64.9-21.8v6h-8.1v31.4h-6.9V26.3h-6.8v-6h6.8V6.2h6.9v14.1h8.1zm34.7 0h7v37.4h-7v-5.9c-2.2 4.8-8.2 6.8-12.4 6.8c-9.3 0-15.1-6.2-15-16.7c-.03.02 0-21.6 0-21.6h6.9s.03 21.46 0 21.5c0 6.3 3.8 10.3 9 10.3c5.2 0 11.4-3.1 11.5-11.2V20.3zM741.7 0h6.9v57.7h-6.9s-.03-5.86 0-5.9c-2.5 4.3-7.9 6.8-13.3 6.8c-10.2 0-18.7-7.9-18.7-19.6c0-11.9 8.4-19.6 18.6-19.6c5.6 0 10.9 2.4 13.4 6.8c-.03-.04 0-26.2 0-26.2zm0 38.9c0-8.1-6.6-13-12.7-13c-6.8 0-12.3 5.5-12.3 13c0 7.4 5.5 13.2 12.3 13.2c6.7 0 12.7-5.2 12.7-13.2zm17.7-32.3c0-2.7 2.2-4.7 4.8-4.7c2.8 0 5 2 5 4.7c0 2.6-2.2 4.6-5 4.6c-2.6 0-4.8-2-4.8-4.6zm1.4 51.1V20.3h7v37.4h-7zM777.3 39c0-11.9 8.9-19.6 19.5-19.6c10.6 0 19.6 7.7 19.6 19.6c0 11.8-9 19.6-19.6 19.6c-10.6 0-19.5-7.8-19.5-19.6zm32.1 0c0-7.7-5.7-13.1-12.6-13.1c-6.8 0-12.5 5.4-12.5 13.1c0 7.7 5.7 13.1 12.5 13.1c6.9 0 12.6-5.4 12.6-13.1z" stroke="none" fill="#000"/></g></svg>